<?xml version="1.0" encoding="UTF-8"?>
<svg xmlns="http://www.w3.org/2000/svg" xmlns:xlink="http://www.w3.org/1999/xlink" version="1.2" >
<font id="Ride Bold Italic">
<font-face  font-family="Ride" units-per-em="2048" ascent="2412" descent="-607" font-style="italic" font-weight="700" font-stretch="normal" cap-height="1456" x-height="1026" underline-position="0" underline-thickness="0" />
<missing-glyph  horiz-adv-x="748" d="M68 0 L235 1365 L779 1365 L612 0 L68 0 Z M144 68 L552 68 L703 1297 L295 1297 L144 68 Z " />
<glyph glyph-name="uni000D" unicode="&#xd;" horiz-adv-x="599" d="" />
<glyph glyph-name="space" unicode="&#x20;" horiz-adv-x="601" d="" />
<glyph glyph-name="exclam" unicode="&#x21;" horiz-adv-x="688" d="M272 387 L329 1456 L624 1456 L419 387 L272 387 Z M173 0 L206 271 L458 271 L425 0 L173 0 Z " />
<glyph glyph-name="quotedbl" unicode="&#x22;" horiz-adv-x="703" d="M535 957 L543 1456 L781 1456 L669 957 L535 957 Z M192 957 L200 1456 L439 1456 L327 957 L192 957 Z " />
<glyph glyph-name="numbersign" unicode="&#x23;" horiz-adv-x="1465" d="M634 608 L864 608 L948 870 L718 870 L634 608 Z M194 -10 L340 449 L104 449 L132 608 L391 608 L475 870 L208 870 L237 1028 L527 1028 L665 1462 L908 1462 L770 1028 L1000 1028 L1139 1462 L1382 1462 L1244 1028 L1465 1028 L1438 870 L1191 870 L1107 608 L1359 608 L1333 449 L1057 449 L910 -10 L667 -10 L814 449 L584 449 L437 -10 L194 -10 Z " />
<glyph glyph-name="dollar" unicode="&#x24;" horiz-adv-x="1238" d="M692 1259 Q602 1247 546 1207 Q490 1167 481 1098 Q472 1020 502 978 Q533 937 647 893 L692 1259 Z M662 198 Q858 222 879 396 Q884 435 881.5 459 Q879 483 862 509 Q846 535 810.5 557 Q775 579 712 603 L662 198 Z M535 -22 Q394 -16 277 27 Q157 71 92 143 L222 325 Q251 299 290.5 277.5 Q330 256 379 237 Q476 201 561 195 L616 637 L536 663 L501 676 Q331 743 259 836 Q190 930 209 1087 Q231 1268 372 1370 Q511 1473 719 1482 L737 1626 L837 1626 L819 1482 Q902 1480 965.5 1469 Q1029 1458 1075 1439 Q1166 1402 1247 1315 L1096 1147 Q993 1259 793 1264 L743 859 Q800 840 834 827.5 Q868 815 882 810 Q967 775 1023.5 734 Q1080 693 1110 647 Q1169 555 1149 391 Q1136 288 1089.5 210 Q1043 132 971 84 Q829 -9 635 -21 L611 -219 L511 -219 L535 -22 Z " />
<glyph glyph-name="percent" unicode="&#x25;" horiz-adv-x="1899" d="M1391 -20 Q1224 -20 1137 87 Q1049 195 1070 359 Q1089 520 1204 630 Q1319 740 1483 740 Q1648 740 1737 630 Q1826 520 1806 359 Q1785 192 1671 86 Q1558 -20 1391 -20 Z M1409 136 Q1488 136 1534 189 Q1580 242 1595 359 Q1609 471 1577.5 527 Q1546 583 1464 583 Q1383 583 1338.5 528.5 Q1294 474 1280 360 Q1266 242 1298 189 Q1330 136 1409 136 Z M346 0 L1455 1456 L1658 1456 L549 0 L346 0 Z M512 715 Q341 715 256 815 Q169 916 191 1094 Q212 1269 324 1371 Q434 1474 605 1474 Q774 1474 861 1371 Q948 1268 927 1094 Q904 915 794 815 Q682 715 512 715 Z M531 871 Q610 871 656 923.5 Q702 976 716 1093 Q730 1207 699 1262.5 Q668 1318 586 1318 Q504 1318 460 1263 Q416 1208 402 1094 Q388 977 420 924 Q452 871 531 871 Z " />
<glyph glyph-name="ampersand" unicode="&#x26;" horiz-adv-x="1587" d="M689 960 Q768 1006 814 1052 Q860 1098 867 1153 Q871 1182 863.5 1203 Q856 1224 841 1238 Q826 1252 804.5 1259 Q783 1266 758 1266 Q701 1266 664 1238 Q627 1210 620 1150 Q608 1055 689 960 Z M611 186 Q768 186 923 314 L612 698 Q559 670 517.5 641 Q476 612 445 579 Q414 546 395.5 507.5 Q377 469 371 423 Q359 320 427 253 Q494 186 611 186 Z M584 -28 Q359 -28 229 93 Q98 215 124 422 Q143 575 251 683 Q278 710 304.5 732.5 Q331 755 360 775.5 Q389 796 421.5 815.5 Q454 835 492 856 Q421 944 393 1009 Q366 1073 375 1155 Q395 1305 506 1387 Q619 1470 772 1470 Q842 1470 907.5 1451.5 Q973 1433 1021 1395 Q1069 1357 1094 1299 Q1119 1241 1109 1163 Q1085 969 818 809 L1076 483 Q1138 579 1177 693 Q1216 807 1233 944 L1455 895 Q1439 743 1372 582 Q1339 502 1300 433 Q1261 364 1214 304 Q1247 264 1282 235 Q1317 206 1362 184 Q1385 173 1401.5 165.5 Q1418 158 1429 153 L1505 127 L1326 -19 Q1229 -2 1177 32 Q1124 68 1053 155 Q832 -28 584 -28 Z " />
<glyph glyph-name="quotesingle" unicode="&#x27;" horiz-adv-x="484" d="M241 910 L269 1456 L527 1456 L423 910 L241 910 Z " />
<glyph glyph-name="parenleft" unicode="&#x28;" horiz-adv-x="689" d="M345 -171 Q291 -71 252 32 Q213 135 186 244 Q134 461 159 665 Q185 871 280 1082 Q375 1293 543 1516 L785 1516 Q707 1413 643 1307 Q579 1201 530 1090 Q433 870 407 663 Q384 475 431 253 Q477 32 578 -171 L345 -171 Z " />
<glyph glyph-name="parenright" unicode="&#x29;" horiz-adv-x="689" d="M-12 -191 Q66 -88 129 18 Q192 124 241 235 Q290 346 321 452.5 Q352 559 365 663 Q388 852 340 1073 Q316 1185 280 1290 Q244 1395 194 1496 L428 1496 Q481 1397 520 1293.5 Q559 1190 585 1081 Q637 865 613 660 Q562 252 229 -191 L-12 -191 Z " />
<glyph glyph-name="asterisk" unicode="&#x2a;" horiz-adv-x="1054" d="M713 644 L574 892 L374 643 L207 770 L453 1002 L187 1110 L295 1289 L522 1164 L528 1456 L763 1456 L693 1164 L957 1289 L1017 1110 L724 1002 L911 771 L713 644 Z " />
<glyph glyph-name="plus" unicode="&#x2b;" horiz-adv-x="1268" d="M485 77 L533 470 L154 470 L180 676 L562 676 L610 1071 L841 1071 L793 676 L1173 676 L1147 470 L766 470 L718 77 L485 77 Z " />
<glyph glyph-name="comma" unicode="&#x2c;" horiz-adv-x="545" d="M-14 -219 L156 268 L434 268 L196 -219 L-14 -219 Z " />
<glyph glyph-name="hyphen" unicode="&#x2d;" horiz-adv-x="741" d="M70 457 L93 647 L725 647 L702 457 L70 457 Z " />
<glyph glyph-name="period" unicode="&#x2e;" horiz-adv-x="539" d="M115 0 L148 271 L400 271 L367 0 L115 0 Z " />
<glyph glyph-name="slash" unicode="&#x2f;" horiz-adv-x="684" d="M-150 -237 L702 1456 L922 1456 L64 -237 L-150 -237 Z " />
<glyph glyph-name="zero" unicode="0" horiz-adv-x="1272" d="M593 -23 Q349 -23 240 184 Q132 392 174 741 Q218 1094 374 1288 Q531 1483 780 1483 Q1024 1483 1132 1284 Q1241 1084 1198 741 Q1184 626 1157.5 526.5 Q1131 427 1092 341 Q1013 170 886 74 Q759 -23 593 -23 Z M623 194 Q873 194 939 740 Q966 951 930 1102 Q912 1180 868.5 1223 Q825 1266 756 1266 Q684 1266 627 1223 Q570 1180 533 1102 Q495 1026 471.5 936.5 Q448 847 434 739 Q419 615 420.5 520 Q422 425 440 349 Q460 274 505.5 234 Q551 194 623 194 Z " />
<glyph glyph-name="one" unicode="1" horiz-adv-x="1272" d="M253 0 L277 202 L534 202 L657 1198 Q507 1131 352 1084 L380 1314 Q457 1337 541 1372.5 Q625 1408 717 1456 L942 1456 L788 198 L1050 198 L1026 0 L253 0 Z " />
<glyph glyph-name="two" unicode="2" horiz-adv-x="1272" d="M741 1481 Q941 1481 1048 1359 Q1155 1237 1127 1008 Q1124 984 1119.5 960.5 Q1115 937 1107 914 Q1100 891 1093 871.5 Q1086 852 1077.5 833.5 Q1069 815 1058.5 796.5 Q1048 778 1033 757 Q1019 737 1007.5 720.5 Q996 704 986 691 Q977 678 963 662.5 Q949 647 929 627 Q910 607 896.5 593 Q883 579 873 570 L812 513 L485 208 L1018 208 L993 0 L149 0 L171 183 L649 651 L729 729 Q740 740 754 756 Q768 772 787 792 Q805 813 818 829.5 Q831 846 838 859 Q852 884 866 920 Q880 956 885 995 Q887 1009 887.5 1029 Q888 1049 887 1075 Q885 1132 869 1168.5 Q853 1205 827 1227 Q801 1249 766.5 1257.5 Q732 1266 693 1266 Q655 1266 615 1258.5 Q575 1251 536.5 1239.5 Q498 1228 462.5 1213.5 Q427 1199 398 1185 Q369 1171 348 1159.5 Q327 1148 318 1142 L310 1138 L250 1337 L274 1352 Q282 1357 299 1365.5 Q316 1374 342 1387 Q368 1400 394.5 1410.5 Q421 1421 447 1431 Q501 1450 582 1465 Q662 1481 741 1481 Z " />
<glyph glyph-name="three" unicode="3" horiz-adv-x="1272" d="M579 -23 Q492 -23 421.5 -11 Q351 1 296.5 20 Q242 39 202.5 60.5 Q163 82 139 100 L239 291 Q240 290 266.5 274.5 Q293 259 337 241 Q381 223 439 208.5 Q497 194 562 194 Q698 194 777 255 Q856 316 870 424 Q877 481 857 523.5 Q837 566 793 594.5 Q749 623 682.5 637 Q616 651 529 651 L431 649 L458 864 L530 864 Q627 864 696 876 Q765 888 810 915 Q855 942 879 986.5 Q903 1031 911 1097 Q916 1137 898.5 1168.5 Q881 1200 849 1222 Q817 1244 774 1255 Q731 1266 684 1266 Q639 1266 598.5 1258.5 Q558 1251 519 1237 Q480 1223 442 1203.5 Q404 1184 364 1160 L273 1343 Q339 1383 391.5 1410 Q444 1437 495.5 1453.5 Q547 1470 606 1476.5 Q665 1483 745 1483 Q836 1483 917.5 1459 Q999 1435 1058.5 1387.5 Q1118 1340 1148.5 1268.5 Q1179 1197 1167 1103 Q1161 1050 1139 995 Q1117 940 1079 892.5 Q1041 845 984.5 810.5 Q928 776 853 765 Q923 752 975.5 719.5 Q1028 687 1062 640.5 Q1096 594 1110 535.5 Q1124 477 1116 413 Q1104 311 1055 230.5 Q1006 150 933 93.5 Q860 37 768.5 7 Q677 -23 579 -23 Z " />
<glyph glyph-name="four" unicode="4" horiz-adv-x="1272" d="M759 580 L827 1134 Q813 1117 712 979 Q611 841 420 580 L759 580 Z M684 0 L730 381 L113 381 L136 570 L829 1456 L1115 1456 L1008 580 L1237 580 L1212 381 L988 381 L942 0 L684 0 Z " />
<glyph glyph-name="five" unicode="5" horiz-adv-x="1272" d="M579 -23 Q452 -23 337 28 Q220 81 142 177 L299 367 Q358 282 438 238 Q518 194 600 194 Q713 194 799 267 Q887 341 903 475 Q916 580 872 658 Q830 735 742 735 Q620 735 567 670 L318 704 L410 1456 L1219 1456 L1193 1239 L608 1239 L550 866 Q632 960 820 960 Q986 960 1087 819 Q1190 679 1164 471 Q1149 347 1092.5 254.5 Q1036 162 954.5 100 Q873 38 774.5 7.5 Q676 -23 579 -23 Z " />
<glyph glyph-name="six" unicode="6" horiz-adv-x="1272" d="M663 194 Q772 194 848 273 Q925 351 940 473 Q955 596 904 675 Q856 754 747 754 Q628 754 546 674 Q466 594 451 469 Q443 406 458.5 353 Q474 300 506 266 Q538 232 578 213 Q618 194 663 194 Z M644 -23 Q467 -23 358 68 Q247 159 208.5 319.5 Q170 480 197 698 Q217 862 273 1002.5 Q329 1143 414 1251 Q501 1360 621 1421.5 Q741 1483 882 1483 Q1112 1483 1236 1353 L1128 1164 Q1011 1266 857 1266 Q720 1266 615 1136 Q509 1004 478 810 Q603 962 787 962 Q1004 962 1115 830 Q1228 701 1201 476 Q1174 258 1021 117 Q866 -23 644 -23 Z " />
<glyph glyph-name="seven" unicode="7" horiz-adv-x="1272" d="M273 0 L977 1248 L258 1248 L283 1456 L1296 1456 L1272 1262 L545 0 L273 0 Z " />
<glyph glyph-name="eight" unicode="8" horiz-adv-x="1274" d="M699 858 Q802 887 864 947 Q926 1007 937 1095 Q946 1171 892 1215 Q836 1260 747 1260 Q650 1260 588.5 1215.5 Q527 1171 516 1083 Q506 1002 554 943 Q602 884 699 858 Z M619 199 Q731 199 801 251.5 Q871 304 884 413 Q894 498 836 573 Q777 649 683 674 Q572 650 496 578 Q420 505 408 409 Q395 307 451.5 253 Q508 199 619 199 Z M596 -23 Q453 -23 347 25 Q294 49 253 85.5 Q212 122 186 169 Q160 216 149.5 273 Q139 330 147 395 Q162 516 238.5 611.5 Q315 707 439 764 Q237 888 262 1099 Q284 1277 426 1380 Q568 1483 774 1483 Q992 1483 1104 1377 Q1216 1272 1194 1088 Q1167 866 939 761 Q990 735 1028 696 Q1066 657 1095 605 Q1152 504 1138 387 Q1123 260 1041 164 Q1000 116 950 81 Q900 46 843 23 Q786 0 724 -11.5 Q662 -23 596 -23 Z " />
<glyph glyph-name="nine" unicode="9" horiz-adv-x="1272" d="M650 728 Q766 728 848 802 Q930 875 947 1016 Q960 1121 902 1193 Q845 1266 735 1266 Q619 1266 540 1191 Q462 1117 447 996 Q432 877 483 802 Q536 728 650 728 Z M514 -26 Q344 -26 150 77 L267 283 Q387 196 521 196 Q657 196 763 295 Q817 346 854 430.5 Q891 515 905 629 L908 655 Q800 517 599 517 Q386 517 275 648 Q164 778 190 991 Q217 1205 371 1344 Q523 1483 751 1483 Q995 1483 1106 1301 Q1218 1118 1175 771 Q1147 538 1059 358 Q974 181 831 76 Q690 -26 514 -26 Z " />
<glyph glyph-name="colon" unicode="&#x3a;" horiz-adv-x="536" d="M187 756 L221 1027 L473 1027 L439 756 L187 756 Z M95 0 L128 271 L380 271 L347 0 L95 0 Z " />
<glyph glyph-name="semicolon" unicode="&#x3b;" horiz-adv-x="539" d="M231 756 L265 1027 L517 1027 L483 756 L231 756 Z M-2 -229 L166 268 L446 268 L207 -229 L-2 -229 Z " />
<glyph glyph-name="less" unicode="&#x3c;" horiz-adv-x="1416" d="M1161 36 L170 509 L184 624 L1297 1115 L1270 888 L505 569 L1188 259 L1161 36 Z " />
<glyph glyph-name="equal" unicode="&#x3d;" horiz-adv-x="1479" d="M258 667 L283 868 L1326 868 L1301 667 L258 667 Z M208 261 L232 461 L1278 461 L1254 261 L208 261 Z " />
<glyph glyph-name="greater" unicode="&#x3e;" horiz-adv-x="1418" d="M178 39 L207 272 L964 573 L289 897 L316 1123 L1305 624 L1290 500 L178 39 Z " />
<glyph glyph-name="question" unicode="&#x3f;" horiz-adv-x="1018" d="M311 411 L328 548 Q336 613 368.5 667 Q401 721 445.5 768 Q490 815 541 857 Q592 899 636 940.5 Q680 982 711 1025 Q742 1068 748 1117 Q757 1195 706.5 1231.5 Q656 1268 563 1268 Q483 1268 395 1246 Q351 1235 315.5 1224 Q280 1213 253 1202 L279 1413 Q423 1485 613 1485 Q731 1485 824 1446 Q917 1409 968 1324 Q1019 1241 1006 1124 Q1000 1076 982 1035 Q964 994 937 957.5 Q910 921 877 889 Q844 857 808 829 Q761 790 712.5 752.5 Q664 715 623 673 Q582 631 553.5 583 Q525 535 518 476 L510 411 L311 411 Z M235 0 L268 271 L520 271 L487 0 L235 0 Z " />
<glyph glyph-name="at" unicode="&#x40;" horiz-adv-x="1814" d="M871 448 Q921 447 967 478.5 Q1013 510 1050 562 Q1087 614 1111.5 681 Q1136 748 1144 817 Q1152 883 1123 917 Q1094 951 1037 951 Q966 951 903 894 Q842 837 806.5 757.5 Q771 678 760 593 Q756 560 762.5 533.5 Q769 507 783.5 488 Q798 469 820.5 458.5 Q843 448 871 448 Z M890 -101 Q711 -101 564.5 -47.5 Q418 6 318 105 Q218 204 172 347.5 Q126 491 147 665 Q159 758 187 844.5 Q215 931 257 1007.5 Q299 1084 354 1149.5 Q409 1215 474 1266 Q605 1369 767.5 1426 Q930 1483 1108 1483 Q1265 1483 1394.5 1432.5 Q1524 1382 1612 1291 Q1700 1200 1741.5 1072 Q1783 944 1765 793 Q1749 666 1686 542 Q1624 419 1528 336 Q1433 254 1333 254 Q1229 254 1175 315 Q1121 377 1131 464 Q1111 418 1081 379.5 Q1051 341 1011 313.5 Q971 286 921.5 271 Q872 256 814 256 Q753 256 696.5 279 Q640 302 595 347 Q550 392 528.5 464.5 Q507 537 518 628 Q525 685 541.5 737 Q558 789 586 838 Q641 936 717 1000 Q794 1064 876 1100 Q958 1136 1030 1136 Q1187 1136 1220 1022 L1252 1118 L1470 1118 L1323 644 Q1306 593 1296.5 552.5 Q1287 512 1282 480 L1281 466 Q1279 450 1280.5 435 Q1282 420 1287 406 Q1299 377 1327 377 Q1357 377 1398 407.5 Q1439 438 1481 490 Q1502 516 1521.5 550.5 Q1541 585 1557.5 624.5 Q1574 664 1586 708.5 Q1598 753 1603 798 Q1617 904 1595 992 Q1573 1080 1525 1140 Q1489 1186 1441.5 1220 Q1394 1254 1339 1276 Q1284 1298 1223 1309 Q1162 1320 1098 1320 Q958 1320 835 1280 Q712 1240 609 1161 Q506 1083 438.5 956.5 Q371 830 351 665 Q336 544 360 443 Q384 342 439 270 Q480 217 534 176.5 Q588 136 651.5 109 Q715 82 785.5 68.5 Q856 55 930 56 Q1170 56 1419 188 L1485 70 Q1219 -101 890 -101 Z " />
<glyph glyph-name="A" unicode="A" horiz-adv-x="1440" d="M966 592 Q892 932 843 1159 Q754 970 576 592 L966 592 Z M-8 0 L755 1456 L1013 1456 L1425 0 L1138 0 L1040 355 L452 355 L271 0 L-8 0 Z " />
<glyph glyph-name="B" unicode="B" horiz-adv-x="1367" d="M508 852 L725 852 Q776 852 820 861.5 Q864 871 905 893 Q947 915 973.5 954.5 Q1000 994 1008 1051 Q1020 1159 951 1198 Q881 1238 720 1238 L556 1238 L508 852 Z M433 217 L662 217 Q969 217 994 422 Q1011 550 947 598 Q885 646 709 646 L486 646 L433 217 Z M150 0 L328 1456 L731 1456 Q794 1456 844 1453 Q869 1452 897 1449.5 Q925 1447 957 1442 Q1020 1434 1068 1418 Q1115 1403 1161 1375 Q1207 1347 1235 1308 Q1264 1270 1277 1212.5 Q1290 1155 1281 1083 Q1255 866 1050 772 Q1177 737 1229 640 Q1282 543 1266 411 Q1255 327 1213.5 255 Q1172 183 1101 125 Q1029 67 921.5 33.5 Q814 0 681 0 L150 0 Z " />
<glyph glyph-name="C" unicode="C" horiz-adv-x="1436" d="M792 -22 Q647 -22 523.5 27 Q400 76 309 169 Q218 261 175 405 Q133 552 155 727 Q173 876 228.5 1000.5 Q284 1125 364 1213 Q424 1280 495 1331 Q566 1382 642.5 1416 Q719 1450 799 1467 Q879 1484 957 1483 Q1244 1483 1423 1326 L1303 1149 Q1151 1264 951 1264 Q857 1264 769 1227 Q681 1190 609 1123 Q537 1056 486.5 954.5 Q436 853 421 730 Q391 489 510 343 Q629 197 836 197 Q1055 197 1256 344 L1316 143 Q1085 -22 792 -22 Z " />
<glyph glyph-name="D" unicode="D" horiz-adv-x="1571" d="M150 0 L328 1456 L734 1456 Q953 1456 1110 1409 Q1267 1362 1364.5 1270.5 Q1462 1179 1499 1045 Q1536 911 1515 737 Q1493 557 1422.5 419 Q1352 281 1236 188 Q1120 95 959.5 47.5 Q799 0 597 0 L150 0 Z M430 218 L636 218 Q902 218 1058 349.5 Q1214 481 1246 738 Q1276 981 1149.5 1109.5 Q1023 1238 731 1238 L556 1238 L430 218 Z " />
<glyph glyph-name="E" unicode="E" horiz-adv-x="1200" d="M150 0 L328 1456 L1247 1456 L1221 1238 L556 1238 L508 849 L1137 849 L1110 630 L484 630 L433 218 L1124 218 L1098 0 L150 0 Z " />
<glyph glyph-name="F" unicode="F" horiz-adv-x="1145" d="M150 0 L328 1456 L1217 1456 L1191 1238 L556 1238 L507 841 L1105 841 L1078 622 L480 622 L404 0 L150 0 Z " />
<glyph glyph-name="G" unicode="G" horiz-adv-x="1538" d="M808 -23 Q448 -23 279 173 Q110 368 151 704 Q166 830 212 944.5 Q258 1059 334 1158 Q389 1231 461 1290.5 Q533 1350 619.5 1393 Q706 1436 806.5 1459.5 Q907 1483 1019 1483 Q1122 1483 1204.5 1468.5 Q1287 1454 1344 1427 Q1403 1399 1427 1382 Q1454 1366 1486 1338 L1362 1160 Q1231 1264 993 1264 Q866 1264 760.5 1217 Q655 1170 585 1091 Q516 1012 473 916.5 Q430 821 417 715 Q403 601 422 505.5 Q441 410 493.5 340.5 Q546 271 634 232.5 Q722 194 846 194 Q966 194 1100 232 L1142 576 L802 576 L829 793 L1427 793 L1340 88 Q1077 -23 808 -23 Z " />
<glyph glyph-name="H" unicode="H" horiz-adv-x="1515" d="M150 0 L328 1456 L582 1456 L509 857 L1192 857 L1265 1456 L1519 1456 L1341 0 L1092 0 L1170 637 L487 637 L409 0 L150 0 Z " />
<glyph glyph-name="I" unicode="I" horiz-adv-x="586" d="M120 0 L298 1456 L552 1456 L374 0 L120 0 Z " />
<glyph glyph-name="J" unicode="J" horiz-adv-x="1232" d="M374 401 Q372 360 389 322.5 Q406 285 435.5 256.5 Q465 228 504.5 211 Q544 194 587 194 Q655 194 709 224 Q763 254 802.5 307.5 Q842 361 867 433 Q892 505 903 589 L1009 1456 L1263 1456 L1158 598 Q1141 463 1104 349.5 Q1067 236 998 153 Q929 70 822.5 23.5 Q716 -23 562 -23 Q470 -23 392.5 4.5 Q315 32 258 81.5 Q201 131 168 200 Q135 269 132 353 L374 401 Z " />
<glyph glyph-name="K" unicode="K" horiz-adv-x="1351" d="M150 0 L328 1456 L582 1456 L504 820 L1143 1456 L1460 1456 L743 753 L1331 0 L1001 0 L486 651 L407 0 L150 0 Z " />
<glyph glyph-name="L" unicode="L" horiz-adv-x="1173" d="M150 0 L328 1456 L582 1456 L430 218 L1104 218 L1078 0 L150 0 Z " />
<glyph glyph-name="M" unicode="M" horiz-adv-x="1963" d="M150 0 L328 1456 L626 1456 L785 967 Q854 756 907 596.5 Q960 437 997 326 Q1045 410 1095.5 497 Q1146 584 1198 676 Q1251 769 1310 875 Q1369 981 1438 1103 Q1507 1225 1556 1313 Q1605 1401 1637 1456 L1935 1456 L1757 0 L1519 0 L1646 1040 Q1613 982 1463.5 722.5 Q1314 463 1050 0 L863 0 Q843 57 817 137.5 Q791 218 756 323 Q722 428 691 522.5 Q660 617 631 703.5 Q602 790 574.5 869 Q547 948 520 1023 L395 0 L150 0 Z " />
<glyph glyph-name="N" unicode="N" horiz-adv-x="1604" d="M150 0 L328 1456 L597 1456 L1205 384 L1336 1456 L1578 1456 L1400 0 L1130 0 Q854 484 700.5 752.5 Q547 1021 516 1074 L385 0 L150 0 Z " />
<glyph glyph-name="O" unicode="O" horiz-adv-x="1650" d="M797 -23 Q455 -23 284 182 Q112 388 156 735 Q176 905 242 1040 Q308 1175 419 1278 Q642 1483 985 1483 Q1316 1483 1485 1278 Q1656 1076 1615 735 Q1571 386 1354 182 Q1136 -23 797 -23 Z M817 194 Q928 194 1017.5 229.5 Q1107 265 1173 334 Q1239 403 1281 504 Q1323 605 1339 735 Q1369 986 1271 1126 Q1172 1266 953 1266 Q731 1266 596 1126 Q460 987 430 735 Q398 474 495.5 334 Q593 194 817 194 Z " />
<glyph glyph-name="P" unicode="P" horiz-adv-x="1280" d="M507 845 L725 845 Q798 845 850 853 Q902 861 947 881 Q1037 923 1051 1039 Q1055 1071 1053 1097 Q1051 1123 1045 1142 Q1039 1162 1023.5 1177 Q1008 1192 995 1201 Q989 1206 978.5 1210 Q968 1214 955.5 1217.5 Q943 1221 930.5 1223 Q918 1225 909 1227 Q901 1229 887 1230 Q873 1231 854 1232 Q835 1233 820 1233.5 Q805 1234 794 1234 Q783 1235 766 1235 Q749 1235 726 1235 L555 1235 L507 845 Z M150 0 L328 1456 L743 1456 Q780 1456 811.5 1455.5 Q843 1455 869 1454 Q924 1452 984 1445 Q1046 1439 1089.5 1426 Q1133 1413 1176 1392 Q1221 1372 1248.5 1341 Q1276 1310 1296 1268 Q1317 1226 1322 1169.5 Q1327 1113 1318 1041 Q1290 809 1127 715 Q1046 669 944 648.5 Q842 628 703 628 L481 628 L404 0 L150 0 Z " />
<glyph glyph-name="Q" unicode="Q" horiz-adv-x="1662" d="M817 194 Q928 194 1017.5 229.5 Q1107 265 1173 334 Q1239 403 1281 504 Q1323 605 1339 735 Q1369 986 1271 1126 Q1172 1266 953 1266 Q731 1266 596 1126 Q460 987 430 735 Q398 474 495.5 334 Q593 194 817 194 Z M1120 -390 Q1097 -361 1068.5 -320.5 Q1040 -280 1005 -226 Q970 -172 941 -121 Q912 -70 888 -19 Q868 -21 845.5 -22 Q823 -23 797 -23 Q455 -23 284 182 Q112 388 156 735 Q176 905 242 1040 Q308 1175 419 1278 Q642 1483 985 1483 Q1316 1483 1485 1278 Q1656 1076 1615 735 Q1583 477 1453 294 Q1323 111 1113 32 Q1190 -124 1323 -297 L1166 -447 L1120 -390 Z " />
<glyph glyph-name="R" unicode="R" horiz-adv-x="1382" d="M503 831 L746 831 Q1018 831 1043 1042 Q1058 1156 1005 1197 Q953 1238 823 1238 L553 1238 L503 831 Z M150 0 L328 1456 L853 1456 Q973 1456 1058.5 1438 Q1144 1420 1209 1376 Q1342 1290 1313 1054 Q1298 930 1213 836 Q1128 742 978 709 Q1099 635 1143 481 L1281 0 L1006 0 L892 433 Q863 541 820 578 Q777 616 680 616 L479 616 L404 0 L150 0 Z " />
<glyph glyph-name="S" unicode="S" horiz-adv-x="1246" d="M580 -23 Q505 -23 434.5 -12 Q364 -1 296 21 Q163 64 92 143 L222 325 Q286 270 395 232 Q506 194 590 194 Q726 194 796 243.5 Q866 293 879 396 Q882 416 882.5 431.5 Q883 447 881 460.5 Q879 474 874 486 Q869 498 860 511 Q843 538 804 560.5 Q765 583 698 608 Q684 613 659.5 621.5 Q635 630 600 641 Q566 652 541.5 661 Q517 670 501 676 Q331 743 259 836 Q190 930 209 1087 Q224 1215 303 1306 Q383 1397 499.5 1440 Q616 1483 761 1483 Q954 1483 1059 1445 Q1111 1426 1157.5 1393.5 Q1204 1361 1247 1315 L1096 1147 Q988 1264 770 1264 Q651 1264 571 1223 Q492 1183 481 1098 Q476 1059 479.5 1030.5 Q483 1002 502.5 978 Q522 954 561.5 932 Q601 910 668 885 Q680 880 705 871.5 Q730 863 768 850 Q806 837 834.5 827.5 Q863 818 882 810 Q967 775 1023.5 734 Q1080 693 1110 647 Q1169 555 1149 391 Q1135 282 1082.5 200 Q1030 118 949 70 Q868 22 776.5 -0.5 Q685 -23 580 -23 Z " />
<glyph glyph-name="T" unicode="T" horiz-adv-x="1181" d="M430 0 L582 1238 L133 1238 L159 1456 L1318 1456 L1292 1238 L836 1238 L684 0 L430 0 Z " />
<glyph glyph-name="U" unicode="U" horiz-adv-x="1509" d="M712 -23 Q571 -23 470 11 Q369 45 310 100 Q281 128 259.5 162 Q238 196 223 238 Q193 321 188.5 407 Q184 493 197 599 L302 1456 L556 1456 L450 588 Q436 472 452.5 396 Q469 320 508.5 275 Q548 230 607 212 Q666 194 737 194 Q813 194 873.5 213 Q934 232 987 275 Q1041 320 1075 398.5 Q1109 477 1123 589 L1229 1456 L1483 1456 L1378 598 Q1372 545 1363 498.5 Q1354 452 1341 408.5 Q1328 365 1309.5 323.5 Q1291 282 1266 240 Q1215 156 1146 101 Q1075 44 965 10.5 Q855 -23 712 -23 Z " />
<glyph glyph-name="V" unicode="V" horiz-adv-x="1412" d="M550 0 L174 1456 L459 1456 Q467 1425 494 1305 Q521 1185 570 973 Q618 761 656 602 Q694 443 722 333 L1266 1456 L1533 1456 L802 0 L550 0 Z " />
<glyph glyph-name="W" unicode="W" horiz-adv-x="2125" d="M417 0 L179 1456 L449 1456 L501 1100 Q519 974 534 866 Q549 758 562 665 Q575 572 586.5 483 Q598 394 609 306 Q644 395 680.5 485 Q717 575 757 668 Q796 762 843 869.5 Q890 977 945 1102 Q1000 1227 1039 1315 Q1078 1403 1100 1456 L1342 1456 L1502 642 L1560 301 Q1592 389 1624.5 479 Q1657 569 1692 663 L1854 1098 L1989 1456 L2251 1456 L1667 0 L1376 0 L1171 1105 L704 0 L417 0 Z " />
<glyph glyph-name="X" unicode="X" horiz-adv-x="1434" d="M9 0 L634 736 L225 1456 L542 1456 L820 952 L1241 1456 L1536 1456 L941 747 L1368 0 L1052 0 L754 532 L313 0 L9 0 Z " />
<glyph glyph-name="Y" unicode="Y" horiz-adv-x="1333" d="M518 0 L587 563 L177 1456 L466 1456 L745 789 L1185 1456 L1481 1456 L841 564 L772 0 L518 0 Z " />
<glyph glyph-name="Z" unicode="Z" horiz-adv-x="1224" d="M53 0 L69 136 L894 1238 L231 1238 L257 1456 L1271 1456 L1255 1324 L426 218 L1118 218 L1092 0 L53 0 Z " />
<glyph glyph-name="bracketleft" unicode="&#x5b;" horiz-adv-x="620" d="M80 -158 L284 1502 L705 1502 L682 1312 L513 1312 L355 32 L525 32 L502 -158 L80 -158 Z " />
<glyph glyph-name="backslash" unicode="&#x5c;" horiz-adv-x="650" d="M477 -112 L-35 1456 L239 1456 L744 -112 L477 -112 Z " />
<glyph glyph-name="bracketright" unicode="&#x5d;" horiz-adv-x="620" d="M31 -158 L54 32 L218 32 L376 1312 L213 1312 L236 1502 L652 1502 L448 -158 L31 -158 Z " />
<glyph glyph-name="asciicircum" unicode="&#x5e;" horiz-adv-x="1559" d="M208 532 L834 1456 L995 1456 L1401 532 L1150 532 L877 1173 L463 532 L208 532 Z " />
<glyph glyph-name="underscore" unicode="&#x5f;" horiz-adv-x="1012" d="M-85 -254 L-61 -59 L977 -59 L953 -254 L-85 -254 Z " />
<glyph glyph-name="grave" unicode="&#x60;" horiz-adv-x="610" d="M439 1166 L123 1455 L441 1455 L668 1166 L439 1166 Z " />
<glyph glyph-name="a" unicode="a" horiz-adv-x="1291" d="M625 177 Q770 177 845 268 Q923 359 941 513 Q951 591 941.5 654 Q932 717 902.5 760.5 Q873 804 823 827.5 Q773 851 703 851 Q564 851 480 760 Q395 669 377 515 Q357 360 420 269 Q482 177 625 177 Z M570 -23 Q444 -23 351 22 Q258 67 207 142 Q156 217 136.5 308.5 Q117 400 129 502 Q143 610 186.5 706 Q230 802 301 880 Q373 959 479 1005.5 Q585 1052 714 1052 Q899 1052 983 917 L996 1026 L1239 1026 L1114 0 L865 0 L882 140 Q749 -23 570 -23 Z " />
<glyph glyph-name="b" unicode="b" horiz-adv-x="1258" d="M639 177 Q710 177 764 205 Q818 233 856 279.5 Q894 326 916 386 Q938 446 946 511 Q964 659 910 755 Q856 851 730 851 Q598 851 510 754 Q420 657 404 515 Q392 425 412 349 Q422 312 442 280.5 Q462 249 491 226 Q520 203 557 190 Q594 177 639 177 Z M661 -23 Q560 -23 478 21 Q400 66 370 127 L355 0 L101 0 L132 196 Q135 215 137 227.5 Q139 240 140 248 Q141 256 141.5 261.5 Q142 267 143 272 L288 1457 L534 1457 L464 882 Q472 900 494.5 926 Q517 952 557 981 Q598 1011 664 1031.5 Q730 1052 806 1052 Q1023 1052 1128 903 Q1235 754 1206 518 Q1199 459 1182 403.5 Q1165 348 1140.5 298 Q1116 248 1084.5 204.5 Q1053 161 1016 126 Q942 56 850 16.5 Q758 -23 661 -23 Z " />
<glyph glyph-name="c" unicode="c" horiz-adv-x="1050" d="M580 -23 Q454 -23 356.5 21 Q259 65 202 140 Q145 215 120.5 311.5 Q96 408 110 514 Q128 665 205 787 Q284 910 414 980 Q546 1052 709 1052 Q950 1052 1064 914 L955 754 Q855 852 710 852 Q564 852 475 760 Q386 669 366 513 Q348 362 420 269 Q491 177 635 177 Q687 177 729.5 187.5 Q772 198 806 215 Q822 223 831 227.5 Q840 232 854 241 L873 253 Q876 254 881 257.5 Q886 261 891 264.5 Q896 268 900 271 Q904 274 904 274 L957 92 Q910 62 865 40.5 Q820 19 774 4.5 Q728 -10 680 -16.5 Q632 -23 580 -23 Z " />
<glyph glyph-name="d" unicode="d" horiz-adv-x="1246" d="M587 177 Q657 177 709.5 205 Q762 233 798.5 280 Q835 327 856.5 387 Q878 447 886 512 Q905 661 851 756 Q798 851 668 851 Q582 851 515 804 Q449 756 415 684 Q381 612 370 516 Q362 450 368.5 388.5 Q375 327 400 280 Q425 233 470.5 205 Q516 177 587 177 Z M512 -23 Q313 -23 196 123 Q79 270 109 508 Q123 617 165.5 714 Q208 811 275 887 Q344 963 444.5 1007.5 Q545 1052 663 1052 Q768 1052 836 1008 Q906 964 928 918 L994 1457 L1240 1457 L1095 274 Q1095 271 1088.5 203 Q1082 135 1071 0 L817 0 L831 131 Q819 108 795 84 Q771 60 733 34 Q695 9 637 -7 Q579 -23 512 -23 Z " />
<glyph glyph-name="e" unicode="e" horiz-adv-x="1131" d="M900 636 Q895 745 839 803 Q783 861 692 861 Q584 861 505.5 801.5 Q427 742 390 636 L900 636 Z M602 -23 Q343 -23 211 125 Q80 273 109 512 Q123 621 170.5 717.5 Q218 814 293 889 Q368 964 473.5 1008 Q579 1052 702 1052 Q825 1052 909.5 1010 Q994 968 1039 892 Q1084 817 1097.5 723.5 Q1111 630 1097 515 Q1095 501 1092.5 490 Q1090 479 1086 471 L366 471 Q360 396 377 340.5 Q394 285 430.5 249 Q467 213 522.5 195 Q578 177 649 177 Q815 177 987 287 L1032 107 Q927 40 824.5 8.5 Q722 -23 602 -23 Z " />
<glyph glyph-name="f" unicode="f" horiz-adv-x="820" d="M221 0 L326 860 L135 860 L155 1026 L346 1026 L351 1066 Q360 1134 369 1182 Q373 1205 379 1229 Q385 1253 393 1276 Q401 1299 410.5 1319 Q420 1339 431 1354 Q454 1384 488.5 1411.5 Q523 1439 571 1453 Q619 1468 684.5 1476.5 Q750 1485 835 1485 L888 1485 L855 1292 Q826 1292 803.5 1291.5 Q781 1291 764 1290 Q731 1288 701 1278.5 Q671 1269 657 1256 Q642 1244 630 1215 Q624 1201 619.5 1187 Q615 1173 611.5 1155.5 Q608 1138 605 1117 Q602 1096 599 1069 L593 1026 L824 1026 L804 860 L573 860 L468 0 L221 0 Z " />
<glyph glyph-name="g" unicode="g" horiz-adv-x="1235" d="M608 187 Q684 187 737 216.5 Q790 246 824 293 Q858 340 876.5 398.5 Q895 457 902 516 Q920 666 869 758 Q818 851 693 851 Q607 851 540 802 Q474 754 438 680 Q402 606 391 515 Q382 438 390 377 Q398 316 424.5 274 Q451 232 496.5 209.5 Q542 187 608 187 Z M486 -418 Q285 -418 105 -348 L174 -134 Q315 -212 493 -212 Q637 -212 726 -150.5 Q815 -89 830 35 L840 122 Q738 0 569 0 Q340 0 222 139 Q101 280 131 515 Q144 624 184.5 718 Q225 812 292 888 Q358 964 458 1008 Q558 1052 679 1052 Q775 1052 841 1014 Q907 976 939 916 L952 1026 L1215 1026 Q1196 950 1180.5 864.5 Q1165 779 1153 682 L1088 147 Q1018 -418 486 -418 Z " />
<glyph glyph-name="h" unicode="h" horiz-adv-x="1173" d="M104 0 L282 1457 L530 1457 L461 893 Q508 965 605 1008 Q705 1052 788 1052 Q898 1052 966 1016 Q1034 980 1070 921 Q1095 881 1107 840 Q1119 799 1122 748 Q1127 697 1125.5 656.5 Q1124 616 1119 571 L1049 0 L801 0 L872 579 Q889 724 852 787.5 Q815 851 725 851 Q624 851 530 780 Q439 709 427 618 L352 0 L104 0 Z " />
<glyph glyph-name="i" unicode="i" horiz-adv-x="524" d="M254 1238 L280 1456 L520 1456 L494 1238 L254 1238 Z M103 0 L228 1026 L467 1026 L342 0 L103 0 Z " />
<glyph glyph-name="j" unicode="j" horiz-adv-x="600" d="M334 1228 L362 1456 L608 1456 L580 1228 L334 1228 Z M15 -362 Q-39 -362 -86.5 -354 Q-134 -346 -166 -335 L-117 -165 Q-59 -184 23 -184 Q70 -184 98.5 -168 Q127 -152 143.5 -124.5 Q160 -97 167.5 -60 Q175 -23 180 20 L303 1026 L556 1026 L429 -9 Q417 -104 389.5 -171 Q362 -238 312.5 -280.5 Q263 -323 190 -342.5 Q117 -362 15 -362 Z M-117 -165 L-120 -164 L-117 -164 L-117 -165 Z " />
<glyph glyph-name="k" unicode="k" horiz-adv-x="1076" d="M100 0 L278 1457 L526 1457 L422 607 L844 1026 L1186 1026 L637 530 L1093 0 L765 0 L402 444 L348 0 L100 0 Z " />
<glyph glyph-name="l" unicode="l" horiz-adv-x="526" d="M102 0 L280 1457 L525 1457 L347 0 L102 0 Z " />
<glyph glyph-name="m" unicode="m" horiz-adv-x="1839" d="M120 0 L205 696 Q212 750 216 803.5 Q220 857 222 914 L226 1026 L487 1026 L471 892 Q517 962 601 1007 Q686 1052 778 1052 Q827 1052 871.5 1040 Q916 1028 953 1004 Q990 980 1017.5 944.5 Q1045 909 1061 862 Q1217 1052 1418 1052 Q1605 1052 1686 939 Q1767 826 1743 629 L1666 0 L1418 0 L1493 614 Q1504 697 1482 768 Q1471 806 1443.5 828.5 Q1416 851 1374 851 Q1264 851 1183 767 Q1101 682 1089 581 L1018 0 L770 0 L846 627 Q850 657 850 684.5 Q850 712 844 743 Q835 788 806 819.5 Q777 851 717 851 Q612 851 534 782 Q454 714 444 623 L368 0 L120 0 Z " />
<glyph glyph-name="n" unicode="n" horiz-adv-x="1224" d="M118 0 L195 635 Q209 746 216 841 Q220 890 221.5 925 Q223 960 223 982 L223 1026 L486 1026 L470 889 Q533 970 626 1010 Q719 1052 803 1052 Q893 1052 956 1029 Q1019 1006 1064 952 Q1110 900 1126 808.5 Q1142 717 1125 585 L1054 0 L806 0 L879 602 Q897 737 860 794 Q825 851 727 851 Q692 851 646 835.5 Q600 820 556.5 790 Q513 760 480.5 715.5 Q448 671 441 614 L366 0 L118 0 Z " />
<glyph glyph-name="o" unicode="o" horiz-adv-x="1195" d="M563 -23 Q428 -23 329 20 Q230 63 173 138 Q119 213 97 308.5 Q75 404 88 513 Q102 625 147.5 720.5 Q193 816 268 891 Q343 966 452.5 1009 Q562 1052 694 1052 Q829 1052 927 1009.5 Q1025 967 1079 892 Q1133 817 1152.5 721.5 Q1172 626 1158 511 Q1145 403 1100.5 309 Q1056 215 983 140 Q910 65 802 21 Q694 -23 563 -23 Z M582 177 Q657 177 713.5 205 Q770 233 809 280 Q848 327 870.5 388.5 Q893 450 901 516 Q919 664 860 757 Q803 851 666 851 Q595 851 539 824 Q483 797 442.5 751.5 Q402 706 378 645.5 Q354 585 347 516 Q335 424 352 349 Q361 312 380 280.5 Q399 249 428 226 Q457 203 495.5 190 Q534 177 582 177 Z " />
<glyph glyph-name="p" unicode="p" horiz-adv-x="1258" d="M631 177 Q702 177 755 205 Q808 233 845 279.5 Q882 326 903.5 387 Q925 448 933 514 Q944 609 927 683 Q910 757 855.5 804 Q801 851 713 851 Q627 851 560 804 Q494 758 459.5 685.5 Q425 613 413 519 Q405 452 411.5 390 Q418 328 443.5 281 Q469 234 514.5 205.5 Q560 177 631 177 Z M71 -395 L203 681 Q208 726 214 811.5 Q220 897 226 1026 L489 1026 L471 879 Q490 934 585 993 Q682 1052 810 1052 Q945 1052 1038 977 Q1134 902 1171.5 784 Q1209 666 1192 525 Q1179 419 1136 322 Q1093 225 1027 147 Q960 69 866 23 Q772 -23 664 -23 Q543 -23 465 34 Q387 90 381 141 L315 -395 L71 -395 Z " />
<glyph glyph-name="q" unicode="q" horiz-adv-x="1229" d="M582 177 Q672 177 738 225 Q804 274 838 346 Q872 418 883 511 Q901 660 847 755 Q793 851 663 851 Q577 851 510 804 Q444 756 410 684 Q376 612 365 516 Q357 450 363.5 388.5 Q370 327 395 280 Q420 233 465.5 205 Q511 177 582 177 Z M758 -395 L817 82 Q671 -23 523 -23 Q441 -23 376 -1.5 Q311 20 262 58 Q213 96 179.5 148 Q146 200 127.5 261.5 Q109 323 104 390.5 Q99 458 108 528 Q121 633 164 726.5 Q207 820 276 893 Q345 966 443.5 1009 Q542 1052 657 1052 Q729 1052 799.5 1018.5 Q870 985 921 916 L934 1026 L1187 1026 Q1173 958 1162 884.5 Q1151 811 1141 730 L1003 -395 L758 -395 Z " />
<glyph glyph-name="r" unicode="r" horiz-adv-x="780" d="M122 0 L216 766 Q219 796 221.5 827.5 Q224 859 226 891 Q228 923 228 948.5 Q228 974 228 991 L227 1026 L491 1026 L475 891 Q546 972 611.5 1012 Q677 1052 753 1052 Q797 1052 853 1037 L826 820 Q763 842 705 842 Q600 842 529 775 Q455 707 440 581 L369 0 L122 0 Z " />
<glyph glyph-name="s" unicode="s" horiz-adv-x="988" d="M491 -23 Q356 -23 247 15 Q141 52 79 106 L162 284 Q219 235 311 203 Q403 172 493 172 Q577 172 622 200 Q667 228 675 291 L677 309 Q681 340 659 363 Q635 387 550 415 L410 462 Q383 471 361.5 479 Q340 487 321 495.5 Q302 504 285 513.5 Q268 523 250 535 Q200 569 180.5 619.5 Q161 670 169 753 Q179 831 216.5 890 Q254 949 312 983 Q428 1050 585 1050 Q684 1050 778 1025 Q872 1000 941 951 L856 781 Q801 812 722 835 Q647 857 580 857 Q495 857 454.5 836 Q414 815 408 767 Q406 743 409.5 727.5 Q413 712 429.5 698.5 Q446 685 480.5 670 Q515 655 575 633 L703 588 Q780 560 823 529 Q868 497 890.5 438.5 Q913 380 902 290 Q891 201 849.5 141 Q808 81 750 44.5 Q692 8 623.5 -7.5 Q555 -23 491 -23 Z " />
<glyph glyph-name="t" unicode="t" horiz-adv-x="836" d="M728 1 L628 1 Q567 1 524 4 Q479 7 434.5 17 Q390 27 359 43 Q327 61 302.5 88.5 Q278 116 263.5 155.5 Q249 195 245.5 249.5 Q242 304 251 376 L310 860 L96 860 L116 1026 L340 1026 L370 1266 L616 1339 L577 1026 L845 1026 L825 860 L557 860 L496 361 Q490 313 494 283.5 Q498 254 510 234 Q523 215 557 206 Q591 197 633 194 Q675 191 751 191 L728 1 Z " />
<glyph glyph-name="u" unicode="u" horiz-adv-x="1186" d="M481 -23 Q294 -23 204 83 Q112 190 136 376 L215 1026 L461 1026 L382 380 Q369 278 416 227.5 Q463 177 556 177 Q667 177 727.5 232.5 Q788 288 803 411 L878 1026 L1126 1026 L1034 276 L1013 0 L757 0 L771 152 Q755 106 687 47 Q653 17 598.5 -3 Q544 -23 481 -23 Z " />
<glyph glyph-name="v" unicode="v" horiz-adv-x="1126" d="M409 0 L102 1026 L378 1026 Q467 668 514 481 Q561 294 566 277 Q619 385 708.5 571 Q798 757 926 1026 L1195 1026 L634 0 L409 0 Z " />
<glyph glyph-name="w" unicode="w" horiz-adv-x="1685" d="M348 0 L101 1026 L365 1026 L511 305 Q539 366 621 546 Q703 726 841 1026 L1057 1026 L1101 798 Q1130 650 1153.5 530.5 Q1177 411 1200 303 Q1219 349 1301.5 529.5 Q1384 710 1527 1026 L1758 1026 L1244 0 L1037 0 L889 698 L556 0 L348 0 Z " />
<glyph glyph-name="x" unicode="x" horiz-adv-x="1040" d="M-29 0 L402 500 L113 1026 L389 1026 L570 695 L856 1026 L1112 1026 L690 534 L989 0 L714 0 L523 339 L232 0 L-29 0 Z " />
<glyph glyph-name="y" unicode="y" horiz-adv-x="1114" d="M75 -277 Q220 -224 297 -165 Q375 -108 408 -27 L428 23 L115 1026 L373 1026 L580 290 L926 1026 L1179 1026 L631 -56 Q574 -163 495 -243 Q415 -325 333 -371 Q251 -417 159 -445 L75 -277 Z " />
<glyph glyph-name="z" unicode="z" horiz-adv-x="997" d="M57 0 L73 131 L642 828 L183 828 L207 1026 L988 1026 L973 897 L399 197 L913 197 L889 0 L57 0 Z " />
<glyph glyph-name="braceleft" unicode="&#x7b;" horiz-adv-x="987" d="M675 953 Q642 690 397 683 Q641 680 610 424 L582 198 Q579 174 577.5 154.5 Q576 135 574 121 Q573 93 584 70.5 Q595 48 605 38 Q615 29 654 23 Q674 20 691 18.5 Q708 17 722 16 Q737 15 762.5 15 Q788 15 824 15 L825 15 L801 -180 L792 -180 Q734 -180 686 -178.5 Q638 -177 598 -173 Q520 -167 463 -148.5 Q406 -130 376 -104 Q346 -79 331 -31 Q323 -8 319.5 16 Q316 40 316 68.5 Q316 97 319 130.5 Q322 164 327 206 L355 436 Q367 538 335 572 Q302 606 196 606 L183 606 L201 755 L214 755 Q323 755 363 790 Q403 826 417 933 L445 1164 Q456 1248 469 1301 Q483 1356 510.5 1401 Q538 1446 575 1471 Q613 1497 675 1513 Q706 1522 741 1527.5 Q776 1533 817 1536.5 Q858 1540 906 1541 Q954 1542 1013 1542 L989 1347 L912 1347 Q889 1347 872 1347 Q855 1347 842 1346 Q818 1345 792.5 1339 Q767 1333 754 1323 Q734 1305 720.5 1271 Q707 1237 702 1176 L675 953 Z " />
<glyph glyph-name="bar" unicode="&#x7c;" horiz-adv-x="395" d="M-16 -455 L223 1506 L460 1506 L220 -455 L-16 -455 Z " />
<glyph glyph-name="braceright" unicode="&#x7d;" horiz-adv-x="982" d="M69 14 L146 14 Q169 14 186 14 Q203 14 215 15 Q240 16 266 22 Q292 28 303 38 Q325 56 336.5 89.5 Q348 123 356 185 L384 408 Q416 672 661 679 Q417 680 449 937 L476 1163 Q479 1187 480.5 1206 Q482 1225 484 1239 Q485 1268 474 1290.5 Q463 1313 452 1322 Q444 1332 404 1338 Q384 1341 367.5 1342.5 Q351 1344 335 1345 Q320 1346 294.5 1346 Q269 1346 233 1346 L232 1346 L256 1542 L265 1542 Q323 1542 371.5 1540.5 Q420 1539 458 1535 Q536 1529 593.5 1510 Q651 1491 680 1465 Q711 1440 725 1392 Q733 1369 736.5 1345 Q740 1321 740.5 1292.5 Q741 1264 738 1230.5 Q735 1197 730 1155 L702 925 Q690 823 722 789 Q756 755 862 755 L875 755 L857 606 L844 606 Q734 606 694 570 Q655 535 641 428 L613 197 Q602 114 589 59 Q575 5 547.5 -40 Q520 -85 483 -109 Q445 -135 383 -151 Q351 -160 316.5 -165.5 Q282 -171 241 -174.5 Q200 -178 151.5 -179 Q103 -180 45 -180 L69 14 Z " />
<glyph glyph-name="asciitilde" unicode="&#x7e;" horiz-adv-x="1508" d="M196 441 Q272 627 353 681 Q374 696 393.5 705 Q413 714 433 719.5 Q453 725 474 727 Q495 729 521 729 Q633 729 806 665 Q954 606 1057 606 Q1085 607 1103 610 Q1121 613 1135 627.5 Q1149 642 1162.5 672 Q1176 702 1196 756 L1346 685 Q1299 562 1255 498 Q1208 433 1165 414 Q1120 394 1051 394 Q929 394 722 464 Q583 514 514 514 Q452 514 417 488 Q385 462 340 367 L196 441 Z " />
<glyph glyph-name="uni007F" unicode="&#x7f;" horiz-adv-x="1521" d="M188 0 L366 1456 L1511 1456 L1333 0 L188 0 Z M375 124 L1176 124 L1324 1330 L523 1330 L375 124 Z " />
<glyph glyph-name="uni00A0" unicode="&#xa0;" horiz-adv-x="599" d="" />
<glyph glyph-name="exclamdown" unicode="&#xa1;" horiz-adv-x="786" d="M362 769 L509 769 L452 -300 L157 -300 L362 769 Z M325 886 L359 1157 L611 1157 L577 886 L325 886 Z " />
<glyph glyph-name="cent" unicode="&#xa2;" horiz-adv-x="1076" d="M563 -22 Q446 -15 357 31.5 Q268 78 214 151 Q160 226 139 318.5 Q118 411 131 514 Q158 739 311 889 Q462 1039 695 1051 L719 1250 L857 1250 L832 1045 Q996 1021 1085 914 L976 754 Q904 825 807 845 L726 183 Q764 189 794.5 201 Q825 213 849 226 Q860 231 874 240 Q888 249 893 252 L925 274 L978 92 Q840 3 702 -16 L674 -242 L536 -242 L563 -22 Z M669 847 Q609 838 560.5 810 Q512 782 476.5 739 Q441 696 418.5 639 Q396 582 387 513 Q372 382 423 293 Q476 206 588 183 L669 847 Z " />
<glyph glyph-name="sterling" unicode="&#xa3;" horiz-adv-x="1255" d="M1200 1219 Q1068 1282 947 1282 Q817 1282 746 1205 Q678 1129 655 949 L642 842 L980 842 L956 649 L617 649 L613 618 Q604 540 592.5 477 Q581 414 566.5 363.5 Q552 313 532.5 273.5 Q513 234 488 204 L1163 204 L1138 0 L106 0 L128 186 L164 216 Q195 241 206 252 L244 293 Q257 308 267 321.5 Q277 335 285 349.5 Q293 364 300.5 380 Q308 396 317 416 Q336 458 347.5 508.5 Q359 559 367 622 L370 649 L185 649 L209 842 L391 842 L397 892 Q403 944 411.5 990.5 Q420 1037 431.5 1079 Q443 1121 458.5 1160.5 Q474 1200 495 1239 Q535 1317 596 1369 Q656 1421 747 1452.5 Q838 1484 956 1484 Q1160 1484 1285 1411 L1200 1219 Z " />
<glyph glyph-name="currency" unicode="&#xa4;" horiz-adv-x="1218" d="M696 710 Q825 710 923 799 Q1019 889 1036 1020 Q1051 1152 977 1241 Q902 1331 772 1331 Q641 1331 545 1241 Q497 1196 468.5 1141 Q440 1086 432 1020 Q416 890 491 799 Q565 710 696 710 Z M237 543 L192 594 L402 781 Q327 887 344 1024 Q362 1168 470 1276 L299 1471 L356 1522 L529 1326 Q645 1409 783 1409 Q918 1409 1015 1327 L1234 1522 L1279 1471 L1062 1278 Q1145 1168 1127 1024 Q1111 886 1008 779 L1171 594 L1114 543 L951 729 Q831 639 688 639 Q545 639 447 730 L237 543 Z " />
<glyph glyph-name="yen" unicode="&#xa5;" horiz-adv-x="1280" d="M129 275 L147 419 L518 419 L535 559 L164 559 L183 709 L469 709 L126 1456 L415 1456 L694 789 L1134 1456 L1430 1456 L894 709 L1178 709 L1159 559 L789 559 L772 419 L1145 419 L1127 275 L754 275 L721 0 L467 0 L500 275 L129 275 Z " />
<glyph glyph-name="brokenbar" unicode="&#xa6;" horiz-adv-x="500" d="M121 565 L236 1506 L483 1506 L368 565 L121 565 Z M-1 -455 L104 415 L351 415 L245 -455 L-1 -455 Z " />
<glyph glyph-name="section" unicode="&#xa7;" horiz-adv-x="1104" d="M675 592 Q694 612 704 635.5 Q714 659 718 685 Q724 710 714.5 729 Q705 748 692 761 Q688 765 680.5 770 Q673 775 664.5 780 Q656 785 647.5 789.5 Q639 794 633 797 L592 817 Q577 824 566 829.5 Q555 835 547 839 Q536 833 524.5 822 Q513 811 502.5 797.5 Q492 784 484.5 767.5 Q477 751 475 733 Q472 713 477.5 699.5 Q483 686 503 672 Q514 665 523 660 Q532 655 541 651 L601 625 Q623 616 641 608 Q659 600 675 592 Z M474 -61 Q302 -61 147 0 L172 209 Q236 183 326 163 Q411 144 489 144 Q558 144 604.5 171.5 Q651 199 658 256 Q662 288 616 320 Q593 336 537.5 366 Q482 396 393 442 Q301 488 254 556.5 Q207 625 218 712 Q234 850 376 943 Q326 987 307 1043 Q288 1099 298 1179 Q316 1326 436 1404 Q555 1481 724 1481 Q873 1481 1017 1431 L992 1229 Q984 1231 967.5 1235.5 Q951 1240 928 1248 Q880 1264 829.5 1276 Q779 1288 734 1288 Q672 1288 626 1263 Q579 1239 573 1193 Q568 1148 616 1105.5 Q664 1063 767 1012 Q798 995 821.5 980.5 Q845 966 862 955 Q879 944 897 929 Q915 914 935 896 Q975 860 989.5 817 Q1004 774 997 722 Q982 599 840 493 Q951 422 932 262 Q919 156 850 80 Q783 5 687.5 -28 Q592 -61 474 -61 Z " />
<glyph glyph-name="dieresis" unicode="&#xa8;" horiz-adv-x="743" d="M577 1151 L604 1376 L849 1376 L822 1151 L577 1151 Z M119 1151 L146 1376 L393 1376 L366 1151 L119 1151 Z " />
<glyph glyph-name="copyright" unicode="&#xa9;" horiz-adv-x="1713" d="M814 -22 Q691 -22 582 16.5 Q473 55 388 125 Q325 176 276.5 242 Q228 308 197 386 Q166 464 154.5 551.5 Q143 639 155 732 Q174 882 250 1023 Q328 1163 440.5 1263 Q553 1363 699 1423 Q846 1483 999 1483 Q1150 1483 1282 1423 Q1348 1394 1402.5 1354 Q1457 1314 1502 1263 Q1546 1212 1579 1152.5 Q1612 1093 1632 1023 Q1675 883 1656 732 Q1638 580 1561 440 Q1484 300 1371 199 Q1257 97 1112 38 Q965 -22 814 -22 Z M826 93 Q993 93 1147 179 Q1299 265 1401 412 Q1501 557 1522 729 Q1543 899 1479 1044 Q1415 1189 1282 1275 Q1149 1361 982 1361 Q813 1361 659 1275 Q508 1191 407 1044 Q307 899 286 729 Q265 557 329 412 Q394 266 524 179 Q657 93 826 93 Z M870 283 Q764 283 683.5 319 Q603 355 557 418 Q511 481 493 560 Q475 639 486 727 Q509 919 643 1043 Q776 1169 977 1169 Q1174 1169 1269 1055 L1181 924 Q1096 1004 979 1004 Q919 1004 871 984.5 Q823 965 787 928.5 Q751 892 728.5 841 Q706 790 699 727 Q684 600 740 525 Q797 448 918 448 Q951 448 984 455 Q1017 462 1036 468 Q1046 472 1057.5 477.5 Q1069 483 1083 491 L1113 509 L1137 526 L1181 375 Q1038 283 870 283 Z " />
<glyph glyph-name="ordfeminine" unicode="&#xaa;" horiz-adv-x="868" d="M425 850 Q452 850 486 859.5 Q520 869 551 890 Q582 911 605 945 Q628 979 634 1029 L636 1043 Q466 1043 411 1025 Q358 1008 349 936 Q347 917 352.5 901 Q358 885 368.5 874 Q379 863 393.5 856.5 Q408 850 425 850 Z M396 721 Q297 721 233 777 Q169 835 181 936 Q194 1041 267.5 1096.5 Q341 1152 474 1152 L652 1152 L657 1192 Q672 1315 542 1315 Q497 1315 438 1301 Q409 1294 386 1288 Q363 1282 346 1275 L310 1262 L270 1407 Q278 1411 288 1416 Q298 1421 312 1426 Q337 1437 420 1457 Q500 1476 585 1476 Q646 1476 699.5 1461.5 Q753 1447 790.5 1413 Q828 1379 845.5 1323 Q863 1267 853 1184 Q851 1173 843.5 1104.5 Q836 1036 822 908 Q812 802 813 754 L632 754 L627 852 Q608 803 545 762 Q484 721 396 721 Z " />
<glyph glyph-name="guillemotleft" unicode="&#xab;" horiz-adv-x="1177" d="M833 158 L603 541 L933 922 L1133 922 L848 539 L1031 158 L833 158 Z M392 158 L162 541 L492 922 L692 922 L407 539 L590 158 L392 158 Z " />
<glyph glyph-name="logicalnot" unicode="&#xac;" horiz-adv-x="1457" d="M982 220 L1029 609 L197 609 L222 814 L1287 814 L1215 220 L982 220 Z " />
<glyph glyph-name="uni00AD" unicode="&#xad;" horiz-adv-x="739" d="M110 457 L133 647 L765 647 L742 457 L110 457 Z " />
<glyph glyph-name="registered" unicode="&#xae;" horiz-adv-x="1713" d="M814 -22 Q691 -22 582 16.5 Q473 55 388 125 Q325 176 276.5 242 Q228 308 197 386 Q166 464 154.5 551.5 Q143 639 155 732 Q174 882 250 1023 Q328 1163 440.5 1263 Q553 1363 699 1423 Q846 1483 999 1483 Q1150 1483 1282 1423 Q1348 1394 1402.5 1354 Q1457 1314 1502 1263 Q1546 1212 1579 1152.5 Q1612 1093 1632 1023 Q1675 883 1656 732 Q1638 580 1561 440 Q1484 300 1371 199 Q1257 97 1112 38 Q965 -22 814 -22 Z M826 93 Q993 93 1147 179 Q1299 265 1401 412 Q1501 557 1522 729 Q1543 899 1479 1044 Q1415 1189 1282 1275 Q1149 1361 982 1361 Q813 1361 659 1275 Q508 1191 407 1044 Q307 899 286 729 Q265 557 329 412 Q394 266 524 179 Q657 93 826 93 Z M791 788 L881 788 Q979 788 1029.5 810.5 Q1080 833 1088 895 Q1097 967 1067 985 Q1038 1003 926 1003 L818 1003 L791 788 Z M514 290 L622 1171 L940 1171 Q1145 1171 1232.5 1104.5 Q1320 1038 1304 907 Q1280 713 1097 665 L1239 290 L1004 290 L894 630 L771 630 L729 290 L514 290 Z " />
<glyph glyph-name="overscore" unicode="&#xaf;" horiz-adv-x="756" d="M206 1146 L225 1303 L849 1303 L830 1146 L206 1146 Z " />
<glyph glyph-name="degree" unicode="&#xb0;" horiz-adv-x="886" d="M507 849 Q377 849 296 938 Q215 1028 231 1157 Q246 1284 349 1375 Q453 1466 583 1466 Q712 1466 792 1376 Q874 1286 859 1157 Q843 1027 740 938 Q636 849 507 849 Z M523 984 Q596 984 649 1033 Q704 1082 713 1156 Q722 1229 679 1278 Q637 1328 566 1328 Q495 1328 440 1278 Q387 1228 378 1156 Q369 1082 411 1033 Q453 984 523 984 Z " />
<glyph glyph-name="plusminus" unicode="&#xb1;" horiz-adv-x="1272" d="M150 0 L172 184 L1062 184 L1040 0 L150 0 Z M510 291 L547 592 L222 592 L247 792 L566 792 L603 1099 L840 1099 L803 792 L1135 792 L1110 592 L788 592 L751 291 L510 291 Z " />
<glyph glyph-name="uni00B2" unicode="&#xb2;" horiz-adv-x="1072" d="M300 613 L322 795 L611 1022 Q761 1138 768 1201 Q779 1287 677 1287 Q574 1287 419 1223 L379 1389 Q556 1466 714 1466 Q844 1466 919 1400 Q996 1335 979 1203 Q974 1161 955 1122 Q936 1083 904 1044.5 Q872 1006 827.5 967 Q783 928 727 886 L629 813 L918 813 L894 613 L300 613 Z " />
<glyph glyph-name="uni00B3" unicode="&#xb3;" horiz-adv-x="909" d="M576 604 Q411 604 288 697 L367 831 Q485 756 578 756 Q641 756 679.5 790 Q718 824 725 878 Q731 924 694 954 Q657 984 585 984 L490 984 L508 1126 L601 1126 Q629 1126 654.5 1133.5 Q680 1141 699.5 1154 Q719 1167 731.5 1184 Q744 1201 746 1221 Q752 1269 722 1294.5 Q692 1320 635 1320 Q537 1320 407 1255 L361 1378 Q525 1463 689 1463 Q808 1463 879 1409 Q949 1356 935 1249 Q918 1121 776 1073 Q819 1061 848.5 1041 Q878 1021 895 995 Q912 969 918 938.5 Q924 908 920 875 Q908 783 856 721 Q803 658 732 631 Q661 604 576 604 Z " />
<glyph glyph-name="acute" unicode="&#xb4;" horiz-adv-x="607" d="M142 1166 L441 1456 L759 1456 L370 1166 L142 1166 Z " />
<glyph glyph-name="mu" unicode="&#xb5;" horiz-adv-x="1230" d="M893 1082 L1200 1082 L1068 0 L804 0 L807 152 Q677 -20 460 -20 Q441 -20 424 -18.5 Q407 -17 391 -15 L354 -316 L48 -316 L219 1082 L525 1082 L447 440 Q438 370 441.5 320.5 Q445 271 461.5 240 Q478 209 507.5 194.5 Q537 180 581 180 Q705 180 795 285 L893 1082 Z " />
<glyph glyph-name="paragraph" unicode="&#xb6;" horiz-adv-x="1226" d="M350 -178 L468 789 Q310 803 240 889.5 Q170 976 189 1129 Q199 1207 229 1264 Q259 1321 305 1357 Q349 1392 415 1415 Q481 1438 550.5 1446.5 Q620 1455 708 1455 L1202 1455 L1179 1263 L1106 1263 L929 -178 L723 -178 L900 1263 L732 1263 L555 -178 L350 -178 Z " />
<glyph glyph-name="middot" unicode="&#xb7;" horiz-adv-x="596" d="M255 561 L290 843 L594 843 L559 561 L255 561 Z " />
<glyph glyph-name="cedilla" unicode="&#xb8;" horiz-adv-x="529" d="M-48 -294 Q-16 -308 31 -320 Q78 -332 121 -332 Q222 -332 231 -259 Q243 -163 92 -140 L64 -136 L116 39 L240 39 L209 -75 Q316 -82 366 -143 Q415 -203 406 -283 Q399 -337 375 -375 Q351 -413 315 -437.5 Q279 -462 234 -473.5 Q189 -485 141 -485 Q22 -485 -75 -426 L-48 -294 Z " />
<glyph glyph-name="uni00B9" unicode="&#xb9;" horiz-adv-x="851" d="M223 625 L243 790 L462 790 L521 1270 Q529 1274 471 1260 L354 1233 L285 1218 L306 1389 L449 1430 Q481 1439 508 1446.5 Q535 1454 553.5 1459.5 Q572 1465 582 1467 Q592 1469 590 1468 L749 1464 L666 788 L855 788 L835 625 L223 625 Z " />
<glyph glyph-name="ordmasculine" unicode="&#xba;" horiz-adv-x="913" d="M507 713 Q321 713 234 815 Q146 917 165 1080 Q184 1236 300 1340 Q416 1443 594 1443 Q771 1443 861 1338 Q952 1234 932 1076 Q912 921 798 817 Q683 713 507 713 Z M524 873 Q608 873 669 929 Q727 984 739 1076 Q750 1173 706 1228 Q662 1283 575 1283 Q492 1283 430 1227 Q368 1170 358 1078 Q346 982 390 927.5 Q434 873 524 873 Z " />
<glyph glyph-name="guillemotright" unicode="&#xbb;" horiz-adv-x="1177" d="M554 158 L840 541 L656 922 L855 922 L1085 539 L755 158 L554 158 Z M113 158 L399 541 L215 922 L414 922 L644 539 L314 158 L113 158 Z " />
<glyph glyph-name="onequarter" unicode="&#xbc;" horiz-adv-x="2113" d="M1551 329 L1729 329 L1760 583 L1551 329 Z M589 0 L1652 1456 L1865 1456 L803 0 L589 0 Z M1691 1 L1714 195 L1345 195 L1359 308 L1790 814 L1970 814 L1911 329 L2027 329 L2010 195 L1894 195 L1871 1 L1691 1 Z M261 619 L281 786 L492 786 L550 1257 L319 1204 L341 1379 L479 1418 Q510 1427 536 1434.5 Q562 1442 580.5 1447 Q599 1452 608.5 1454.5 Q618 1457 616 1456 L772 1456 L690 784 L874 784 L854 619 L261 619 Z " />
<glyph glyph-name="onehalf" unicode="&#xbd;" horiz-adv-x="2554" d="M230 619 L250 786 L461 786 L519 1257 L288 1204 L310 1379 L448 1418 Q479 1427 505 1434.5 Q531 1442 549.5 1447 Q568 1452 577.5 1454.5 Q587 1457 585 1456 L741 1456 L659 784 L843 784 L823 619 L230 619 Z M598 0 L1661 1456 L1874 1456 L812 0 L598 0 Z M2034 562 Q2048 675 1940 675 Q1831 675 1687 608 L1645 768 Q1814 851 1977 851 Q2036 851 2086.5 836 Q2137 821 2173 789.5 Q2209 758 2227 709 Q2245 660 2239 591 L2238 580 Q2227 495 2161.5 419 Q2096 343 1986 265 L1884 193 L2178 193 L2155 0 L1565 0 L1585 169 L1886 389 Q1927 418 1954.5 442.5 Q1982 467 1997 486 Q2028 523 2034 562 Z " />
<glyph glyph-name="threequarters" unicode="&#xbe;" horiz-adv-x="2534" d="M1582 329 L1760 329 L1791 583 L1582 329 Z M610 0 L1673 1456 L1886 1456 L824 0 L610 0 Z M1722 1 L1745 195 L1376 195 L1390 308 L1820 814 L2001 814 L1942 329 L2057 329 L2040 195 L1925 195 L1902 1 L1722 1 Z M570 603 Q402 603 284 697 L362 832 Q475 756 573 756 Q636 756 675 788 Q714 820 721 875 Q727 923 688 953.5 Q649 984 576 984 L484 984 L502 1127 L592 1127 Q652 1127 694 1152.5 Q736 1178 741 1220 Q753 1316 631 1316 Q526 1316 402 1250 L356 1376 Q522 1462 682 1462 Q803 1462 870 1407 Q939 1353 925 1246 Q910 1114 765 1070 Q808 1059 838 1039.5 Q868 1020 885.5 993.5 Q903 967 909 936 Q915 905 911 872 Q895 740 797 671 Q699 603 570 603 Z " />
<glyph glyph-name="questiondown" unicode="&#xbf;" horiz-adv-x="1032" d="M806.019 753.025 L789.02 616.033 Q781.021 551.037 748.522 497.041 Q716.024 443.044 671.527 396.047 Q627.03 349.05 576.033 307.052 Q525.036 265.055 481.039 223.557 Q437.042 182.06 406.043 139.063 Q375.045 96.0652 369.046 47.0682 Q360.046 -30.9271 410.543 -67.4248 Q461.04 -103.923 554.034 -103.923 Q634.029 -103.923 722.024 -81.924 Q766.021 -70.9246 801.519 -59.9253 Q837.017 -48.926 864.015 -37.9266 L838.017 -248.914 Q694.026 -320.909 504.037 -320.909 Q386.045 -320.909 293.05 -281.912 Q200.056 -244.914 149.059 -159.919 Q98.0622 -76.9243 111.061 40.0686 Q117.061 88.0657 135.06 129.063 Q153.059 170.061 180.057 206.558 Q207.056 243.056 240.054 275.054 Q273.052 307.052 309.049 335.051 Q356.046 374.048 404.543 411.546 Q453.041 449.044 494.038 491.041 Q535.036 533.039 563.534 581.036 Q592.032 629.033 599.032 688.029 L607.031 753.025 L806.019 753.025 Z M882.014 1164 L849.016 893.017 L597.032 893.017 L630.03 1164 L882.014 1164 Z " />
<glyph glyph-name="Agrave" unicode="&#xc0;" horiz-adv-x="1458" d="M741 1596 L425 1885 L743 1885 L970 1596 L741 1596 Z M926 592 Q852 932 803 1159 Q714 970 536 592 L926 592 Z M-48 0 L715 1456 L973 1456 L1385 0 L1098 0 L1000 355 L412 355 L231 0 L-48 0 Z " />
<glyph glyph-name="Aacute" unicode="&#xc1;" horiz-adv-x="1458" d="M775 1596 L1074 1886 L1392 1886 L1003 1596 L775 1596 Z M966 592 Q892 932 843 1159 Q754 970 576 592 L966 592 Z M-8 0 L755 1456 L1013 1456 L1425 0 L1138 0 L1040 355 L452 355 L271 0 L-8 0 Z " />
<glyph glyph-name="Acircumflex" unicode="&#xc2;" horiz-adv-x="1458" d="M498 1615 L800 1985 L1052 1985 L1272 1615 L1025 1615 L913 1811 L750 1615 L498 1615 Z M966 592 Q892 932 843 1159 Q754 970 576 592 L966 592 Z M-8 0 L755 1456 L1013 1456 L1425 0 L1138 0 L1040 355 L452 355 L271 0 L-8 0 Z " />
<glyph glyph-name="Atilde" unicode="&#xc3;" horiz-adv-x="1458" d="M906 1604 Q863 1604 808 1631 Q780 1645 754 1658 Q728 1671 703 1684 Q655 1711 631 1711 Q609 1711 585.5 1686 Q562 1661 550 1609 L390 1609 Q407 1738 476 1818 Q548 1900 644 1900 Q669 1901 696.5 1894 Q724 1887 751 1875.5 Q778 1864 803.5 1849.5 Q829 1835 851 1823 Q873 1811 890 1802.5 Q907 1794 916 1793 Q919 1793 924 1792.5 Q929 1792 931 1792 Q961 1792 980 1814.5 Q999 1837 1006 1900 L1168 1900 Q1150 1752 1081 1678.5 Q1012 1605 907 1604 L906 1604 Z M926 592 Q852 932 803 1159 Q714 970 536 592 L926 592 Z M-48 0 L715 1456 L973 1456 L1385 0 L1098 0 L1000 355 L412 355 L231 0 L-48 0 Z " />
<glyph glyph-name="Adieresis" unicode="&#xc4;" horiz-adv-x="1458" d="M983 1581 L1010 1806 L1255 1806 L1228 1581 L983 1581 Z M525 1581 L552 1806 L799 1806 L772 1581 L525 1581 Z M966 592 Q892 932 843 1159 Q754 970 576 592 L966 592 Z M-8 0 L755 1456 L1013 1456 L1425 0 L1138 0 L1040 355 L452 355 L271 0 L-8 0 Z " />
<glyph glyph-name="Aring" unicode="&#xc5;" horiz-adv-x="1458" d="M878 1583 Q787 1583 730 1644 Q674 1705 684 1796 Q696 1889 766 1948 Q837 2009 930 2009 Q1022 2009 1079 1948 Q1137 1887 1125 1796 Q1115 1706 1042 1644 Q971 1583 878 1583 Z M892 1687 Q934 1687 971 1719 Q988 1735 999 1754 Q1010 1773 1012 1796 Q1018 1840 990 1872 Q961 1904 918 1904 Q896 1904 875.5 1895.5 Q855 1887 839 1872.5 Q823 1858 812.5 1838 Q802 1818 799 1796 Q794 1749 821 1719 Q848 1687 892 1687 Z M966 592 Q892 932 843 1159 Q754 970 576 592 L966 592 Z M-8 0 L755 1456 L1013 1456 L1425 0 L1138 0 L1040 355 L452 355 L271 0 L-8 0 Z " />
<glyph glyph-name="AE" unicode="&#xc6;" horiz-adv-x="2064" d="M662 558 L1129 558 L1165 1230 L1131 1230 L662 558 Z M-21 0 L1024 1456 L2108 1456 L2081 1230 L1424 1230 L1411 854 L2032 854 L2005 634 L1412 634 L1401 226 L1983 226 L1956 0 L1108 0 L1122 355 L538 355 L293 0 L-21 0 Z " />
<glyph glyph-name="Ccedilla" unicode="&#xc7;" horiz-adv-x="1436" d="M571 -294 Q603 -308 650 -320 Q697 -332 740 -332 Q841 -332 850 -259 Q862 -163 711 -140 L683 -136 L735 39 L859 39 L828 -75 Q935 -82 985 -143 Q1034 -203 1025 -283 Q1018 -337 994 -375 Q970 -413 934 -437.5 Q898 -462 853 -473.5 Q808 -485 760 -485 Q641 -485 544 -426 L571 -294 Z M792 -22 Q647 -22 523.5 27 Q400 76 309 169 Q218 261 175 405 Q133 552 155 727 Q173 876 228.5 1000.5 Q284 1125 364 1213 Q424 1280 495 1331 Q566 1382 642.5 1416 Q719 1450 799 1467 Q879 1484 957 1483 Q1244 1483 1423 1326 L1303 1149 Q1151 1264 951 1264 Q857 1264 769 1227 Q681 1190 609 1123 Q537 1056 486.5 954.5 Q436 853 421 730 Q391 489 510 343 Q629 197 836 197 Q1055 197 1256 344 L1316 143 Q1085 -22 792 -22 Z " />
<glyph glyph-name="Egrave" unicode="&#xc8;" horiz-adv-x="1249" d="M720 1596 L404 1885 L722 1885 L949 1596 L720 1596 Z M150 0 L328 1456 L1247 1456 L1221 1238 L556 1238 L508 849 L1137 849 L1110 630 L484 630 L433 218 L1124 218 L1098 0 L150 0 Z " />
<glyph glyph-name="Eacute" unicode="&#xc9;" horiz-adv-x="1249" d="M714 1596 L1013 1886 L1331 1886 L942 1596 L714 1596 Z M150 0 L328 1456 L1247 1456 L1221 1238 L556 1238 L508 849 L1137 849 L1110 630 L484 630 L433 218 L1124 218 L1098 0 L150 0 Z " />
<glyph glyph-name="Ecircumflex" unicode="&#xca;" horiz-adv-x="1249" d="M436 1615 L738 1985 L990 1985 L1210 1615 L963 1615 L851 1811 L688 1615 L436 1615 Z M150 0 L328 1456 L1247 1456 L1221 1238 L556 1238 L508 849 L1137 849 L1110 630 L484 630 L433 218 L1124 218 L1098 0 L150 0 Z " />
<glyph glyph-name="Edieresis" unicode="&#xcb;" horiz-adv-x="1249" d="M921 1581 L948 1806 L1193 1806 L1166 1581 L921 1581 Z M463 1581 L490 1806 L737 1806 L710 1581 L463 1581 Z M150 0 L328 1456 L1247 1456 L1221 1238 L556 1238 L508 849 L1137 849 L1110 630 L484 630 L433 218 L1124 218 L1098 0 L150 0 Z " />
<glyph glyph-name="Igrave" unicode="&#xcc;" horiz-adv-x="586" d="M338 1596 L22 1885 L340 1885 L567 1596 L338 1596 Z M120 0 L298 1456 L552 1456 L374 0 L120 0 Z " />
<glyph glyph-name="Iacute" unicode="&#xcd;" horiz-adv-x="586" d="M331 1596 L630 1886 L948 1886 L559 1596 L331 1596 Z M120 0 L298 1456 L552 1456 L374 0 L120 0 Z " />
<glyph glyph-name="Icircumflex" unicode="&#xce;" horiz-adv-x="586" d="M54 1615 L356 1985 L608 1985 L828 1615 L581 1615 L469 1811 L306 1615 L54 1615 Z M120 0 L298 1456 L552 1456 L374 0 L120 0 Z " />
<glyph glyph-name="Idieresis" unicode="&#xcf;" horiz-adv-x="586" d="M539 1581 L566 1806 L811 1806 L784 1581 L539 1581 Z M81 1581 L108 1806 L355 1806 L328 1581 L81 1581 Z M120 0 L298 1456 L552 1456 L374 0 L120 0 Z " />
<glyph glyph-name="Eth" unicode="&#xd0;" horiz-adv-x="1571" d="M40.667 664.769 L63.229 814.76 L683.194 814.76 L660.632 664.769 L40.667 664.769 Z M110 0 L288 1456 L694 1456 Q913 1456 1070 1409 Q1227 1362 1324.5 1270.5 Q1422 1179 1459 1045 Q1496 911 1475 737 Q1453 557 1382.5 419 Q1312 281 1196 188 Q1080 95 919.5 47.5 Q759 0 557 0 L110 0 Z M390 218 L596 218 Q862 218 1018 349.5 Q1174 481 1206 738 Q1236 981 1109.5 1109.5 Q983 1238 691 1238 L516 1238 L390 218 Z " />
<glyph glyph-name="Ntilde" unicode="&#xd1;" horiz-adv-x="1630" d="M1053 1604 Q1010 1604 955 1631 Q927 1645 901 1658 Q875 1671 850 1684 Q802 1711 778 1711 Q756 1711 732.5 1686 Q709 1661 697 1609 L537 1609 Q554 1738 623 1818 Q695 1900 791 1900 Q816 1901 843.5 1894 Q871 1887 898 1875.5 Q925 1864 950.5 1849.5 Q976 1835 998 1823 Q1020 1811 1037 1802.5 Q1054 1794 1063 1793 Q1066 1793 1071 1792.5 Q1076 1792 1078 1792 Q1108 1792 1127 1814.5 Q1146 1837 1153 1900 L1315 1900 Q1297 1752 1228 1678.5 Q1159 1605 1054 1604 L1053 1604 Z M150 0 L328 1456 L597 1456 L1205 384 L1336 1456 L1578 1456 L1400 0 L1130 0 Q854 484 700.5 752.5 Q547 1021 516 1074 L385 0 L150 0 Z " />
<glyph glyph-name="Ograve" unicode="&#xd2;" horiz-adv-x="1671" d="M888 1596 L572 1885 L890 1885 L1117 1596 L888 1596 Z M797 -23 Q455 -23 284 182 Q112 388 156 735 Q176 905 242 1040 Q308 1175 419 1278 Q642 1483 985 1483 Q1316 1483 1485 1278 Q1656 1076 1615 735 Q1571 386 1354 182 Q1136 -23 797 -23 Z M817 194 Q928 194 1017.5 229.5 Q1107 265 1173 334 Q1239 403 1281 504 Q1323 605 1339 735 Q1369 986 1271 1126 Q1172 1266 953 1266 Q731 1266 596 1126 Q460 987 430 735 Q398 474 495.5 334 Q593 194 817 194 Z " />
<glyph glyph-name="Oacute" unicode="&#xd3;" horiz-adv-x="1671" d="M882 1596 L1181 1886 L1499 1886 L1110 1596 L882 1596 Z M797 -23 Q455 -23 284 182 Q112 388 156 735 Q176 905 242 1040 Q308 1175 419 1278 Q642 1483 985 1483 Q1316 1483 1485 1278 Q1656 1076 1615 735 Q1571 386 1354 182 Q1136 -23 797 -23 Z M817 194 Q928 194 1017.5 229.5 Q1107 265 1173 334 Q1239 403 1281 504 Q1323 605 1339 735 Q1369 986 1271 1126 Q1172 1266 953 1266 Q731 1266 596 1126 Q460 987 430 735 Q398 474 495.5 334 Q593 194 817 194 Z " />
<glyph glyph-name="Ocircumflex" unicode="&#xd4;" horiz-adv-x="1671" d="M605 1615 L907 1985 L1159 1985 L1379 1615 L1132 1615 L1020 1811 L857 1615 L605 1615 Z M797 -23 Q455 -23 284 182 Q112 388 156 735 Q176 905 242 1040 Q308 1175 419 1278 Q642 1483 985 1483 Q1316 1483 1485 1278 Q1656 1076 1615 735 Q1571 386 1354 182 Q1136 -23 797 -23 Z M817 194 Q928 194 1017.5 229.5 Q1107 265 1173 334 Q1239 403 1281 504 Q1323 605 1339 735 Q1369 986 1271 1126 Q1172 1266 953 1266 Q731 1266 596 1126 Q460 987 430 735 Q398 474 495.5 334 Q593 194 817 194 Z " />
<glyph glyph-name="Otilde" unicode="&#xd5;" horiz-adv-x="1671" d="M1013 1604 Q970 1604 915 1631 Q887 1645 861 1658 Q835 1671 810 1684 Q762 1711 738 1711 Q716 1711 692.5 1686 Q669 1661 657 1609 L497 1609 Q514 1738 583 1818 Q655 1900 751 1900 Q776 1901 803.5 1894 Q831 1887 858 1875.5 Q885 1864 910.5 1849.5 Q936 1835 958 1823 Q980 1811 997 1802.5 Q1014 1794 1023 1793 Q1026 1793 1031 1792.5 Q1036 1792 1038 1792 Q1068 1792 1087 1814.5 Q1106 1837 1113 1900 L1275 1900 Q1257 1752 1188 1678.5 Q1119 1605 1014 1604 L1013 1604 Z M757 -23 Q415 -23 244 182 Q72 388 116 735 Q136 905 202 1040 Q268 1175 379 1278 Q602 1483 945 1483 Q1276 1483 1445 1278 Q1616 1076 1575 735 Q1531 386 1314 182 Q1096 -23 757 -23 Z M777 194 Q888 194 977.5 229.5 Q1067 265 1133 334 Q1199 403 1241 504 Q1283 605 1299 735 Q1329 986 1231 1126 Q1132 1266 913 1266 Q691 1266 556 1126 Q420 987 390 735 Q358 474 455.5 334 Q553 194 777 194 Z " />
<glyph glyph-name="Odieresis" unicode="&#xd6;" horiz-adv-x="1671" d="M1090 1581 L1117 1806 L1362 1806 L1335 1581 L1090 1581 Z M632 1581 L659 1806 L906 1806 L879 1581 L632 1581 Z M797 -23 Q455 -23 284 182 Q112 388 156 735 Q176 905 242 1040 Q308 1175 419 1278 Q642 1483 985 1483 Q1316 1483 1485 1278 Q1656 1076 1615 735 Q1571 386 1354 182 Q1136 -23 797 -23 Z M817 194 Q928 194 1017.5 229.5 Q1107 265 1173 334 Q1239 403 1281 504 Q1323 605 1339 735 Q1369 986 1271 1126 Q1172 1266 953 1266 Q731 1266 596 1126 Q460 987 430 735 Q398 474 495.5 334 Q593 194 817 194 Z " />
<glyph glyph-name="multiply" unicode="&#xd7;" horiz-adv-x="1272" d="M336 116 L195 278 L497 547 L261 816 L441 977 L678 709 L981 977 L1122 817 L819 547 L1055 276 L876 116 L638 386 L336 116 Z " />
<glyph glyph-name="Oslash" unicode="&#xd8;" horiz-adv-x="1671" d="M797 -23 Q628 -23 499 29 L396 -128 L287 -75 L393 85 Q251 181 190 347.5 Q129 514 156 735 Q176 905 242 1040 Q308 1175 419 1278 Q642 1483 985 1483 Q1069 1483 1141 1469.5 Q1213 1456 1277 1430 L1373 1575 L1483 1523 L1383 1372 Q1521 1276 1581 1112.5 Q1641 949 1615 735 Q1571 386 1354 182 Q1136 -23 797 -23 Z M629 227 Q708 194 817 194 Q928 194 1017.5 229.5 Q1107 265 1173 334 Q1239 403 1281 504 Q1323 605 1339 735 Q1374 1025 1243 1160 L629 227 Z M1145 1229 Q1065 1266 953 1266 Q731 1266 596 1126 Q460 987 430 735 Q393 429 529 293 L1145 1229 Z " />
<glyph glyph-name="Ugrave" unicode="&#xd9;" horiz-adv-x="1509" d="M796 1596 L480 1885 L798 1885 L1025 1596 L796 1596 Z M712 -23 Q571 -23 470 11 Q369 45 310 100 Q281 128 259.5 162 Q238 196 223 238 Q193 321 188.5 407 Q184 493 197 599 L302 1456 L556 1456 L450 588 Q436 472 452.5 396 Q469 320 508.5 275 Q548 230 607 212 Q666 194 737 194 Q813 194 873.5 213 Q934 232 987 275 Q1041 320 1075 398.5 Q1109 477 1123 589 L1229 1456 L1483 1456 L1378 598 Q1372 545 1363 498.5 Q1354 452 1341 408.5 Q1328 365 1309.5 323.5 Q1291 282 1266 240 Q1215 156 1146 101 Q1075 44 965 10.5 Q855 -23 712 -23 Z " />
<glyph glyph-name="Uacute" unicode="&#xda;" horiz-adv-x="1509" d="M790 1596 L1089 1886 L1407 1886 L1018 1596 L790 1596 Z M712 -23 Q571 -23 470 11 Q369 45 310 100 Q281 128 259.5 162 Q238 196 223 238 Q193 321 188.5 407 Q184 493 197 599 L302 1456 L556 1456 L450 588 Q436 472 452.5 396 Q469 320 508.5 275 Q548 230 607 212 Q666 194 737 194 Q813 194 873.5 213 Q934 232 987 275 Q1041 320 1075 398.5 Q1109 477 1123 589 L1229 1456 L1483 1456 L1378 598 Q1372 545 1363 498.5 Q1354 452 1341 408.5 Q1328 365 1309.5 323.5 Q1291 282 1266 240 Q1215 156 1146 101 Q1075 44 965 10.5 Q855 -23 712 -23 Z " />
<glyph glyph-name="Ucircumflex" unicode="&#xdb;" horiz-adv-x="1509" d="M513 1615 L815 1985 L1067 1985 L1287 1615 L1040 1615 L928 1811 L765 1615 L513 1615 Z M712 -23 Q571 -23 470 11 Q369 45 310 100 Q281 128 259.5 162 Q238 196 223 238 Q193 321 188.5 407 Q184 493 197 599 L302 1456 L556 1456 L450 588 Q436 472 452.5 396 Q469 320 508.5 275 Q548 230 607 212 Q666 194 737 194 Q813 194 873.5 213 Q934 232 987 275 Q1041 320 1075 398.5 Q1109 477 1123 589 L1229 1456 L1483 1456 L1378 598 Q1372 545 1363 498.5 Q1354 452 1341 408.5 Q1328 365 1309.5 323.5 Q1291 282 1266 240 Q1215 156 1146 101 Q1075 44 965 10.5 Q855 -23 712 -23 Z " />
<glyph glyph-name="Udieresis" unicode="&#xdc;" horiz-adv-x="1509" d="M998 1581 L1025 1806 L1270 1806 L1243 1581 L998 1581 Z M540 1581 L567 1806 L814 1806 L787 1581 L540 1581 Z M712 -23 Q571 -23 470 11 Q369 45 310 100 Q281 128 259.5 162 Q238 196 223 238 Q193 321 188.5 407 Q184 493 197 599 L302 1456 L556 1456 L450 588 Q436 472 452.5 396 Q469 320 508.5 275 Q548 230 607 212 Q666 194 737 194 Q813 194 873.5 213 Q934 232 987 275 Q1041 320 1075 398.5 Q1109 477 1123 589 L1229 1456 L1483 1456 L1378 598 Q1372 545 1363 498.5 Q1354 452 1341 408.5 Q1328 365 1309.5 323.5 Q1291 282 1266 240 Q1215 156 1146 101 Q1075 44 965 10.5 Q855 -23 712 -23 Z " />
<glyph glyph-name="Yacute" unicode="&#xdd;" horiz-adv-x="1281" d="M700 1596 L999 1886 L1317 1886 L928 1596 L700 1596 Z M465 0 L534 563 L124 1456 L413 1456 L692 789 L1132 1456 L1428 1456 L788 564 L719 0 L465 0 Z " />
<glyph glyph-name="Thorn" unicode="&#xde;" horiz-adv-x="1300" d="M466 545 L687 545 Q975 545 1003 774 Q1019 912 934 961 Q892 987 835.5 997 Q779 1007 695 1007 L523 1007 L466 545 Z M150 0 L328 1456 L581 1456 L553 1223 L710 1223 Q821 1223 906 1212.5 Q991 1202 1069 1172 Q1126 1151 1168.5 1117 Q1211 1083 1238 1034.5 Q1265 986 1274.5 921.5 Q1284 857 1275 773 Q1261 656 1201.5 571.5 Q1142 487 1052.5 432.5 Q963 378 851 352 Q739 326 620 326 L440 326 L400 0 L150 0 Z " />
<glyph glyph-name="germandbls" unicode="&#xdf;" horiz-adv-x="1265" d="M744 175 Q902 175 923 335 Q937 448 868 529 Q802 612 618 709 L641 897 Q725 932 793 1000 Q863 1068 872 1146 Q880 1208 835 1244 Q791 1280 725 1280 Q675 1280 632 1261.5 Q589 1243 555.5 1207.5 Q522 1172 499.5 1119.5 Q477 1067 469 999 L347 0 L107 0 L226 1000 Q254 1238 392 1358 Q530 1478 748 1478 Q939 1478 1051 1389 Q1162 1301 1145 1161 Q1135 1070 1072 983 Q1011 896 915 852 Q889 839 861 829 Q833 819 803 811 Q991 769 1103 661 Q1160 606 1186.5 528 Q1213 450 1201 354 Q1180 184 1061 81 Q943 -22 785 -22 Q706 -22 628 -7 Q588 1 558 8 Q528 15 508 22 L468 37 L536 230 L568 215 Q578 210 596.5 204 Q615 198 643 190 Q698 175 744 175 Z " />
<glyph glyph-name="agrave" unicode="&#xe0;" horiz-adv-x="1291" d="M691 1166 L375 1455 L693 1455 L920 1166 L691 1166 Z M625 177 Q770 177 845 268 Q923 359 941 513 Q951 591 941.5 654 Q932 717 902.5 760.5 Q873 804 823 827.5 Q773 851 703 851 Q564 851 480 760 Q395 669 377 515 Q357 360 420 269 Q482 177 625 177 Z M570 -23 Q444 -23 351 22 Q258 67 207 142 Q156 217 136.5 308.5 Q117 400 129 502 Q143 610 186.5 706 Q230 802 301 880 Q373 959 479 1005.5 Q585 1052 714 1052 Q899 1052 983 917 L996 1026 L1239 1026 L1114 0 L865 0 L882 140 Q749 -23 570 -23 Z " />
<glyph glyph-name="aacute" unicode="&#xe1;" horiz-adv-x="1291" d="M684 1166 L983 1456 L1301 1456 L912 1166 L684 1166 Z M625 177 Q770 177 845 268 Q923 359 941 513 Q951 591 941.5 654 Q932 717 902.5 760.5 Q873 804 823 827.5 Q773 851 703 851 Q564 851 480 760 Q395 669 377 515 Q357 360 420 269 Q482 177 625 177 Z M570 -23 Q444 -23 351 22 Q258 67 207 142 Q156 217 136.5 308.5 Q117 400 129 502 Q143 610 186.5 706 Q230 802 301 880 Q373 959 479 1005.5 Q585 1052 714 1052 Q899 1052 983 917 L996 1026 L1239 1026 L1114 0 L865 0 L882 140 Q749 -23 570 -23 Z " />
<glyph glyph-name="acircumflex" unicode="&#xe2;" horiz-adv-x="1291" d="M407 1185 L709 1555 L961 1555 L1181 1185 L934 1185 L822 1381 L659 1185 L407 1185 Z M625 177 Q770 177 845 268 Q923 359 941 513 Q951 591 941.5 654 Q932 717 902.5 760.5 Q873 804 823 827.5 Q773 851 703 851 Q564 851 480 760 Q395 669 377 515 Q357 360 420 269 Q482 177 625 177 Z M570 -23 Q444 -23 351 22 Q258 67 207 142 Q156 217 136.5 308.5 Q117 400 129 502 Q143 610 186.5 706 Q230 802 301 880 Q373 959 479 1005.5 Q585 1052 714 1052 Q899 1052 983 917 L996 1026 L1239 1026 L1114 0 L865 0 L882 140 Q749 -23 570 -23 Z " />
<glyph glyph-name="atilde" unicode="&#xe3;" horiz-adv-x="1291" d="M855 1174 Q812 1174 757 1201 Q729 1215 703 1228 Q677 1241 652 1254 Q604 1281 580 1281 Q558 1281 534.5 1256 Q511 1231 499 1179 L339 1179 Q356 1308 425 1388 Q497 1470 593 1470 Q618 1471 645.5 1464 Q673 1457 700 1445.5 Q727 1434 752.5 1419.5 Q778 1405 800 1393 Q822 1381 839 1372.5 Q856 1364 865 1363 Q868 1363 873 1362.5 Q878 1362 880 1362 Q910 1362 929 1384.5 Q948 1407 955 1470 L1117 1470 Q1099 1322 1030 1248.5 Q961 1175 856 1174 L855 1174 Z M625 177 Q770 177 845 268 Q923 359 941 513 Q951 591 941.5 654 Q932 717 902.5 760.5 Q873 804 823 827.5 Q773 851 703 851 Q564 851 480 760 Q395 669 377 515 Q357 360 420 269 Q482 177 625 177 Z M570 -23 Q444 -23 351 22 Q258 67 207 142 Q156 217 136.5 308.5 Q117 400 129 502 Q143 610 186.5 706 Q230 802 301 880 Q373 959 479 1005.5 Q585 1052 714 1052 Q899 1052 983 917 L996 1026 L1239 1026 L1114 0 L865 0 L882 140 Q749 -23 570 -23 Z " />
<glyph glyph-name="adieresis" unicode="&#xe4;" horiz-adv-x="1291" d="M892 1151 L919 1376 L1164 1376 L1137 1151 L892 1151 Z M434 1151 L461 1376 L708 1376 L681 1151 L434 1151 Z M625 177 Q770 177 845 268 Q923 359 941 513 Q951 591 941.5 654 Q932 717 902.5 760.5 Q873 804 823 827.5 Q773 851 703 851 Q564 851 480 760 Q395 669 377 515 Q357 360 420 269 Q482 177 625 177 Z M570 -23 Q444 -23 351 22 Q258 67 207 142 Q156 217 136.5 308.5 Q117 400 129 502 Q143 610 186.5 706 Q230 802 301 880 Q373 959 479 1005.5 Q585 1052 714 1052 Q899 1052 983 917 L996 1026 L1239 1026 L1114 0 L865 0 L882 140 Q749 -23 570 -23 Z " />
<glyph glyph-name="aring" unicode="&#xe5;" horiz-adv-x="1291" d="M787 1153 Q696 1153 639 1214 Q583 1275 593 1366 Q605 1459 675 1518 Q746 1579 839 1579 Q931 1579 988 1518 Q1046 1457 1034 1366 Q1024 1276 951 1214 Q880 1153 787 1153 Z M801 1257 Q843 1257 880 1289 Q897 1305 908 1324 Q919 1343 921 1366 Q927 1410 899 1442 Q870 1474 827 1474 Q805 1474 784.5 1465.5 Q764 1457 748 1442.5 Q732 1428 721.5 1408 Q711 1388 708 1366 Q703 1319 730 1289 Q757 1257 801 1257 Z M625 177 Q770 177 845 268 Q923 359 941 513 Q951 591 941.5 654 Q932 717 902.5 760.5 Q873 804 823 827.5 Q773 851 703 851 Q564 851 480 760 Q395 669 377 515 Q357 360 420 269 Q482 177 625 177 Z M570 -23 Q444 -23 351 22 Q258 67 207 142 Q156 217 136.5 308.5 Q117 400 129 502 Q143 610 186.5 706 Q230 802 301 880 Q373 959 479 1005.5 Q585 1052 714 1052 Q899 1052 983 917 L996 1026 L1239 1026 L1114 0 L865 0 L882 140 Q749 -23 570 -23 Z " />
<glyph glyph-name="ae" unicode="&#xe6;" horiz-adv-x="1776" d="M1478 632 L1480 655 Q1489 758 1432 815 Q1373 872 1294 872 Q1197 872 1126 805 Q1057 739 1016 632 L1478 632 Z M462 177 Q532 177 583.5 203 Q635 229 670 271 Q705 313 724.5 364.5 Q744 416 752 467 L652 467 Q520 467 425 432 Q375 414 344 381.5 Q313 349 308 304 Q300 238 343.5 207.5 Q387 177 462 177 Z M431 -22 Q244 -22 146 60 Q47 143 66 294 Q90 489 245 563 Q401 638 733 638 L774 638 Q779 687 768.5 728 Q758 769 732.5 798 Q707 827 667.5 843 Q628 859 574 859 Q458 859 278 778 L226 942 Q422 1052 653 1052 Q736 1052 824 1002 Q911 952 947 864 Q1004 953 1111 1002 Q1220 1052 1318 1052 L1321 1052 Q1435 1051 1511 1008.5 Q1587 966 1629 893.5 Q1671 821 1682.5 724.5 Q1694 628 1681 519 L1670 467 L993 467 L991 448 Q982 177 1235 177 L1244 177 Q1318 179 1399 207 Q1481 235 1527 262 L1572 289 L1617 108 Q1613 105 1608.5 102 Q1604 99 1596 94 Q1588 89 1574 81.5 Q1560 74 1538 63 Q1495 41 1449 23 Q1427 14 1399 6 Q1371 -2 1340 -8.5 Q1309 -15 1276 -19 Q1243 -23 1212 -23 L1200 -23 Q1057 -23 967.5 21 Q878 65 838 172 Q774 70 663 24 Q555 -22 431 -22 Z " />
<glyph glyph-name="ccedilla" unicode="&#xe7;" horiz-adv-x="1071" d="M360 -294 Q392 -308 439 -320 Q486 -332 529 -332 Q630 -332 639 -259 Q651 -163 500 -140 L472 -136 L524 39 L648 39 L617 -75 Q724 -82 774 -143 Q823 -203 814 -283 Q807 -337 783 -375 Q759 -413 723 -437.5 Q687 -462 642 -473.5 Q597 -485 549 -485 Q430 -485 333 -426 L360 -294 Z M601 -23 Q475 -23 377.5 21 Q280 65 223 140 Q166 215 141.5 311.5 Q117 408 131 514 Q149 665 226 787 Q305 910 435 980 Q567 1052 730 1052 Q971 1052 1085 914 L976 754 Q876 852 731 852 Q585 852 496 760 Q407 669 387 513 Q369 362 441 269 Q512 177 656 177 Q708 177 750.5 187.5 Q793 198 827 215 Q843 223 852 227.5 Q861 232 875 241 L894 253 Q897 254 902 257.5 Q907 261 912 264.5 Q917 268 921 271 Q925 274 925 274 L978 92 Q931 62 886 40.5 Q841 19 795 4.5 Q749 -10 701 -16.5 Q653 -23 601 -23 Z " />
<glyph glyph-name="egrave" unicode="&#xe8;" horiz-adv-x="1206" d="M677 1166 L361 1455 L679 1455 L906 1166 L677 1166 Z M921 636 Q916 745 860 803 Q804 861 713 861 Q605 861 526.5 801.5 Q448 742 411 636 L921 636 Z M623 -23 Q364 -23 232 125 Q101 273 130 512 Q144 621 191.5 717.5 Q239 814 314 889 Q389 964 494.5 1008 Q600 1052 723 1052 Q846 1052 930.5 1010 Q1015 968 1060 892 Q1105 817 1118.5 723.5 Q1132 630 1118 515 Q1116 501 1113.5 490 Q1111 479 1107 471 L387 471 Q381 396 398 340.5 Q415 285 451.5 249 Q488 213 543.5 195 Q599 177 670 177 Q836 177 1008 287 L1053 107 Q948 40 845.5 8.5 Q743 -23 623 -23 Z " />
<glyph glyph-name="eacute" unicode="&#xe9;" horiz-adv-x="1206" d="M921 636 Q916 745 860 803 Q804 861 713 861 Q605 861 526.5 801.5 Q448 742 411 636 L921 636 Z M623 -23 Q364 -23 232 125 Q101 273 130 512 Q144 621 191.5 717.5 Q239 814 314 889 Q389 964 494.5 1008 Q600 1052 723 1052 Q846 1052 930.5 1010 Q1015 968 1060 892 Q1105 817 1118.5 723.5 Q1132 630 1118 515 Q1116 501 1113.5 490 Q1111 479 1107 471 L387 471 Q381 396 398 340.5 Q415 285 451.5 249 Q488 213 543.5 195 Q599 177 670 177 Q836 177 1008 287 L1053 107 Q948 40 845.5 8.5 Q743 -23 623 -23 Z M671 1166 L970 1456 L1288 1456 L899 1166 L671 1166 Z " />
<glyph glyph-name="ecircumflex" unicode="&#xea;" horiz-adv-x="1206" d="M921 636 Q916 745 860 803 Q804 861 713 861 Q605 861 526.5 801.5 Q448 742 411 636 L921 636 Z M623 -23 Q364 -23 232 125 Q101 273 130 512 Q144 621 191.5 717.5 Q239 814 314 889 Q389 964 494.5 1008 Q600 1052 723 1052 Q846 1052 930.5 1010 Q1015 968 1060 892 Q1105 817 1118.5 723.5 Q1132 630 1118 515 Q1116 501 1113.5 490 Q1111 479 1107 471 L387 471 Q381 396 398 340.5 Q415 285 451.5 249 Q488 213 543.5 195 Q599 177 670 177 Q836 177 1008 287 L1053 107 Q948 40 845.5 8.5 Q743 -23 623 -23 Z M348 1185 L650 1555 L902 1555 L1122 1185 L875 1185 L763 1381 L600 1185 L348 1185 Z " />
<glyph glyph-name="edieresis" unicode="&#xeb;" horiz-adv-x="1206" d="M921 636 Q916 745 860 803 Q804 861 713 861 Q605 861 526.5 801.5 Q448 742 411 636 L921 636 Z M623 -23 Q364 -23 232 125 Q101 273 130 512 Q144 621 191.5 717.5 Q239 814 314 889 Q389 964 494.5 1008 Q600 1052 723 1052 Q846 1052 930.5 1010 Q1015 968 1060 892 Q1105 817 1118.5 723.5 Q1132 630 1118 515 Q1116 501 1113.5 490 Q1111 479 1107 471 L387 471 Q381 396 398 340.5 Q415 285 451.5 249 Q488 213 543.5 195 Q599 177 670 177 Q836 177 1008 287 L1053 107 Q948 40 845.5 8.5 Q743 -23 623 -23 Z M879 1151 L906 1376 L1151 1376 L1124 1151 L879 1151 Z M421 1151 L448 1376 L695 1376 L668 1151 L421 1151 Z " />
<glyph glyph-name="igrave" unicode="&#xec;" horiz-adv-x="485" d="M226 1166 L-90 1455 L228 1455 L455 1166 L226 1166 Z M63 0 L188 1026 L437 1026 L312 0 L63 0 Z " />
<glyph glyph-name="iacute" unicode="&#xed;" horiz-adv-x="485" d="M63 0 L188 1026 L437 1026 L312 0 L63 0 Z M220 1166 L519 1456 L837 1456 L448 1166 L220 1166 Z " />
<glyph glyph-name="icircumflex" unicode="&#xee;" horiz-adv-x="485" d="M63 0 L188 1026 L437 1026 L312 0 L63 0 Z M-58 1185 L244 1555 L496 1555 L716 1185 L469 1185 L357 1381 L194 1185 L-58 1185 Z " />
<glyph glyph-name="idieresis" unicode="&#xef;" horiz-adv-x="485" d="M63 0 L188 1026 L437 1026 L312 0 L63 0 Z M427 1151 L454 1376 L699 1376 L672 1151 L427 1151 Z M-31 1151 L-4 1376 L243 1376 L216 1151 L-31 1151 Z " />
<glyph glyph-name="eth" unicode="&#xf0;" horiz-adv-x="1217" d="M584 172 Q623 172 666.5 188.5 Q710 205 748.5 238 Q787 271 815.5 321.5 Q844 372 853 441 Q866 554 798 624 Q730 693 631 693 Q588 693 544.5 679.5 Q501 666 464.5 637 Q428 608 402 561.5 Q376 515 368 449 Q351 314 416 243 Q484 172 584 172 Z M539 -25 Q430 -25 343.5 15 Q257 55 203 124 Q150 193 127 282 Q104 371 116 471 Q142 671 267 786 Q394 902 600 902 Q804 902 926 753 Q926 756 927.5 763 Q929 770 931 779 Q933 788 934.5 797.5 Q936 807 937 814 Q957 963 765 1115 L497 989 L447 1122 L617 1201 Q583 1212 531 1226.5 Q479 1241 410 1258 L507 1417 Q552 1417 647 1390 Q744 1363 838 1306 L1110 1434 L1159 1300 L963 1209 Q1182 997 1136 621 Q1094 282 942 129 Q792 -25 539 -25 Z " />
<glyph glyph-name="ntilde" unicode="&#xf1;" horiz-adv-x="1224" d="M831 1174 Q788 1174 733 1201 Q705 1215 679 1228 Q653 1241 628 1254 Q580 1281 556 1281 Q534 1281 510.5 1256 Q487 1231 475 1179 L315 1179 Q332 1308 401 1388 Q473 1470 569 1470 Q594 1471 621.5 1464 Q649 1457 676 1445.5 Q703 1434 728.5 1419.5 Q754 1405 776 1393 Q798 1381 815 1372.5 Q832 1364 841 1363 Q844 1363 849 1362.5 Q854 1362 856 1362 Q886 1362 905 1384.5 Q924 1407 931 1470 L1093 1470 Q1075 1322 1006 1248.5 Q937 1175 832 1174 L831 1174 Z M118 0 L195 635 Q209 746 216 841 Q220 890 221.5 925 Q223 960 223 982 L223 1026 L486 1026 L470 889 Q533 970 626 1010 Q719 1052 803 1052 Q893 1052 956 1029 Q1019 1006 1064 952 Q1110 900 1126 808.5 Q1142 717 1125 585 L1054 0 L806 0 L879 602 Q897 737 860 794 Q825 851 727 851 Q692 851 646 835.5 Q600 820 556.5 790 Q513 760 480.5 715.5 Q448 671 441 614 L366 0 L118 0 Z " />
<glyph glyph-name="ograve" unicode="&#xf2;" horiz-adv-x="1286" d="M605 -23 Q470 -23 371 20 Q272 63 215 138 Q161 213 139 308.5 Q117 404 130 513 Q144 625 189.5 720.5 Q235 816 310 891 Q385 966 494.5 1009 Q604 1052 736 1052 Q871 1052 969 1009.5 Q1067 967 1121 892 Q1175 817 1194.5 721.5 Q1214 626 1200 511 Q1187 403 1142.5 309 Q1098 215 1025 140 Q952 65 844 21 Q736 -23 605 -23 Z M624 177 Q699 177 755.5 205 Q812 233 851 280 Q890 327 912.5 388.5 Q935 450 943 516 Q961 664 902 757 Q845 851 708 851 Q637 851 581 824 Q525 797 484.5 751.5 Q444 706 420 645.5 Q396 585 389 516 Q377 424 394 349 Q403 312 422 280.5 Q441 249 470 226 Q499 203 537.5 190 Q576 177 624 177 Z M644 1166 L328 1455 L646 1455 L873 1166 L644 1166 Z " />
<glyph glyph-name="oacute" unicode="&#xf3;" horiz-adv-x="1286" d="M605 -23 Q470 -23 371 20 Q272 63 215 138 Q161 213 139 308.5 Q117 404 130 513 Q144 625 189.5 720.5 Q235 816 310 891 Q385 966 494.5 1009 Q604 1052 736 1052 Q871 1052 969 1009.5 Q1067 967 1121 892 Q1175 817 1194.5 721.5 Q1214 626 1200 511 Q1187 403 1142.5 309 Q1098 215 1025 140 Q952 65 844 21 Q736 -23 605 -23 Z M624 177 Q699 177 755.5 205 Q812 233 851 280 Q890 327 912.5 388.5 Q935 450 943 516 Q961 664 902 757 Q845 851 708 851 Q637 851 581 824 Q525 797 484.5 751.5 Q444 706 420 645.5 Q396 585 389 516 Q377 424 394 349 Q403 312 422 280.5 Q441 249 470 226 Q499 203 537.5 190 Q576 177 624 177 Z M638 1166 L937 1456 L1255 1456 L866 1166 L638 1166 Z " />
<glyph glyph-name="ocircumflex" unicode="&#xf4;" horiz-adv-x="1286" d="M605 -23 Q470 -23 371 20 Q272 63 215 138 Q161 213 139 308.5 Q117 404 130 513 Q144 625 189.5 720.5 Q235 816 310 891 Q385 966 494.5 1009 Q604 1052 736 1052 Q871 1052 969 1009.5 Q1067 967 1121 892 Q1175 817 1194.5 721.5 Q1214 626 1200 511 Q1187 403 1142.5 309 Q1098 215 1025 140 Q952 65 844 21 Q736 -23 605 -23 Z M624 177 Q699 177 755.5 205 Q812 233 851 280 Q890 327 912.5 388.5 Q935 450 943 516 Q961 664 902 757 Q845 851 708 851 Q637 851 581 824 Q525 797 484.5 751.5 Q444 706 420 645.5 Q396 585 389 516 Q377 424 394 349 Q403 312 422 280.5 Q441 249 470 226 Q499 203 537.5 190 Q576 177 624 177 Z M360 1185 L662 1555 L914 1555 L1134 1185 L887 1185 L775 1381 L612 1185 L360 1185 Z " />
<glyph glyph-name="otilde" unicode="&#xf5;" horiz-adv-x="1286" d="M809 1174 Q766 1174 711 1201 Q683 1215 657 1228 Q631 1241 606 1254 Q558 1281 534 1281 Q512 1281 488.5 1256 Q465 1231 453 1179 L293 1179 Q310 1308 379 1388 Q451 1470 547 1470 Q572 1471 599.5 1464 Q627 1457 654 1445.5 Q681 1434 706.5 1419.5 Q732 1405 754 1393 Q776 1381 793 1372.5 Q810 1364 819 1363 Q822 1363 827 1362.5 Q832 1362 834 1362 Q864 1362 883 1384.5 Q902 1407 909 1470 L1071 1470 Q1053 1322 984 1248.5 Q915 1175 810 1174 L809 1174 Z M605 -23 Q470 -23 371 20 Q272 63 215 138 Q161 213 139 308.5 Q117 404 130 513 Q144 625 189.5 720.5 Q235 816 310 891 Q385 966 494.5 1009 Q604 1052 736 1052 Q871 1052 969 1009.5 Q1067 967 1121 892 Q1175 817 1194.5 721.5 Q1214 626 1200 511 Q1187 403 1142.5 309 Q1098 215 1025 140 Q952 65 844 21 Q736 -23 605 -23 Z M624 177 Q699 177 755.5 205 Q812 233 851 280 Q890 327 912.5 388.5 Q935 450 943 516 Q961 664 902 757 Q845 851 708 851 Q637 851 581 824 Q525 797 484.5 751.5 Q444 706 420 645.5 Q396 585 389 516 Q377 424 394 349 Q403 312 422 280.5 Q441 249 470 226 Q499 203 537.5 190 Q576 177 624 177 Z " />
<glyph glyph-name="odieresis" unicode="&#xf6;" horiz-adv-x="1286" d="M605 -23 Q470 -23 371 20 Q272 63 215 138 Q161 213 139 308.5 Q117 404 130 513 Q144 625 189.5 720.5 Q235 816 310 891 Q385 966 494.5 1009 Q604 1052 736 1052 Q871 1052 969 1009.5 Q1067 967 1121 892 Q1175 817 1194.5 721.5 Q1214 626 1200 511 Q1187 403 1142.5 309 Q1098 215 1025 140 Q952 65 844 21 Q736 -23 605 -23 Z M624 177 Q699 177 755.5 205 Q812 233 851 280 Q890 327 912.5 388.5 Q935 450 943 516 Q961 664 902 757 Q845 851 708 851 Q637 851 581 824 Q525 797 484.5 751.5 Q444 706 420 645.5 Q396 585 389 516 Q377 424 394 349 Q403 312 422 280.5 Q441 249 470 226 Q499 203 537.5 190 Q576 177 624 177 Z M845 1151 L872 1376 L1117 1376 L1090 1151 L845 1151 Z M387 1151 L414 1376 L661 1376 L634 1151 L387 1151 Z " />
<glyph glyph-name="divide" unicode="&#xf7;" horiz-adv-x="1499" d="M680 840 L713 1111 L914 1111 L881 840 L680 840 Z M182 449 L207 656 L1293 656 L1268 449 L182 449 Z M577 -19 L611 253 L812 253 L780 -19 L577 -19 Z " />
<glyph glyph-name="oslash" unicode="&#xf8;" horiz-adv-x="1271" d="M796 838 Q756 851 708 851 Q637 851 581 824 Q525 797 484.5 751.5 Q444 706 420 645.5 Q396 585 389 516 Q367 339 448 247 L796 838 Z M535 190 Q571 177 624 177 Q699 177 755.5 205 Q812 233 851 280 Q890 327 912.5 388.5 Q935 450 943 516 Q964 690 884 782 L535 190 Z M605 -23 Q503 -23 424 1 L308 -195 L214 -148 L327 43 Q209 111 160 235 Q112 360 130 513 Q144 625 189.5 720.5 Q235 816 310 891 Q385 966 494.5 1009 Q604 1052 736 1052 Q832 1052 910 1030 L1016 1211 L1110 1165 L1007 991 Q1126 925 1172 798 Q1220 673 1200 511 Q1187 403 1142.5 309 Q1098 215 1025 140 Q952 65 844 21 Q736 -23 605 -23 Z " />
<glyph glyph-name="ugrave" unicode="&#xf9;" horiz-adv-x="1186" d="M481 -23 Q294 -23 204 83 Q112 190 136 376 L215 1026 L461 1026 L382 380 Q369 278 416 227.5 Q463 177 556 177 Q667 177 727.5 232.5 Q788 288 803 411 L878 1026 L1126 1026 L1034 276 L1013 0 L757 0 L771 152 Q755 106 687 47 Q653 17 598.5 -3 Q544 -23 481 -23 Z M600 1166 L284 1455 L602 1455 L829 1166 L600 1166 Z " />
<glyph glyph-name="uacute" unicode="&#xfa;" horiz-adv-x="1186" d="M481 -23 Q294 -23 204 83 Q112 190 136 376 L215 1026 L461 1026 L382 380 Q369 278 416 227.5 Q463 177 556 177 Q667 177 727.5 232.5 Q788 288 803 411 L878 1026 L1126 1026 L1034 276 L1013 0 L757 0 L771 152 Q755 106 687 47 Q653 17 598.5 -3 Q544 -23 481 -23 Z M593 1166 L892 1456 L1210 1456 L821 1166 L593 1166 Z " />
<glyph glyph-name="ucircumflex" unicode="&#xfb;" horiz-adv-x="1186" d="M481 -23 Q294 -23 204 83 Q112 190 136 376 L215 1026 L461 1026 L382 380 Q369 278 416 227.5 Q463 177 556 177 Q667 177 727.5 232.5 Q788 288 803 411 L878 1026 L1126 1026 L1034 276 L1013 0 L757 0 L771 152 Q755 106 687 47 Q653 17 598.5 -3 Q544 -23 481 -23 Z M316 1185 L618 1555 L870 1555 L1090 1185 L843 1185 L731 1381 L568 1185 L316 1185 Z " />
<glyph glyph-name="udieresis" unicode="&#xfc;" horiz-adv-x="1186" d="M481 -23 Q294 -23 204 83 Q112 190 136 376 L215 1026 L461 1026 L382 380 Q369 278 416 227.5 Q463 177 556 177 Q667 177 727.5 232.5 Q788 288 803 411 L878 1026 L1126 1026 L1034 276 L1013 0 L757 0 L771 152 Q755 106 687 47 Q653 17 598.5 -3 Q544 -23 481 -23 Z M801 1151 L828 1376 L1073 1376 L1046 1151 L801 1151 Z M343 1151 L370 1376 L617 1376 L590 1151 L343 1151 Z " />
<glyph glyph-name="yacute" unicode="&#xfd;" horiz-adv-x="1114" d="M75 -277 Q220 -224 297 -165 Q375 -108 408 -27 L428 23 L115 1026 L373 1026 L580 290 L926 1026 L1179 1026 L631 -56 Q574 -163 495 -243 Q415 -325 333 -371 Q251 -417 159 -445 L75 -277 Z M586 1166 L885 1456 L1203 1456 L814 1166 L586 1166 Z " />
<glyph glyph-name="thorn" unicode="&#xfe;" horiz-adv-x="1229" d="M599 177 Q665 177 716 205.5 Q767 234 803 281.5 Q839 329 861 391 Q883 453 891 521 Q899 585 894.5 644 Q890 703 867.5 748.5 Q845 794 802 821.5 Q759 849 691 849 Q620 849 568 819.5 Q516 790 480 741 Q444 692 423 628 Q402 564 393 494 Q375 353 428 264 Q482 177 599 177 Z M51 -395 L279 1464 L517 1464 L451 948 Q498 993 584 1022 Q671 1051 735 1051 Q850 1051 937 1009 Q1024 967 1075 894 Q1126 821 1146 727 Q1166 633 1152 525 Q1139 418 1097 319 Q1055 220 985 144 Q915 68 818.5 22.5 Q722 -23 601 -23 Q529 -23 460 1 Q391 25 339 62 L282 -395 L51 -395 Z " />
<glyph glyph-name="ydieresis" unicode="&#xff;" horiz-adv-x="1114" d="M75 -277 Q220 -224 297 -165 Q375 -108 408 -27 L428 23 L115 1026 L373 1026 L580 290 L926 1026 L1179 1026 L631 -56 Q574 -163 495 -243 Q415 -325 333 -371 Q251 -417 159 -445 L75 -277 Z M793 1151 L820 1376 L1065 1376 L1038 1151 L793 1151 Z M335 1151 L362 1376 L609 1376 L582 1151 L335 1151 Z " />
<glyph glyph-name="Amacron" unicode="&#x100;" horiz-adv-x="1458" d="M579 1576 L598 1733 L1222 1733 L1203 1576 L579 1576 Z M966 592 Q892 932 843 1159 Q754 970 576 592 L966 592 Z M-8 0 L755 1456 L1013 1456 L1425 0 L1138 0 L1040 355 L452 355 L271 0 L-8 0 Z " />
<glyph glyph-name="amacron" unicode="&#x101;" horiz-adv-x="1291" d="M488 1146 L507 1303 L1131 1303 L1112 1146 L488 1146 Z M625 177 Q770 177 845 268 Q923 359 941 513 Q951 591 941.5 654 Q932 717 902.5 760.5 Q873 804 823 827.5 Q773 851 703 851 Q564 851 480 760 Q395 669 377 515 Q357 360 420 269 Q482 177 625 177 Z M570 -23 Q444 -23 351 22 Q258 67 207 142 Q156 217 136.5 308.5 Q117 400 129 502 Q143 610 186.5 706 Q230 802 301 880 Q373 959 479 1005.5 Q585 1052 714 1052 Q899 1052 983 917 L996 1026 L1239 1026 L1114 0 L865 0 L882 140 Q749 -23 570 -23 Z " />
<glyph glyph-name="Abreve" unicode="&#x102;" horiz-adv-x="1458" d="M890 1590 Q587 1590 604 1886 L778 1886 Q775 1810 817 1785 Q839 1773 860 1768.5 Q881 1764 911 1764 Q942 1764 968.5 1769.5 Q995 1775 1015 1788.5 Q1035 1802 1049.5 1826 Q1064 1850 1072 1886 L1245 1886 Q1215 1732 1126 1661 Q1037 1590 890 1590 Z M966 592 Q892 932 843 1159 Q754 970 576 592 L966 592 Z M-8 0 L755 1456 L1013 1456 L1425 0 L1138 0 L1040 355 L452 355 L271 0 L-8 0 Z " />
<glyph glyph-name="abreve" unicode="&#x103;" horiz-adv-x="1291" d="M799 1160 Q496 1160 513 1456 L687 1456 Q684 1380 726 1355 Q748 1343 769 1338.5 Q790 1334 820 1334 Q851 1334 877.5 1339.5 Q904 1345 924 1358.5 Q944 1372 958.5 1396 Q973 1420 981 1456 L1154 1456 Q1124 1302 1035 1231 Q946 1160 799 1160 Z M625 177 Q770 177 845 268 Q923 359 941 513 Q951 591 941.5 654 Q932 717 902.5 760.5 Q873 804 823 827.5 Q773 851 703 851 Q564 851 480 760 Q395 669 377 515 Q357 360 420 269 Q482 177 625 177 Z M570 -23 Q444 -23 351 22 Q258 67 207 142 Q156 217 136.5 308.5 Q117 400 129 502 Q143 610 186.5 706 Q230 802 301 880 Q373 959 479 1005.5 Q585 1052 714 1052 Q899 1052 983 917 L996 1026 L1239 1026 L1114 0 L865 0 L882 140 Q749 -23 570 -23 Z " />
<glyph glyph-name="Aogonek" unicode="&#x104;" horiz-adv-x="1458" d="M1117 -356 Q1017 -356 965.5 -324.5 Q914 -293 922 -227 Q925 -200 935.5 -175.5 Q946 -151 960 -132 Q973 -113 995 -93.5 Q1017 -74 1034 -62 Q1043 -56 1054.5 -49 Q1066 -42 1078.5 -35 Q1091 -28 1102 -22 Q1113 -16 1121 -13 L1161 6 L1195 21 L1330 23 Q1293 3 1263 -20 Q1233 -43 1210.5 -67 Q1188 -91 1175 -114.5 Q1162 -138 1159 -157 Q1153 -204 1216 -204 Q1242 -204 1286.5 -195 Q1331 -186 1394 -167 L1376 -315 Q1235 -356 1117 -356 Z M966 592 Q892 932 843 1159 Q754 970 576 592 L966 592 Z M-8 0 L755 1456 L1013 1456 L1425 0 L1138 0 L1040 355 L452 355 L271 0 L-8 0 Z " />
<glyph glyph-name="aogonek" unicode="&#x105;" horiz-adv-x="1291" d="M860 -356 Q760 -356 708.5 -324.5 Q657 -293 665 -227 Q668 -200 678.5 -175.5 Q689 -151 703 -132 Q716 -113 738 -93.5 Q760 -74 777 -62 Q786 -56 797.5 -49 Q809 -42 821.5 -35 Q834 -28 845 -22 Q856 -16 864 -13 L904 6 L938 21 L1073 23 Q1036 3 1006 -20 Q976 -43 953.5 -67 Q931 -91 918 -114.5 Q905 -138 902 -157 Q896 -204 959 -204 Q985 -204 1029.5 -195 Q1074 -186 1137 -167 L1119 -315 Q978 -356 860 -356 Z M625 177 Q770 177 845 268 Q923 359 941 513 Q951 591 941.5 654 Q932 717 902.5 760.5 Q873 804 823 827.5 Q773 851 703 851 Q564 851 480 760 Q395 669 377 515 Q357 360 420 269 Q482 177 625 177 Z M570 -23 Q444 -23 351 22 Q258 67 207 142 Q156 217 136.5 308.5 Q117 400 129 502 Q143 610 186.5 706 Q230 802 301 880 Q373 959 479 1005.5 Q585 1052 714 1052 Q899 1052 983 917 L996 1026 L1239 1026 L1114 0 L865 0 L882 140 Q749 -23 570 -23 Z " />
<glyph glyph-name="Cacute" unicode="&#x106;" horiz-adv-x="1436" d="M871 1596 L1170 1886 L1488 1886 L1099 1596 L871 1596 Z M792 -22 Q647 -22 523.5 27 Q400 76 309 169 Q218 261 175 405 Q133 552 155 727 Q173 876 228.5 1000.5 Q284 1125 364 1213 Q424 1280 495 1331 Q566 1382 642.5 1416 Q719 1450 799 1467 Q879 1484 957 1483 Q1244 1483 1423 1326 L1303 1149 Q1151 1264 951 1264 Q857 1264 769 1227 Q681 1190 609 1123 Q537 1056 486.5 954.5 Q436 853 421 730 Q391 489 510 343 Q629 197 836 197 Q1055 197 1256 344 L1316 143 Q1085 -22 792 -22 Z " />
<glyph glyph-name="cacute" unicode="&#x107;" horiz-adv-x="1071" d="M601 -23 Q475 -23 377.5 21 Q280 65 223 140 Q166 215 141.5 311.5 Q117 408 131 514 Q149 665 226 787 Q305 910 435 980 Q567 1052 730 1052 Q971 1052 1085 914 L976 754 Q876 852 731 852 Q585 852 496 760 Q407 669 387 513 Q369 362 441 269 Q512 177 656 177 Q708 177 750.5 187.5 Q793 198 827 215 Q843 223 852 227.5 Q861 232 875 241 L894 253 Q897 254 902 257.5 Q907 261 912 264.5 Q917 268 921 271 Q925 274 925 274 L978 92 Q931 62 886 40.5 Q841 19 795 4.5 Q749 -10 701 -16.5 Q653 -23 601 -23 Z M638 1166 L937 1456 L1255 1456 L866 1166 L638 1166 Z " />
<glyph glyph-name="Ccircumflex" unicode="&#x108;" horiz-adv-x="1436" d="M594 1615 L896 1985 L1148 1985 L1368 1615 L1121 1615 L1009 1811 L846 1615 L594 1615 Z M792 -22 Q647 -22 523.5 27 Q400 76 309 169 Q218 261 175 405 Q133 552 155 727 Q173 876 228.5 1000.5 Q284 1125 364 1213 Q424 1280 495 1331 Q566 1382 642.5 1416 Q719 1450 799 1467 Q879 1484 957 1483 Q1244 1483 1423 1326 L1303 1149 Q1151 1264 951 1264 Q857 1264 769 1227 Q681 1190 609 1123 Q537 1056 486.5 954.5 Q436 853 421 730 Q391 489 510 343 Q629 197 836 197 Q1055 197 1256 344 L1316 143 Q1085 -22 792 -22 Z " />
<glyph glyph-name="ccircumflex" unicode="&#x109;" horiz-adv-x="1071" d="M361 1185 L663 1555 L915 1555 L1135 1185 L888 1185 L776 1381 L613 1185 L361 1185 Z M601 -23 Q475 -23 377.5 21 Q280 65 223 140 Q166 215 141.5 311.5 Q117 408 131 514 Q149 665 226 787 Q305 910 435 980 Q567 1052 730 1052 Q971 1052 1085 914 L976 754 Q876 852 731 852 Q585 852 496 760 Q407 669 387 513 Q369 362 441 269 Q512 177 656 177 Q708 177 750.5 187.5 Q793 198 827 215 Q843 223 852 227.5 Q861 232 875 241 L894 253 Q897 254 902 257.5 Q907 261 912 264.5 Q917 268 921 271 Q925 274 925 274 L978 92 Q931 62 886 40.5 Q841 19 795 4.5 Q749 -10 701 -16.5 Q653 -23 601 -23 Z " />
<glyph glyph-name="Cdotaccent" unicode="&#x10a;" horiz-adv-x="1436" d="M867 1596 L895 1824 L1141 1824 L1113 1596 L867 1596 Z M792 -22 Q647 -22 523.5 27 Q400 76 309 169 Q218 261 175 405 Q133 552 155 727 Q173 876 228.5 1000.5 Q284 1125 364 1213 Q424 1280 495 1331 Q566 1382 642.5 1416 Q719 1450 799 1467 Q879 1484 957 1483 Q1244 1483 1423 1326 L1303 1149 Q1151 1264 951 1264 Q857 1264 769 1227 Q681 1190 609 1123 Q537 1056 486.5 954.5 Q436 853 421 730 Q391 489 510 343 Q629 197 836 197 Q1055 197 1256 344 L1316 143 Q1085 -22 792 -22 Z " />
<glyph glyph-name="cdotaccent" unicode="&#x10b;" horiz-adv-x="1071" d="M635 1166 L663 1394 L909 1394 L881 1166 L635 1166 Z M601 -23 Q475 -23 377.5 21 Q280 65 223 140 Q166 215 141.5 311.5 Q117 408 131 514 Q149 665 226 787 Q305 910 435 980 Q567 1052 730 1052 Q971 1052 1085 914 L976 754 Q876 852 731 852 Q585 852 496 760 Q407 669 387 513 Q369 362 441 269 Q512 177 656 177 Q708 177 750.5 187.5 Q793 198 827 215 Q843 223 852 227.5 Q861 232 875 241 L894 253 Q897 254 902 257.5 Q907 261 912 264.5 Q917 268 921 271 Q925 274 925 274 L978 92 Q931 62 886 40.5 Q841 19 795 4.5 Q749 -10 701 -16.5 Q653 -23 601 -23 Z " />
<glyph glyph-name="Ccaron" unicode="&#x10c;" horiz-adv-x="1436" d="M866 1615 L630 1982 L884 1982 L985 1837 L1126 1982 L1392 1982 L1068 1615 L866 1615 Z M792 -22 Q647 -22 523.5 27 Q400 76 309 169 Q218 261 175 405 Q133 552 155 727 Q173 876 228.5 1000.5 Q284 1125 364 1213 Q424 1280 495 1331 Q566 1382 642.5 1416 Q719 1450 799 1467 Q879 1484 957 1483 Q1244 1483 1423 1326 L1303 1149 Q1151 1264 951 1264 Q857 1264 769 1227 Q681 1190 609 1123 Q537 1056 486.5 954.5 Q436 853 421 730 Q391 489 510 343 Q629 197 836 197 Q1055 197 1256 344 L1316 143 Q1085 -22 792 -22 Z " />
<glyph glyph-name="ccaron" unicode="&#x10d;" horiz-adv-x="1071" d="M633 1185 L397 1552 L651 1552 L752 1407 L893 1552 L1159 1552 L835 1185 L633 1185 Z M601 -23 Q475 -23 377.5 21 Q280 65 223 140 Q166 215 141.5 311.5 Q117 408 131 514 Q149 665 226 787 Q305 910 435 980 Q567 1052 730 1052 Q971 1052 1085 914 L976 754 Q876 852 731 852 Q585 852 496 760 Q407 669 387 513 Q369 362 441 269 Q512 177 656 177 Q708 177 750.5 187.5 Q793 198 827 215 Q843 223 852 227.5 Q861 232 875 241 L894 253 Q897 254 902 257.5 Q907 261 912 264.5 Q917 268 921 271 Q925 274 925 274 L978 92 Q931 62 886 40.5 Q841 19 795 4.5 Q749 -10 701 -16.5 Q653 -23 601 -23 Z " />
<glyph glyph-name="Dcaron" unicode="&#x10e;" horiz-adv-x="1571" d="M778 1615 L542 1982 L796 1982 L897 1837 L1038 1982 L1304 1982 L980 1615 L778 1615 Z M150 0 L328 1456 L734 1456 Q953 1456 1110 1409 Q1267 1362 1364.5 1270.5 Q1462 1179 1499 1045 Q1536 911 1515 737 Q1493 557 1422.5 419 Q1352 281 1236 188 Q1120 95 959.5 47.5 Q799 0 597 0 L150 0 Z M430 218 L636 218 Q902 218 1058 349.5 Q1214 481 1246 738 Q1276 981 1149.5 1109.5 Q1023 1238 731 1238 L556 1238 L430 218 Z " />
<glyph glyph-name="dcaron" unicode="&#x10f;" horiz-adv-x="1267" d="M608 177 Q678 177 730.5 205 Q783 233 819.5 280 Q856 327 877.5 387 Q899 447 907 512 Q926 661 872 756 Q819 851 689 851 Q603 851 536 804 Q470 756 436 684 Q402 612 391 516 Q383 450 389.5 388.5 Q396 327 421 280 Q446 233 491.5 205 Q537 177 608 177 Z M533 -23 Q334 -23 217 123 Q100 270 130 508 Q144 617 186.5 714 Q229 811 296 887 Q365 963 465.5 1007.5 Q566 1052 684 1052 Q789 1052 857 1008 Q927 964 949 918 L1015 1457 L1261 1457 L1116 274 Q1116 271 1109.5 203 Q1103 135 1092 0 L838 0 L852 131 Q840 108 816 84 Q792 60 754 34 Q716 9 658 -7 Q600 -23 533 -23 Z M1364 951 L1539 1456 L1819 1456 L1576 951 L1364 951 Z " />
<glyph glyph-name="Dcroat" unicode="&#x110;" horiz-adv-x="1571" d="M79.667 664.769 L102.229 814.76 L722.194 814.76 L699.632 664.769 L79.667 664.769 Z M150 0 L328 1456 L734 1456 Q953 1456 1110 1409 Q1267 1362 1364.5 1270.5 Q1462 1179 1499 1045 Q1536 911 1515 737 Q1493 557 1422.5 419 Q1352 281 1236 188 Q1120 95 959.5 47.5 Q799 0 597 0 L150 0 Z M430 218 L636 218 Q902 218 1058 349.5 Q1214 481 1246 738 Q1276 981 1149.5 1109.5 Q1023 1238 731 1238 L556 1238 L430 218 Z " />
<glyph glyph-name="dslash" unicode="&#x111;" horiz-adv-x="1267" d="M793 1149 L812 1306 L1436 1306 L1417 1149 L793 1149 Z M608 177 Q678 177 730.5 205 Q783 233 819.5 280 Q856 327 877.5 387 Q899 447 907 512 Q926 661 872 756 Q819 851 689 851 Q603 851 536 804 Q470 756 436 684 Q402 612 391 516 Q383 450 389.5 388.5 Q396 327 421 280 Q446 233 491.5 205 Q537 177 608 177 Z M533 -23 Q334 -23 217 123 Q100 270 130 508 Q144 617 186.5 714 Q229 811 296 887 Q365 963 465.5 1007.5 Q566 1052 684 1052 Q789 1052 857 1008 Q927 964 949 918 L1015 1457 L1261 1457 L1116 274 Q1116 271 1109.5 203 Q1103 135 1092 0 L838 0 L852 131 Q840 108 816 84 Q792 60 754 34 Q716 9 658 -7 Q600 -23 533 -23 Z " />
<glyph glyph-name="Emacron" unicode="&#x112;" horiz-adv-x="1249" d="M517 1576 L536 1733 L1160 1733 L1141 1576 L517 1576 Z M150 0 L328 1456 L1247 1456 L1221 1238 L556 1238 L508 849 L1137 849 L1110 630 L484 630 L433 218 L1124 218 L1098 0 L150 0 Z " />
<glyph glyph-name="emacron" unicode="&#x113;" horiz-adv-x="1206" d="M475 1146 L494 1303 L1118 1303 L1099 1146 L475 1146 Z M921 636 Q916 745 860 803 Q804 861 713 861 Q605 861 526.5 801.5 Q448 742 411 636 L921 636 Z M623 -23 Q364 -23 232 125 Q101 273 130 512 Q144 621 191.5 717.5 Q239 814 314 889 Q389 964 494.5 1008 Q600 1052 723 1052 Q846 1052 930.5 1010 Q1015 968 1060 892 Q1105 817 1118.5 723.5 Q1132 630 1118 515 Q1116 501 1113.5 490 Q1111 479 1107 471 L387 471 Q381 396 398 340.5 Q415 285 451.5 249 Q488 213 543.5 195 Q599 177 670 177 Q836 177 1008 287 L1053 107 Q948 40 845.5 8.5 Q743 -23 623 -23 Z " />
<glyph glyph-name="Ebreve" unicode="&#x114;" horiz-adv-x="1249" d="M829 1590 Q526 1590 543 1886 L717 1886 Q714 1810 756 1785 Q778 1773 799 1768.5 Q820 1764 850 1764 Q881 1764 907.5 1769.5 Q934 1775 954 1788.5 Q974 1802 988.5 1826 Q1003 1850 1011 1886 L1184 1886 Q1154 1732 1065 1661 Q976 1590 829 1590 Z M150 0 L328 1456 L1247 1456 L1221 1238 L556 1238 L508 849 L1137 849 L1110 630 L484 630 L433 218 L1124 218 L1098 0 L150 0 Z " />
<glyph glyph-name="ebreve" unicode="&#x115;" horiz-adv-x="1206" d="M921 636 Q916 745 860 803 Q804 861 713 861 Q605 861 526.5 801.5 Q448 742 411 636 L921 636 Z M623 -23 Q364 -23 232 125 Q101 273 130 512 Q144 621 191.5 717.5 Q239 814 314 889 Q389 964 494.5 1008 Q600 1052 723 1052 Q846 1052 930.5 1010 Q1015 968 1060 892 Q1105 817 1118.5 723.5 Q1132 630 1118 515 Q1116 501 1113.5 490 Q1111 479 1107 471 L387 471 Q381 396 398 340.5 Q415 285 451.5 249 Q488 213 543.5 195 Q599 177 670 177 Q836 177 1008 287 L1053 107 Q948 40 845.5 8.5 Q743 -23 623 -23 Z M786 1160 Q483 1160 500 1456 L674 1456 Q671 1380 713 1355 Q735 1343 756 1338.5 Q777 1334 807 1334 Q838 1334 864.5 1339.5 Q891 1345 911 1358.5 Q931 1372 945.5 1396 Q960 1420 968 1456 L1141 1456 Q1111 1302 1022 1231 Q933 1160 786 1160 Z " />
<glyph glyph-name="Edotaccent" unicode="&#x116;" horiz-adv-x="1249" d="M710 1596 L738 1824 L984 1824 L956 1596 L710 1596 Z M150 0 L328 1456 L1247 1456 L1221 1238 L556 1238 L508 849 L1137 849 L1110 630 L484 630 L433 218 L1124 218 L1098 0 L150 0 Z " />
<glyph glyph-name="edotaccent" unicode="&#x117;" horiz-adv-x="1206" d="M921 636 Q916 745 860 803 Q804 861 713 861 Q605 861 526.5 801.5 Q448 742 411 636 L921 636 Z M623 -23 Q364 -23 232 125 Q101 273 130 512 Q144 621 191.5 717.5 Q239 814 314 889 Q389 964 494.5 1008 Q600 1052 723 1052 Q846 1052 930.5 1010 Q1015 968 1060 892 Q1105 817 1118.5 723.5 Q1132 630 1118 515 Q1116 501 1113.5 490 Q1111 479 1107 471 L387 471 Q381 396 398 340.5 Q415 285 451.5 249 Q488 213 543.5 195 Q599 177 670 177 Q836 177 1008 287 L1053 107 Q948 40 845.5 8.5 Q743 -23 623 -23 Z M667 1166 L695 1394 L941 1394 L913 1166 L667 1166 Z " />
<glyph glyph-name="Eogonek" unicode="&#x118;" horiz-adv-x="1249" d="M643 -356 Q543 -356 491.5 -324.5 Q440 -293 448 -227 Q451 -200 461.5 -175.5 Q472 -151 486 -132 Q499 -113 521 -93.5 Q543 -74 560 -62 Q569 -56 580.5 -49 Q592 -42 604.5 -35 Q617 -28 628 -22 Q639 -16 647 -13 L687 6 L721 21 L856 23 Q819 3 789 -20 Q759 -43 736.5 -67 Q714 -91 701 -114.5 Q688 -138 685 -157 Q679 -204 742 -204 Q768 -204 812.5 -195 Q857 -186 920 -167 L902 -315 Q761 -356 643 -356 Z M150 0 L328 1456 L1247 1456 L1221 1238 L556 1238 L508 849 L1137 849 L1110 630 L484 630 L433 218 L1124 218 L1098 0 L150 0 Z " />
<glyph glyph-name="eogonek" unicode="&#x119;" horiz-adv-x="1206" d="M680 -356 Q580 -356 528.5 -324.5 Q477 -293 485 -227 Q488 -200 498.5 -175.5 Q509 -151 523 -132 Q536 -113 558 -93.5 Q580 -74 597 -62 Q606 -56 617.5 -49 Q629 -42 641.5 -35 Q654 -28 665 -22 Q676 -16 684 -13 L724 6 L758 21 L893 23 Q856 3 826 -20 Q796 -43 773.5 -67 Q751 -91 738 -114.5 Q725 -138 722 -157 Q716 -204 779 -204 Q805 -204 849.5 -195 Q894 -186 957 -167 L939 -315 Q798 -356 680 -356 Z M921 636 Q916 745 860 803 Q804 861 713 861 Q605 861 526.5 801.5 Q448 742 411 636 L921 636 Z M623 -23 Q364 -23 232 125 Q101 273 130 512 Q144 621 191.5 717.5 Q239 814 314 889 Q389 964 494.5 1008 Q600 1052 723 1052 Q846 1052 930.5 1010 Q1015 968 1060 892 Q1105 817 1118.5 723.5 Q1132 630 1118 515 Q1116 501 1113.5 490 Q1111 479 1107 471 L387 471 Q381 396 398 340.5 Q415 285 451.5 249 Q488 213 543.5 195 Q599 177 670 177 Q836 177 1008 287 L1053 107 Q948 40 845.5 8.5 Q743 -23 623 -23 Z " />
<glyph glyph-name="Ecaron" unicode="&#x11a;" horiz-adv-x="1249" d="M708 1615 L472 1982 L726 1982 L827 1837 L968 1982 L1234 1982 L910 1615 L708 1615 Z M150 0 L328 1456 L1247 1456 L1221 1238 L556 1238 L508 849 L1137 849 L1110 630 L484 630 L433 218 L1124 218 L1098 0 L150 0 Z " />
<glyph glyph-name="ecaron" unicode="&#x11b;" horiz-adv-x="1206" d="M921 636 Q916 745 860 803 Q804 861 713 861 Q605 861 526.5 801.5 Q448 742 411 636 L921 636 Z M623 -23 Q364 -23 232 125 Q101 273 130 512 Q144 621 191.5 717.5 Q239 814 314 889 Q389 964 494.5 1008 Q600 1052 723 1052 Q846 1052 930.5 1010 Q1015 968 1060 892 Q1105 817 1118.5 723.5 Q1132 630 1118 515 Q1116 501 1113.5 490 Q1111 479 1107 471 L387 471 Q381 396 398 340.5 Q415 285 451.5 249 Q488 213 543.5 195 Q599 177 670 177 Q836 177 1008 287 L1053 107 Q948 40 845.5 8.5 Q743 -23 623 -23 Z M666 1185 L430 1552 L684 1552 L785 1407 L926 1552 L1192 1552 L868 1185 L666 1185 Z " />
<glyph glyph-name="Gcircumflex" unicode="&#x11c;" horiz-adv-x="1538" d="M604 1615 L906 1985 L1158 1985 L1378 1615 L1131 1615 L1019 1811 L856 1615 L604 1615 Z M808 -23 Q448 -23 279 173 Q110 368 151 704 Q166 830 212 944.5 Q258 1059 334 1158 Q389 1231 461 1290.5 Q533 1350 619.5 1393 Q706 1436 806.5 1459.5 Q907 1483 1019 1483 Q1122 1483 1204.5 1468.5 Q1287 1454 1344 1427 Q1403 1399 1427 1382 Q1454 1366 1486 1338 L1362 1160 Q1231 1264 993 1264 Q866 1264 760.5 1217 Q655 1170 585 1091 Q516 1012 473 916.5 Q430 821 417 715 Q403 601 422 505.5 Q441 410 493.5 340.5 Q546 271 634 232.5 Q722 194 846 194 Q966 194 1100 232 L1142 576 L802 576 L829 793 L1427 793 L1340 88 Q1077 -23 808 -23 Z " />
<glyph glyph-name="gcircumflex" unicode="&#x11d;" horiz-adv-x="1235" d="M608 187 Q684 187 737 216.5 Q790 246 824 293 Q858 340 876.5 398.5 Q895 457 902 516 Q920 666 869 758 Q818 851 693 851 Q607 851 540 802 Q474 754 438 680 Q402 606 391 515 Q382 438 390 377 Q398 316 424.5 274 Q451 232 496.5 209.5 Q542 187 608 187 Z M486 -418 Q285 -418 105 -348 L174 -134 Q315 -212 493 -212 Q637 -212 726 -150.5 Q815 -89 830 35 L840 122 Q738 0 569 0 Q340 0 222 139 Q101 280 131 515 Q144 624 184.5 718 Q225 812 292 888 Q358 964 458 1008 Q558 1052 679 1052 Q775 1052 841 1014 Q907 976 939 916 L952 1026 L1215 1026 Q1196 950 1180.5 864.5 Q1165 779 1153 682 L1088 147 Q1018 -418 486 -418 Z M334 1185 L636 1555 L888 1555 L1108 1185 L861 1185 L749 1381 L586 1185 L334 1185 Z " />
<glyph glyph-name="Gbreve" unicode="&#x11e;" horiz-adv-x="1538" d="M996 1590 Q693 1590 710 1886 L884 1886 Q881 1810 923 1785 Q945 1773 966 1768.5 Q987 1764 1017 1764 Q1048 1764 1074.5 1769.5 Q1101 1775 1121 1788.5 Q1141 1802 1155.5 1826 Q1170 1850 1178 1886 L1351 1886 Q1321 1732 1232 1661 Q1143 1590 996 1590 Z M808 -23 Q448 -23 279 173 Q110 368 151 704 Q166 830 212 944.5 Q258 1059 334 1158 Q389 1231 461 1290.5 Q533 1350 619.5 1393 Q706 1436 806.5 1459.5 Q907 1483 1019 1483 Q1122 1483 1204.5 1468.5 Q1287 1454 1344 1427 Q1403 1399 1427 1382 Q1454 1366 1486 1338 L1362 1160 Q1231 1264 993 1264 Q866 1264 760.5 1217 Q655 1170 585 1091 Q516 1012 473 916.5 Q430 821 417 715 Q403 601 422 505.5 Q441 410 493.5 340.5 Q546 271 634 232.5 Q722 194 846 194 Q966 194 1100 232 L1142 576 L802 576 L829 793 L1427 793 L1340 88 Q1077 -23 808 -23 Z " />
<glyph glyph-name="gbreve" unicode="&#x11f;" horiz-adv-x="1235" d="M608 187 Q684 187 737 216.5 Q790 246 824 293 Q858 340 876.5 398.5 Q895 457 902 516 Q920 666 869 758 Q818 851 693 851 Q607 851 540 802 Q474 754 438 680 Q402 606 391 515 Q382 438 390 377 Q398 316 424.5 274 Q451 232 496.5 209.5 Q542 187 608 187 Z M486 -418 Q285 -418 105 -348 L174 -134 Q315 -212 493 -212 Q637 -212 726 -150.5 Q815 -89 830 35 L840 122 Q738 0 569 0 Q340 0 222 139 Q101 280 131 515 Q144 624 184.5 718 Q225 812 292 888 Q358 964 458 1008 Q558 1052 679 1052 Q775 1052 841 1014 Q907 976 939 916 L952 1026 L1215 1026 Q1196 950 1180.5 864.5 Q1165 779 1153 682 L1088 147 Q1018 -418 486 -418 Z M726 1160 Q423 1160 440 1456 L614 1456 Q611 1380 653 1355 Q675 1343 696 1338.5 Q717 1334 747 1334 Q778 1334 804.5 1339.5 Q831 1345 851 1358.5 Q871 1372 885.5 1396 Q900 1420 908 1456 L1081 1456 Q1051 1302 962 1231 Q873 1160 726 1160 Z " />
<glyph glyph-name="Gdotaccent" unicode="&#x120;" horiz-adv-x="1538" d="M877 1596 L905 1824 L1151 1824 L1123 1596 L877 1596 Z M808 -23 Q448 -23 279 173 Q110 368 151 704 Q166 830 212 944.5 Q258 1059 334 1158 Q389 1231 461 1290.5 Q533 1350 619.5 1393 Q706 1436 806.5 1459.5 Q907 1483 1019 1483 Q1122 1483 1204.5 1468.5 Q1287 1454 1344 1427 Q1403 1399 1427 1382 Q1454 1366 1486 1338 L1362 1160 Q1231 1264 993 1264 Q866 1264 760.5 1217 Q655 1170 585 1091 Q516 1012 473 916.5 Q430 821 417 715 Q403 601 422 505.5 Q441 410 493.5 340.5 Q546 271 634 232.5 Q722 194 846 194 Q966 194 1100 232 L1142 576 L802 576 L829 793 L1427 793 L1340 88 Q1077 -23 808 -23 Z " />
<glyph glyph-name="gdotaccent" unicode="&#x121;" horiz-adv-x="1235" d="M608 187 Q684 187 737 216.5 Q790 246 824 293 Q858 340 876.5 398.5 Q895 457 902 516 Q920 666 869 758 Q818 851 693 851 Q607 851 540 802 Q474 754 438 680 Q402 606 391 515 Q382 438 390 377 Q398 316 424.5 274 Q451 232 496.5 209.5 Q542 187 608 187 Z M486 -418 Q285 -418 105 -348 L174 -134 Q315 -212 493 -212 Q637 -212 726 -150.5 Q815 -89 830 35 L840 122 Q738 0 569 0 Q340 0 222 139 Q101 280 131 515 Q144 624 184.5 718 Q225 812 292 888 Q358 964 458 1008 Q558 1052 679 1052 Q775 1052 841 1014 Q907 976 939 916 L952 1026 L1215 1026 Q1196 950 1180.5 864.5 Q1165 779 1153 682 L1088 147 Q1018 -418 486 -418 Z M608 1166 L636 1394 L882 1394 L854 1166 L608 1166 Z " />
<glyph glyph-name="Gcommaaccent" unicode="&#x122;" horiz-adv-x="1538" d="M550 -647 L724 -142 L1003 -142 L761 -647 L550 -647 Z M808 -23 Q448 -23 279 173 Q110 368 151 704 Q166 830 212 944.5 Q258 1059 334 1158 Q389 1231 461 1290.5 Q533 1350 619.5 1393 Q706 1436 806.5 1459.5 Q907 1483 1019 1483 Q1122 1483 1204.5 1468.5 Q1287 1454 1344 1427 Q1403 1399 1427 1382 Q1454 1366 1486 1338 L1362 1160 Q1231 1264 993 1264 Q866 1264 760.5 1217 Q655 1170 585 1091 Q516 1012 473 916.5 Q430 821 417 715 Q403 601 422 505.5 Q441 410 493.5 340.5 Q546 271 634 232.5 Q722 194 846 194 Q966 194 1100 232 L1142 576 L802 576 L829 793 L1427 793 L1340 88 Q1077 -23 808 -23 Z " />
<glyph glyph-name="gcommaaccent" unicode="&#x123;" horiz-adv-x="1235" d="M1133 1736 L960 1239 L682 1239 L923 1736 L1133 1736 Z M608 187 Q684 187 737 216.5 Q790 246 824 293 Q858 340 876.5 398.5 Q895 457 902 516 Q920 666 869 758 Q818 851 693 851 Q607 851 540 802 Q474 754 438 680 Q402 606 391 515 Q382 438 390 377 Q398 316 424.5 274 Q451 232 496.5 209.5 Q542 187 608 187 Z M486 -418 Q285 -418 105 -348 L174 -134 Q315 -212 493 -212 Q637 -212 726 -150.5 Q815 -89 830 35 L840 122 Q738 0 569 0 Q340 0 222 139 Q101 280 131 515 Q144 624 184.5 718 Q225 812 292 888 Q358 964 458 1008 Q558 1052 679 1052 Q775 1052 841 1014 Q907 976 939 916 L952 1026 L1215 1026 Q1196 950 1180.5 864.5 Q1165 779 1153 682 L1088 147 Q1018 -418 486 -418 Z " />
<glyph glyph-name="Hcircumflex" unicode="&#x124;" horiz-adv-x="1572" d="M538 1615 L840 1985 L1092 1985 L1312 1615 L1065 1615 L953 1811 L790 1615 L538 1615 Z M150 0 L328 1456 L582 1456 L509 857 L1192 857 L1265 1456 L1519 1456 L1341 0 L1092 0 L1170 637 L487 637 L409 0 L150 0 Z " />
<glyph glyph-name="hcircumflex" unicode="&#x125;" horiz-adv-x="1219" d="M104 0 L282 1457 L530 1457 L461 893 Q508 965 605 1008 Q705 1052 788 1052 Q898 1052 966 1016 Q1034 980 1070 921 Q1095 881 1107 840 Q1119 799 1122 748 Q1127 697 1125.5 656.5 Q1124 616 1119 571 L1049 0 L801 0 L872 579 Q889 724 852 787.5 Q815 851 725 851 Q624 851 530 780 Q439 709 427 618 L352 0 L104 0 Z M506 1185 L808 1555 L1060 1555 L1280 1185 L1033 1185 L921 1381 L758 1185 L506 1185 Z " />
<glyph glyph-name="Hbar" unicode="&#x126;" horiz-adv-x="1572" d="M225 1062 L243 1213 L1608 1213 L1590 1062 L225 1062 Z M190 0 L368 1456 L622 1456 L549 857 L1232 857 L1305 1456 L1559 1456 L1381 0 L1132 0 L1210 637 L527 637 L449 0 L190 0 Z " />
<glyph glyph-name="hbar" unicode="&#x127;" horiz-adv-x="1219" d="M117 1149 L136 1306 L760 1306 L741 1149 L117 1149 Z M104 0 L282 1457 L530 1457 L461 893 Q508 965 605 1008 Q705 1052 788 1052 Q898 1052 966 1016 Q1034 980 1070 921 Q1095 881 1107 840 Q1119 799 1122 748 Q1127 697 1125.5 656.5 Q1124 616 1119 571 L1049 0 L801 0 L872 579 Q889 724 852 787.5 Q815 851 725 851 Q624 851 530 780 Q439 709 427 618 L352 0 L104 0 Z " />
<glyph glyph-name="Itilde" unicode="&#x128;" horiz-adv-x="586" d="M594 1646 Q551 1646 496 1673 Q468 1687 442 1700 Q416 1713 391 1726 Q343 1753 319 1753 Q297 1753 273.5 1728 Q250 1703 238 1651 L78 1651 Q95 1780 164 1860 Q236 1942 332 1942 Q357 1943 384.5 1936 Q412 1929 439 1917.5 Q466 1906 491.5 1891.5 Q517 1877 539 1865 Q561 1853 578 1844.5 Q595 1836 604 1835 Q607 1835 612 1834.5 Q617 1834 619 1834 Q649 1834 668 1856.5 Q687 1879 694 1942 L856 1942 Q838 1794 769 1720.5 Q700 1647 595 1646 L594 1646 Z M120 0 L298 1456 L552 1456 L374 0 L120 0 Z " />
<glyph glyph-name="itilde" unicode="&#x129;" horiz-adv-x="485" d="M482 1215 Q439 1215 384 1242 Q356 1256 330 1269 Q304 1282 279 1295 Q231 1322 207 1322 Q185 1322 161.5 1297 Q138 1272 126 1220 L-34 1220 Q-17 1349 52 1429 Q124 1511 220 1511 Q245 1512 272.5 1505 Q300 1498 327 1486.5 Q354 1475 379.5 1460.5 Q405 1446 427 1434 Q449 1422 466 1413.5 Q483 1405 492 1404 Q495 1404 500 1403.5 Q505 1403 507 1403 Q537 1403 556 1425.5 Q575 1448 582 1511 L744 1511 Q726 1363 657 1289.5 Q588 1216 483 1215 L482 1215 Z M63 0 L188 1026 L437 1026 L312 0 L63 0 Z " />
<glyph glyph-name="Imacron" unicode="&#x12a;" horiz-adv-x="586" d="M177 1646 L196 1803 L820 1803 L801 1646 L177 1646 Z M120 0 L298 1456 L552 1456 L374 0 L120 0 Z " />
<glyph glyph-name="imacron" unicode="&#x12b;" horiz-adv-x="485" d="M65 1215 L84 1372 L708 1372 L689 1215 L65 1215 Z M63 0 L188 1026 L437 1026 L312 0 L63 0 Z " />
<glyph glyph-name="Ibreve" unicode="&#x12c;" horiz-adv-x="586" d="M450 1646 Q147 1646 164 1942 L338 1942 Q335 1866 377 1841 Q399 1829 420 1824.5 Q441 1820 471 1820 Q502 1820 528.5 1825.5 Q555 1831 575 1844.5 Q595 1858 609.5 1882 Q624 1906 632 1942 L805 1942 Q775 1788 686 1717 Q597 1646 450 1646 Z M120 0 L298 1456 L552 1456 L374 0 L120 0 Z " />
<glyph glyph-name="ibreve" unicode="&#x12d;" horiz-adv-x="485" d="M63 0 L188 1026 L437 1026 L312 0 L63 0 Z M338 1215 Q35 1215 52 1511 L226 1511 Q223 1435 265 1410 Q287 1398 308 1393.5 Q329 1389 359 1389 Q390 1389 416.5 1394.5 Q443 1400 463 1413.5 Q483 1427 497.5 1451 Q512 1475 520 1511 L693 1511 Q663 1357 574 1286 Q485 1215 338 1215 Z " />
<glyph glyph-name="Iogonek" unicode="&#x12e;" horiz-adv-x="586" d="M149 -356 Q49 -356 -2.5 -324.5 Q-54 -293 -46 -227 Q-43 -200 -32.5 -175.5 Q-22 -151 -8 -132 Q5 -113 27 -93.5 Q49 -74 66 -62 Q75 -56 86.5 -49 Q98 -42 110.5 -35 Q123 -28 134 -22 Q145 -16 153 -13 L193 6 L227 21 L362 23 Q325 3 295 -20 Q265 -43 242.5 -67 Q220 -91 207 -114.5 Q194 -138 191 -157 Q185 -204 248 -204 Q274 -204 318.5 -195 Q363 -186 426 -167 L408 -315 Q267 -356 149 -356 Z M120 0 L298 1456 L552 1456 L374 0 L120 0 Z " />
<glyph glyph-name="iogonek" unicode="&#x12f;" horiz-adv-x="485" d="M115 -356 Q15 -356 -36.5 -324.5 Q-88 -293 -80 -227 Q-77 -200 -66.5 -175.5 Q-56 -151 -42 -132 Q-29 -113 -7 -93.5 Q15 -74 32 -62 Q41 -56 52.5 -49 Q64 -42 76.5 -35 Q89 -28 100 -22 Q111 -16 119 -13 L159 6 L193 21 L328 23 Q291 3 261 -20 Q231 -43 208.5 -67 Q186 -91 173 -114.5 Q160 -138 157 -157 Q151 -204 214 -204 Q240 -204 284.5 -195 Q329 -186 392 -167 L374 -315 Q233 -356 115 -356 Z M63 0 L188 1026 L437 1026 L312 0 L63 0 Z M216 1166 L244 1394 L490 1394 L462 1166 L216 1166 Z " />
<glyph glyph-name="Idot" unicode="&#x130;" horiz-adv-x="586" d="M327 1596 L355 1824 L601 1824 L573 1596 L327 1596 Z M120 0 L298 1456 L552 1456 L374 0 L120 0 Z " />
<glyph glyph-name="dotlessi" unicode="&#x131;" horiz-adv-x="485" d="M63 0 L188 1026 L437 1026 L312 0 L63 0 Z " />
<glyph glyph-name="IJ" unicode="&#x132;" horiz-adv-x="1605" d="M960 401 Q958 360 975 322.5 Q992 285 1021.5 256.5 Q1051 228 1090.5 211 Q1130 194 1173 194 Q1241 194 1295 224 Q1349 254 1388.5 307.5 Q1428 361 1453 433 Q1478 505 1489 589 L1595 1456 L1849 1456 L1744 598 Q1727 463 1690 349.5 Q1653 236 1584 153 Q1515 70 1408.5 23.5 Q1302 -23 1148 -23 Q1056 -23 978.5 4.5 Q901 32 844 81.5 Q787 131 754 200 Q721 269 718 353 L960 401 Z M120 0 L298 1456 L552 1456 L374 0 L120 0 Z " />
<glyph glyph-name="ij" unicode="&#x133;" horiz-adv-x="1124" d="M858 1228 L886 1456 L1132 1456 L1104 1228 L858 1228 Z M539 -362 Q485 -362 437.5 -354 Q390 -346 358 -335 L407 -165 Q465 -184 547 -184 Q594 -184 622.5 -168 Q651 -152 667.5 -124.5 Q684 -97 691.5 -60 Q699 -23 704 20 L827 1026 L1080 1026 L953 -9 Q941 -104 913.5 -171 Q886 -238 836.5 -280.5 Q787 -323 714 -342.5 Q641 -362 539 -362 Z M407 -165 L404 -164 L407 -164 L407 -165 Z M254 1238 L280 1456 L520 1456 L494 1238 L254 1238 Z M103 0 L228 1026 L467 1026 L342 0 L103 0 Z " />
<glyph glyph-name="Jcircumflex" unicode="&#x134;" horiz-adv-x="1019" d="M472 1615 L774 1985 L1026 1985 L1246 1615 L999 1615 L887 1811 L724 1615 L472 1615 Z M374 401 Q372 360 389 322.5 Q406 285 435.5 256.5 Q465 228 504.5 211 Q544 194 587 194 Q655 194 709 224 Q763 254 802.5 307.5 Q842 361 867 433 Q892 505 903 589 L1009 1456 L1263 1456 L1158 598 Q1141 463 1104 349.5 Q1067 236 998 153 Q929 70 822.5 23.5 Q716 -23 562 -23 Q470 -23 392.5 4.5 Q315 32 258 81.5 Q201 131 168 200 Q135 269 132 353 L374 401 Z " />
<glyph glyph-name="jcircumflex" unicode="&#x135;" horiz-adv-x="600" d="M55 -362 Q28 -362 2.5 -360 Q-23 -358 -44.5 -355 Q-66 -352 -82 -348.5 Q-98 -345 -107 -342 L-126 -335 L-77 -165 Q-19 -184 63 -184 Q99 -184 122 -177.5 Q145 -171 165 -150 Q186 -129 199 -88 Q212 -47 220 20 L343 1026 L596 1026 L469 -9 Q458 -99 434 -161 Q410 -223 363 -270 Q318 -318 242 -340 Q166 -362 55 -362 Z M-77 -165 L-80 -164 L-77 -164 L-77 -165 Z M54 1185 L356 1555 L608 1555 L828 1185 L581 1185 L469 1381 L306 1185 L54 1185 Z " />
<glyph glyph-name="Kcommaaccent" unicode="&#x136;" horiz-adv-x="1352" d="M446 -647 L620 -142 L899 -142 L657 -647 L446 -647 Z M150 0 L328 1456 L582 1456 L504 820 L1143 1456 L1460 1456 L743 753 L1331 0 L1001 0 L486 651 L407 0 L150 0 Z " />
<glyph glyph-name="kcommaaccent" unicode="&#x137;" horiz-adv-x="1076" d="M265 -647 L439 -142 L718 -142 L476 -647 L265 -647 Z M100 0 L278 1457 L526 1457 L422 607 L844 1026 L1186 1026 L637 530 L1093 0 L765 0 L402 444 L348 0 L100 0 Z " />
<glyph glyph-name="kgreenlandic" unicode="&#x138;" horiz-adv-x="1082" d="M145 0 L270 1026 L517 1026 L469 632 L872 1026 L1214 1026 L635 505 L779 355 L844 287 L864 265 L892 237 L961 165 L1123 0 L790 0 L439 383 L392 0 L145 0 Z " />
<glyph glyph-name="Lacute" unicode="&#x139;" horiz-adv-x="1173" d="M428 1596 L727 1886 L1045 1886 L656 1596 L428 1596 Z M150 0 L328 1456 L582 1456 L430 218 L1104 218 L1078 0 L150 0 Z " />
<glyph glyph-name="lacute" unicode="&#x13a;" horiz-adv-x="526" d="M102 0 L280 1457 L525 1457 L347 0 L102 0 Z M319 1596 L618 1886 L936 1886 L547 1596 L319 1596 Z " />
<glyph glyph-name="Lcommaaccent" unicode="&#x13b;" horiz-adv-x="1173" d="M319 -647 L493 -142 L772 -142 L530 -647 L319 -647 Z M150 0 L328 1456 L582 1456 L430 218 L1104 218 L1078 0 L150 0 Z " />
<glyph glyph-name="lcommaaccent" unicode="&#x13c;" horiz-adv-x="526" d="M-52 -647 L122 -142 L401 -142 L159 -647 L-52 -647 Z M102 0 L280 1457 L525 1457 L347 0 L102 0 Z " />
<glyph glyph-name="Lcaron" unicode="&#x13d;" horiz-adv-x="1173" d="M728 951 L903 1456 L1183 1456 L940 951 L728 951 Z M150 0 L328 1456 L582 1456 L430 218 L1104 218 L1078 0 L150 0 Z " />
<glyph glyph-name="lcaron" unicode="&#x13e;" horiz-adv-x="526" d="M102 0 L280 1457 L525 1457 L347 0 L102 0 Z M589 951 L764 1456 L1044 1456 L801 951 L589 951 Z " />
<glyph glyph-name="Ldot" unicode="&#x13f;" horiz-adv-x="1173" d="M677 643 L712 925 L1016 925 L981 643 L677 643 Z M150 0 L328 1456 L582 1456 L430 218 L1104 218 L1078 0 L150 0 Z " />
<glyph glyph-name="ldot" unicode="&#x140;" horiz-adv-x="526" d="M541 668 L576 950 L880 950 L845 668 L541 668 Z M102 0 L280 1457 L525 1457 L347 0 L102 0 Z " />
<glyph glyph-name="Lslash" unicode="&#x141;" horiz-adv-x="1166" d="M46 421 L74 646 L706 1096 L678 871 L46 421 Z M150 0 L328 1456 L582 1456 L430 218 L1104 218 L1078 0 L150 0 Z " />
<glyph glyph-name="lslash" unicode="&#x142;" horiz-adv-x="503" d="M78 0 L167 727 L43 627 L70 845 L192 945 L255 1458 L505 1458 L464 1130 L578 1226 L551 1003 L437 904 L327 0 L78 0 Z " />
<glyph glyph-name="Nacute" unicode="&#x143;" horiz-adv-x="1630" d="M882 1596 L1181 1886 L1499 1886 L1110 1596 L882 1596 Z M150 0 L328 1456 L597 1456 L1205 384 L1336 1456 L1578 1456 L1400 0 L1130 0 Q854 484 700.5 752.5 Q547 1021 516 1074 L385 0 L150 0 Z " />
<glyph glyph-name="nacute" unicode="&#x144;" horiz-adv-x="1224" d="M118 0 L195 635 Q209 746 216 841 Q220 890 221.5 925 Q223 960 223 982 L223 1026 L486 1026 L470 889 Q533 970 626 1010 Q719 1052 803 1052 Q893 1052 956 1029 Q1019 1006 1064 952 Q1110 900 1126 808.5 Q1142 717 1125 585 L1054 0 L806 0 L879 602 Q897 737 860 794 Q825 851 727 851 Q692 851 646 835.5 Q600 820 556.5 790 Q513 760 480.5 715.5 Q448 671 441 614 L366 0 L118 0 Z M660 1166 L959 1456 L1277 1456 L888 1166 L660 1166 Z " />
<glyph glyph-name="Ncommaaccent" unicode="&#x145;" horiz-adv-x="1630" d="M531 -647 L705 -142 L984 -142 L742 -647 L531 -647 Z M150 0 L328 1456 L597 1456 L1205 384 L1336 1456 L1578 1456 L1400 0 L1130 0 Q854 484 700.5 752.5 Q547 1021 516 1074 L385 0 L150 0 Z " />
<glyph glyph-name="ncommaaccent" unicode="&#x146;" horiz-adv-x="1224" d="M306 -647 L480 -142 L759 -142 L517 -647 L306 -647 Z M118 0 L195 635 Q209 746 216 841 Q220 890 221.5 925 Q223 960 223 982 L223 1026 L486 1026 L470 889 Q533 970 626 1010 Q719 1052 803 1052 Q893 1052 956 1029 Q1019 1006 1064 952 Q1110 900 1126 808.5 Q1142 717 1125 585 L1054 0 L806 0 L879 602 Q897 737 860 794 Q825 851 727 851 Q692 851 646 835.5 Q600 820 556.5 790 Q513 760 480.5 715.5 Q448 671 441 614 L366 0 L118 0 Z " />
<glyph glyph-name="Ncaron" unicode="&#x147;" horiz-adv-x="1630" d="M877 1615 L641 1982 L895 1982 L996 1837 L1137 1982 L1403 1982 L1079 1615 L877 1615 Z M150 0 L328 1456 L597 1456 L1205 384 L1336 1456 L1578 1456 L1400 0 L1130 0 Q854 484 700.5 752.5 Q547 1021 516 1074 L385 0 L150 0 Z " />
<glyph glyph-name="ncaron" unicode="&#x148;" horiz-adv-x="1224" d="M118 0 L195 635 Q209 746 216 841 Q220 890 221.5 925 Q223 960 223 982 L223 1026 L486 1026 L470 889 Q533 970 626 1010 Q719 1052 803 1052 Q893 1052 956 1029 Q1019 1006 1064 952 Q1110 900 1126 808.5 Q1142 717 1125 585 L1054 0 L806 0 L879 602 Q897 737 860 794 Q825 851 727 851 Q692 851 646 835.5 Q600 820 556.5 790 Q513 760 480.5 715.5 Q448 671 441 614 L366 0 L118 0 Z M654 1185 L418 1552 L672 1552 L773 1407 L914 1552 L1180 1552 L856 1185 L654 1185 Z " />
<glyph glyph-name="napostrophe" unicode="&#x149;" horiz-adv-x="1221" d="M118 0 L195 635 Q209 746 216 841 Q220 890 221.5 925 Q223 960 223 982 L223 1026 L486 1026 L470 889 Q533 970 626 1010 Q719 1052 803 1052 Q893 1052 956 1029 Q1019 1006 1064 952 Q1110 900 1126 808.5 Q1142 717 1125 585 L1054 0 L806 0 L879 602 Q897 737 860 794 Q825 851 727 851 Q692 851 646 835.5 Q600 820 556.5 790 Q513 760 480.5 715.5 Q448 671 441 614 L366 0 L118 0 Z M177 1247 L345 1817 L625 1817 L359 1247 L177 1247 Z " />
<glyph glyph-name="Eng" unicode="&#x14a;" horiz-adv-x="1622" d="M1606 1456 L1428 1 Q1370 -474 823 -474 L847 -279 Q874 -279 897.5 -278 Q921 -277 942.5 -275 Q964 -273 984.5 -268.5 Q1005 -264 1027 -257 Q1091 -238 1129.5 -187.5 Q1168 -137 1182 -41 L1200 98 L672 947 L564 1138 L425 0 L193 0 L371 1456 L638 1456 L1139 637 L1243 450 L1366 1456 L1606 1456 Z " />
<glyph glyph-name="eng" unicode="&#x14b;" horiz-adv-x="1191" d="M499 -197 Q559 -197 609 -185.5 Q659 -174 705 -147 Q752 -121 782.5 -70.5 Q813 -20 822 50 L889 602 Q907 741 876 796 Q846 852 750 852 Q715 852 672.5 836 Q630 820 588 791 Q547 763 516.5 716 Q486 669 479 614 L404 0 L156 0 L233 635 Q247 746 254 841 Q258 890 259.5 925 Q261 960 261 982 L261 1026 L524 1026 L506 878 Q557 960 649 1006 Q742 1052 826 1052 Q911 1052 976 1029 Q1041 1006 1082 952 Q1123 898 1137 808.5 Q1151 719 1135 585 L1077 110 Q1061 -19 1010 -114.5 Q959 -210 879.5 -272.5 Q800 -335 697 -365.5 Q594 -396 475 -396 L499 -197 Z " />
<glyph glyph-name="Omacron" unicode="&#x14c;" horiz-adv-x="1671" d="M686 1576 L705 1733 L1329 1733 L1310 1576 L686 1576 Z M797 -23 Q455 -23 284 182 Q112 388 156 735 Q176 905 242 1040 Q308 1175 419 1278 Q642 1483 985 1483 Q1316 1483 1485 1278 Q1656 1076 1615 735 Q1571 386 1354 182 Q1136 -23 797 -23 Z M817 194 Q928 194 1017.5 229.5 Q1107 265 1173 334 Q1239 403 1281 504 Q1323 605 1339 735 Q1369 986 1271 1126 Q1172 1266 953 1266 Q731 1266 596 1126 Q460 987 430 735 Q398 474 495.5 334 Q593 194 817 194 Z " />
<glyph glyph-name="omacron" unicode="&#x14d;" horiz-adv-x="1286" d="M605 -23 Q470 -23 371 20 Q272 63 215 138 Q161 213 139 308.5 Q117 404 130 513 Q144 625 189.5 720.5 Q235 816 310 891 Q385 966 494.5 1009 Q604 1052 736 1052 Q871 1052 969 1009.5 Q1067 967 1121 892 Q1175 817 1194.5 721.5 Q1214 626 1200 511 Q1187 403 1142.5 309 Q1098 215 1025 140 Q952 65 844 21 Q736 -23 605 -23 Z M624 177 Q699 177 755.5 205 Q812 233 851 280 Q890 327 912.5 388.5 Q935 450 943 516 Q961 664 902 757 Q845 851 708 851 Q637 851 581 824 Q525 797 484.5 751.5 Q444 706 420 645.5 Q396 585 389 516 Q377 424 394 349 Q403 312 422 280.5 Q441 249 470 226 Q499 203 537.5 190 Q576 177 624 177 Z M441 1146 L460 1303 L1084 1303 L1065 1146 L441 1146 Z " />
<glyph glyph-name="Obreve" unicode="&#x14e;" horiz-adv-x="1671" d="M997 1590 Q694 1590 711 1886 L885 1886 Q882 1810 924 1785 Q946 1773 967 1768.5 Q988 1764 1018 1764 Q1049 1764 1075.5 1769.5 Q1102 1775 1122 1788.5 Q1142 1802 1156.5 1826 Q1171 1850 1179 1886 L1352 1886 Q1322 1732 1233 1661 Q1144 1590 997 1590 Z M797 -23 Q455 -23 284 182 Q112 388 156 735 Q176 905 242 1040 Q308 1175 419 1278 Q642 1483 985 1483 Q1316 1483 1485 1278 Q1656 1076 1615 735 Q1571 386 1354 182 Q1136 -23 797 -23 Z M817 194 Q928 194 1017.5 229.5 Q1107 265 1173 334 Q1239 403 1281 504 Q1323 605 1339 735 Q1369 986 1271 1126 Q1172 1266 953 1266 Q731 1266 596 1126 Q460 987 430 735 Q398 474 495.5 334 Q593 194 817 194 Z " />
<glyph glyph-name="obreve" unicode="&#x14f;" horiz-adv-x="1286" d="M605 -23 Q470 -23 371 20 Q272 63 215 138 Q161 213 139 308.5 Q117 404 130 513 Q144 625 189.5 720.5 Q235 816 310 891 Q385 966 494.5 1009 Q604 1052 736 1052 Q871 1052 969 1009.5 Q1067 967 1121 892 Q1175 817 1194.5 721.5 Q1214 626 1200 511 Q1187 403 1142.5 309 Q1098 215 1025 140 Q952 65 844 21 Q736 -23 605 -23 Z M624 177 Q699 177 755.5 205 Q812 233 851 280 Q890 327 912.5 388.5 Q935 450 943 516 Q961 664 902 757 Q845 851 708 851 Q637 851 581 824 Q525 797 484.5 751.5 Q444 706 420 645.5 Q396 585 389 516 Q377 424 394 349 Q403 312 422 280.5 Q441 249 470 226 Q499 203 537.5 190 Q576 177 624 177 Z M753 1160 Q450 1160 467 1456 L641 1456 Q638 1380 680 1355 Q702 1343 723 1338.5 Q744 1334 774 1334 Q805 1334 831.5 1339.5 Q858 1345 878 1358.5 Q898 1372 912.5 1396 Q927 1420 935 1456 L1108 1456 Q1078 1302 989 1231 Q900 1160 753 1160 Z " />
<glyph glyph-name="Ohungarumlaut" unicode="&#x150;" horiz-adv-x="1671" d="M1093 1582 L1344 1926 L1640 1926 L1280 1582 L1093 1582 Z M755 1582 L950 1926 L1214 1926 L934 1582 L755 1582 Z M797 -23 Q455 -23 284 182 Q112 388 156 735 Q176 905 242 1040 Q308 1175 419 1278 Q642 1483 985 1483 Q1316 1483 1485 1278 Q1656 1076 1615 735 Q1571 386 1354 182 Q1136 -23 797 -23 Z M817 194 Q928 194 1017.5 229.5 Q1107 265 1173 334 Q1239 403 1281 504 Q1323 605 1339 735 Q1369 986 1271 1126 Q1172 1266 953 1266 Q731 1266 596 1126 Q460 987 430 735 Q398 474 495.5 334 Q593 194 817 194 Z " />
<glyph glyph-name="ohungarumlaut" unicode="&#x151;" horiz-adv-x="1286" d="M605 -23 Q470 -23 371 20 Q272 63 215 138 Q161 213 139 308.5 Q117 404 130 513 Q144 625 189.5 720.5 Q235 816 310 891 Q385 966 494.5 1009 Q604 1052 736 1052 Q871 1052 969 1009.5 Q1067 967 1121 892 Q1175 817 1194.5 721.5 Q1214 626 1200 511 Q1187 403 1142.5 309 Q1098 215 1025 140 Q952 65 844 21 Q736 -23 605 -23 Z M624 177 Q699 177 755.5 205 Q812 233 851 280 Q890 327 912.5 388.5 Q935 450 943 516 Q961 664 902 757 Q845 851 708 851 Q637 851 581 824 Q525 797 484.5 751.5 Q444 706 420 645.5 Q396 585 389 516 Q377 424 394 349 Q403 312 422 280.5 Q441 249 470 226 Q499 203 537.5 190 Q576 177 624 177 Z M849 1152 L1100 1496 L1396 1496 L1036 1152 L849 1152 Z M511 1152 L706 1496 L970 1496 L690 1152 L511 1152 Z " />
<glyph glyph-name="OE" unicode="&#x152;" horiz-adv-x="2000" d="M806 174 Q872 174 920.5 184.5 Q969 195 1001 208.5 Q1033 222 1050.5 234.5 Q1068 247 1072 251 L1188 1191 Q1100 1268 955 1268 Q926 1268 895 1265 Q832 1258 774.5 1237.5 Q717 1217 658 1175 Q574 1117 512 1006 Q450 895 429 725 Q396 460 497 317 Q600 176 803 174 L806 174 Z M1220 1456 L2056 1456 L2030 1239 L1447 1239 L1399 854 L1945 854 L1919 636 L1376 636 L1324 217 L1932 217 L1906 0 L1042 0 L1049 62 Q1046 59 1033.5 51.5 Q1021 44 995 31 Q960 14 903.5 -4 Q847 -22 775 -24 L747 -24 Q604 -24 489 21.5 Q374 67 289 158 Q204 249 168 395.5 Q132 542 155 731 Q165 816 188.5 895 Q212 974 246 1043 Q280 1112 323 1171 Q366 1230 417 1277 Q520 1371 643 1423.5 Q766 1476 900 1482 Q906 1482 918 1482.5 Q930 1483 935 1483 Q992 1483 1040 1475 Q1088 1467 1117 1456 Q1146 1446 1169 1432 Q1192 1418 1200 1410.5 Q1208 1403 1213 1398 L1220 1456 Z " />
<glyph glyph-name="oe" unicode="&#x153;" horiz-adv-x="2003" d="M1656 641 L1659 662 Q1670 754 1608 805 Q1549 857 1454 857 Q1355 857 1283.5 803.5 Q1212 750 1186 641 L1656 641 Z M623 177 Q688 177 738.5 204 Q789 231 825.5 277 Q862 323 884 383.5 Q906 444 914 511 Q933 664 882 758 Q829 851 699 851 Q569 851 484 755 Q400 661 382 511 Q364 364 424 270 Q482 177 623 177 Z M597 -22 Q349 -22 222 126 Q94 275 123 511 Q153 749 312 900 Q472 1052 721 1052 Q856 1052 947.5 1003 Q1039 954 1087 873 Q1124 918 1165 952.5 Q1206 987 1254 1009.5 Q1302 1032 1358.5 1043.5 Q1415 1055 1483 1055 Q1702 1055 1805 904 Q1910 752 1879 499 L1871 433 L1159 433 L1158 410 Q1149 177 1439 177 Q1487 177 1539 188.5 Q1591 200 1630 216 Q1671 232 1703 248.5 Q1735 265 1752 276 L1770 288 L1816 107 Q1811 105 1806.5 101.5 Q1802 98 1795 93 Q1783 85 1737 62 Q1693 39 1646 23 Q1623 14 1592.5 6 Q1562 -2 1528 -8 Q1494 -14 1458 -18 Q1422 -22 1386 -22 Q1267 -22 1156 28 Q1048 78 1001 159 Q943 80 827 29 Q713 -22 597 -22 Z " />
<glyph glyph-name="Racute" unicode="&#x154;" horiz-adv-x="1388" d="M706 1596 L1005 1886 L1323 1886 L934 1596 L706 1596 Z M503 831 L746 831 Q1018 831 1043 1042 Q1058 1156 1005 1197 Q953 1238 823 1238 L553 1238 L503 831 Z M150 0 L328 1456 L853 1456 Q973 1456 1058.5 1438 Q1144 1420 1209 1376 Q1342 1290 1313 1054 Q1298 930 1213 836 Q1128 742 978 709 Q1099 635 1143 481 L1281 0 L1006 0 L892 433 Q863 541 820 578 Q777 616 680 616 L479 616 L404 0 L150 0 Z " />
<glyph glyph-name="racute" unicode="&#x155;" horiz-adv-x="780" d="M122 0 L216 766 Q219 796 221.5 827.5 Q224 859 226 891 Q228 923 228 948.5 Q228 974 228 991 L227 1026 L491 1026 L475 891 Q546 972 611.5 1012 Q677 1052 753 1052 Q797 1052 853 1037 L826 820 Q763 842 705 842 Q600 842 529 775 Q455 707 440 581 L369 0 L122 0 Z M431 1166 L730 1456 L1048 1456 L659 1166 L431 1166 Z " />
<glyph glyph-name="Rcommaaccent" unicode="&#x156;" horiz-adv-x="1388" d="M410 -647 L584 -142 L863 -142 L621 -647 L410 -647 Z M503 831 L746 831 Q1018 831 1043 1042 Q1058 1156 1005 1197 Q953 1238 823 1238 L553 1238 L503 831 Z M150 0 L328 1456 L853 1456 Q973 1456 1058.5 1438 Q1144 1420 1209 1376 Q1342 1290 1313 1054 Q1298 930 1213 836 Q1128 742 978 709 Q1099 635 1143 481 L1281 0 L1006 0 L892 433 Q863 541 820 578 Q777 616 680 616 L479 616 L404 0 L150 0 Z " />
<glyph glyph-name="rcommaaccent" unicode="&#x157;" horiz-adv-x="780" d="M24 -647 L198 -142 L477 -142 L235 -647 L24 -647 Z M122 0 L216 766 Q219 796 221.5 827.5 Q224 859 226 891 Q228 923 228 948.5 Q228 974 228 991 L227 1026 L491 1026 L475 891 Q546 972 611.5 1012 Q677 1052 753 1052 Q797 1052 853 1037 L826 820 Q763 842 705 842 Q600 842 529 775 Q455 707 440 581 L369 0 L122 0 Z " />
<glyph glyph-name="Rcaron" unicode="&#x158;" horiz-adv-x="1388" d="M700 1615 L464 1982 L718 1982 L819 1837 L960 1982 L1226 1982 L902 1615 L700 1615 Z M503 831 L746 831 Q1018 831 1043 1042 Q1058 1156 1005 1197 Q953 1238 823 1238 L553 1238 L503 831 Z M150 0 L328 1456 L853 1456 Q973 1456 1058.5 1438 Q1144 1420 1209 1376 Q1342 1290 1313 1054 Q1298 930 1213 836 Q1128 742 978 709 Q1099 635 1143 481 L1281 0 L1006 0 L892 433 Q863 541 820 578 Q777 616 680 616 L479 616 L404 0 L150 0 Z " />
<glyph glyph-name="rcaron" unicode="&#x159;" horiz-adv-x="780" d="M122 0 L216 766 Q219 796 221.5 827.5 Q224 859 226 891 Q228 923 228 948.5 Q228 974 228 991 L227 1026 L491 1026 L475 891 Q546 972 611.5 1012 Q677 1052 753 1052 Q797 1052 853 1037 L826 820 Q763 842 705 842 Q600 842 529 775 Q455 707 440 581 L369 0 L122 0 Z M426 1185 L190 1552 L444 1552 L545 1407 L686 1552 L952 1552 L628 1185 L426 1185 Z " />
<glyph glyph-name="Sacute" unicode="&#x15a;" horiz-adv-x="1256" d="M653 1596 L952 1886 L1270 1886 L881 1596 L653 1596 Z M580 -23 Q505 -23 434.5 -12 Q364 -1 296 21 Q163 64 92 143 L222 325 Q286 270 395 232 Q506 194 590 194 Q726 194 796 243.5 Q866 293 879 396 Q882 416 882.5 431.5 Q883 447 881 460.5 Q879 474 874 486 Q869 498 860 511 Q843 538 804 560.5 Q765 583 698 608 Q684 613 659.5 621.5 Q635 630 600 641 Q566 652 541.5 661 Q517 670 501 676 Q331 743 259 836 Q190 930 209 1087 Q224 1215 303 1306 Q383 1397 499.5 1440 Q616 1483 761 1483 Q954 1483 1059 1445 Q1111 1426 1157.5 1393.5 Q1204 1361 1247 1315 L1096 1147 Q988 1264 770 1264 Q651 1264 571 1223 Q492 1183 481 1098 Q476 1059 479.5 1030.5 Q483 1002 502.5 978 Q522 954 561.5 932 Q601 910 668 885 Q680 880 705 871.5 Q730 863 768 850 Q806 837 834.5 827.5 Q863 818 882 810 Q967 775 1023.5 734 Q1080 693 1110 647 Q1169 555 1149 391 Q1135 282 1082.5 200 Q1030 118 949 70 Q868 22 776.5 -0.5 Q685 -23 580 -23 Z " />
<glyph glyph-name="sacute" unicode="&#x15b;" horiz-adv-x="988" d="M491 -23 Q356 -23 247 15 Q141 52 79 106 L162 284 Q219 235 311 203 Q403 172 493 172 Q577 172 622 200 Q667 228 675 291 L677 309 Q681 340 659 363 Q635 387 550 415 L410 462 Q383 471 361.5 479 Q340 487 321 495.5 Q302 504 285 513.5 Q268 523 250 535 Q200 569 180.5 619.5 Q161 670 169 753 Q179 831 216.5 890 Q254 949 312 983 Q428 1050 585 1050 Q684 1050 778 1025 Q872 1000 941 951 L856 781 Q801 812 722 835 Q647 857 580 857 Q495 857 454.5 836 Q414 815 408 767 Q406 743 409.5 727.5 Q413 712 429.5 698.5 Q446 685 480.5 670 Q515 655 575 633 L703 588 Q780 560 823 529 Q868 497 890.5 438.5 Q913 380 902 290 Q891 201 849.5 141 Q808 81 750 44.5 Q692 8 623.5 -7.5 Q555 -23 491 -23 Z M493 1166 L792 1456 L1110 1456 L721 1166 L493 1166 Z " />
<glyph glyph-name="Scircumflex" unicode="&#x15c;" horiz-adv-x="1256" d="M393 1646 L695 2016 L947 2016 L1167 1646 L920 1646 L808 1842 L645 1646 L393 1646 Z M580 -23 Q505 -23 434.5 -12 Q364 -1 296 21 Q163 64 92 143 L222 325 Q286 270 395 232 Q506 194 590 194 Q726 194 796 243.5 Q866 293 879 396 Q882 416 882.5 431.5 Q883 447 881 460.5 Q879 474 874 486 Q869 498 860 511 Q843 538 804 560.5 Q765 583 698 608 Q684 613 659.5 621.5 Q635 630 600 641 Q566 652 541.5 661 Q517 670 501 676 Q331 743 259 836 Q190 930 209 1087 Q224 1215 303 1306 Q383 1397 499.5 1440 Q616 1483 761 1483 Q954 1483 1059 1445 Q1111 1426 1157.5 1393.5 Q1204 1361 1247 1315 L1096 1147 Q988 1264 770 1264 Q651 1264 571 1223 Q492 1183 481 1098 Q476 1059 479.5 1030.5 Q483 1002 502.5 978 Q522 954 561.5 932 Q601 910 668 885 Q680 880 705 871.5 Q730 863 768 850 Q806 837 834.5 827.5 Q863 818 882 810 Q967 775 1023.5 734 Q1080 693 1110 647 Q1169 555 1149 391 Q1135 282 1082.5 200 Q1030 118 949 70 Q868 22 776.5 -0.5 Q685 -23 580 -23 Z " />
<glyph glyph-name="scircumflex" unicode="&#x15d;" horiz-adv-x="988" d="M491 -23 Q356 -23 247 15 Q141 52 79 106 L162 284 Q219 235 311 203 Q403 172 493 172 Q577 172 622 200 Q667 228 675 291 L677 309 Q681 340 659 363 Q635 387 550 415 L410 462 Q383 471 361.5 479 Q340 487 321 495.5 Q302 504 285 513.5 Q268 523 250 535 Q200 569 180.5 619.5 Q161 670 169 753 Q179 831 216.5 890 Q254 949 312 983 Q428 1050 585 1050 Q684 1050 778 1025 Q872 1000 941 951 L856 781 Q801 812 722 835 Q647 857 580 857 Q495 857 454.5 836 Q414 815 408 767 Q406 743 409.5 727.5 Q413 712 429.5 698.5 Q446 685 480.5 670 Q515 655 575 633 L703 588 Q780 560 823 529 Q868 497 890.5 438.5 Q913 380 902 290 Q891 201 849.5 141 Q808 81 750 44.5 Q692 8 623.5 -7.5 Q555 -23 491 -23 Z M218 1215 L520 1585 L772 1585 L992 1215 L745 1215 L633 1411 L470 1215 L218 1215 Z " />
<glyph glyph-name="Scedilla" unicode="&#x15e;" horiz-adv-x="1256" d="M371 -294 Q403 -308 450 -320 Q497 -332 540 -332 Q641 -332 650 -259 Q662 -163 511 -140 L483 -136 L535 39 L659 39 L628 -75 Q735 -82 785 -143 Q834 -203 825 -283 Q818 -337 794 -375 Q770 -413 734 -437.5 Q698 -462 653 -473.5 Q608 -485 560 -485 Q441 -485 344 -426 L371 -294 Z M580 -23 Q505 -23 434.5 -12 Q364 -1 296 21 Q163 64 92 143 L222 325 Q286 270 395 232 Q506 194 590 194 Q726 194 796 243.5 Q866 293 879 396 Q882 416 882.5 431.5 Q883 447 881 460.5 Q879 474 874 486 Q869 498 860 511 Q843 538 804 560.5 Q765 583 698 608 Q684 613 659.5 621.5 Q635 630 600 641 Q566 652 541.5 661 Q517 670 501 676 Q331 743 259 836 Q190 930 209 1087 Q224 1215 303 1306 Q383 1397 499.5 1440 Q616 1483 761 1483 Q954 1483 1059 1445 Q1111 1426 1157.5 1393.5 Q1204 1361 1247 1315 L1096 1147 Q988 1264 770 1264 Q651 1264 571 1223 Q492 1183 481 1098 Q476 1059 479.5 1030.5 Q483 1002 502.5 978 Q522 954 561.5 932 Q601 910 668 885 Q680 880 705 871.5 Q730 863 768 850 Q806 837 834.5 827.5 Q863 818 882 810 Q967 775 1023.5 734 Q1080 693 1110 647 Q1169 555 1149 391 Q1135 282 1082.5 200 Q1030 118 949 70 Q868 22 776.5 -0.5 Q685 -23 580 -23 Z " />
<glyph glyph-name="scedilla" unicode="&#x15f;" horiz-adv-x="988" d="M491 -23 Q356 -23 247 15 Q141 52 79 106 L162 284 Q219 235 311 203 Q403 172 493 172 Q577 172 622 200 Q667 228 675 291 L677 309 Q681 340 659 363 Q635 387 550 415 L410 462 Q383 471 361.5 479 Q340 487 321 495.5 Q302 504 285 513.5 Q268 523 250 535 Q200 569 180.5 619.5 Q161 670 169 753 Q179 831 216.5 890 Q254 949 312 983 Q428 1050 585 1050 Q684 1050 778 1025 Q872 1000 941 951 L856 781 Q801 812 722 835 Q647 857 580 857 Q495 857 454.5 836 Q414 815 408 767 Q406 743 409.5 727.5 Q413 712 429.5 698.5 Q446 685 480.5 670 Q515 655 575 633 L703 588 Q780 560 823 529 Q868 497 890.5 438.5 Q913 380 902 290 Q891 201 849.5 141 Q808 81 750 44.5 Q692 8 623.5 -7.5 Q555 -23 491 -23 Z M259 -294 Q291 -308 338 -320 Q385 -332 428 -332 Q529 -332 538 -259 Q550 -163 399 -140 L371 -136 L423 39 L547 39 L516 -75 Q623 -82 673 -143 Q722 -203 713 -283 Q706 -337 682 -375 Q658 -413 622 -437.5 Q586 -462 541 -473.5 Q496 -485 448 -485 Q329 -485 232 -426 L259 -294 Z " />
<glyph glyph-name="Scaron" unicode="&#x160;" horiz-adv-x="1256" d="M648 1615 L412 1982 L666 1982 L767 1837 L908 1982 L1174 1982 L850 1615 L648 1615 Z M580 -23 Q505 -23 434.5 -12 Q364 -1 296 21 Q163 64 92 143 L222 325 Q286 270 395 232 Q506 194 590 194 Q726 194 796 243.5 Q866 293 879 396 Q882 416 882.5 431.5 Q883 447 881 460.5 Q879 474 874 486 Q869 498 860 511 Q843 538 804 560.5 Q765 583 698 608 Q684 613 659.5 621.5 Q635 630 600 641 Q566 652 541.5 661 Q517 670 501 676 Q331 743 259 836 Q190 930 209 1087 Q224 1215 303 1306 Q383 1397 499.5 1440 Q616 1483 761 1483 Q954 1483 1059 1445 Q1111 1426 1157.5 1393.5 Q1204 1361 1247 1315 L1096 1147 Q988 1264 770 1264 Q651 1264 571 1223 Q492 1183 481 1098 Q476 1059 479.5 1030.5 Q483 1002 502.5 978 Q522 954 561.5 932 Q601 910 668 885 Q680 880 705 871.5 Q730 863 768 850 Q806 837 834.5 827.5 Q863 818 882 810 Q967 775 1023.5 734 Q1080 693 1110 647 Q1169 555 1149 391 Q1135 282 1082.5 200 Q1030 118 949 70 Q868 22 776.5 -0.5 Q685 -23 580 -23 Z " />
<glyph glyph-name="scaron" unicode="&#x161;" horiz-adv-x="988" d="M491 -23 Q356 -23 247 15 Q141 52 79 106 L162 284 Q219 235 311 203 Q403 172 493 172 Q577 172 622 200 Q667 228 675 291 L677 309 Q681 340 659 363 Q635 387 550 415 L410 462 Q383 471 361.5 479 Q340 487 321 495.5 Q302 504 285 513.5 Q268 523 250 535 Q200 569 180.5 619.5 Q161 670 169 753 Q179 831 216.5 890 Q254 949 312 983 Q428 1050 585 1050 Q684 1050 778 1025 Q872 1000 941 951 L856 781 Q801 812 722 835 Q647 857 580 857 Q495 857 454.5 836 Q414 815 408 767 Q406 743 409.5 727.5 Q413 712 429.5 698.5 Q446 685 480.5 670 Q515 655 575 633 L703 588 Q780 560 823 529 Q868 497 890.5 438.5 Q913 380 902 290 Q891 201 849.5 141 Q808 81 750 44.5 Q692 8 623.5 -7.5 Q555 -23 491 -23 Z M487 1185 L251 1552 L505 1552 L606 1407 L747 1552 L1013 1552 L689 1185 L487 1185 Z " />
<glyph glyph-name="Tcommaaccent" unicode="&#x162;" horiz-adv-x="1181" d="M332 -294 Q364 -308 411 -320 Q458 -332 501 -332 Q602 -332 611 -259 Q623 -163 472 -140 L444 -136 L496 39 L620 39 L589 -75 Q696 -82 746 -143 Q795 -203 786 -283 Q779 -337 755 -375 Q731 -413 695 -437.5 Q659 -462 614 -473.5 Q569 -485 521 -485 Q402 -485 305 -426 L332 -294 Z M430 0 L582 1238 L133 1238 L159 1456 L1318 1456 L1292 1238 L836 1238 L684 0 L430 0 Z " />
<glyph glyph-name="tcommaaccent" unicode="&#x163;" horiz-adv-x="804" d="M728 1 L628 1 Q567 1 524 4 Q479 7 434.5 17 Q390 27 359 43 Q327 61 302.5 88.5 Q278 116 263.5 155.5 Q249 195 245.5 249.5 Q242 304 251 376 L310 860 L96 860 L116 1026 L340 1026 L370 1266 L616 1339 L577 1026 L845 1026 L825 860 L557 860 L496 361 Q490 313 494 283.5 Q498 254 510 234 Q523 215 557 206 Q591 197 633 194 Q675 191 751 191 L728 1 Z M179 -294 Q211 -308 258 -320 Q305 -332 348 -332 Q449 -332 458 -259 Q470 -163 319 -140 L291 -136 L343 39 L467 39 L436 -75 Q543 -82 593 -143 Q642 -203 633 -283 Q626 -337 602 -375 Q578 -413 542 -437.5 Q506 -462 461 -473.5 Q416 -485 368 -485 Q249 -485 152 -426 L179 -294 Z " />
<glyph glyph-name="Tcaron" unicode="&#x164;" horiz-adv-x="1181" d="M640 1615 L404 1982 L658 1982 L759 1837 L900 1982 L1166 1982 L842 1615 L640 1615 Z M430 0 L582 1238 L133 1238 L159 1456 L1318 1456 L1292 1238 L836 1238 L684 0 L430 0 Z " />
<glyph glyph-name="tcaron" unicode="&#x165;" horiz-adv-x="804" d="M728 1 L628 1 Q567 1 524 4 Q479 7 434.5 17 Q390 27 359 43 Q327 61 302.5 88.5 Q278 116 263.5 155.5 Q249 195 245.5 249.5 Q242 304 251 376 L310 860 L96 860 L116 1026 L340 1026 L370 1266 L616 1339 L577 1026 L845 1026 L825 860 L557 860 L496 361 Q490 313 494 283.5 Q498 254 510 234 Q523 215 557 206 Q591 197 633 194 Q675 191 751 191 L728 1 Z M710 1285 L885 1790 L1165 1790 L922 1285 L710 1285 Z " />
<glyph glyph-name="Tbar" unicode="&#x166;" horiz-adv-x="1181" d="M364 658 L383 815 L1007 815 L988 658 L364 658 Z M430 0 L582 1238 L133 1238 L159 1456 L1318 1456 L1292 1238 L836 1238 L684 0 L430 0 Z " />
<glyph glyph-name="tbar" unicode="&#x167;" horiz-adv-x="804" d="M728 1 L628 1 Q567 1 524 4 Q479 7 434.5 17 Q390 27 359 43 Q327 61 302.5 88.5 Q278 116 263.5 155.5 Q249 195 245.5 249.5 Q242 304 251 376 L310 860 L96 860 L116 1026 L340 1026 L370 1266 L616 1339 L577 1026 L845 1026 L825 860 L557 860 L496 361 Q490 313 494 283.5 Q498 254 510 234 Q523 215 557 206 Q591 197 633 194 Q675 191 751 191 L728 1 Z M88 522 L107 679 L731 679 L712 522 L88 522 Z " />
<glyph glyph-name="Utilde" unicode="&#x168;" horiz-adv-x="1509" d="M961 1604 Q918 1604 863 1631 Q835 1645 809 1658 Q783 1671 758 1684 Q710 1711 686 1711 Q664 1711 640.5 1686 Q617 1661 605 1609 L445 1609 Q462 1738 531 1818 Q603 1900 699 1900 Q724 1901 751.5 1894 Q779 1887 806 1875.5 Q833 1864 858.5 1849.5 Q884 1835 906 1823 Q928 1811 945 1802.5 Q962 1794 971 1793 Q974 1793 979 1792.5 Q984 1792 986 1792 Q1016 1792 1035 1814.5 Q1054 1837 1061 1900 L1223 1900 Q1205 1752 1136 1678.5 Q1067 1605 962 1604 L961 1604 Z M712 -23 Q571 -23 470 11 Q369 45 310 100 Q281 128 259.5 162 Q238 196 223 238 Q193 321 188.5 407 Q184 493 197 599 L302 1456 L556 1456 L450 588 Q436 472 452.5 396 Q469 320 508.5 275 Q548 230 607 212 Q666 194 737 194 Q813 194 873.5 213 Q934 232 987 275 Q1041 320 1075 398.5 Q1109 477 1123 589 L1229 1456 L1483 1456 L1378 598 Q1372 545 1363 498.5 Q1354 452 1341 408.5 Q1328 365 1309.5 323.5 Q1291 282 1266 240 Q1215 156 1146 101 Q1075 44 965 10.5 Q855 -23 712 -23 Z " />
<glyph glyph-name="utilde" unicode="&#x169;" horiz-adv-x="1186" d="M481 -23 Q294 -23 204 83 Q112 190 136 376 L215 1026 L461 1026 L382 380 Q369 278 416 227.5 Q463 177 556 177 Q667 177 727.5 232.5 Q788 288 803 411 L878 1026 L1126 1026 L1034 276 L1013 0 L757 0 L771 152 Q755 106 687 47 Q653 17 598.5 -3 Q544 -23 481 -23 Z M764 1174 Q721 1174 666 1201 Q638 1215 612 1228 Q586 1241 561 1254 Q513 1281 489 1281 Q467 1281 443.5 1256 Q420 1231 408 1179 L248 1179 Q265 1308 334 1388 Q406 1470 502 1470 Q527 1471 554.5 1464 Q582 1457 609 1445.5 Q636 1434 661.5 1419.5 Q687 1405 709 1393 Q731 1381 748 1372.5 Q765 1364 774 1363 Q777 1363 782 1362.5 Q787 1362 789 1362 Q819 1362 838 1384.5 Q857 1407 864 1470 L1026 1470 Q1008 1322 939 1248.5 Q870 1175 765 1174 L764 1174 Z " />
<glyph glyph-name="Umacron" unicode="&#x16a;" horiz-adv-x="1509" d="M594 1576 L613 1733 L1237 1733 L1218 1576 L594 1576 Z M712 -23 Q571 -23 470 11 Q369 45 310 100 Q281 128 259.5 162 Q238 196 223 238 Q193 321 188.5 407 Q184 493 197 599 L302 1456 L556 1456 L450 588 Q436 472 452.5 396 Q469 320 508.5 275 Q548 230 607 212 Q666 194 737 194 Q813 194 873.5 213 Q934 232 987 275 Q1041 320 1075 398.5 Q1109 477 1123 589 L1229 1456 L1483 1456 L1378 598 Q1372 545 1363 498.5 Q1354 452 1341 408.5 Q1328 365 1309.5 323.5 Q1291 282 1266 240 Q1215 156 1146 101 Q1075 44 965 10.5 Q855 -23 712 -23 Z " />
<glyph glyph-name="umacron" unicode="&#x16b;" horiz-adv-x="1186" d="M481 -23 Q294 -23 204 83 Q112 190 136 376 L215 1026 L461 1026 L382 380 Q369 278 416 227.5 Q463 177 556 177 Q667 177 727.5 232.5 Q788 288 803 411 L878 1026 L1126 1026 L1034 276 L1013 0 L757 0 L771 152 Q755 106 687 47 Q653 17 598.5 -3 Q544 -23 481 -23 Z M397 1146 L416 1303 L1040 1303 L1021 1146 L397 1146 Z " />
<glyph glyph-name="Ubreve" unicode="&#x16c;" horiz-adv-x="1509" d="M905 1590 Q602 1590 619 1886 L793 1886 Q790 1810 832 1785 Q854 1773 875 1768.5 Q896 1764 926 1764 Q957 1764 983.5 1769.5 Q1010 1775 1030 1788.5 Q1050 1802 1064.5 1826 Q1079 1850 1087 1886 L1260 1886 Q1230 1732 1141 1661 Q1052 1590 905 1590 Z M712 -23 Q571 -23 470 11 Q369 45 310 100 Q281 128 259.5 162 Q238 196 223 238 Q193 321 188.5 407 Q184 493 197 599 L302 1456 L556 1456 L450 588 Q436 472 452.5 396 Q469 320 508.5 275 Q548 230 607 212 Q666 194 737 194 Q813 194 873.5 213 Q934 232 987 275 Q1041 320 1075 398.5 Q1109 477 1123 589 L1229 1456 L1483 1456 L1378 598 Q1372 545 1363 498.5 Q1354 452 1341 408.5 Q1328 365 1309.5 323.5 Q1291 282 1266 240 Q1215 156 1146 101 Q1075 44 965 10.5 Q855 -23 712 -23 Z " />
<glyph glyph-name="ubreve" unicode="&#x16d;" horiz-adv-x="1186" d="M481 -23 Q294 -23 204 83 Q112 190 136 376 L215 1026 L461 1026 L382 380 Q369 278 416 227.5 Q463 177 556 177 Q667 177 727.5 232.5 Q788 288 803 411 L878 1026 L1126 1026 L1034 276 L1013 0 L757 0 L771 152 Q755 106 687 47 Q653 17 598.5 -3 Q544 -23 481 -23 Z M708 1160 Q405 1160 422 1456 L596 1456 Q593 1380 635 1355 Q657 1343 678 1338.5 Q699 1334 729 1334 Q760 1334 786.5 1339.5 Q813 1345 833 1358.5 Q853 1372 867.5 1396 Q882 1420 890 1456 L1063 1456 Q1033 1302 944 1231 Q855 1160 708 1160 Z " />
<glyph glyph-name="Uring" unicode="&#x16e;" horiz-adv-x="1509" d="M893 1583 Q802 1583 745 1644 Q689 1705 699 1796 Q711 1889 781 1948 Q852 2009 945 2009 Q1037 2009 1094 1948 Q1152 1887 1140 1796 Q1130 1706 1057 1644 Q986 1583 893 1583 Z M907 1687 Q949 1687 986 1719 Q1003 1735 1014 1754 Q1025 1773 1027 1796 Q1033 1840 1005 1872 Q976 1904 933 1904 Q911 1904 890.5 1895.5 Q870 1887 854 1872.5 Q838 1858 827.5 1838 Q817 1818 814 1796 Q809 1749 836 1719 Q863 1687 907 1687 Z M712 -23 Q571 -23 470 11 Q369 45 310 100 Q281 128 259.5 162 Q238 196 223 238 Q193 321 188.5 407 Q184 493 197 599 L302 1456 L556 1456 L450 588 Q436 472 452.5 396 Q469 320 508.5 275 Q548 230 607 212 Q666 194 737 194 Q813 194 873.5 213 Q934 232 987 275 Q1041 320 1075 398.5 Q1109 477 1123 589 L1229 1456 L1483 1456 L1378 598 Q1372 545 1363 498.5 Q1354 452 1341 408.5 Q1328 365 1309.5 323.5 Q1291 282 1266 240 Q1215 156 1146 101 Q1075 44 965 10.5 Q855 -23 712 -23 Z " />
<glyph glyph-name="uring" unicode="&#x16f;" horiz-adv-x="1186" d="M481 -23 Q294 -23 204 83 Q112 190 136 376 L215 1026 L461 1026 L382 380 Q369 278 416 227.5 Q463 177 556 177 Q667 177 727.5 232.5 Q788 288 803 411 L878 1026 L1126 1026 L1034 276 L1013 0 L757 0 L771 152 Q755 106 687 47 Q653 17 598.5 -3 Q544 -23 481 -23 Z M696 1153 Q605 1153 548 1214 Q492 1275 502 1366 Q514 1459 584 1518 Q655 1579 748 1579 Q840 1579 897 1518 Q955 1457 943 1366 Q933 1276 860 1214 Q789 1153 696 1153 Z M710 1257 Q752 1257 789 1289 Q806 1305 817 1324 Q828 1343 830 1366 Q836 1410 808 1442 Q779 1474 736 1474 Q714 1474 693.5 1465.5 Q673 1457 657 1442.5 Q641 1428 630.5 1408 Q620 1388 617 1366 Q612 1319 639 1289 Q666 1257 710 1257 Z " />
<glyph glyph-name="Uhungarumlaut" unicode="&#x170;" horiz-adv-x="1509" d="M1001 1582 L1252 1926 L1548 1926 L1188 1582 L1001 1582 Z M663 1582 L858 1926 L1122 1926 L842 1582 L663 1582 Z M712 -23 Q571 -23 470 11 Q369 45 310 100 Q281 128 259.5 162 Q238 196 223 238 Q193 321 188.5 407 Q184 493 197 599 L302 1456 L556 1456 L450 588 Q436 472 452.5 396 Q469 320 508.5 275 Q548 230 607 212 Q666 194 737 194 Q813 194 873.5 213 Q934 232 987 275 Q1041 320 1075 398.5 Q1109 477 1123 589 L1229 1456 L1483 1456 L1378 598 Q1372 545 1363 498.5 Q1354 452 1341 408.5 Q1328 365 1309.5 323.5 Q1291 282 1266 240 Q1215 156 1146 101 Q1075 44 965 10.5 Q855 -23 712 -23 Z " />
<glyph glyph-name="uhungarumlaut" unicode="&#x171;" horiz-adv-x="1186" d="M481 -23 Q294 -23 204 83 Q112 190 136 376 L215 1026 L461 1026 L382 380 Q369 278 416 227.5 Q463 177 556 177 Q667 177 727.5 232.5 Q788 288 803 411 L878 1026 L1126 1026 L1034 276 L1013 0 L757 0 L771 152 Q755 106 687 47 Q653 17 598.5 -3 Q544 -23 481 -23 Z M804 1152 L1055 1496 L1351 1496 L991 1152 L804 1152 Z M466 1152 L661 1496 L925 1496 L645 1152 L466 1152 Z " />
<glyph glyph-name="Uogonek" unicode="&#x172;" horiz-adv-x="1509" d="M748 -356 Q648 -356 596.5 -324.5 Q545 -293 553 -227 Q556 -200 566.5 -175.5 Q577 -151 591 -132 Q604 -113 626 -93.5 Q648 -74 665 -62 Q674 -56 685.5 -49 Q697 -42 709.5 -35 Q722 -28 733 -22 Q744 -16 752 -13 L792 6 L826 21 L961 23 Q924 3 894 -20 Q864 -43 841.5 -67 Q819 -91 806 -114.5 Q793 -138 790 -157 Q784 -204 847 -204 Q873 -204 917.5 -195 Q962 -186 1025 -167 L1007 -315 Q866 -356 748 -356 Z M712 -23 Q571 -23 470 11 Q369 45 310 100 Q281 128 259.5 162 Q238 196 223 238 Q193 321 188.5 407 Q184 493 197 599 L302 1456 L556 1456 L450 588 Q436 472 452.5 396 Q469 320 508.5 275 Q548 230 607 212 Q666 194 737 194 Q813 194 873.5 213 Q934 232 987 275 Q1041 320 1075 398.5 Q1109 477 1123 589 L1229 1456 L1483 1456 L1378 598 Q1372 545 1363 498.5 Q1354 452 1341 408.5 Q1328 365 1309.5 323.5 Q1291 282 1266 240 Q1215 156 1146 101 Q1075 44 965 10.5 Q855 -23 712 -23 Z " />
<glyph glyph-name="uogonek" unicode="&#x173;" horiz-adv-x="1186" d="M481 -23 Q294 -23 204 83 Q112 190 136 376 L215 1026 L461 1026 L382 380 Q369 278 416 227.5 Q463 177 556 177 Q667 177 727.5 232.5 Q788 288 803 411 L878 1026 L1126 1026 L1034 276 L1013 0 L757 0 L771 152 Q755 106 687 47 Q653 17 598.5 -3 Q544 -23 481 -23 Z M778 -356 Q678 -356 626.5 -324.5 Q575 -293 583 -227 Q586 -200 596.5 -175.5 Q607 -151 621 -132 Q634 -113 656 -93.5 Q678 -74 695 -62 Q704 -56 715.5 -49 Q727 -42 739.5 -35 Q752 -28 763 -22 Q774 -16 782 -13 L822 6 L856 21 L991 23 Q954 3 924 -20 Q894 -43 871.5 -67 Q849 -91 836 -114.5 Q823 -138 820 -157 Q814 -204 877 -204 Q903 -204 947.5 -195 Q992 -186 1055 -167 L1037 -315 Q896 -356 778 -356 Z " />
<glyph glyph-name="Wcircumflex" unicode="&#x174;" horiz-adv-x="2096" d="M814 1615 L1116 1985 L1368 1985 L1588 1615 L1341 1615 L1229 1811 L1066 1615 L814 1615 Z M388 0 L150 1456 L420 1456 L472 1100 Q490 974 505 866 Q520 758 533 665 Q546 572 557.5 483 Q569 394 580 306 Q615 395 651.5 485 Q688 575 728 668 Q767 762 814 869.5 Q861 977 916 1102 Q971 1227 1010 1315 Q1049 1403 1071 1456 L1313 1456 L1473 642 L1531 301 Q1563 389 1595.5 479 Q1628 569 1663 663 L1825 1098 L1960 1456 L2222 1456 L1638 0 L1347 0 L1142 1105 L675 0 L388 0 Z " />
<glyph glyph-name="wcircumflex" unicode="&#x175;" horiz-adv-x="1685" d="M346 0 L99 1026 L363 1026 L509 305 Q537 366 619 546 Q701 726 839 1026 L1055 1026 L1099 798 Q1128 650 1151.5 530.5 Q1175 411 1198 303 Q1217 349 1299.5 529.5 Q1382 710 1525 1026 L1756 1026 L1242 0 L1035 0 L887 698 L554 0 L346 0 Z M576 1185 L878 1555 L1130 1555 L1350 1185 L1103 1185 L991 1381 L828 1185 L576 1185 Z " />
<glyph glyph-name="Ycircumflex" unicode="&#x176;" horiz-adv-x="1281" d="M422 1615 L724 1985 L976 1985 L1196 1615 L949 1615 L837 1811 L674 1615 L422 1615 Z M465 0 L534 563 L124 1456 L413 1456 L692 789 L1132 1456 L1428 1456 L788 564 L719 0 L465 0 Z " />
<glyph glyph-name="ycircumflex" unicode="&#x177;" horiz-adv-x="1114" d="M75 -277 Q220 -224 297 -165 Q375 -108 408 -27 L428 23 L115 1026 L373 1026 L580 290 L926 1026 L1179 1026 L631 -56 Q574 -163 495 -243 Q415 -325 333 -371 Q251 -417 159 -445 L75 -277 Z M308 1185 L610 1555 L862 1555 L1082 1185 L835 1185 L723 1381 L560 1185 L308 1185 Z " />
<glyph glyph-name="Ydieresis" unicode="&#x178;" horiz-adv-x="1281" d="M907 1581 L934 1806 L1179 1806 L1152 1581 L907 1581 Z M449 1581 L476 1806 L723 1806 L696 1581 L449 1581 Z M465 0 L534 563 L124 1456 L413 1456 L692 789 L1132 1456 L1428 1456 L788 564 L719 0 L465 0 Z " />
<glyph glyph-name="Zacute" unicode="&#x179;" horiz-adv-x="1202" d="M675 1596 L974 1886 L1292 1886 L903 1596 L675 1596 Z M31 0 L47 136 L872 1238 L209 1238 L235 1456 L1249 1456 L1233 1324 L404 218 L1096 218 L1070 0 L31 0 Z " />
<glyph glyph-name="zacute" unicode="&#x17a;" horiz-adv-x="998" d="M57 0 L73 131 L642 828 L183 828 L207 1026 L988 1026 L973 897 L399 197 L913 197 L889 0 L57 0 Z M544 1166 L843 1456 L1161 1456 L772 1166 L544 1166 Z " />
<glyph glyph-name="Zdotaccent" unicode="&#x17b;" horiz-adv-x="1202" d="M671 1596 L699 1824 L945 1824 L917 1596 L671 1596 Z M31 0 L47 136 L872 1238 L209 1238 L235 1456 L1249 1456 L1233 1324 L404 218 L1096 218 L1070 0 L31 0 Z " />
<glyph glyph-name="zdotaccent" unicode="&#x17c;" horiz-adv-x="998" d="M57 0 L73 131 L642 828 L183 828 L207 1026 L988 1026 L973 897 L399 197 L913 197 L889 0 L57 0 Z M540 1166 L568 1394 L814 1394 L786 1166 L540 1166 Z " />
<glyph glyph-name="Zcaron" unicode="&#x17d;" horiz-adv-x="1202" d="M670 1615 L434 1982 L688 1982 L789 1837 L930 1982 L1196 1982 L872 1615 L670 1615 Z M31 0 L47 136 L872 1238 L209 1238 L235 1456 L1249 1456 L1233 1324 L404 218 L1096 218 L1070 0 L31 0 Z " />
<glyph glyph-name="zcaron" unicode="&#x17e;" horiz-adv-x="998" d="M57 0 L73 131 L642 828 L183 828 L207 1026 L988 1026 L973 897 L399 197 L913 197 L889 0 L57 0 Z M539 1185 L303 1552 L557 1552 L658 1407 L799 1552 L1065 1552 L741 1185 L539 1185 Z " />
<glyph glyph-name="longs" unicode="&#x17f;" horiz-adv-x="988" d="M491 -23 Q356 -23 247 15 Q141 52 79 106 L162 284 Q219 235 311 203 Q403 172 493 172 Q577 172 622 200 Q667 228 675 291 L677 309 Q681 340 659 363 Q635 387 550 415 L410 462 Q383 471 361.5 479 Q340 487 321 495.5 Q302 504 285 513.5 Q268 523 250 535 Q200 569 180.5 619.5 Q161 670 169 753 Q179 831 216.5 890 Q254 949 312 983 Q428 1050 585 1050 Q684 1050 778 1025 Q872 1000 941 951 L856 781 Q801 812 722 835 Q647 857 580 857 Q495 857 454.5 836 Q414 815 408 767 Q406 743 409.5 727.5 Q413 712 429.5 698.5 Q446 685 480.5 670 Q515 655 575 633 L703 588 Q780 560 823 529 Q868 497 890.5 438.5 Q913 380 902 290 Q891 201 849.5 141 Q808 81 750 44.5 Q692 8 623.5 -7.5 Q555 -23 491 -23 Z " />
<glyph glyph-name="florin" unicode="&#x192;" horiz-adv-x="1111" d="M124 -315 Q72 -315 18 -297 L60 -90 Q87 -95 111 -97.5 Q135 -100 158 -100 Q181 -100 199 -95 Q217 -90 240 -73 Q288 -37 327 87 L492 633 L353 633 L414 796 L544 796 L639 1107 Q645 1124 650.5 1139.5 Q656 1155 661 1169 Q672 1197 690.5 1234.5 Q709 1272 729 1300 Q751 1330 780.5 1357.5 Q810 1385 848 1405.5 Q886 1426 933.5 1438 Q981 1450 1039 1450 Q1097 1450 1142.5 1439 Q1188 1428 1205 1416 L1223 1405 L1181 1205 Q1118 1225 1069 1225 Q1051 1225 1030.5 1221.5 Q1010 1218 989 1204.5 Q968 1191 949 1165.5 Q930 1140 915 1095 L820 796 L970 796 L917 633 L763 633 L585 45 Q525 -152 410 -234 Q296 -315 124 -315 Z M1184 1204 Q1182 1204 1181 1205 L1184 1204 Z " />
<glyph glyph-name="uni01C4" unicode="&#x1c4;" horiz-adv-x="2773" d="M2241 1615 L2005 1982 L2259 1982 L2360 1837 L2501 1982 L2767 1982 L2443 1615 L2241 1615 Z M1602 0 L1618 136 L2443 1238 L1780 1238 L1806 1456 L2820 1456 L2804 1324 L1975 218 L2667 218 L2641 0 L1602 0 Z M150 0 L328 1456 L734 1456 Q953 1456 1110 1409 Q1267 1362 1364.5 1270.5 Q1462 1179 1499 1045 Q1536 911 1515 737 Q1493 557 1422.5 419 Q1352 281 1236 188 Q1120 95 959.5 47.5 Q799 0 597 0 L150 0 Z M430 218 L636 218 Q902 218 1058 349.5 Q1214 481 1246 738 Q1276 981 1149.5 1109.5 Q1023 1238 731 1238 L556 1238 L430 218 Z " />
<glyph glyph-name="uni01C5" unicode="&#x1c5;" horiz-adv-x="2569" d="M1628 0 L1644 131 L2213 828 L1754 828 L1778 1026 L2559 1026 L2544 897 L1970 197 L2484 197 L2460 0 L1628 0 Z M2110 1185 L1874 1552 L2128 1552 L2229 1407 L2370 1552 L2636 1552 L2312 1185 L2110 1185 Z M150 0 L328 1456 L734 1456 Q953 1456 1110 1409 Q1267 1362 1364.5 1270.5 Q1462 1179 1499 1045 Q1536 911 1515 737 Q1493 557 1422.5 419 Q1352 281 1236 188 Q1120 95 959.5 47.5 Q799 0 597 0 L150 0 Z M430 218 L636 218 Q902 218 1058 349.5 Q1214 481 1246 738 Q1276 981 1149.5 1109.5 Q1023 1238 731 1238 L556 1238 L430 218 Z " />
<glyph glyph-name="uni01C6" unicode="&#x1c6;" horiz-adv-x="2265" d="M1324 0 L1340 131 L1909 828 L1450 828 L1474 1026 L2255 1026 L2240 897 L1666 197 L2180 197 L2156 0 L1324 0 Z M1806 1185 L1570 1552 L1824 1552 L1925 1407 L2066 1552 L2332 1552 L2008 1185 L1806 1185 Z M608 177 Q678 177 730.5 205 Q783 233 819.5 280 Q856 327 877.5 387 Q899 447 907 512 Q926 661 872 756 Q819 851 689 851 Q603 851 536 804 Q470 756 436 684 Q402 612 391 516 Q383 450 389.5 388.5 Q396 327 421 280 Q446 233 491.5 205 Q537 177 608 177 Z M533 -23 Q334 -23 217 123 Q100 270 130 508 Q144 617 186.5 714 Q229 811 296 887 Q365 963 465.5 1007.5 Q566 1052 684 1052 Q789 1052 857 1008 Q927 964 949 918 L1015 1457 L1261 1457 L1116 274 Q1116 271 1109.5 203 Q1103 135 1092 0 L838 0 L852 131 Q840 108 816 84 Q792 60 754 34 Q716 9 658 -7 Q600 -23 533 -23 Z " />
<glyph glyph-name="uni01C7" unicode="&#x1c7;" horiz-adv-x="2192" d="M150 0 L328 1456 L582 1456 L430 218 L1104 218 L1078 0 L150 0 Z M1547 401 Q1545 360 1562 322.5 Q1579 285 1608.5 256.5 Q1638 228 1677.5 211 Q1717 194 1760 194 Q1828 194 1882 224 Q1936 254 1975.5 307.5 Q2015 361 2040 433 Q2065 505 2076 589 L2182 1456 L2436 1456 L2331 598 Q2314 463 2277 349.5 Q2240 236 2171 153 Q2102 70 1995.5 23.5 Q1889 -23 1735 -23 Q1643 -23 1565.5 4.5 Q1488 32 1431 81.5 Q1374 131 1341 200 Q1308 269 1305 353 L1547 401 Z " />
<glyph glyph-name="uni01C8" unicode="&#x1c8;" horiz-adv-x="1773" d="M1507 1228 L1535 1456 L1781 1456 L1753 1228 L1507 1228 Z M1188 -362 Q1134 -362 1086.5 -354 Q1039 -346 1007 -335 L1056 -165 Q1114 -184 1196 -184 Q1243 -184 1271.5 -168 Q1300 -152 1316.5 -124.5 Q1333 -97 1340.5 -60 Q1348 -23 1353 20 L1476 1026 L1729 1026 L1602 -9 Q1590 -104 1562.5 -171 Q1535 -238 1485.5 -280.5 Q1436 -323 1363 -342.5 Q1290 -362 1188 -362 Z M1056 -165 L1053 -164 L1056 -164 L1056 -165 Z M150 0 L328 1456 L582 1456 L430 218 L1104 218 L1078 0 L150 0 Z " />
<glyph glyph-name="uni01C9" unicode="&#x1c9;" horiz-adv-x="1126" d="M102 0 L280 1457 L525 1457 L347 0 L102 0 Z M860 1228 L888 1456 L1134 1456 L1106 1228 L860 1228 Z M541 -362 Q487 -362 439.5 -354 Q392 -346 360 -335 L409 -165 Q467 -184 549 -184 Q596 -184 624.5 -168 Q653 -152 669.5 -124.5 Q686 -97 693.5 -60 Q701 -23 706 20 L829 1026 L1082 1026 L955 -9 Q943 -104 915.5 -171 Q888 -238 838.5 -280.5 Q789 -323 716 -342.5 Q643 -362 541 -362 Z M409 -165 L406 -164 L409 -164 L409 -165 Z " />
<glyph glyph-name="uni01CA" unicode="&#x1ca;" horiz-adv-x="2649" d="M150 0 L328 1456 L597 1456 L1205 384 L1336 1456 L1578 1456 L1400 0 L1130 0 Q854 484 700.5 752.5 Q547 1021 516 1074 L385 0 L150 0 Z M2004 401 Q2002 360 2019 322.5 Q2036 285 2065.5 256.5 Q2095 228 2134.5 211 Q2174 194 2217 194 Q2285 194 2339 224 Q2393 254 2432.5 307.5 Q2472 361 2497 433 Q2522 505 2533 589 L2639 1456 L2893 1456 L2788 598 Q2771 463 2734 349.5 Q2697 236 2628 153 Q2559 70 2452.5 23.5 Q2346 -23 2192 -23 Q2100 -23 2022.5 4.5 Q1945 32 1888 81.5 Q1831 131 1798 200 Q1765 269 1762 353 L2004 401 Z " />
<glyph glyph-name="uni01CB" unicode="&#x1cb;" horiz-adv-x="2230" d="M1964 1228 L1992 1456 L2238 1456 L2210 1228 L1964 1228 Z M1645 -362 Q1591 -362 1543.5 -354 Q1496 -346 1464 -335 L1513 -165 Q1571 -184 1653 -184 Q1700 -184 1728.5 -168 Q1757 -152 1773.5 -124.5 Q1790 -97 1797.5 -60 Q1805 -23 1810 20 L1933 1026 L2186 1026 L2059 -9 Q2047 -104 2019.5 -171 Q1992 -238 1942.5 -280.5 Q1893 -323 1820 -342.5 Q1747 -362 1645 -362 Z M1513 -165 L1510 -164 L1513 -164 L1513 -165 Z M150 0 L328 1456 L597 1456 L1205 384 L1336 1456 L1578 1456 L1400 0 L1130 0 Q854 484 700.5 752.5 Q547 1021 516 1074 L385 0 L150 0 Z " />
<glyph glyph-name="uni01CC" unicode="&#x1cc;" horiz-adv-x="1824" d="M118 0 L195 635 Q209 746 216 841 Q220 890 221.5 925 Q223 960 223 982 L223 1026 L486 1026 L470 889 Q533 970 626 1010 Q719 1052 803 1052 Q893 1052 956 1029 Q1019 1006 1064 952 Q1110 900 1126 808.5 Q1142 717 1125 585 L1054 0 L806 0 L879 602 Q897 737 860 794 Q825 851 727 851 Q692 851 646 835.5 Q600 820 556.5 790 Q513 760 480.5 715.5 Q448 671 441 614 L366 0 L118 0 Z M1558 1228 L1586 1456 L1832 1456 L1804 1228 L1558 1228 Z M1239 -362 Q1185 -362 1137.5 -354 Q1090 -346 1058 -335 L1107 -165 Q1165 -184 1247 -184 Q1294 -184 1322.5 -168 Q1351 -152 1367.5 -124.5 Q1384 -97 1391.5 -60 Q1399 -23 1404 20 L1527 1026 L1780 1026 L1653 -9 Q1641 -104 1613.5 -171 Q1586 -238 1536.5 -280.5 Q1487 -323 1414 -342.5 Q1341 -362 1239 -362 Z M1107 -165 L1104 -164 L1107 -164 L1107 -165 Z " />
<glyph glyph-name="uni01CD" unicode="&#x1cd;" horiz-adv-x="1458" d="M770 1615 L534 1982 L788 1982 L889 1837 L1030 1982 L1296 1982 L972 1615 L770 1615 Z M966 592 Q892 932 843 1159 Q754 970 576 592 L966 592 Z M-8 0 L755 1456 L1013 1456 L1425 0 L1138 0 L1040 355 L452 355 L271 0 L-8 0 Z " />
<glyph glyph-name="uni01CE" unicode="&#x1ce;" horiz-adv-x="1291" d="M679 1185 L443 1552 L697 1552 L798 1407 L939 1552 L1205 1552 L881 1185 L679 1185 Z M625 177 Q770 177 845 268 Q923 359 941 513 Q951 591 941.5 654 Q932 717 902.5 760.5 Q873 804 823 827.5 Q773 851 703 851 Q564 851 480 760 Q395 669 377 515 Q357 360 420 269 Q482 177 625 177 Z M570 -23 Q444 -23 351 22 Q258 67 207 142 Q156 217 136.5 308.5 Q117 400 129 502 Q143 610 186.5 706 Q230 802 301 880 Q373 959 479 1005.5 Q585 1052 714 1052 Q899 1052 983 917 L996 1026 L1239 1026 L1114 0 L865 0 L882 140 Q749 -23 570 -23 Z " />
<glyph glyph-name="uni01CF" unicode="&#x1cf;" horiz-adv-x="586" d="M326 1615 L90 1982 L344 1982 L445 1837 L586 1982 L852 1982 L528 1615 L326 1615 Z M120 0 L298 1456 L552 1456 L374 0 L120 0 Z " />
<glyph glyph-name="uni01D0" unicode="&#x1d0;" horiz-adv-x="485" d="M63 0 L188 1026 L437 1026 L312 0 L63 0 Z M214 1185 L-22 1552 L232 1552 L333 1407 L474 1552 L740 1552 L416 1185 L214 1185 Z " />
<glyph glyph-name="uni01D1" unicode="&#x1d1;" horiz-adv-x="1671" d="M876 1615 L640 1982 L894 1982 L995 1837 L1136 1982 L1402 1982 L1078 1615 L876 1615 Z M797 -23 Q455 -23 284 182 Q112 388 156 735 Q176 905 242 1040 Q308 1175 419 1278 Q642 1483 985 1483 Q1316 1483 1485 1278 Q1656 1076 1615 735 Q1571 386 1354 182 Q1136 -23 797 -23 Z M817 194 Q928 194 1017.5 229.5 Q1107 265 1173 334 Q1239 403 1281 504 Q1323 605 1339 735 Q1369 986 1271 1126 Q1172 1266 953 1266 Q731 1266 596 1126 Q460 987 430 735 Q398 474 495.5 334 Q593 194 817 194 Z " />
<glyph glyph-name="uni01D2" unicode="&#x1d2;" horiz-adv-x="1286" d="M605 -23 Q470 -23 371 20 Q272 63 215 138 Q161 213 139 308.5 Q117 404 130 513 Q144 625 189.5 720.5 Q235 816 310 891 Q385 966 494.5 1009 Q604 1052 736 1052 Q871 1052 969 1009.5 Q1067 967 1121 892 Q1175 817 1194.5 721.5 Q1214 626 1200 511 Q1187 403 1142.5 309 Q1098 215 1025 140 Q952 65 844 21 Q736 -23 605 -23 Z M624 177 Q699 177 755.5 205 Q812 233 851 280 Q890 327 912.5 388.5 Q935 450 943 516 Q961 664 902 757 Q845 851 708 851 Q637 851 581 824 Q525 797 484.5 751.5 Q444 706 420 645.5 Q396 585 389 516 Q377 424 394 349 Q403 312 422 280.5 Q441 249 470 226 Q499 203 537.5 190 Q576 177 624 177 Z M632 1185 L396 1552 L650 1552 L751 1407 L892 1552 L1158 1552 L834 1185 L632 1185 Z " />
<glyph glyph-name="uni01D3" unicode="&#x1d3;" horiz-adv-x="1509" d="M784 1615 L548 1982 L802 1982 L903 1837 L1044 1982 L1310 1982 L986 1615 L784 1615 Z M712 -23 Q571 -23 470 11 Q369 45 310 100 Q281 128 259.5 162 Q238 196 223 238 Q193 321 188.5 407 Q184 493 197 599 L302 1456 L556 1456 L450 588 Q436 472 452.5 396 Q469 320 508.5 275 Q548 230 607 212 Q666 194 737 194 Q813 194 873.5 213 Q934 232 987 275 Q1041 320 1075 398.5 Q1109 477 1123 589 L1229 1456 L1483 1456 L1378 598 Q1372 545 1363 498.5 Q1354 452 1341 408.5 Q1328 365 1309.5 323.5 Q1291 282 1266 240 Q1215 156 1146 101 Q1075 44 965 10.5 Q855 -23 712 -23 Z " />
<glyph glyph-name="uni01D4" unicode="&#x1d4;" horiz-adv-x="1186" d="M481 -23 Q294 -23 204 83 Q112 190 136 376 L215 1026 L461 1026 L382 380 Q369 278 416 227.5 Q463 177 556 177 Q667 177 727.5 232.5 Q788 288 803 411 L878 1026 L1126 1026 L1034 276 L1013 0 L757 0 L771 152 Q755 106 687 47 Q653 17 598.5 -3 Q544 -23 481 -23 Z M588 1185 L352 1552 L606 1552 L707 1407 L848 1552 L1114 1552 L790 1185 L588 1185 Z " />
<glyph glyph-name="uni01E2" unicode="&#x1e2;" horiz-adv-x="2215" d="M1150 1576 L1169 1733 L1793 1733 L1774 1576 L1150 1576 Z M662 558 L1129 558 L1165 1230 L1131 1230 L662 558 Z M-21 0 L1024 1456 L2108 1456 L2081 1230 L1424 1230 L1411 854 L2032 854 L2005 634 L1412 634 L1401 226 L1983 226 L1956 0 L1108 0 L1122 355 L538 355 L293 0 L-21 0 Z " />
<glyph glyph-name="uni01E3" unicode="&#x1e3;" horiz-adv-x="1776" d="M681 1146 L700 1303 L1324 1303 L1305 1146 L681 1146 Z M1478 632 L1480 655 Q1489 758 1432 815 Q1373 872 1294 872 Q1197 872 1126 805 Q1057 739 1016 632 L1478 632 Z M462 177 Q532 177 583.5 203 Q635 229 670 271 Q705 313 724.5 364.5 Q744 416 752 467 L652 467 Q520 467 425 432 Q375 414 344 381.5 Q313 349 308 304 Q300 238 343.5 207.5 Q387 177 462 177 Z M431 -22 Q244 -22 146 60 Q47 143 66 294 Q90 489 245 563 Q401 638 733 638 L774 638 Q779 687 768.5 728 Q758 769 732.5 798 Q707 827 667.5 843 Q628 859 574 859 Q458 859 278 778 L226 942 Q422 1052 653 1052 Q736 1052 824 1002 Q911 952 947 864 Q1004 953 1111 1002 Q1220 1052 1318 1052 L1321 1052 Q1435 1051 1511 1008.5 Q1587 966 1629 893.5 Q1671 821 1682.5 724.5 Q1694 628 1681 519 L1670 467 L993 467 L991 448 Q982 177 1235 177 L1244 177 Q1318 179 1399 207 Q1481 235 1527 262 L1572 289 L1617 108 Q1613 105 1608.5 102 Q1604 99 1596 94 Q1588 89 1574 81.5 Q1560 74 1538 63 Q1495 41 1449 23 Q1427 14 1399 6 Q1371 -2 1340 -8.5 Q1309 -15 1276 -19 Q1243 -23 1212 -23 L1200 -23 Q1057 -23 967.5 21 Q878 65 838 172 Q774 70 663 24 Q555 -22 431 -22 Z " />
<glyph glyph-name="Gcaron" unicode="&#x1e6;" horiz-adv-x="1538" d="M876 1615 L640 1982 L894 1982 L995 1837 L1136 1982 L1402 1982 L1078 1615 L876 1615 Z M808 -23 Q448 -23 279 173 Q110 368 151 704 Q166 830 212 944.5 Q258 1059 334 1158 Q389 1231 461 1290.5 Q533 1350 619.5 1393 Q706 1436 806.5 1459.5 Q907 1483 1019 1483 Q1122 1483 1204.5 1468.5 Q1287 1454 1344 1427 Q1403 1399 1427 1382 Q1454 1366 1486 1338 L1362 1160 Q1231 1264 993 1264 Q866 1264 760.5 1217 Q655 1170 585 1091 Q516 1012 473 916.5 Q430 821 417 715 Q403 601 422 505.5 Q441 410 493.5 340.5 Q546 271 634 232.5 Q722 194 846 194 Q966 194 1100 232 L1142 576 L802 576 L829 793 L1427 793 L1340 88 Q1077 -23 808 -23 Z " />
<glyph glyph-name="gcaron" unicode="&#x1e7;" horiz-adv-x="1235" d="M608 187 Q684 187 737 216.5 Q790 246 824 293 Q858 340 876.5 398.5 Q895 457 902 516 Q920 666 869 758 Q818 851 693 851 Q607 851 540 802 Q474 754 438 680 Q402 606 391 515 Q382 438 390 377 Q398 316 424.5 274 Q451 232 496.5 209.5 Q542 187 608 187 Z M486 -418 Q285 -418 105 -348 L174 -134 Q315 -212 493 -212 Q637 -212 726 -150.5 Q815 -89 830 35 L840 122 Q738 0 569 0 Q340 0 222 139 Q101 280 131 515 Q144 624 184.5 718 Q225 812 292 888 Q358 964 458 1008 Q558 1052 679 1052 Q775 1052 841 1014 Q907 976 939 916 L952 1026 L1215 1026 Q1196 950 1180.5 864.5 Q1165 779 1153 682 L1088 147 Q1018 -418 486 -418 Z M606 1185 L370 1552 L624 1552 L725 1407 L866 1552 L1132 1552 L808 1185 L606 1185 Z " />
<glyph glyph-name="uni01E8" unicode="&#x1e8;" horiz-adv-x="1352" d="M740 1615 L504 1982 L758 1982 L859 1837 L1000 1982 L1266 1982 L942 1615 L740 1615 Z M150 0 L328 1456 L582 1456 L504 820 L1143 1456 L1460 1456 L743 753 L1331 0 L1001 0 L486 651 L407 0 L150 0 Z " />
<glyph glyph-name="uni01E9" unicode="&#x1e9;" horiz-adv-x="1076" d="M100 0 L278 1457 L526 1457 L422 607 L844 1026 L1186 1026 L637 530 L1093 0 L765 0 L402 444 L348 0 L100 0 Z M634 1185 L398 1552 L652 1552 L753 1407 L894 1552 L1160 1552 L836 1185 L634 1185 Z " />
<glyph glyph-name="uni01EA" unicode="&#x1ea;" horiz-adv-x="1671" d="M689 -356 Q589 -356 537.5 -324.5 Q486 -293 494 -227 Q497 -200 507.5 -175.5 Q518 -151 532 -132 Q545 -113 567 -93.5 Q589 -74 606 -62 Q615 -56 626.5 -49 Q638 -42 650.5 -35 Q663 -28 674 -22 Q685 -16 693 -13 L733 6 L767 21 L902 23 Q865 3 835 -20 Q805 -43 782.5 -67 Q760 -91 747 -114.5 Q734 -138 731 -157 Q725 -204 788 -204 Q814 -204 858.5 -195 Q903 -186 966 -167 L948 -315 Q807 -356 689 -356 Z M797 -23 Q455 -23 284 182 Q112 388 156 735 Q176 905 242 1040 Q308 1175 419 1278 Q642 1483 985 1483 Q1316 1483 1485 1278 Q1656 1076 1615 735 Q1571 386 1354 182 Q1136 -23 797 -23 Z M817 194 Q928 194 1017.5 229.5 Q1107 265 1173 334 Q1239 403 1281 504 Q1323 605 1339 735 Q1369 986 1271 1126 Q1172 1266 953 1266 Q731 1266 596 1126 Q460 987 430 735 Q398 474 495.5 334 Q593 194 817 194 Z " />
<glyph glyph-name="uni01EB" unicode="&#x1eb;" horiz-adv-x="1286" d="M500 -356 Q400 -356 348.5 -324.5 Q297 -293 305 -227 Q308 -200 318.5 -175.5 Q329 -151 343 -132 Q356 -113 378 -93.5 Q400 -74 417 -62 Q426 -56 437.5 -49 Q449 -42 461.5 -35 Q474 -28 485 -22 Q496 -16 504 -13 L544 6 L578 21 L713 23 Q676 3 646 -20 Q616 -43 593.5 -67 Q571 -91 558 -114.5 Q545 -138 542 -157 Q536 -204 599 -204 Q625 -204 669.5 -195 Q714 -186 777 -167 L759 -315 Q618 -356 500 -356 Z M605 -23 Q470 -23 371 20 Q272 63 215 138 Q161 213 139 308.5 Q117 404 130 513 Q144 625 189.5 720.5 Q235 816 310 891 Q385 966 494.5 1009 Q604 1052 736 1052 Q871 1052 969 1009.5 Q1067 967 1121 892 Q1175 817 1194.5 721.5 Q1214 626 1200 511 Q1187 403 1142.5 309 Q1098 215 1025 140 Q952 65 844 21 Q736 -23 605 -23 Z M624 177 Q699 177 755.5 205 Q812 233 851 280 Q890 327 912.5 388.5 Q935 450 943 516 Q961 664 902 757 Q845 851 708 851 Q637 851 581 824 Q525 797 484.5 751.5 Q444 706 420 645.5 Q396 585 389 516 Q377 424 394 349 Q403 312 422 280.5 Q441 249 470 226 Q499 203 537.5 190 Q576 177 624 177 Z " />
<glyph glyph-name="uni01F0" unicode="&#x1f0;" horiz-adv-x="600" d="M55 -362 Q28 -362 2.5 -360 Q-23 -358 -44.5 -355 Q-66 -352 -82 -348.5 Q-98 -345 -107 -342 L-126 -335 L-77 -165 Q-19 -184 63 -184 Q99 -184 122 -177.5 Q145 -171 165 -150 Q186 -129 199 -88 Q212 -47 220 20 L343 1026 L596 1026 L469 -9 Q458 -99 434 -161 Q410 -223 363 -270 Q318 -318 242 -340 Q166 -362 55 -362 Z M-77 -165 L-80 -164 L-77 -164 L-77 -165 Z M325 1185 L89 1552 L343 1552 L444 1407 L585 1552 L851 1552 L527 1185 L325 1185 Z " />
<glyph glyph-name="uni01F1" unicode="&#x1f1;" horiz-adv-x="2773" d="M1602 0 L1618 136 L2443 1238 L1780 1238 L1806 1456 L2820 1456 L2804 1324 L1975 218 L2667 218 L2641 0 L1602 0 Z M150 0 L328 1456 L734 1456 Q953 1456 1110 1409 Q1267 1362 1364.5 1270.5 Q1462 1179 1499 1045 Q1536 911 1515 737 Q1493 557 1422.5 419 Q1352 281 1236 188 Q1120 95 959.5 47.5 Q799 0 597 0 L150 0 Z M430 218 L636 218 Q902 218 1058 349.5 Q1214 481 1246 738 Q1276 981 1149.5 1109.5 Q1023 1238 731 1238 L556 1238 L430 218 Z " />
<glyph glyph-name="uni01F2" unicode="&#x1f2;" horiz-adv-x="2568" d="M1628 0 L1644 131 L2213 828 L1754 828 L1778 1026 L2559 1026 L2544 897 L1970 197 L2484 197 L2460 0 L1628 0 Z M150 0 L328 1456 L734 1456 Q953 1456 1110 1409 Q1267 1362 1364.5 1270.5 Q1462 1179 1499 1045 Q1536 911 1515 737 Q1493 557 1422.5 419 Q1352 281 1236 188 Q1120 95 959.5 47.5 Q799 0 597 0 L150 0 Z M430 218 L636 218 Q902 218 1058 349.5 Q1214 481 1246 738 Q1276 981 1149.5 1109.5 Q1023 1238 731 1238 L556 1238 L430 218 Z " />
<glyph glyph-name="uni01F3" unicode="&#x1f3;" horiz-adv-x="2264" d="M1324 0 L1340 131 L1909 828 L1450 828 L1474 1026 L2255 1026 L2240 897 L1666 197 L2180 197 L2156 0 L1324 0 Z M608 177 Q678 177 730.5 205 Q783 233 819.5 280 Q856 327 877.5 387 Q899 447 907 512 Q926 661 872 756 Q819 851 689 851 Q603 851 536 804 Q470 756 436 684 Q402 612 391 516 Q383 450 389.5 388.5 Q396 327 421 280 Q446 233 491.5 205 Q537 177 608 177 Z M533 -23 Q334 -23 217 123 Q100 270 130 508 Q144 617 186.5 714 Q229 811 296 887 Q365 963 465.5 1007.5 Q566 1052 684 1052 Q789 1052 857 1008 Q927 964 949 918 L1015 1457 L1261 1457 L1116 274 Q1116 271 1109.5 203 Q1103 135 1092 0 L838 0 L852 131 Q840 108 816 84 Q792 60 754 34 Q716 9 658 -7 Q600 -23 533 -23 Z " />
<glyph glyph-name="uni01F4" unicode="&#x1f4;" horiz-adv-x="1538" d="M881 1596 L1180 1886 L1498 1886 L1109 1596 L881 1596 Z M808 -23 Q448 -23 279 173 Q110 368 151 704 Q166 830 212 944.5 Q258 1059 334 1158 Q389 1231 461 1290.5 Q533 1350 619.5 1393 Q706 1436 806.5 1459.5 Q907 1483 1019 1483 Q1122 1483 1204.5 1468.5 Q1287 1454 1344 1427 Q1403 1399 1427 1382 Q1454 1366 1486 1338 L1362 1160 Q1231 1264 993 1264 Q866 1264 760.5 1217 Q655 1170 585 1091 Q516 1012 473 916.5 Q430 821 417 715 Q403 601 422 505.5 Q441 410 493.5 340.5 Q546 271 634 232.5 Q722 194 846 194 Q966 194 1100 232 L1142 576 L802 576 L829 793 L1427 793 L1340 88 Q1077 -23 808 -23 Z " />
<glyph glyph-name="uni01F5" unicode="&#x1f5;" horiz-adv-x="1235" d="M608 187 Q684 187 737 216.5 Q790 246 824 293 Q858 340 876.5 398.5 Q895 457 902 516 Q920 666 869 758 Q818 851 693 851 Q607 851 540 802 Q474 754 438 680 Q402 606 391 515 Q382 438 390 377 Q398 316 424.5 274 Q451 232 496.5 209.5 Q542 187 608 187 Z M486 -418 Q285 -418 105 -348 L174 -134 Q315 -212 493 -212 Q637 -212 726 -150.5 Q815 -89 830 35 L840 122 Q738 0 569 0 Q340 0 222 139 Q101 280 131 515 Q144 624 184.5 718 Q225 812 292 888 Q358 964 458 1008 Q558 1052 679 1052 Q775 1052 841 1014 Q907 976 939 916 L952 1026 L1215 1026 Q1196 950 1180.5 864.5 Q1165 779 1153 682 L1088 147 Q1018 -418 486 -418 Z M611 1166 L910 1456 L1228 1456 L839 1166 L611 1166 Z " />
<glyph glyph-name="uni01F8" unicode="&#x1f8;" horiz-adv-x="1630" d="M888 1596 L572 1885 L890 1885 L1117 1596 L888 1596 Z M150 0 L328 1456 L597 1456 L1205 384 L1336 1456 L1578 1456 L1400 0 L1130 0 Q854 484 700.5 752.5 Q547 1021 516 1074 L385 0 L150 0 Z " />
<glyph glyph-name="uni01F9" unicode="&#x1f9;" horiz-adv-x="1224" d="M118 0 L195 635 Q209 746 216 841 Q220 890 221.5 925 Q223 960 223 982 L223 1026 L486 1026 L470 889 Q533 970 626 1010 Q719 1052 803 1052 Q893 1052 956 1029 Q1019 1006 1064 952 Q1110 900 1126 808.5 Q1142 717 1125 585 L1054 0 L806 0 L879 602 Q897 737 860 794 Q825 851 727 851 Q692 851 646 835.5 Q600 820 556.5 790 Q513 760 480.5 715.5 Q448 671 441 614 L366 0 L118 0 Z M666 1166 L350 1455 L668 1455 L895 1166 L666 1166 Z " />
<glyph glyph-name="Aringacute" unicode="&#x1fa;" horiz-adv-x="1458" d="M878 1583 Q787 1583 730 1644 Q674 1705 684 1796 Q696 1889 766 1948 Q837 2009 930 2009 Q1022 2009 1079 1948 Q1137 1887 1125 1796 Q1115 1706 1042 1644 Q971 1583 878 1583 Z M892 1687 Q934 1687 971 1719 Q988 1735 999 1754 Q1010 1773 1012 1796 Q1018 1840 990 1872 Q961 1904 918 1904 Q896 1904 875.5 1895.5 Q855 1887 839 1872.5 Q823 1858 812.5 1838 Q802 1818 799 1796 Q794 1749 821 1719 Q848 1687 892 1687 Z M822 2094 L1121 2384 L1439 2384 L1050 2094 L822 2094 Z M966 592 Q892 932 843 1159 Q754 970 576 592 L966 592 Z M-8 0 L755 1456 L1013 1456 L1425 0 L1138 0 L1040 355 L452 355 L271 0 L-8 0 Z " />
<glyph glyph-name="aringacute" unicode="&#x1fb;" horiz-adv-x="1291" d="M787 1153 Q696 1153 639 1214 Q583 1275 593 1366 Q605 1459 675 1518 Q746 1579 839 1579 Q931 1579 988 1518 Q1046 1457 1034 1366 Q1024 1276 951 1214 Q880 1153 787 1153 Z M801 1257 Q843 1257 880 1289 Q897 1305 908 1324 Q919 1343 921 1366 Q927 1410 899 1442 Q870 1474 827 1474 Q805 1474 784.5 1465.5 Q764 1457 748 1442.5 Q732 1428 721.5 1408 Q711 1388 708 1366 Q703 1319 730 1289 Q757 1257 801 1257 Z M731 1664 L1030 1954 L1348 1954 L959 1664 L731 1664 Z M625 177 Q770 177 845 268 Q923 359 941 513 Q951 591 941.5 654 Q932 717 902.5 760.5 Q873 804 823 827.5 Q773 851 703 851 Q564 851 480 760 Q395 669 377 515 Q357 360 420 269 Q482 177 625 177 Z M570 -23 Q444 -23 351 22 Q258 67 207 142 Q156 217 136.5 308.5 Q117 400 129 502 Q143 610 186.5 706 Q230 802 301 880 Q373 959 479 1005.5 Q585 1052 714 1052 Q899 1052 983 917 L996 1026 L1239 1026 L1114 0 L865 0 L882 140 Q749 -23 570 -23 Z " />
<glyph glyph-name="AEacute" unicode="&#x1fc;" horiz-adv-x="2215" d="M1347 1596 L1646 1886 L1964 1886 L1575 1596 L1347 1596 Z M662 558 L1129 558 L1165 1230 L1131 1230 L662 558 Z M-21 0 L1024 1456 L2108 1456 L2081 1230 L1424 1230 L1411 854 L2032 854 L2005 634 L1412 634 L1401 226 L1983 226 L1956 0 L1108 0 L1122 355 L538 355 L293 0 L-21 0 Z " />
<glyph glyph-name="aeacute" unicode="&#x1fd;" horiz-adv-x="1776" d="M1478 632 L1480 655 Q1489 758 1432 815 Q1373 872 1294 872 Q1197 872 1126 805 Q1057 739 1016 632 L1478 632 Z M462 177 Q532 177 583.5 203 Q635 229 670 271 Q705 313 724.5 364.5 Q744 416 752 467 L652 467 Q520 467 425 432 Q375 414 344 381.5 Q313 349 308 304 Q300 238 343.5 207.5 Q387 177 462 177 Z M431 -22 Q244 -22 146 60 Q47 143 66 294 Q90 489 245 563 Q401 638 733 638 L774 638 Q779 687 768.5 728 Q758 769 732.5 798 Q707 827 667.5 843 Q628 859 574 859 Q458 859 278 778 L226 942 Q422 1052 653 1052 Q736 1052 824 1002 Q911 952 947 864 Q1004 953 1111 1002 Q1220 1052 1318 1052 L1321 1052 Q1435 1051 1511 1008.5 Q1587 966 1629 893.5 Q1671 821 1682.5 724.5 Q1694 628 1681 519 L1670 467 L993 467 L991 448 Q982 177 1235 177 L1244 177 Q1318 179 1399 207 Q1481 235 1527 262 L1572 289 L1617 108 Q1613 105 1608.5 102 Q1604 99 1596 94 Q1588 89 1574 81.5 Q1560 74 1538 63 Q1495 41 1449 23 Q1427 14 1399 6 Q1371 -2 1340 -8.5 Q1309 -15 1276 -19 Q1243 -23 1212 -23 L1200 -23 Q1057 -23 967.5 21 Q878 65 838 172 Q774 70 663 24 Q555 -22 431 -22 Z M878 1166 L1177 1456 L1495 1456 L1106 1166 L878 1166 Z " />
<glyph glyph-name="Oslashacute" unicode="&#x1fe;" horiz-adv-x="1671" d="M882 1596 L1181 1886 L1499 1886 L1110 1596 L882 1596 Z M797 -23 Q628 -23 499 29 L396 -128 L287 -75 L393 85 Q251 181 190 347.5 Q129 514 156 735 Q176 905 242 1040 Q308 1175 419 1278 Q642 1483 985 1483 Q1069 1483 1141 1469.5 Q1213 1456 1277 1430 L1373 1575 L1483 1523 L1383 1372 Q1521 1276 1581 1112.5 Q1641 949 1615 735 Q1571 386 1354 182 Q1136 -23 797 -23 Z M629 227 Q708 194 817 194 Q928 194 1017.5 229.5 Q1107 265 1173 334 Q1239 403 1281 504 Q1323 605 1339 735 Q1374 1025 1243 1160 L629 227 Z M1145 1229 Q1065 1266 953 1266 Q731 1266 596 1126 Q460 987 430 735 Q393 429 529 293 L1145 1229 Z " />
<glyph glyph-name="oslashacute" unicode="&#x1ff;" horiz-adv-x="1271" d="M796 838 Q756 851 708 851 Q637 851 581 824 Q525 797 484.5 751.5 Q444 706 420 645.5 Q396 585 389 516 Q367 339 448 247 L796 838 Z M535 190 Q571 177 624 177 Q699 177 755.5 205 Q812 233 851 280 Q890 327 912.5 388.5 Q935 450 943 516 Q964 690 884 782 L535 190 Z M605 -23 Q503 -23 424 1 L308 -195 L214 -148 L327 43 Q209 111 160 235 Q112 360 130 513 Q144 625 189.5 720.5 Q235 816 310 891 Q385 966 494.5 1009 Q604 1052 736 1052 Q832 1052 910 1030 L1016 1211 L1110 1165 L1007 991 Q1126 925 1172 798 Q1220 673 1200 511 Q1187 403 1142.5 309 Q1098 215 1025 140 Q952 65 844 21 Q736 -23 605 -23 Z M638 1166 L937 1456 L1255 1456 L866 1166 L638 1166 Z " />
<glyph glyph-name="uni0200" unicode="&#x200;" horiz-adv-x="1458" d="M631 1582 L355 1926 L651 1926 L818 1582 L631 1582 Z M977 1582 L781 1926 L1045 1926 L1156 1582 L977 1582 Z M966 592 Q892 932 843 1159 Q754 970 576 592 L966 592 Z M-8 0 L755 1456 L1013 1456 L1425 0 L1138 0 L1040 355 L452 355 L271 0 L-8 0 Z " />
<glyph glyph-name="uni0201" unicode="&#x201;" horiz-adv-x="1291" d="M540 1152 L264 1496 L560 1496 L727 1152 L540 1152 Z M886 1152 L690 1496 L954 1496 L1065 1152 L886 1152 Z M625 177 Q770 177 845 268 Q923 359 941 513 Q951 591 941.5 654 Q932 717 902.5 760.5 Q873 804 823 827.5 Q773 851 703 851 Q564 851 480 760 Q395 669 377 515 Q357 360 420 269 Q482 177 625 177 Z M570 -23 Q444 -23 351 22 Q258 67 207 142 Q156 217 136.5 308.5 Q117 400 129 502 Q143 610 186.5 706 Q230 802 301 880 Q373 959 479 1005.5 Q585 1052 714 1052 Q899 1052 983 917 L996 1026 L1239 1026 L1114 0 L865 0 L882 140 Q749 -23 570 -23 Z " />
<glyph glyph-name="uni0202" unicode="&#x202;" horiz-adv-x="1458" d="M593 1581 Q621 1738 710.5 1811 Q800 1884 958 1884 Q1116 1884 1187 1811 Q1258 1738 1249 1581 L1062 1581 Q1067 1697 933 1697 Q802 1697 782 1581 L593 1581 Z M966 592 Q892 932 843 1159 Q754 970 576 592 L966 592 Z M-8 0 L755 1456 L1013 1456 L1425 0 L1138 0 L1040 355 L452 355 L271 0 L-8 0 Z " />
<glyph glyph-name="uni0203" unicode="&#x203;" horiz-adv-x="1291" d="M502 1151 Q530 1308 619.5 1381 Q709 1454 867 1454 Q1025 1454 1096 1381 Q1167 1308 1158 1151 L971 1151 Q976 1267 842 1267 Q711 1267 691 1151 L502 1151 Z M625 177 Q770 177 845 268 Q923 359 941 513 Q951 591 941.5 654 Q932 717 902.5 760.5 Q873 804 823 827.5 Q773 851 703 851 Q564 851 480 760 Q395 669 377 515 Q357 360 420 269 Q482 177 625 177 Z M570 -23 Q444 -23 351 22 Q258 67 207 142 Q156 217 136.5 308.5 Q117 400 129 502 Q143 610 186.5 706 Q230 802 301 880 Q373 959 479 1005.5 Q585 1052 714 1052 Q899 1052 983 917 L996 1026 L1239 1026 L1114 0 L865 0 L882 140 Q749 -23 570 -23 Z " />
<glyph glyph-name="uni0204" unicode="&#x204;" horiz-adv-x="1249" d="M602 1582 L326 1926 L622 1926 L789 1582 L602 1582 Z M948 1582 L752 1926 L1016 1926 L1127 1582 L948 1582 Z M150 0 L328 1456 L1247 1456 L1221 1238 L556 1238 L508 849 L1137 849 L1110 630 L484 630 L433 218 L1124 218 L1098 0 L150 0 Z " />
<glyph glyph-name="uni0205" unicode="&#x205;" horiz-adv-x="1206" d="M514 1152 L238 1496 L534 1496 L701 1152 L514 1152 Z M860 1152 L664 1496 L928 1496 L1039 1152 L860 1152 Z M921 636 Q916 745 860 803 Q804 861 713 861 Q605 861 526.5 801.5 Q448 742 411 636 L921 636 Z M623 -23 Q364 -23 232 125 Q101 273 130 512 Q144 621 191.5 717.5 Q239 814 314 889 Q389 964 494.5 1008 Q600 1052 723 1052 Q846 1052 930.5 1010 Q1015 968 1060 892 Q1105 817 1118.5 723.5 Q1132 630 1118 515 Q1116 501 1113.5 490 Q1111 479 1107 471 L387 471 Q381 396 398 340.5 Q415 285 451.5 249 Q488 213 543.5 195 Q599 177 670 177 Q836 177 1008 287 L1053 107 Q948 40 845.5 8.5 Q743 -23 623 -23 Z " />
<glyph glyph-name="uni0206" unicode="&#x206;" horiz-adv-x="1249" d="M531 1581 Q559 1738 648.5 1811 Q738 1884 896 1884 Q1054 1884 1125 1811 Q1196 1738 1187 1581 L1000 1581 Q1005 1697 871 1697 Q740 1697 720 1581 L531 1581 Z M150 0 L328 1456 L1247 1456 L1221 1238 L556 1238 L508 849 L1137 849 L1110 630 L484 630 L433 218 L1124 218 L1098 0 L150 0 Z " />
<glyph glyph-name="uni0207" unicode="&#x207;" horiz-adv-x="1206" d="M443 1151 Q471 1308 560.5 1381 Q650 1454 808 1454 Q966 1454 1037 1381 Q1108 1308 1099 1151 L912 1151 Q917 1267 783 1267 Q652 1267 632 1151 L443 1151 Z M921 636 Q916 745 860 803 Q804 861 713 861 Q605 861 526.5 801.5 Q448 742 411 636 L921 636 Z M623 -23 Q364 -23 232 125 Q101 273 130 512 Q144 621 191.5 717.5 Q239 814 314 889 Q389 964 494.5 1008 Q600 1052 723 1052 Q846 1052 930.5 1010 Q1015 968 1060 892 Q1105 817 1118.5 723.5 Q1132 630 1118 515 Q1116 501 1113.5 490 Q1111 479 1107 471 L387 471 Q381 396 398 340.5 Q415 285 451.5 249 Q488 213 543.5 195 Q599 177 670 177 Q836 177 1008 287 L1053 107 Q948 40 845.5 8.5 Q743 -23 623 -23 Z " />
<glyph glyph-name="uni0208" unicode="&#x208;" horiz-adv-x="586" d="M220 1582 L-56 1926 L240 1926 L407 1582 L220 1582 Z M566 1582 L370 1926 L634 1926 L745 1582 L566 1582 Z M120 0 L298 1456 L552 1456 L374 0 L120 0 Z " />
<glyph glyph-name="uni0209" unicode="&#x209;" horiz-adv-x="485" d="M108 1152 L-168 1496 L128 1496 L295 1152 L108 1152 Z M454 1152 L258 1496 L522 1496 L633 1152 L454 1152 Z M63 0 L188 1026 L437 1026 L312 0 L63 0 Z " />
<glyph glyph-name="uni020A" unicode="&#x20a;" horiz-adv-x="586" d="M148 1581 Q176 1738 265.5 1811 Q355 1884 513 1884 Q671 1884 742 1811 Q813 1738 804 1581 L617 1581 Q622 1697 488 1697 Q357 1697 337 1581 L148 1581 Z M120 0 L298 1456 L552 1456 L374 0 L120 0 Z " />
<glyph glyph-name="uni020B" unicode="&#x20b;" horiz-adv-x="485" d="M37 1151 Q65 1308 154.5 1381 Q244 1454 402 1454 Q560 1454 631 1381 Q702 1308 693 1151 L506 1151 Q511 1267 377 1267 Q246 1267 226 1151 L37 1151 Z M63 0 L188 1026 L437 1026 L312 0 L63 0 Z " />
<glyph glyph-name="uni020C" unicode="&#x20c;" horiz-adv-x="1671" d="M770 1582 L494 1926 L790 1926 L957 1582 L770 1582 Z M1116 1582 L920 1926 L1184 1926 L1295 1582 L1116 1582 Z M797 -23 Q455 -23 284 182 Q112 388 156 735 Q176 905 242 1040 Q308 1175 419 1278 Q642 1483 985 1483 Q1316 1483 1485 1278 Q1656 1076 1615 735 Q1571 386 1354 182 Q1136 -23 797 -23 Z M817 194 Q928 194 1017.5 229.5 Q1107 265 1173 334 Q1239 403 1281 504 Q1323 605 1339 735 Q1369 986 1271 1126 Q1172 1266 953 1266 Q731 1266 596 1126 Q460 987 430 735 Q398 474 495.5 334 Q593 194 817 194 Z " />
<glyph glyph-name="uni020D" unicode="&#x20d;" horiz-adv-x="1286" d="M526 1152 L250 1496 L546 1496 L713 1152 L526 1152 Z M872 1152 L676 1496 L940 1496 L1051 1152 L872 1152 Z M605 -23 Q470 -23 371 20 Q272 63 215 138 Q161 213 139 308.5 Q117 404 130 513 Q144 625 189.5 720.5 Q235 816 310 891 Q385 966 494.5 1009 Q604 1052 736 1052 Q871 1052 969 1009.5 Q1067 967 1121 892 Q1175 817 1194.5 721.5 Q1214 626 1200 511 Q1187 403 1142.5 309 Q1098 215 1025 140 Q952 65 844 21 Q736 -23 605 -23 Z M624 177 Q699 177 755.5 205 Q812 233 851 280 Q890 327 912.5 388.5 Q935 450 943 516 Q961 664 902 757 Q845 851 708 851 Q637 851 581 824 Q525 797 484.5 751.5 Q444 706 420 645.5 Q396 585 389 516 Q377 424 394 349 Q403 312 422 280.5 Q441 249 470 226 Q499 203 537.5 190 Q576 177 624 177 Z " />
<glyph glyph-name="uni020E" unicode="&#x20e;" horiz-adv-x="1671" d="M699 1581 Q727 1738 816.5 1811 Q906 1884 1064 1884 Q1222 1884 1293 1811 Q1364 1738 1355 1581 L1168 1581 Q1173 1697 1039 1697 Q908 1697 888 1581 L699 1581 Z M797 -23 Q455 -23 284 182 Q112 388 156 735 Q176 905 242 1040 Q308 1175 419 1278 Q642 1483 985 1483 Q1316 1483 1485 1278 Q1656 1076 1615 735 Q1571 386 1354 182 Q1136 -23 797 -23 Z M817 194 Q928 194 1017.5 229.5 Q1107 265 1173 334 Q1239 403 1281 504 Q1323 605 1339 735 Q1369 986 1271 1126 Q1172 1266 953 1266 Q731 1266 596 1126 Q460 987 430 735 Q398 474 495.5 334 Q593 194 817 194 Z " />
<glyph glyph-name="uni020F" unicode="&#x20f;" horiz-adv-x="1286" d="M455 1151 Q483 1308 572.5 1381 Q662 1454 820 1454 Q978 1454 1049 1381 Q1120 1308 1111 1151 L924 1151 Q929 1267 795 1267 Q664 1267 644 1151 L455 1151 Z M605 -23 Q470 -23 371 20 Q272 63 215 138 Q161 213 139 308.5 Q117 404 130 513 Q144 625 189.5 720.5 Q235 816 310 891 Q385 966 494.5 1009 Q604 1052 736 1052 Q871 1052 969 1009.5 Q1067 967 1121 892 Q1175 817 1194.5 721.5 Q1214 626 1200 511 Q1187 403 1142.5 309 Q1098 215 1025 140 Q952 65 844 21 Q736 -23 605 -23 Z M624 177 Q699 177 755.5 205 Q812 233 851 280 Q890 327 912.5 388.5 Q935 450 943 516 Q961 664 902 757 Q845 851 708 851 Q637 851 581 824 Q525 797 484.5 751.5 Q444 706 420 645.5 Q396 585 389 516 Q377 424 394 349 Q403 312 422 280.5 Q441 249 470 226 Q499 203 537.5 190 Q576 177 624 177 Z " />
<glyph glyph-name="uni0210" unicode="&#x210;" horiz-adv-x="1388" d="M594 1582 L318 1926 L614 1926 L781 1582 L594 1582 Z M940 1582 L744 1926 L1008 1926 L1119 1582 L940 1582 Z M503 831 L746 831 Q1018 831 1043 1042 Q1058 1156 1005 1197 Q953 1238 823 1238 L553 1238 L503 831 Z M150 0 L328 1456 L853 1456 Q973 1456 1058.5 1438 Q1144 1420 1209 1376 Q1342 1290 1313 1054 Q1298 930 1213 836 Q1128 742 978 709 Q1099 635 1143 481 L1281 0 L1006 0 L892 433 Q863 541 820 578 Q777 616 680 616 L479 616 L404 0 L150 0 Z " />
<glyph glyph-name="uni0211" unicode="&#x211;" horiz-adv-x="780" d="M319 1152 L43 1496 L339 1496 L506 1152 L319 1152 Z M665 1152 L469 1496 L733 1496 L844 1152 L665 1152 Z M122 0 L216 766 Q219 796 221.5 827.5 Q224 859 226 891 Q228 923 228 948.5 Q228 974 228 991 L227 1026 L491 1026 L475 891 Q546 972 611.5 1012 Q677 1052 753 1052 Q797 1052 853 1037 L826 820 Q763 842 705 842 Q600 842 529 775 Q455 707 440 581 L369 0 L122 0 Z " />
<glyph glyph-name="uni0212" unicode="&#x212;" horiz-adv-x="1388" d="M523 1581 Q551 1738 640.5 1811 Q730 1884 888 1884 Q1046 1884 1117 1811 Q1188 1738 1179 1581 L992 1581 Q997 1697 863 1697 Q732 1697 712 1581 L523 1581 Z M503 831 L746 831 Q1018 831 1043 1042 Q1058 1156 1005 1197 Q953 1238 823 1238 L553 1238 L503 831 Z M150 0 L328 1456 L853 1456 Q973 1456 1058.5 1438 Q1144 1420 1209 1376 Q1342 1290 1313 1054 Q1298 930 1213 836 Q1128 742 978 709 Q1099 635 1143 481 L1281 0 L1006 0 L892 433 Q863 541 820 578 Q777 616 680 616 L479 616 L404 0 L150 0 Z " />
<glyph glyph-name="uni0213" unicode="&#x213;" horiz-adv-x="780" d="M248 1151 Q276 1308 365.5 1381 Q455 1454 613 1454 Q771 1454 842 1381 Q913 1308 904 1151 L717 1151 Q722 1267 588 1267 Q457 1267 437 1151 L248 1151 Z M122 0 L216 766 Q219 796 221.5 827.5 Q224 859 226 891 Q228 923 228 948.5 Q228 974 228 991 L227 1026 L491 1026 L475 891 Q546 972 611.5 1012 Q677 1052 753 1052 Q797 1052 853 1037 L826 820 Q763 842 705 842 Q600 842 529 775 Q455 707 440 581 L369 0 L122 0 Z " />
<glyph glyph-name="uni0214" unicode="&#x214;" horiz-adv-x="1509" d="M678 1582 L402 1926 L698 1926 L865 1582 L678 1582 Z M1024 1582 L828 1926 L1092 1926 L1203 1582 L1024 1582 Z M712 -23 Q571 -23 470 11 Q369 45 310 100 Q281 128 259.5 162 Q238 196 223 238 Q193 321 188.5 407 Q184 493 197 599 L302 1456 L556 1456 L450 588 Q436 472 452.5 396 Q469 320 508.5 275 Q548 230 607 212 Q666 194 737 194 Q813 194 873.5 213 Q934 232 987 275 Q1041 320 1075 398.5 Q1109 477 1123 589 L1229 1456 L1483 1456 L1378 598 Q1372 545 1363 498.5 Q1354 452 1341 408.5 Q1328 365 1309.5 323.5 Q1291 282 1266 240 Q1215 156 1146 101 Q1075 44 965 10.5 Q855 -23 712 -23 Z " />
<glyph glyph-name="uni0215" unicode="&#x215;" horiz-adv-x="1186" d="M482 1152 L206 1496 L502 1496 L669 1152 L482 1152 Z M828 1152 L632 1496 L896 1496 L1007 1152 L828 1152 Z M481 -23 Q294 -23 204 83 Q112 190 136 376 L215 1026 L461 1026 L382 380 Q369 278 416 227.5 Q463 177 556 177 Q667 177 727.5 232.5 Q788 288 803 411 L878 1026 L1126 1026 L1034 276 L1013 0 L757 0 L771 152 Q755 106 687 47 Q653 17 598.5 -3 Q544 -23 481 -23 Z " />
<glyph glyph-name="uni0216" unicode="&#x216;" horiz-adv-x="1509" d="M607 1581 Q635 1738 724.5 1811 Q814 1884 972 1884 Q1130 1884 1201 1811 Q1272 1738 1263 1581 L1076 1581 Q1081 1697 947 1697 Q816 1697 796 1581 L607 1581 Z M712 -23 Q571 -23 470 11 Q369 45 310 100 Q281 128 259.5 162 Q238 196 223 238 Q193 321 188.5 407 Q184 493 197 599 L302 1456 L556 1456 L450 588 Q436 472 452.5 396 Q469 320 508.5 275 Q548 230 607 212 Q666 194 737 194 Q813 194 873.5 213 Q934 232 987 275 Q1041 320 1075 398.5 Q1109 477 1123 589 L1229 1456 L1483 1456 L1378 598 Q1372 545 1363 498.5 Q1354 452 1341 408.5 Q1328 365 1309.5 323.5 Q1291 282 1266 240 Q1215 156 1146 101 Q1075 44 965 10.5 Q855 -23 712 -23 Z " />
<glyph glyph-name="uni0217" unicode="&#x217;" horiz-adv-x="1186" d="M411 1151 Q439 1308 528.5 1381 Q618 1454 776 1454 Q934 1454 1005 1381 Q1076 1308 1067 1151 L880 1151 Q885 1267 751 1267 Q620 1267 600 1151 L411 1151 Z M481 -23 Q294 -23 204 83 Q112 190 136 376 L215 1026 L461 1026 L382 380 Q369 278 416 227.5 Q463 177 556 177 Q667 177 727.5 232.5 Q788 288 803 411 L878 1026 L1126 1026 L1034 276 L1013 0 L757 0 L771 152 Q755 106 687 47 Q653 17 598.5 -3 Q544 -23 481 -23 Z " />
<glyph glyph-name="Scommaaccent" unicode="&#x218;" horiz-adv-x="1256" d="M321 -647 L495 -142 L774 -142 L532 -647 L321 -647 Z M580 -23 Q505 -23 434.5 -12 Q364 -1 296 21 Q163 64 92 143 L222 325 Q286 270 395 232 Q506 194 590 194 Q726 194 796 243.5 Q866 293 879 396 Q882 416 882.5 431.5 Q883 447 881 460.5 Q879 474 874 486 Q869 498 860 511 Q843 538 804 560.5 Q765 583 698 608 Q684 613 659.5 621.5 Q635 630 600 641 Q566 652 541.5 661 Q517 670 501 676 Q331 743 259 836 Q190 930 209 1087 Q224 1215 303 1306 Q383 1397 499.5 1440 Q616 1483 761 1483 Q954 1483 1059 1445 Q1111 1426 1157.5 1393.5 Q1204 1361 1247 1315 L1096 1147 Q988 1264 770 1264 Q651 1264 571 1223 Q492 1183 481 1098 Q476 1059 479.5 1030.5 Q483 1002 502.5 978 Q522 954 561.5 932 Q601 910 668 885 Q680 880 705 871.5 Q730 863 768 850 Q806 837 834.5 827.5 Q863 818 882 810 Q967 775 1023.5 734 Q1080 693 1110 647 Q1169 555 1149 391 Q1135 282 1082.5 200 Q1030 118 949 70 Q868 22 776.5 -0.5 Q685 -23 580 -23 Z " />
<glyph glyph-name="scommaaccent" unicode="&#x219;" horiz-adv-x="988" d="M209 -647 L383 -142 L662 -142 L420 -647 L209 -647 Z M491 -23 Q356 -23 247 15 Q141 52 79 106 L162 284 Q219 235 311 203 Q403 172 493 172 Q577 172 622 200 Q667 228 675 291 L677 309 Q681 340 659 363 Q635 387 550 415 L410 462 Q383 471 361.5 479 Q340 487 321 495.5 Q302 504 285 513.5 Q268 523 250 535 Q200 569 180.5 619.5 Q161 670 169 753 Q179 831 216.5 890 Q254 949 312 983 Q428 1050 585 1050 Q684 1050 778 1025 Q872 1000 941 951 L856 781 Q801 812 722 835 Q647 857 580 857 Q495 857 454.5 836 Q414 815 408 767 Q406 743 409.5 727.5 Q413 712 429.5 698.5 Q446 685 480.5 670 Q515 655 575 633 L703 588 Q780 560 823 529 Q868 497 890.5 438.5 Q913 380 902 290 Q891 201 849.5 141 Q808 81 750 44.5 Q692 8 623.5 -7.5 Q555 -23 491 -23 Z " />
<glyph glyph-name="uni021A" unicode="&#x21a;" horiz-adv-x="1181" d="M282 -647 L456 -142 L735 -142 L493 -647 L282 -647 Z M430 0 L582 1238 L133 1238 L159 1456 L1318 1456 L1292 1238 L836 1238 L684 0 L430 0 Z " />
<glyph glyph-name="uni021B" unicode="&#x21b;" horiz-adv-x="804" d="M129 -647 L303 -142 L582 -142 L340 -647 L129 -647 Z M728 1 L628 1 Q567 1 524 4 Q479 7 434.5 17 Q390 27 359 43 Q327 61 302.5 88.5 Q278 116 263.5 155.5 Q249 195 245.5 249.5 Q242 304 251 376 L310 860 L96 860 L116 1026 L340 1026 L370 1266 L616 1339 L577 1026 L845 1026 L825 860 L557 860 L496 361 Q490 313 494 283.5 Q498 254 510 234 Q523 215 557 206 Q591 197 633 194 Q675 191 751 191 L728 1 Z " />
<glyph glyph-name="uni021E" unicode="&#x21e;" horiz-adv-x="1572" d="M810 1615 L574 1982 L828 1982 L929 1837 L1070 1982 L1336 1982 L1012 1615 L810 1615 Z M150 0 L328 1456 L582 1456 L509 857 L1192 857 L1265 1456 L1519 1456 L1341 0 L1092 0 L1170 637 L487 637 L409 0 L150 0 Z " />
<glyph glyph-name="uni021F" unicode="&#x21f;" horiz-adv-x="1219" d="M104 0 L282 1457 L530 1457 L461 893 Q508 965 605 1008 Q705 1052 788 1052 Q898 1052 966 1016 Q1034 980 1070 921 Q1095 881 1107 840 Q1119 799 1122 748 Q1127 697 1125.5 656.5 Q1124 616 1119 571 L1049 0 L801 0 L872 579 Q889 724 852 787.5 Q815 851 725 851 Q624 851 530 780 Q439 709 427 618 L352 0 L104 0 Z M777 1185 L541 1552 L795 1552 L896 1407 L1037 1552 L1303 1552 L979 1185 L777 1185 Z " />
<glyph glyph-name="uni0226" unicode="&#x226;" horiz-adv-x="1458" d="M771 1596 L799 1824 L1045 1824 L1017 1596 L771 1596 Z M966 592 Q892 932 843 1159 Q754 970 576 592 L966 592 Z M-8 0 L755 1456 L1013 1456 L1425 0 L1138 0 L1040 355 L452 355 L271 0 L-8 0 Z " />
<glyph glyph-name="uni0227" unicode="&#x227;" horiz-adv-x="1291" d="M681 1166 L709 1394 L955 1394 L927 1166 L681 1166 Z M625 177 Q770 177 845 268 Q923 359 941 513 Q951 591 941.5 654 Q932 717 902.5 760.5 Q873 804 823 827.5 Q773 851 703 851 Q564 851 480 760 Q395 669 377 515 Q357 360 420 269 Q482 177 625 177 Z M570 -23 Q444 -23 351 22 Q258 67 207 142 Q156 217 136.5 308.5 Q117 400 129 502 Q143 610 186.5 706 Q230 802 301 880 Q373 959 479 1005.5 Q585 1052 714 1052 Q899 1052 983 917 L996 1026 L1239 1026 L1114 0 L865 0 L882 140 Q749 -23 570 -23 Z " />
<glyph glyph-name="uni0228" unicode="&#x228;" horiz-adv-x="1249" d="M390 -294 Q422 -308 469 -320 Q516 -332 559 -332 Q660 -332 669 -259 Q681 -163 530 -140 L502 -136 L554 39 L678 39 L647 -75 Q754 -82 804 -143 Q853 -203 844 -283 Q837 -337 813 -375 Q789 -413 753 -437.5 Q717 -462 672 -473.5 Q627 -485 579 -485 Q460 -485 363 -426 L390 -294 Z M150 0 L328 1456 L1247 1456 L1221 1238 L556 1238 L508 849 L1137 849 L1110 630 L484 630 L433 218 L1124 218 L1098 0 L150 0 Z " />
<glyph glyph-name="uni0229" unicode="&#x229;" horiz-adv-x="1206" d="M921 636 Q916 745 860 803 Q804 861 713 861 Q605 861 526.5 801.5 Q448 742 411 636 L921 636 Z M623 -23 Q364 -23 232 125 Q101 273 130 512 Q144 621 191.5 717.5 Q239 814 314 889 Q389 964 494.5 1008 Q600 1052 723 1052 Q846 1052 930.5 1010 Q1015 968 1060 892 Q1105 817 1118.5 723.5 Q1132 630 1118 515 Q1116 501 1113.5 490 Q1111 479 1107 471 L387 471 Q381 396 398 340.5 Q415 285 451.5 249 Q488 213 543.5 195 Q599 177 670 177 Q836 177 1008 287 L1053 107 Q948 40 845.5 8.5 Q743 -23 623 -23 Z M400 -294 Q432 -308 479 -320 Q526 -332 569 -332 Q670 -332 679 -259 Q691 -163 540 -140 L512 -136 L564 39 L688 39 L657 -75 Q764 -82 814 -143 Q863 -203 854 -283 Q847 -337 823 -375 Q799 -413 763 -437.5 Q727 -462 682 -473.5 Q637 -485 589 -485 Q470 -485 373 -426 L400 -294 Z " />
<glyph glyph-name="uni022E" unicode="&#x22e;" horiz-adv-x="1671" d="M878 1596 L906 1824 L1152 1824 L1124 1596 L878 1596 Z M797 -23 Q455 -23 284 182 Q112 388 156 735 Q176 905 242 1040 Q308 1175 419 1278 Q642 1483 985 1483 Q1316 1483 1485 1278 Q1656 1076 1615 735 Q1571 386 1354 182 Q1136 -23 797 -23 Z M817 194 Q928 194 1017.5 229.5 Q1107 265 1173 334 Q1239 403 1281 504 Q1323 605 1339 735 Q1369 986 1271 1126 Q1172 1266 953 1266 Q731 1266 596 1126 Q460 987 430 735 Q398 474 495.5 334 Q593 194 817 194 Z " />
<glyph glyph-name="uni022F" unicode="&#x22f;" horiz-adv-x="1286" d="M605 -23 Q470 -23 371 20 Q272 63 215 138 Q161 213 139 308.5 Q117 404 130 513 Q144 625 189.5 720.5 Q235 816 310 891 Q385 966 494.5 1009 Q604 1052 736 1052 Q871 1052 969 1009.5 Q1067 967 1121 892 Q1175 817 1194.5 721.5 Q1214 626 1200 511 Q1187 403 1142.5 309 Q1098 215 1025 140 Q952 65 844 21 Q736 -23 605 -23 Z M624 177 Q699 177 755.5 205 Q812 233 851 280 Q890 327 912.5 388.5 Q935 450 943 516 Q961 664 902 757 Q845 851 708 851 Q637 851 581 824 Q525 797 484.5 751.5 Q444 706 420 645.5 Q396 585 389 516 Q377 424 394 349 Q403 312 422 280.5 Q441 249 470 226 Q499 203 537.5 190 Q576 177 624 177 Z M634 1166 L662 1394 L908 1394 L880 1166 L634 1166 Z " />
<glyph glyph-name="uni0232" unicode="&#x232;" horiz-adv-x="1280" d="M503 1576 L522 1733 L1146 1733 L1127 1576 L503 1576 Z M465 0 L534 563 L124 1456 L413 1456 L692 789 L1132 1456 L1428 1456 L788 564 L719 0 L465 0 Z " />
<glyph glyph-name="uni0233" unicode="&#x233;" horiz-adv-x="1114" d="M75 -277 Q220 -224 297 -165 Q375 -108 408 -27 L428 23 L115 1026 L373 1026 L580 290 L926 1026 L1179 1026 L631 -56 Q574 -163 495 -243 Q415 -325 333 -371 Q251 -417 159 -445 L75 -277 Z M389 1146 L408 1303 L1032 1303 L1013 1146 L389 1146 Z " />
<glyph glyph-name="uni0237" unicode="&#x237;" horiz-adv-x="600" d="M55 -362 Q28 -362 2.5 -360 Q-23 -358 -44.5 -355 Q-66 -352 -82 -348.5 Q-98 -345 -107 -342 L-126 -335 L-77 -165 Q-19 -184 63 -184 Q99 -184 122 -177.5 Q145 -171 165 -150 Q186 -129 199 -88 Q212 -47 220 20 L343 1026 L596 1026 L469 -9 Q458 -99 434 -161 Q410 -223 363 -270 Q318 -318 242 -340 Q166 -362 55 -362 Z M-77 -165 L-80 -164 L-77 -164 L-77 -165 Z " />
<glyph glyph-name="afii57929" unicode="&#x2bc;" horiz-adv-x="600" d="M177 1247 L345 1817 L625 1817 L359 1247 L177 1247 Z " />
<glyph glyph-name="circumflex" unicode="&#x2c6;" horiz-adv-x="699" d="M68 1185 L370 1555 L622 1555 L842 1185 L595 1185 L483 1381 L320 1185 L68 1185 Z " />
<glyph glyph-name="caron" unicode="&#x2c7;" horiz-adv-x="699" d="M355 1185 L119 1552 L373 1552 L474 1407 L615 1552 L881 1552 L557 1185 L355 1185 Z " />
<glyph glyph-name="uni02C9" unicode="&#x2c9;" horiz-adv-x="600" d="M134 1506 L820 1506 L800 1339 L114 1339 L134 1506 Z " />
<glyph glyph-name="breve" unicode="&#x2d8;" horiz-adv-x="700" d="M454 1160 Q151 1160 168 1456 L342 1456 Q339 1380 381 1355 Q403 1343 424 1338.5 Q445 1334 475 1334 Q506 1334 532.5 1339.5 Q559 1345 579 1358.5 Q599 1372 613.5 1396 Q628 1420 636 1456 L809 1456 Q779 1302 690 1231 Q601 1160 454 1160 Z " />
<glyph glyph-name="dotaccent" unicode="&#x2d9;" horiz-adv-x="524" d="M231 1166 L259 1394 L505 1394 L477 1166 L231 1166 Z " />
<glyph glyph-name="ring" unicode="&#x2da;" horiz-adv-x="700" d="M439 1153 Q348 1153 291 1214 Q235 1275 245 1366 Q257 1459 327 1518 Q398 1579 491 1579 Q583 1579 640 1518 Q698 1457 686 1366 Q676 1276 603 1214 Q532 1153 439 1153 Z M453 1257 Q495 1257 532 1289 Q549 1305 560 1324 Q571 1343 573 1366 Q579 1410 551 1442 Q522 1474 479 1474 Q457 1474 436.5 1465.5 Q416 1457 400 1442.5 Q384 1428 373.5 1408 Q363 1388 360 1366 Q355 1319 382 1289 Q409 1257 453 1257 Z " />
<glyph glyph-name="ogonek" unicode="&#x2db;" horiz-adv-x="508" d="M150 -356 Q50 -356 -1.5 -324.5 Q-53 -293 -45 -227 Q-42 -200 -31.5 -175.5 Q-21 -151 -7 -132 Q6 -113 28 -93.5 Q50 -74 67 -62 Q76 -56 87.5 -49 Q99 -42 111.5 -35 Q124 -28 135 -22 Q146 -16 154 -13 L194 6 L228 21 L363 23 Q326 3 296 -20 Q266 -43 243.5 -67 Q221 -91 208 -114.5 Q195 -138 192 -157 Q186 -204 249 -204 Q275 -204 319.5 -195 Q364 -186 427 -167 L409 -315 Q268 -356 150 -356 Z " />
<glyph glyph-name="tilde" unicode="&#x2dc;" horiz-adv-x="739" d="M618 1174 Q575 1174 520 1201 Q492 1215 466 1228 Q440 1241 415 1254 Q367 1281 343 1281 Q321 1281 297.5 1256 Q274 1231 262 1179 L102 1179 Q119 1308 188 1388 Q260 1470 356 1470 Q381 1471 408.5 1464 Q436 1457 463 1445.5 Q490 1434 515.5 1419.5 Q541 1405 563 1393 Q585 1381 602 1372.5 Q619 1364 628 1363 Q631 1363 636 1362.5 Q641 1362 643 1362 Q673 1362 692 1384.5 Q711 1407 718 1470 L880 1470 Q862 1322 793 1248.5 Q724 1175 619 1174 L618 1174 Z " />
<glyph glyph-name="hungarumlaut" unicode="&#x2dd;" horiz-adv-x="969" d="M508 1152 L759 1496 L1055 1496 L695 1152 L508 1152 Z M170 1152 L365 1496 L629 1496 L349 1152 L170 1152 Z " />
<glyph glyph-name="uni0307" unicode="&#x307;" horiz-adv-x="524" d="M277 1153 L306 1386 L558 1386 L529 1153 L277 1153 Z " />
<glyph glyph-name="uni030F" unicode="&#x30f;" horiz-adv-x="969" d="M515 1152 L239 1496 L535 1496 L702 1152 L515 1152 Z M861 1152 L665 1496 L929 1496 L1040 1152 L861 1152 Z " />
<glyph glyph-name="uni0311" unicode="&#x311;" horiz-adv-x="629" d="M127 1151 Q155 1308 244.5 1381 Q334 1454 492 1454 Q650 1454 721 1381 Q792 1308 783 1151 L596 1151 Q601 1267 467 1267 Q336 1267 316 1151 L127 1151 Z " />
<glyph glyph-name="uni0312" unicode="&#x312;" horiz-adv-x="600" d="M795 1736 L622 1239 L344 1239 L585 1736 L795 1736 Z " />
<glyph glyph-name="uni0326" unicode="&#x326;" horiz-adv-x="540" d="M-5 -647 L169 -142 L448 -142 L206 -647 L-5 -647 Z " />
<glyph glyph-name="uni0358" unicode="&#x358;" horiz-adv-x="524" d="M277 1153 L306 1386 L558 1386 L529 1153 L277 1153 Z " />
<glyph glyph-name="uni0394" unicode="&#x394;" horiz-adv-x="1502" d="M348 217 L1148 217 L852 1159 L348 217 Z M61 0 L87 219 L789 1456 L1060 1456 L1464 234 L1436 0 L61 0 Z " />
<glyph glyph-name="Sigma" unicode="&#x3a3;" horiz-adv-x="1262" d="M49 -267 L65 -134 L675 604 L267 1328 L282 1456 L1348 1456 L1323 1252 L630 1252 L980 606 L457 -55 L1205 -55 L1179 -267 L49 -267 Z " />
<glyph glyph-name="uni03A9" unicode="&#x3a9;" horiz-adv-x="1603" d="M70 0 L73 211 L390 208 Q254 324 211 465 Q188 537 183.5 623 Q179 709 191 811 Q215 1010 325 1164 Q435 1316 605 1398 Q776 1479 977 1479 Q1128 1479 1251.5 1433.5 Q1375 1388 1461 1303 Q1549 1219 1588 1093.5 Q1627 968 1608 814 Q1596 711 1570 624.5 Q1544 538 1506 466 Q1430 324 1264 208 L1591 211 L1541 0 L915 0 L935 170 Q1093 262 1204 418 Q1313 574 1337 769 Q1339 788 1340.5 807.5 Q1342 827 1342 847 Q1344 887 1337.5 938 Q1331 989 1316 1034 Q1300 1082 1272.5 1125.5 Q1245 1169 1202 1202 Q1159 1235 1098 1254.5 Q1037 1274 954 1274 Q890 1274 836.5 1262.5 Q783 1251 739 1230.5 Q695 1210 659 1182 Q623 1154 595 1121 Q556 1075 532 1030 Q508 985 490 933 Q473 881 465 843 Q457 805 452 768 Q428 573 500 419 Q572 264 708 170 L688 0 L70 0 Z " />
<glyph glyph-name="uni03BC" unicode="&#x3bc;" horiz-adv-x="1230" d="M933 1082 L1240 1082 L1108 0 L844 0 L847 152 Q717 -20 500 -20 Q481 -20 464 -18.5 Q447 -17 431 -15 L394 -316 L88 -316 L259 1082 L565 1082 L487 440 Q478 370 481.5 320.5 Q485 271 501.5 240 Q518 209 547.5 194.5 Q577 180 621 180 Q745 180 835 285 L933 1082 Z " />
<glyph glyph-name="pi" unicode="&#x3c0;" horiz-adv-x="1477" d="M1105 -13 Q990 -13 932 36 Q874 85 889 211 Q896 263 910.5 338.5 Q925 414 948 515 Q993 714 1038 861 L702 861 L610 323 Q595 234 570 180 Q557 152 538 128 Q519 104 493 82 Q442 40 358 22 Q274 4 145 4 L158 111 Q185 111 222.5 124 Q260 137 298.5 168.5 Q337 200 371.5 253.5 Q406 307 426 388 L548 861 L465 861 Q354 859 318 730 L222 730 Q243 902 325 992 Q407 1082 576 1082 L1464 1082 L1437 861 L1201 861 Q1176 728 1152.5 573 Q1129 418 1107 238 Q1101 191 1127.5 174 Q1154 157 1204 157 Q1260 157 1305 172 L1289 44 Q1223 -13 1105 -13 Z " />
<glyph glyph-name="uni1E02" unicode="&#x1e02;" horiz-adv-x="1367" d="M687 1596 L715 1824 L961 1824 L933 1596 L687 1596 Z M508 852 L725 852 Q776 852 820 861.5 Q864 871 905 893 Q947 915 973.5 954.5 Q1000 994 1008 1051 Q1020 1159 951 1198 Q881 1238 720 1238 L556 1238 L508 852 Z M433 217 L662 217 Q969 217 994 422 Q1011 550 947 598 Q885 646 709 646 L486 646 L433 217 Z M150 0 L328 1456 L731 1456 Q794 1456 844 1453 Q869 1452 897 1449.5 Q925 1447 957 1442 Q1020 1434 1068 1418 Q1115 1403 1161 1375 Q1207 1347 1235 1308 Q1264 1270 1277 1212.5 Q1290 1155 1281 1083 Q1255 866 1050 772 Q1177 737 1229 640 Q1282 543 1266 411 Q1255 327 1213.5 255 Q1172 183 1101 125 Q1029 67 921.5 33.5 Q814 0 681 0 L150 0 Z " />
<glyph glyph-name="uni1E03" unicode="&#x1e03;" horiz-adv-x="1291" d="M744 1166 L772 1394 L1018 1394 L990 1166 L744 1166 Z M639 177 Q710 177 764 205 Q818 233 856 279.5 Q894 326 916 386 Q938 446 946 511 Q964 659 910 755 Q856 851 730 851 Q598 851 510 754 Q420 657 404 515 Q392 425 412 349 Q422 312 442 280.5 Q462 249 491 226 Q520 203 557 190 Q594 177 639 177 Z M661 -23 Q560 -23 478 21 Q400 66 370 127 L355 0 L101 0 L132 196 Q135 215 137 227.5 Q139 240 140 248 Q141 256 141.5 261.5 Q142 267 143 272 L288 1457 L534 1457 L464 882 Q472 900 494.5 926 Q517 952 557 981 Q598 1011 664 1031.5 Q730 1052 806 1052 Q1023 1052 1128 903 Q1235 754 1206 518 Q1199 459 1182 403.5 Q1165 348 1140.5 298 Q1116 248 1084.5 204.5 Q1053 161 1016 126 Q942 56 850 16.5 Q758 -23 661 -23 Z " />
</font>
</svg>
