<?xml version="1.0" encoding="UTF-8"?>
<svg xmlns="http://www.w3.org/2000/svg" xmlns:xlink="http://www.w3.org/1999/xlink" version="1.2" >
<font id="Ride Bold">
<font-face  font-family="Ride" units-per-em="2048" ascent="2412" descent="-607" font-style="normal" font-weight="700" font-stretch="normal" cap-height="1456" x-height="1026" underline-position="0" underline-thickness="0" />
<missing-glyph  horiz-adv-x="748" d="M68 0 L68 1365 L612 1365 L612 0 L68 0 Z M136 68 L544 68 L544 1297 L136 1297 L136 68 Z " />
<glyph glyph-name="uni000D" unicode="&#xd;" horiz-adv-x="599" d="" />
<glyph glyph-name="space" unicode="&#x20;" horiz-adv-x="601" d="" />
<glyph glyph-name="exclam" unicode="&#x21;" horiz-adv-x="688" d="M225 387 L151 1456 L446 1456 L372 387 L225 387 Z M173 0 L173 271 L425 271 L425 0 L173 0 Z " />
<glyph glyph-name="quotedbl" unicode="&#x22;" horiz-adv-x="703" d="M418 957 L365 1456 L603 1456 L552 957 L418 957 Z M75 957 L22 1456 L261 1456 L210 957 L75 957 Z " />
<glyph glyph-name="numbersign" unicode="&#x23;" horiz-adv-x="1465" d="M560 608 L790 608 L842 870 L612 870 L560 608 Z M196 -10 L285 449 L49 449 L58 608 L317 608 L369 870 L102 870 L111 1028 L401 1028 L486 1462 L729 1462 L644 1028 L874 1028 L960 1462 L1203 1462 L1118 1028 L1339 1028 L1332 870 L1085 870 L1033 608 L1285 608 L1278 449 L1002 449 L912 -10 L669 -10 L759 449 L529 449 L439 -10 L196 -10 Z " />
<glyph glyph-name="dollar" unicode="&#x24;" horiz-adv-x="1238" d="M538 1259 Q450 1247 398.5 1207 Q347 1167 347 1098 Q347 1021 382 978 Q419 936 538 893 L538 1259 Z M638 198 Q831 222 831 396 Q831 435 825.5 459 Q820 483 800 509 Q781 535 742.5 557 Q704 579 638 603 L638 198 Z M538 -22 Q397 -16 274 27 Q149 71 75 143 L183 325 Q246 275 350 237 Q452 201 538 195 L538 637 L455 663 L418 676 Q239 743 157 836 Q76 929 76 1087 Q76 1268 204 1370 Q331 1473 538 1482 L538 1626 L638 1626 L638 1482 Q721 1480 786 1469 Q851 1458 899 1439 Q948 1420 994.5 1389 Q1041 1358 1086 1315 L956 1147 Q837 1259 638 1264 L638 859 Q697 840 733 827.5 Q769 815 783 810 Q873 775 934.5 734 Q996 693 1031 647 Q1101 556 1101 391 Q1101 288 1064 210 Q1027 132 961 84 Q831 -9 638 -21 L638 -219 L538 -219 L538 -22 Z " />
<glyph glyph-name="percent" unicode="&#x25;" horiz-adv-x="1899" d="M1394 -20 Q1228 -20 1127 87 Q1026 194 1026 359 Q1026 520 1127 630 Q1228 740 1393 740 Q1558 740 1660 630 Q1762 520 1762 359 Q1762 193 1661 86 Q1561 -20 1394 -20 Z M1393 136 Q1472 136 1511.5 189 Q1551 242 1551 359 Q1551 471 1513 527 Q1475 583 1393 583 Q1312 583 1274 528.5 Q1236 474 1236 360 Q1236 242 1275 189 Q1314 136 1393 136 Z M346 0 L1277 1456 L1480 1456 L549 0 L346 0 Z M425 715 Q255 715 156 815 Q57 915 57 1094 Q57 1269 156 1371 Q255 1474 425 1474 Q594 1474 693 1371 Q793 1268 793 1094 Q793 915 694 815 Q595 715 425 715 Z M425 871 Q504 871 543 923.5 Q582 976 582 1093 Q582 1207 544.5 1262.5 Q507 1318 425 1318 Q343 1318 305.5 1263 Q268 1208 268 1094 Q268 977 307 924 Q346 871 425 871 Z " />
<glyph glyph-name="ampersand" unicode="&#x26;" horiz-adv-x="1587" d="M572 960 Q645 1006 685.5 1052 Q726 1098 726 1153 Q726 1182 716 1203 Q706 1224 689.5 1238 Q673 1252 650.5 1259 Q628 1266 603 1266 Q546 1266 512.5 1238 Q479 1210 479 1150 Q479 1054 572 960 Z M589 186 Q745 186 885 314 L527 698 Q478 670 439.5 641 Q401 612 374.5 579 Q348 546 334 507.5 Q320 469 320 423 Q320 320 396 253 Q472 186 589 186 Z M588 -28 Q363 -28 218 93 Q73 214 73 422 Q73 576 168 683 Q192 710 215.5 732.5 Q239 755 265.5 775.5 Q292 796 321.5 815.5 Q351 835 387 856 Q306 944 270 1009 Q234 1073 234 1155 Q234 1304 336 1387 Q439 1470 592 1470 Q662 1470 729.5 1451.5 Q797 1433 850 1395 Q903 1357 935 1299 Q967 1241 967 1163 Q967 970 719 809 L1017 483 Q1118 674 1118 944 L1346 895 Q1347 741 1301 582 Q1254 421 1177 304 Q1215 264 1253.5 235 Q1292 206 1340 184 Q1364 173 1382 165.5 Q1400 158 1411 153 L1490 127 L1329 -19 Q1229 -2 1174 32 Q1117 67 1034 155 Q836 -28 588 -28 Z " />
<glyph glyph-name="quotesingle" unicode="&#x27;" horiz-adv-x="484" d="M130 910 L91 1456 L349 1456 L312 910 L130 910 Z " />
<glyph glyph-name="parenleft" unicode="&#x28;" horiz-adv-x="689" d="M366 -171 Q300 -71 248.5 32 Q197 135 157 244 Q78 460 78 665 Q78 1073 357 1516 L599 1516 Q533 1413 482.5 1307 Q432 1201 397 1090 Q326 868 326 663 Q326 477 400 253 Q475 30 599 -171 L366 -171 Z " />
<glyph glyph-name="parenright" unicode="&#x29;" horiz-adv-x="689" d="M11 -191 Q77 -88 127.5 18 Q178 124 213 235 Q284 457 284 663 Q284 851 209 1073 Q134 1295 11 1496 L245 1496 Q310 1397 361.5 1293.5 Q413 1190 453 1081 Q532 865 532 660 Q532 251 253 -191 L11 -191 Z " />
<glyph glyph-name="asterisk" unicode="&#x2a;" horiz-adv-x="1054" d="M634 644 L465 892 L296 643 L113 770 L330 1002 L51 1110 L137 1289 L380 1164 L350 1456 L585 1456 L551 1164 L799 1289 L881 1110 L601 1002 L817 771 L634 644 Z " />
<glyph glyph-name="plus" unicode="&#x2b;" horiz-adv-x="1268" d="M476 77 L476 470 L97 470 L97 676 L479 676 L479 1071 L710 1071 L710 676 L1090 676 L1090 470 L709 470 L709 77 L476 77 Z " />
<glyph glyph-name="comma" unicode="&#x2c;" horiz-adv-x="545" d="M12 -219 L124 268 L402 268 L223 -219 L12 -219 Z " />
<glyph glyph-name="hyphen" unicode="&#x2d;" horiz-adv-x="741" d="M14 457 L14 647 L646 647 L646 457 L14 457 Z " />
<glyph glyph-name="period" unicode="&#x2e;" horiz-adv-x="539" d="M115 0 L115 271 L367 271 L367 0 L115 0 Z " />
<glyph glyph-name="slash" unicode="&#x2f;" horiz-adv-x="684" d="M-121 -237 L524 1456 L744 1456 L94 -237 L-121 -237 Z " />
<glyph glyph-name="zero" unicode="0" horiz-adv-x="1272" d="M596 -23 Q353 -23 218 184 Q84 393 84 741 Q84 1094 216 1288 Q349 1483 598 1483 Q843 1483 975 1284 Q1108 1085 1108 741 Q1108 512 1051 341 Q994 171 877 74 Q762 -23 596 -23 Z M600 194 Q849 194 849 740 Q849 846 836 936 Q823 1026 795 1102 Q768 1180 719 1223 Q670 1266 601 1266 Q529 1266 477.5 1223 Q426 1180 398 1102 Q370 1026 357 936.5 Q344 847 344 739 Q344 615 357 520 Q370 425 398 349 Q427 274 477.5 234 Q528 194 600 194 Z " />
<glyph glyph-name="one" unicode="1" horiz-adv-x="1272" d="M253 0 L253 202 L510 202 L510 1198 Q367 1130 219 1084 L219 1314 Q293 1337 372.5 1372.5 Q452 1408 539 1456 L764 1456 L764 198 L1026 198 L1026 0 L253 0 Z " />
<glyph glyph-name="two" unicode="2" horiz-adv-x="1272" d="M560 1481 Q760 1481 882 1359 Q1004 1237 1004 1008 Q1004 960 995 914 Q987 868 976 833 Q965 798 941 757 Q918 716 902 691 Q887 665 853 627 Q836 607 824 593 Q812 579 804 570 L750 513 L460 208 L993 208 L993 0 L149 0 L149 183 L570 651 L640 729 Q650 740 662 756 Q674 772 690 792 Q706 813 717 829.5 Q728 846 733 859 Q744 884 753.5 920 Q763 956 763 995 Q763 1009 761.5 1029 Q760 1049 756 1075 Q747 1132 726.5 1168.5 Q706 1205 677 1227 Q648 1249 612.5 1257.5 Q577 1266 538 1266 Q481 1266 422.5 1250 Q364 1234 314 1213 Q264 1192 227.5 1171.5 Q191 1151 178 1142 L171 1138 L86 1337 L108 1352 Q116 1357 131.5 1365.5 Q147 1374 172 1387 Q197 1400 221.5 1410.5 Q246 1421 272 1431 Q323 1450 403 1465 Q480 1481 560 1481 Z " />
<glyph glyph-name="three" unicode="3" horiz-adv-x="1272" d="M582 -23 Q495 -23 423 -11 Q351 1 294 20 Q237 39 195.5 60.5 Q154 82 127 100 L204 291 Q205 290 233.5 274.5 Q262 259 308 241 Q354 223 414 208.5 Q474 194 539 194 Q675 194 746.5 255 Q818 316 818 424 Q818 481 793 523.5 Q768 566 720.5 594.5 Q673 623 605 637 Q537 651 450 651 L352 649 L352 864 L424 864 Q521 864 588.5 876 Q656 888 698 915 Q740 942 758.5 986.5 Q777 1031 777 1097 Q777 1137 756 1168.5 Q735 1200 700 1222 Q665 1244 620.5 1255 Q576 1266 529 1266 Q484 1266 444 1258.5 Q404 1251 367 1237 Q330 1223 294.5 1203.5 Q259 1184 222 1160 L109 1343 Q170 1383 218.5 1410 Q267 1437 317 1453.5 Q367 1470 425 1476.5 Q483 1483 563 1483 Q654 1483 738.5 1459 Q823 1435 888.5 1387.5 Q954 1340 993 1268.5 Q1032 1197 1032 1103 Q1032 1050 1017 995 Q1002 940 969.5 892.5 Q937 845 885.5 810.5 Q834 776 760 765 Q831 752 888 719.5 Q945 687 984.5 640.5 Q1024 594 1045 535.5 Q1066 477 1066 413 Q1066 311 1027 230.5 Q988 150 922 93.5 Q856 37 768 7 Q680 -23 582 -23 Z " />
<glyph glyph-name="four" unicode="4" horiz-adv-x="1272" d="M688 580 L688 1134 Q677 1117 592.5 979 Q508 841 349 580 L688 580 Z M684 0 L684 381 L67 381 L67 570 L651 1456 L937 1456 L937 580 L1166 580 L1166 381 L942 381 L942 0 L684 0 Z " />
<glyph glyph-name="five" unicode="5" horiz-adv-x="1272" d="M582 -23 Q455 -23 334 28 Q211 81 121 177 L254 367 Q288 325 327.5 292.5 Q367 260 409 238.5 Q451 217 493.5 205.5 Q536 194 577 194 Q690 194 767 267 Q845 340 845 475 Q845 581 792 658 Q739 735 652 735 Q530 735 485 670 L232 704 L232 1456 L1041 1456 L1041 1239 L456 1239 L444 866 Q514 960 703 960 Q868 960 987 819 Q1107 678 1107 471 Q1107 389 1086.5 320 Q1066 251 1029 196 Q992 141 942 100 Q892 59 833.5 31.5 Q775 4 711 -9.5 Q647 -23 582 -23 Z " />
<glyph glyph-name="six" unicode="6" horiz-adv-x="1272" d="M640 194 Q748 194 815 273 Q882 352 882 473 Q882 595 822 675 Q764 754 655 754 Q535 754 464 674 Q394 595 394 469 Q394 406 416 353 Q438 300 474 266 Q510 232 552.5 213 Q595 194 640 194 Z M647 -23 Q471 -23 350 68 Q227 159 169.5 318.5 Q112 478 112 698 Q112 862 150.5 1002.5 Q189 1143 261 1251 Q334 1360 446.5 1421.5 Q559 1483 700 1483 Q931 1483 1070 1353 L986 1164 Q855 1266 702 1266 Q564 1266 476 1136 Q386 1004 379 810 Q486 962 669 962 Q886 962 1014 830 Q1143 699 1143 476 Q1143 257 1007 117 Q870 -23 647 -23 Z " />
<glyph glyph-name="seven" unicode="7" horiz-adv-x="1272" d="M273 0 L824 1248 L105 1248 L105 1456 L1118 1456 L1118 1262 L545 0 L273 0 Z " />
<glyph glyph-name="eight" unicode="8" horiz-adv-x="1274" d="M594 858 Q694 887 748.5 947 Q803 1007 803 1095 Q803 1171 743 1215 Q683 1260 593 1260 Q496 1260 440 1215.5 Q384 1171 384 1083 Q384 1002 439 943 Q494 884 594 858 Z M595 199 Q707 199 770.5 251.5 Q834 304 834 413 Q834 497 766 573 Q698 649 601 674 Q493 650 426 578 Q358 505 358 409 Q358 307 421 253 Q484 199 595 199 Z M599 -23 Q456 -23 344 25 Q288 49 243 85.5 Q198 122 166 169 Q134 216 116.5 273 Q99 330 99 395 Q99 516 164 611.5 Q229 707 346 764 Q128 889 128 1099 Q128 1276 257 1380 Q387 1483 592 1483 Q811 1483 935 1377 Q1061 1272 1061 1088 Q1061 866 846 761 Q952 709 1021 605 Q1091 504 1091 387 Q1091 258 1021 164 Q986 116 940.5 81 Q895 46 841 23 Q787 0 726 -11.5 Q665 -23 599 -23 Z " />
<glyph glyph-name="nine" unicode="9" horiz-adv-x="1272" d="M561 728 Q678 728 750 802 Q823 875 823 1016 Q823 1122 756 1193 Q690 1266 580 1266 Q464 1266 394 1191 Q325 1117 325 996 Q325 877 385 802 Q447 728 561 728 Z M518 -26 Q348 -26 141 77 L233 283 Q363 196 497 196 Q564 196 621.5 220 Q679 244 727 295 Q775 346 801.5 430.5 Q828 515 828 629 L828 655 Q736 517 536 517 Q324 517 196 648 Q69 778 69 991 Q69 1204 206 1344 Q342 1483 569 1483 Q813 1483 947 1301 Q1081 1119 1081 771 Q1081 538 1016 358 Q952 180 822 76 Q694 -26 518 -26 Z " />
<glyph glyph-name="colon" unicode="&#x3a;" horiz-adv-x="536" d="M95 756 L95 1027 L347 1027 L347 756 L95 756 Z M95 0 L95 271 L347 271 L347 0 L95 0 Z " />
<glyph glyph-name="semicolon" unicode="&#x3b;" horiz-adv-x="539" d="M139 756 L139 1027 L391 1027 L391 756 L139 756 Z M26 -229 L134 268 L414 268 L236 -229 L26 -229 Z " />
<glyph glyph-name="less" unicode="&#x3c;" horiz-adv-x="1416" d="M1157 36 L108 509 L108 624 L1161 1115 L1161 888 L436 569 L1157 259 L1157 36 Z " />
<glyph glyph-name="equal" unicode="&#x3d;" horiz-adv-x="1479" d="M177 667 L177 868 L1220 868 L1220 667 L177 667 Z M176 261 L176 461 L1222 461 L1222 261 L176 261 Z " />
<glyph glyph-name="greater" unicode="&#x3e;" horiz-adv-x="1418" d="M174 39 L174 272 L894 573 L179 897 L179 1123 L1229 624 L1229 500 L174 39 Z " />
<glyph glyph-name="question" unicode="&#x3f;" horiz-adv-x="1018" d="M261 411 L261 548 Q261 613 287 667 Q313 721 352 768 Q391 815 436 857 Q481 899 520 940.5 Q559 982 585 1025 Q611 1068 611 1117 Q611 1195 556 1231.5 Q501 1268 408 1268 Q328 1268 243 1246 Q200 1235 166 1224 Q132 1213 106 1202 L106 1413 Q241 1485 431 1485 Q549 1485 647 1446 Q744 1409 806 1324 Q868 1241 868 1124 Q868 1076 855 1035 Q842 994 820 957.5 Q798 921 768.5 889 Q739 857 707 829 Q664 790 620 752.5 Q576 715 540.5 673 Q505 631 482.5 583 Q460 535 460 476 L460 411 L261 411 Z M235 0 L235 271 L487 271 L487 0 L235 0 Z " />
<glyph glyph-name="at" unicode="&#x40;" horiz-adv-x="1814" d="M816 448 Q867 447 909 478.5 Q951 510 981.5 562 Q1012 614 1028.5 681 Q1045 748 1044 817 Q1044 883 1011 917 Q978 951 921 951 Q849 951 794 894 Q740 837 714 757.5 Q688 678 688 593 Q688 527 723.5 487.5 Q759 448 816 448 Z M903 -101 Q724 -101 571 -47.5 Q418 6 306 105 Q194 204 130 347.5 Q66 491 66 665 Q66 758 83.5 844.5 Q101 931 134 1007.5 Q167 1084 213.5 1149.5 Q260 1215 319 1266 Q437 1369 592.5 1426 Q748 1483 926 1483 Q1083 1483 1218.5 1432.5 Q1354 1382 1454 1291 Q1554 1200 1611 1072 Q1668 944 1668 793 Q1668 666 1620 542 Q1574 420 1487 336 Q1402 254 1302 254 Q1198 254 1137 315 Q1075 377 1075 464 Q1061 418 1035.5 379.5 Q1010 341 973 313.5 Q936 286 888.5 271 Q841 256 783 256 Q722 256 663 279 Q604 302 553 347 Q502 392 471.5 464.5 Q441 537 441 628 Q441 742 484 838 Q527 937 595 1000 Q664 1064 741.5 1100 Q819 1136 891 1136 Q1048 1136 1095 1022 L1115 1118 L1333 1118 L1244 644 Q1224 541 1224 480 L1224 466 Q1224 436 1238 406 Q1253 377 1281 377 Q1311 377 1348.5 407.5 Q1386 438 1421 490 Q1439 516 1454.5 550.5 Q1470 585 1481.5 624.5 Q1493 664 1499.5 708.5 Q1506 753 1506 798 Q1506 904 1473.5 992 Q1441 1080 1386 1140 Q1344 1186 1292 1220 Q1240 1254 1182.5 1276 Q1125 1298 1062.5 1309 Q1000 1320 936 1320 Q796 1320 678 1280 Q560 1240 467 1161 Q374 1083 322 956.5 Q270 830 270 665 Q270 544 306.5 443 Q343 342 406 270 Q454 217 513 176.5 Q572 136 638.5 109 Q705 82 777.5 68.5 Q850 55 924 56 Q1163 56 1396 188 L1477 70 Q1232 -101 903 -101 Z " />
<glyph glyph-name="A" unicode="A" horiz-adv-x="1440" d="M894 592 Q836 763 788 904 Q740 1045 701 1159 Q669 1064 619.5 923 Q570 782 504 592 L894 592 Z M-8 0 L577 1456 L835 1456 L1425 0 L1138 0 L997 355 L409 355 L271 0 L-8 0 Z " />
<glyph glyph-name="B" unicode="B" horiz-adv-x="1367" d="M404 852 L621 852 Q672 852 715 861.5 Q758 871 796 893 Q835 915 857 954.5 Q879 994 879 1051 Q879 1159 804 1198 Q730 1238 568 1238 L404 1238 L404 852 Z M407 217 L636 217 Q943 217 943 422 Q943 550 874 598 Q806 646 630 646 L407 646 L407 217 Z M150 0 L150 1456 L553 1456 Q616 1456 666 1453 Q691 1452 719.5 1449.5 Q748 1447 780 1442 Q844 1434 894 1418 Q918 1410 943.5 1399.5 Q969 1389 993 1375 Q1017 1361 1038 1344 Q1059 1327 1075 1308 Q1108 1270 1128.5 1212.5 Q1149 1155 1149 1083 Q1149 866 956 772 Q1086 737 1151 640 Q1216 543 1216 411 Q1216 327 1183 255 Q1150 183 1086 125 Q1022 67 918 33.5 Q814 0 681 0 L150 0 Z " />
<glyph glyph-name="C" unicode="C" horiz-adv-x="1436" d="M795 -22 Q650 -22 521 27 Q392 76 289 169 Q188 259 126 405 Q66 550 66 727 Q66 876 106.5 1000.5 Q147 1125 216 1213 Q268 1280 332.5 1331 Q397 1382 469 1416 Q541 1450 619 1467 Q697 1484 775 1483 Q1062 1483 1261 1326 L1162 1149 Q996 1264 796 1264 Q702 1264 619 1227 Q536 1190 472 1123 Q408 1056 370 954.5 Q332 853 332 730 Q332 488 468 343 Q605 197 812 197 Q1031 197 1214 344 L1299 143 Q1087 -22 795 -22 Z " />
<glyph glyph-name="D" unicode="D" horiz-adv-x="1571" d="M150 0 L150 1456 L556 1456 Q775 1456 938 1409 Q1101 1362 1209 1270.5 Q1317 1179 1371 1045 Q1425 911 1425 737 Q1425 557 1371.5 419 Q1318 281 1213.5 188 Q1109 95 954 47.5 Q799 0 597 0 L150 0 Z M404 218 L610 218 Q874 218 1015 350 Q1156 482 1156 738 Q1156 981 1013.5 1109.5 Q871 1238 579 1238 L404 1238 L404 218 Z " />
<glyph glyph-name="E" unicode="E" horiz-adv-x="1200" d="M150 0 L150 1456 L1069 1456 L1069 1238 L404 1238 L404 849 L1033 849 L1033 630 L407 630 L407 218 L1098 218 L1098 0 L150 0 Z " />
<glyph glyph-name="F" unicode="F" horiz-adv-x="1145" d="M150 0 L150 1456 L1039 1456 L1039 1238 L404 1238 L404 841 L1002 841 L1002 622 L404 622 L404 0 L150 0 Z " />
<glyph glyph-name="G" unicode="G" horiz-adv-x="1538" d="M811 -23 Q451 -23 258 173 Q65 369 65 704 Q65 830 96.5 944.5 Q128 1059 192 1158 Q238 1231 303 1290.5 Q368 1350 449 1393 Q530 1436 627.5 1459.5 Q725 1483 837 1483 Q940 1483 1024.5 1468.5 Q1109 1454 1169 1427 Q1231 1399 1258 1382 Q1288 1365 1322 1338 L1220 1160 Q1077 1264 838 1264 Q711 1264 611.5 1217 Q512 1170 452 1091 Q392 1012 361 916.5 Q330 821 330 715 Q330 601 360.5 505.5 Q391 410 452.5 340.5 Q514 271 606.5 232.5 Q699 194 823 194 Q943 194 1072 232 L1072 576 L732 576 L732 793 L1330 793 L1330 88 Q1081 -23 811 -23 Z " />
<glyph glyph-name="H" unicode="H" horiz-adv-x="1515" d="M150 0 L150 1456 L404 1456 L404 857 L1087 857 L1087 1456 L1341 1456 L1341 0 L1092 0 L1092 637 L409 637 L409 0 L150 0 Z " />
<glyph glyph-name="I" unicode="I" horiz-adv-x="586" d="M120 0 L120 1456 L374 1456 L374 0 L120 0 Z " />
<glyph glyph-name="J" unicode="J" horiz-adv-x="1232" d="M325 401 Q329 360 350.5 322.5 Q372 285 405 256.5 Q438 228 479.5 211 Q521 194 564 194 Q632 194 682.5 224 Q733 254 766 307.5 Q799 361 815 433 Q831 505 831 589 L831 1456 L1085 1456 L1085 598 Q1085 463 1061.5 349.5 Q1038 236 979 153 Q920 70 819.5 23.5 Q719 -23 565 -23 Q473 -23 392 4.5 Q311 32 248.5 81.5 Q186 131 144.5 200 Q103 269 89 353 L325 401 Z " />
<glyph glyph-name="K" unicode="K" horiz-adv-x="1351" d="M150 0 L150 1456 L404 1456 L404 820 L965 1456 L1282 1456 L651 753 L1331 0 L1001 0 L407 651 L407 0 L150 0 Z " />
<glyph glyph-name="L" unicode="L" horiz-adv-x="1173" d="M150 0 L150 1456 L404 1456 L404 218 L1078 218 L1078 0 L150 0 Z " />
<glyph glyph-name="M" unicode="M" horiz-adv-x="1963" d="M150 0 L150 1456 L448 1456 L667 967 Q762 756 834 596.5 Q906 437 957 326 Q995 410 1034.5 497 Q1074 584 1115 676 Q1157 769 1203 875 Q1249 981 1303 1103 Q1357 1225 1395.5 1313 Q1434 1401 1459 1456 L1757 1456 L1757 0 L1519 0 L1519 1040 Q1493 982 1375.5 722.5 Q1258 463 1050 0 L863 0 Q837 57 801 137.5 Q765 218 717 323 Q670 428 627.5 522.5 Q585 617 545 703.5 Q505 790 468 869 Q431 948 395 1023 L395 0 L150 0 Z " />
<glyph glyph-name="N" unicode="N" horiz-adv-x="1604" d="M150 0 L150 1456 L419 1456 L1158 384 L1158 1456 L1400 1456 L1400 0 L1130 0 Q795 484 608.5 752.5 Q422 1021 385 1074 L385 0 L150 0 Z " />
<glyph glyph-name="O" unicode="O" horiz-adv-x="1650" d="M800 -23 Q458 -23 262 182 Q66 387 66 735 Q66 1072 263 1278 Q461 1483 803 1483 Q1134 1483 1329 1278 Q1525 1075 1525 735 Q1525 387 1332 182 Q1139 -23 800 -23 Z M794 194 Q905 194 990 229.5 Q1075 265 1132.5 334 Q1190 403 1219.5 504 Q1249 605 1249 735 Q1249 986 1133 1126 Q1017 1266 798 1266 Q577 1266 458 1126 Q340 987 340 735 Q340 474 455 334 Q570 194 794 194 Z " />
<glyph glyph-name="P" unicode="P" horiz-adv-x="1280" d="M404 845 L622 845 Q695 845 746 853 Q797 861 839 881 Q924 923 924 1039 Q924 1071 918.5 1097 Q913 1123 905 1142 Q897 1162 879.5 1177 Q862 1192 848 1201 Q842 1206 830.5 1210 Q819 1214 806.5 1217.5 Q794 1221 781 1223 Q768 1225 759 1227 Q750 1229 736 1230 Q722 1231 703 1232 Q684 1233 669 1233.5 Q654 1234 643 1234 Q632 1235 615 1235 Q598 1235 575 1235 L404 1235 L404 845 Z M150 0 L150 1456 L565 1456 Q602 1456 633.5 1455.5 Q665 1455 691 1454 Q746 1452 807 1445 Q870 1439 915 1426 Q960 1413 1006 1392 Q1054 1372 1085 1341 Q1116 1310 1141 1268 Q1167 1226 1179 1169.5 Q1191 1113 1191 1041 Q1191 809 1040 715 Q965 669 864.5 648.5 Q764 628 626 628 L404 628 L404 0 L150 0 Z " />
<glyph glyph-name="Q" unicode="Q" horiz-adv-x="1662" d="M794 194 Q905 194 990 229.5 Q1075 265 1132.5 334 Q1190 403 1219.5 504 Q1249 605 1249 735 Q1249 986 1133 1126 Q1017 1266 798 1266 Q577 1266 458 1126 Q340 987 340 735 Q340 474 455 334 Q570 194 794 194 Z M1168 -390 Q1142 -361 1108.5 -320.5 Q1075 -280 1033 -226 Q991 -172 956 -121 Q921 -70 891 -19 Q871 -21 848.5 -22 Q826 -23 800 -23 Q458 -23 262 182 Q66 387 66 735 Q66 1072 263 1278 Q461 1483 803 1483 Q1134 1483 1329 1278 Q1525 1075 1525 735 Q1525 477 1417 294 Q1309 111 1110 32 Q1158 -46 1220 -127.5 Q1282 -209 1360 -297 L1221 -447 L1168 -390 Z " />
<glyph glyph-name="R" unicode="R" horiz-adv-x="1382" d="M401 831 L644 831 Q916 831 916 1042 Q916 1156 859 1197 Q801 1238 671 1238 L401 1238 L401 831 Z M150 0 L150 1456 L675 1456 Q795 1456 882.5 1438 Q970 1420 1041 1376 Q1184 1290 1184 1054 Q1184 930 1111 836 Q1038 742 891 709 Q1023 635 1084 481 L1281 0 L1006 0 L839 433 Q798 540 750 578 Q701 616 605 616 L404 616 L404 0 L150 0 Z " />
<glyph glyph-name="S" unicode="S" horiz-adv-x="1246" d="M583 -23 Q435 -23 294 21 Q155 64 75 143 L183 325 Q253 270 367 232 Q483 194 567 194 Q703 194 767 243.5 Q831 293 831 396 Q831 416 830 431.5 Q829 447 825 460.5 Q821 474 814.5 486 Q808 498 798 511 Q777 538 735.5 560.5 Q694 583 624 608 Q594 618 522 641 Q487 652 461 661 Q435 670 418 676 Q239 743 157 836 Q76 929 76 1087 Q76 1215 143 1306 Q212 1397 323 1440 Q434 1483 579 1483 Q773 1483 882 1445 Q988 1408 1086 1315 L956 1147 Q833 1264 615 1264 Q497 1264 421 1223 Q347 1182 347 1098 Q347 1059 354 1030.5 Q361 1002 383.5 978 Q406 954 448 932 Q490 910 560 885 Q573 880 598.5 871.5 Q624 863 664 850 Q704 837 733.5 827.5 Q763 818 783 810 Q873 775 934.5 734 Q996 693 1031 647 Q1101 556 1101 391 Q1101 282 1058.5 200 Q1016 118 941 70 Q866 22 777 -0.5 Q688 -23 583 -23 Z " />
<glyph glyph-name="T" unicode="T" horiz-adv-x="1181" d="M430 0 L430 1238 L-19 1238 L-19 1456 L1140 1456 L1140 1238 L684 1238 L684 0 L430 0 Z " />
<glyph glyph-name="U" unicode="U" horiz-adv-x="1509" d="M715 -23 Q574 -23 469 11 Q364 45 298 100 Q235 154 194 238 Q174 280 160.5 321.5 Q147 363 139 407 Q131 451 127.5 498.5 Q124 546 124 599 L124 1456 L378 1456 L378 588 Q378 472 404 396 Q430 320 475 275 Q520 230 581.5 212 Q643 194 714 194 Q790 194 848 213 Q906 232 954 275 Q1002 320 1026.5 398.5 Q1051 477 1051 589 L1051 1456 L1305 1456 L1305 598 Q1305 493 1291 408 Q1277 323 1237 240 Q1197 155 1134 101 Q1070 44 964 10.5 Q858 -23 715 -23 Z " />
<glyph glyph-name="V" unicode="V" horiz-adv-x="1412" d="M550 0 L-4 1456 L281 1456 Q292 1425 334 1305 Q376 1185 451 973 Q526 761 583 602 Q640 443 682 333 L1088 1456 L1355 1456 L802 0 L550 0 Z " />
<glyph glyph-name="W" unicode="W" horiz-adv-x="2125" d="M417 0 L1 1456 L271 1456 L366 1100 Q400 974 428.5 866 Q457 758 481 665 Q505 572 527.5 483 Q550 394 572 306 Q595 395 621 485 Q647 575 675 668 Q703 762 736.5 869.5 Q770 977 810 1102 Q850 1227 878 1315 Q906 1403 922 1456 L1164 1456 L1424 642 L1524 301 Q1544 389 1566 479 Q1588 569 1611 663 L1720 1098 L1811 1456 L2073 1456 L1667 0 L1376 0 L1036 1105 L704 0 L417 0 Z " />
<glyph glyph-name="X" unicode="X" horiz-adv-x="1434" d="M9 0 L544 736 L47 1456 L364 1456 L704 952 L1063 1456 L1358 1456 L850 747 L1368 0 L1052 0 L689 532 L313 0 L9 0 Z " />
<glyph glyph-name="Y" unicode="Y" horiz-adv-x="1333" d="M518 0 L518 563 L-1 1456 L288 1456 L649 789 L1007 1456 L1303 1456 L772 564 L772 0 L518 0 Z " />
<glyph glyph-name="Z" unicode="Z" horiz-adv-x="1224" d="M53 0 L53 136 L742 1238 L79 1238 L79 1456 L1093 1456 L1093 1324 L400 218 L1092 218 L1092 0 L53 0 Z " />
<glyph glyph-name="bracketleft" unicode="&#x5b;" horiz-adv-x="620" d="M100 -158 L100 1502 L521 1502 L521 1312 L352 1312 L352 32 L522 32 L522 -158 L100 -158 Z " />
<glyph glyph-name="backslash" unicode="&#x5c;" horiz-adv-x="650" d="M491 -112 L-214 1456 L61 1456 L758 -112 L491 -112 Z " />
<glyph glyph-name="bracketright" unicode="&#x5d;" horiz-adv-x="620" d="M51 -158 L51 32 L215 32 L215 1312 L52 1312 L52 1502 L468 1502 L468 -158 L51 -158 Z " />
<glyph glyph-name="asciicircum" unicode="&#x5e;" horiz-adv-x="1559" d="M143 532 L656 1456 L817 1456 L1336 532 L1085 532 L733 1173 L398 532 L143 532 Z " />
<glyph glyph-name="underscore" unicode="&#x5f;" horiz-adv-x="1012" d="M-54 -254 L-54 -59 L985 -59 L985 -254 L-54 -254 Z " />
<glyph glyph-name="grave" unicode="&#x60;" horiz-adv-x="610" d="M296 1166 L-55 1455 L263 1455 L525 1166 L296 1166 Z " />
<glyph glyph-name="a" unicode="a" horiz-adv-x="1291" d="M604 177 Q749 177 813 268 Q879 359 879 513 Q879 591 861.5 654 Q844 717 809.5 760.5 Q775 804 722 827.5 Q669 851 599 851 Q460 851 387 760 Q314 669 314 515 Q314 360 387 269 Q461 177 604 177 Z M573 -23 Q447 -23 348.5 22 Q250 67 190 142 Q130 217 99 308.5 Q68 400 68 502 Q68 610 100 706 Q132 802 193 880 Q256 959 356 1005.5 Q456 1052 585 1052 Q770 1052 871 917 L871 1026 L1114 1026 L1114 0 L865 0 L865 140 Q753 -23 573 -23 Z " />
<glyph glyph-name="b" unicode="b" horiz-adv-x="1258" d="M618 177 Q689 177 739.5 205 Q790 233 822 279.5 Q854 326 869 386 Q884 446 884 511 Q884 659 818 755 Q752 851 626 851 Q494 851 418 754 Q341 657 341 515 Q341 425 370 349 Q385 312 408.5 280.5 Q432 249 463.5 226 Q495 203 534 190 Q573 177 618 177 Z M664 -23 Q562 -23 476 21 Q392 66 355 127 L355 0 L101 0 L108 196 Q109 215 109.5 227.5 Q110 240 110 248 Q110 256 110 261.5 Q110 267 110 272 L110 1457 L356 1457 L356 882 Q361 900 381 926 Q401 952 437 981 Q474 1011 537.5 1031.5 Q601 1052 677 1052 Q893 1052 1018 903 Q1143 754 1143 518 Q1143 400 1105 298 Q1067 196 1001 126 Q935 56 848 16.5 Q761 -23 664 -23 Z " />
<glyph glyph-name="c" unicode="c" horiz-adv-x="1050" d="M583 -23 Q457 -23 354 21 Q251 65 185 140 Q119 215 83 311.5 Q47 408 47 514 Q47 665 109 787 Q173 910 294 980 Q417 1052 580 1052 Q821 1052 952 914 L863 754 Q751 852 606 852 Q460 852 382 760 Q304 668 304 513 Q304 363 387 269 Q470 177 614 177 Q666 177 707 187.5 Q748 198 780 215 Q795 223 803.5 227.5 Q812 232 825 241 L842 253 Q845 254 849.5 257.5 Q854 261 858.5 264.5 Q863 268 867 271 Q871 274 871 274 L946 92 Q860 32 774 4.5 Q688 -23 583 -23 Z " />
<glyph glyph-name="d" unicode="d" horiz-adv-x="1246" d="M566 177 Q636 177 685 205 Q734 233 765 280 Q796 327 810 387 Q824 447 824 512 Q824 661 759 756 Q694 851 564 851 Q478 851 417 804 Q357 756 332 684 Q307 612 307 516 Q307 450 321 388.5 Q335 327 366 280 Q397 233 446 205 Q495 177 566 177 Z M515 -23 Q316 -23 181 123 Q47 269 47 508 Q47 617 78 714 Q109 811 167 887 Q227 963 321.5 1007.5 Q416 1052 534 1052 Q639 1052 713 1008 Q788 964 816 918 L816 1457 L1062 1457 L1062 274 Q1062 268 1071 0 L817 0 L815 131 Q806 108 785 84 Q764 60 729 34 Q694 9 638 -7 Q582 -23 515 -23 Z " />
<glyph glyph-name="e" unicode="e" horiz-adv-x="1131" d="M822 636 Q804 745 741 803 Q678 861 587 861 Q479 861 407.5 801.5 Q336 742 312 636 L822 636 Z M605 -23 Q345 -23 196 125 Q47 274 47 512 Q47 621 82.5 717.5 Q118 814 184 889 Q250 964 350 1008 Q450 1052 573 1052 Q696 1052 786 1010 Q876 968 930 892 Q984 817 1009 723.5 Q1034 630 1034 515 Q1034 488 1029 471 L309 471 Q312 396 335.5 340.5 Q359 285 400.5 249 Q442 213 499.5 195 Q557 177 628 177 Q794 177 952 287 L1019 107 Q971 74 922.5 49.5 Q874 25 823.5 9 Q773 -7 719 -15 Q665 -23 605 -23 Z " />
<glyph glyph-name="f" unicode="f" horiz-adv-x="820" d="M221 0 L221 860 L30 860 L30 1026 L221 1026 L221 1066 Q221 1135 224 1182 Q225 1205 228.5 1229 Q232 1253 237 1276 Q242 1299 249 1319 Q256 1339 265 1354 Q284 1384 315.5 1411.5 Q347 1439 393 1453 Q439 1468 503.5 1476.5 Q568 1485 653 1485 L706 1485 L697 1292 Q668 1292 645.5 1291.5 Q623 1291 606 1290 Q573 1288 544.5 1278.5 Q516 1269 503 1256 Q490 1245 481 1215 Q472 1187 470 1155.5 Q468 1124 468 1069 L468 1026 L699 1026 L699 860 L468 860 L468 0 L221 0 Z " />
<glyph glyph-name="g" unicode="g" horiz-adv-x="1235" d="M586 187 Q662 187 711 216.5 Q760 246 788.5 293 Q817 340 828 398.5 Q839 457 839 516 Q839 666 776 758 Q714 851 589 851 Q503 851 442 802 Q382 754 355 680 Q328 606 328 515 Q328 361 391 274 Q454 187 586 187 Z M538 -418 Q337 -418 148 -348 L191 -134 Q341 -212 520 -212 Q664 -212 745 -150.5 Q826 -89 826 35 L826 122 Q737 0 569 0 Q341 0 205 139 Q68 279 68 515 Q68 624 97 718 Q126 812 183 888 Q240 964 334.5 1008 Q429 1052 550 1052 Q646 1052 717 1014 Q788 976 827 916 L827 1026 L1090 1026 Q1080 950 1075 864.5 Q1070 779 1070 682 L1070 147 Q1070 -418 538 -418 Z " />
<glyph glyph-name="h" unicode="h" horiz-adv-x="1173" d="M104 0 L104 1457 L352 1457 L352 893 Q390 965 482 1008 Q576 1052 659 1052 Q769 1052 841.5 1016 Q914 980 957 921 Q987 881 1004 840 Q1021 799 1031 748 Q1042 697 1045.5 656.5 Q1049 616 1049 571 L1049 0 L801 0 L801 579 Q801 724 756 787.5 Q711 851 621 851 Q520 851 435 780 Q352 709 352 618 L352 0 L104 0 Z " />
<glyph glyph-name="i" unicode="i" horiz-adv-x="524" d="M102 1238 L102 1456 L342 1456 L342 1238 L102 1238 Z M103 0 L103 1026 L342 1026 L342 0 L103 0 Z " />
<glyph glyph-name="j" unicode="j" horiz-adv-x="600" d="M184 1228 L184 1456 L430 1456 L430 1228 L184 1228 Z M60 -362 Q5 -362 -44 -354 Q-93 -346 -125 -335 L-97 -165 Q-37 -184 46 -184 Q93 -184 119.5 -168 Q146 -152 159 -124.5 Q172 -97 175 -60 Q178 -23 178 20 L178 1026 L431 1026 L431 -9 Q431 -104 411.5 -171 Q392 -238 347.5 -280.5 Q303 -323 232.5 -342.5 Q162 -362 60 -362 Z M-97 -165 L-100 -164 L-97 -164 L-97 -165 Z " />
<glyph glyph-name="k" unicode="k" horiz-adv-x="1076" d="M100 0 L100 1457 L348 1457 L348 607 L719 1026 L1061 1026 L572 530 L1093 0 L765 0 L348 444 L348 0 L100 0 Z " />
<glyph glyph-name="l" unicode="l" horiz-adv-x="526" d="M102 0 L102 1457 L347 1457 L347 0 L102 0 Z " />
<glyph glyph-name="m" unicode="m" horiz-adv-x="1839" d="M120 0 L120 696 Q120 750 117.5 803.5 Q115 857 110 914 L101 1026 L362 1026 L362 892 Q399 961 478 1007 Q557 1052 649 1052 Q749 1052 830 1004 Q911 956 956 862 Q1088 1052 1289 1052 Q1476 1052 1571 939 Q1666 826 1666 629 L1666 0 L1418 0 L1418 614 Q1418 656 1411 693.5 Q1404 731 1388 768 Q1373 806 1342.5 828.5 Q1312 851 1270 851 Q1159 851 1089 767 Q1018 682 1018 581 L1018 0 L770 0 L770 627 Q770 657 766.5 684.5 Q763 712 753 743 Q739 788 706 819.5 Q673 851 613 851 Q508 851 438 782 Q368 715 368 623 L368 0 L120 0 Z " />
<glyph glyph-name="n" unicode="n" horiz-adv-x="1224" d="M118 0 L118 635 Q118 690 116.5 741 Q115 792 113 841 Q111 890 108 925 Q105 960 103 982 L98 1026 L361 1026 L361 889 Q414 970 502 1010 Q590 1052 674 1052 Q764 1052 830.5 1029 Q897 1006 948 952 Q1000 900 1027 808.5 Q1054 717 1054 585 L1054 0 L806 0 L806 602 Q806 739 763 794 Q721 851 623 851 Q588 851 544 835.5 Q500 820 460 790 Q420 760 393 715.5 Q366 671 366 614 L366 0 L118 0 Z " />
<glyph glyph-name="o" unicode="o" horiz-adv-x="1195" d="M566 -23 Q431 -23 327 20 Q223 63 157 138 Q93 213 59.5 308.5 Q26 404 26 513 Q26 625 59.5 720.5 Q93 816 159 891 Q225 966 329 1009 Q433 1052 565 1052 Q700 1052 803.5 1009.5 Q907 967 970 892 Q1033 817 1064.5 721.5 Q1096 626 1096 511 Q1096 403 1063 309 Q1030 215 966 140 Q903 65 799.5 21 Q696 -23 566 -23 Z M561 177 Q636 177 689 205 Q742 233 775 280 Q808 327 823 388.5 Q838 450 838 516 Q838 663 768 757 Q699 851 562 851 Q491 851 438.5 824 Q386 797 351 751.5 Q316 706 299.5 645.5 Q283 585 284 516 Q284 424 310 349 Q323 312 346.5 280.5 Q370 249 401.5 226 Q433 203 473 190 Q513 177 561 177 Z " />
<glyph glyph-name="p" unicode="p" horiz-adv-x="1258" d="M610 177 Q681 177 730.5 205 Q780 233 811 279.5 Q842 326 856 387 Q870 448 870 514 Q870 608 844 683 Q831 720 809 751 Q787 782 757 804 Q727 826 690 838.5 Q653 851 609 851 Q523 851 462 804 Q402 758 376 685.5 Q350 613 350 519 Q350 452 364 390 Q378 328 409.5 281 Q441 234 490 205.5 Q539 177 610 177 Z M120 -395 L120 681 Q120 726 115.5 811.5 Q111 897 101 1026 L364 1026 L364 879 Q376 935 464 993 Q553 1052 681 1052 Q815 1052 919 977 Q1024 902 1076 784 Q1128 666 1128 525 Q1128 419 1097 322 Q1066 225 1009 147 Q952 69 863.5 23 Q775 -23 667 -23 Q546 -23 461 34 Q376 91 364 141 L364 -395 L120 -395 Z " />
<glyph glyph-name="q" unicode="q" horiz-adv-x="1229" d="M561 177 Q651 177 711 225 Q771 274 796 346 Q821 418 821 511 Q821 660 755 755 Q689 851 559 851 Q473 851 412 804 Q352 756 327 684 Q302 612 302 516 Q302 450 316 388.5 Q330 327 361 280 Q392 233 441 205 Q490 177 561 177 Z M807 -395 L807 82 Q675 -23 526 -23 Q403 -23 312 24 Q221 71 161.5 148 Q102 225 73 324.5 Q44 424 44 528 Q44 633 75.5 726.5 Q107 820 167 893 Q227 966 320 1009 Q413 1052 528 1052 Q600 1052 674.5 1018.5 Q749 985 809 916 L809 1026 L1062 1026 Q1057 958 1054.5 884.5 Q1052 811 1052 730 L1052 -395 L807 -395 Z " />
<glyph glyph-name="r" unicode="r" horiz-adv-x="780" d="M122 0 L122 766 Q122 796 120.5 827.5 Q119 859 117 891 Q115 923 112 948.5 Q109 974 107 991 L102 1026 L366 1026 L366 891 Q427 972 487.5 1012 Q548 1052 624 1052 Q669 1052 726 1037 L726 820 Q660 842 602 842 Q498 842 434 775 Q369 707 369 581 L369 0 L122 0 Z " />
<glyph glyph-name="s" unicode="s" horiz-adv-x="988" d="M494 -23 Q360 -23 246 15 Q189 34 144.5 57 Q100 80 66 106 L128 284 Q191 234 287 203 Q381 172 472 172 Q556 172 598 200 Q640 228 640 291 L640 309 Q640 341 615 363 Q602 374 573.5 387.5 Q545 401 500 415 L354 462 Q326 471 303.5 479 Q281 487 261 495.5 Q241 504 222.5 513.5 Q204 523 185 535 Q130 569 105 619.5 Q80 670 77 753 Q77 831 107.5 890 Q138 949 192 983 Q299 1050 457 1050 Q556 1050 653 1025 Q750 1000 825 951 L761 781 Q701 812 620 835 Q542 857 475 857 Q390 857 352 836 Q314 815 314 767 Q315 743 320.5 727.5 Q326 712 344 698.5 Q362 685 398.5 670 Q435 655 498 633 L631 588 Q710 561 759 529 Q808 497 837.5 438.5 Q867 380 867 290 Q867 201 833 141 Q799 81 745 44.5 Q691 8 624.5 -7.5 Q558 -23 494 -23 Z " />
<glyph glyph-name="t" unicode="t" horiz-adv-x="836" d="M728 1 L628 1 Q567 1 524 4 Q479 7 433 17 Q387 27 354 43 Q319 61 291.5 88.5 Q264 116 245 155.5 Q226 195 215.5 249.5 Q205 304 205 376 L205 860 L-9 860 L-9 1026 L215 1026 L215 1266 L452 1339 L452 1026 L720 1026 L720 860 L452 860 L452 361 Q452 313 459.5 283.5 Q467 254 482 234 Q496 215 532 206 Q568 197 610 194 Q652 191 728 191 L728 1 Z " />
<glyph glyph-name="u" unicode="u" horiz-adv-x="1186" d="M484 -23 Q297 -23 194 83 Q90 190 90 376 L90 1026 L336 1026 L336 380 Q336 277 388.5 227 Q441 177 535 177 Q646 177 699.5 232.5 Q753 288 753 411 L753 1026 L1001 1026 L1001 276 L1013 0 L757 0 L753 152 Q748 130 730.5 103.5 Q713 77 682 47 Q652 17 599.5 -3 Q547 -23 484 -23 Z " />
<glyph glyph-name="v" unicode="v" horiz-adv-x="1126" d="M409 0 L-23 1026 L253 1026 Q386 668 455.5 481 Q525 294 532 277 Q572 385 638.5 571 Q705 757 801 1026 L1070 1026 L634 0 L409 0 Z " />
<glyph glyph-name="w" unicode="w" horiz-adv-x="1685" d="M348 0 L-24 1026 L240 1026 L474 305 Q494 366 554.5 546 Q615 726 716 1026 L932 1026 L1004 798 Q1051 651 1089.5 530.5 Q1128 410 1163 303 Q1177 349 1237 529.5 Q1297 710 1402 1026 L1633 1026 L1244 0 L1037 0 L804 698 L556 0 L348 0 Z " />
<glyph glyph-name="x" unicode="x" horiz-adv-x="1040" d="M-29 0 L341 500 L-12 1026 L264 1026 L485 695 L731 1026 L987 1026 L625 534 L989 0 L714 0 L482 339 L232 0 L-29 0 Z " />
<glyph glyph-name="y" unicode="y" horiz-adv-x="1114" d="M110 -277 Q250 -223 318 -165 Q388 -109 412 -27 L426 23 L-10 1026 L248 1026 L545 290 L801 1026 L1054 1026 L638 -56 Q594 -164 525 -243 Q455 -325 379 -371 Q303 -417 214 -445 L110 -277 Z " />
<glyph glyph-name="z" unicode="z" horiz-adv-x="997" d="M57 0 L57 131 L541 828 L82 828 L82 1026 L863 1026 L863 897 L375 197 L889 197 L889 0 L57 0 Z " />
<glyph glyph-name="braceleft" unicode="&#x7b;" horiz-adv-x="987" d="M558 953 Q558 690 314 683 Q558 680 558 424 L558 198 Q558 174 558.5 154.5 Q559 135 560 121 Q562 93 576 70.5 Q590 48 601 38 Q613 29 652 23 Q672 20 689 18.5 Q706 17 721 16 Q736 15 761.5 15 Q787 15 823 15 L824 15 L824 -180 L815 -180 Q757 -180 708.5 -178.5 Q660 -177 620 -173 Q542 -167 482.5 -148.5 Q423 -130 389 -104 Q357 -79 335 -31 Q325 -8 318.5 16 Q312 40 308.5 68.5 Q305 97 303.5 130.5 Q302 164 302 206 L302 436 Q302 538 265 572 Q228 606 122 606 L109 606 L109 755 L122 755 Q230 755 267 790 Q303 826 303 933 L303 1164 Q303 1206 304.5 1240 Q306 1274 310 1301 Q317 1356 339 1401 Q361 1446 395 1471 Q430 1497 490 1513 Q520 1522 554 1527.5 Q588 1533 628.5 1536.5 Q669 1540 717 1541 Q765 1542 824 1542 L824 1347 L747 1347 Q724 1347 707 1347 Q690 1347 677 1346 Q653 1345 628 1339 Q603 1333 592 1323 Q575 1305 565.5 1271 Q556 1237 558 1176 L558 953 Z " />
<glyph glyph-name="bar" unicode="&#x7c;" horiz-adv-x="395" d="M39 -455 L39 1506 L276 1506 L276 -455 L39 -455 Z " />
<glyph glyph-name="braceright" unicode="&#x7d;" horiz-adv-x="982" d="M68 14 L145 14 Q168 14 185 14 Q202 14 214 15 Q239 16 264 22 Q289 28 299 38 Q319 56 326.5 89.5 Q334 123 334 185 L334 408 Q334 672 578 679 Q334 680 334 937 L334 1163 Q334 1187 333.5 1206 Q333 1225 332 1239 Q330 1268 316 1290.5 Q302 1313 290 1322 Q280 1332 240 1338 Q220 1341 203 1342.5 Q186 1344 170 1345 Q155 1346 129.5 1346 Q104 1346 68 1346 L67 1346 L67 1542 L76 1542 Q134 1542 182.5 1540.5 Q231 1539 270 1535 Q349 1529 408.5 1510 Q468 1491 501 1465 Q535 1440 555 1392 Q565 1369 572 1345 Q579 1321 582.5 1292.5 Q586 1264 587.5 1230.5 Q589 1197 589 1155 L589 925 Q589 823 626 789 Q663 755 770 755 L783 755 L783 606 L770 606 Q661 606 625 570 Q589 535 589 428 L589 197 Q589 155 587.5 121 Q586 87 582 59 Q575 5 553 -40 Q531 -85 497 -109 Q462 -135 402 -151 Q372 -160 338 -165.5 Q304 -171 263.5 -174.5 Q223 -178 174.5 -179 Q126 -180 68 -180 L68 14 Z " />
<glyph glyph-name="asciitilde" unicode="&#x7e;" horiz-adv-x="1508" d="M142 441 Q169 535 200.5 594 Q232 653 270 681 Q309 710 345 719.5 Q381 729 432 729 Q545 729 725 665 Q881 606 983 606 Q1011 607 1028.5 610 Q1046 613 1058 627.5 Q1070 642 1080 672 Q1090 702 1104 756 L1262 685 Q1246 623 1229.5 576.5 Q1213 530 1194 498 Q1156 433 1115 414 Q1072 394 1003 394 Q880 394 666 464 Q519 514 451 514 Q389 514 358 488 Q330 463 295 367 L142 441 Z " />
<glyph glyph-name="uni007F" unicode="&#x7f;" horiz-adv-x="1521" d="M188 0 L188 1456 L1333 1456 L1333 0 L188 0 Z M360 124 L1161 124 L1161 1330 L360 1330 L360 124 Z " />
<glyph glyph-name="uni00A0" unicode="&#xa0;" horiz-adv-x="599" d="" />
<glyph glyph-name="exclamdown" unicode="&#xa1;" horiz-adv-x="786" d="M268 769 L415 769 L489 -300 L194 -300 L268 769 Z M217 886 L217 1157 L469 1157 L469 886 L217 886 Z " />
<glyph glyph-name="cent" unicode="&#xa2;" horiz-adv-x="1076" d="M566 -22 Q448 -15 353.5 31.5 Q259 78 196 151 Q133 226 100.5 318.5 Q68 411 68 514 Q68 738 202 889 Q335 1039 566 1051 L566 1250 L704 1250 L704 1045 Q872 1021 973 914 L884 754 Q804 825 704 845 L704 183 Q741 189 770 201 Q799 213 822 226 Q832 231 845 240 Q858 249 863 252 L892 274 L967 92 Q839 3 704 -16 L704 -242 L566 -242 L566 -22 Z M566 847 Q448 828 386.5 739.5 Q325 651 325 513 Q325 381 388 293 Q452 206 566 183 L566 847 Z " />
<glyph glyph-name="sterling" unicode="&#xa3;" horiz-adv-x="1255" d="M1051 1219 Q911 1282 790 1282 Q659 1282 599 1205 Q539 1128 539 949 L539 842 L877 842 L877 649 L538 649 L538 618 Q538 540 534.5 477 Q531 414 522.5 363.5 Q514 313 499.5 273.5 Q485 234 463 204 L1138 204 L1138 0 L106 0 L106 186 L138 216 Q152 229 161.5 238 Q171 247 176 252 L209 293 Q221 308 229 321.5 Q237 335 243 349.5 Q249 364 254.5 380 Q260 396 266 416 Q280 458 285.5 508.5 Q291 559 291 622 L291 649 L106 649 L106 842 L288 842 L288 892 Q288 944 290.5 990.5 Q293 1037 299.5 1079 Q306 1121 316.5 1160.5 Q327 1200 343 1239 Q374 1316 428 1369 Q482 1421 569 1452.5 Q656 1484 774 1484 Q978 1484 1112 1411 L1051 1219 Z " />
<glyph glyph-name="currency" unicode="&#xa4;" horiz-adv-x="1218" d="M609 710 Q739 710 825 799 Q911 890 911 1020 Q911 1150 825 1241 Q739 1331 609 1331 Q478 1331 393 1241 Q307 1150 307 1020 Q307 890 393 799 Q479 710 609 710 Z M171 543 L120 594 L307 781 Q219 887 219 1024 Q219 1167 314 1276 L119 1471 L170 1522 L367 1326 Q473 1409 610 1409 Q746 1409 853 1327 L1048 1522 L1099 1471 L906 1278 Q1002 1168 1002 1024 Q1002 886 913 779 L1099 594 L1048 543 L862 729 Q752 639 610 639 Q467 639 358 730 L171 543 Z " />
<glyph glyph-name="yen" unicode="&#xa5;" horiz-adv-x="1280" d="M96 275 L96 419 L467 419 L467 559 L96 559 L96 709 L382 709 L-52 1456 L237 1456 L598 789 L956 1456 L1252 1456 L807 709 L1091 709 L1091 559 L721 559 L721 419 L1094 419 L1094 275 L721 275 L721 0 L467 0 L467 275 L96 275 Z " />
<glyph glyph-name="brokenbar" unicode="&#xa6;" horiz-adv-x="500" d="M52 565 L52 1506 L299 1506 L299 565 L52 565 Z M54 -455 L54 415 L301 415 L301 -455 L54 -455 Z " />
<glyph glyph-name="section" unicode="&#xa7;" horiz-adv-x="1104" d="M603 592 Q634 632 634 685 Q637 710 625 729 Q613 748 599 761 Q595 765 587 770 Q579 775 570 780 Q561 785 551.5 789.5 Q542 794 536 797 L492 817 Q476 824 464 829.5 Q452 835 444 839 Q435 833 424.5 822 Q414 811 405 797.5 Q396 784 390.5 767.5 Q385 751 385 733 Q385 713 392.5 699.5 Q400 686 421 672 Q432 665 442 660 Q452 655 462 651 L525 625 Q570 607 603 592 Z M482 -61 Q311 -61 147 0 L147 209 Q182 195 221.5 184 Q261 173 306 163 Q394 144 472 144 Q540 144 583.5 172 Q627 200 627 256 Q627 288 577 320 Q552 336 493 366 Q434 396 339 442 Q242 488 186.5 556.5 Q131 625 131 712 Q131 850 261 943 Q205 987 179.5 1043 Q154 1099 154 1179 Q154 1327 264 1404 Q374 1481 543 1481 Q692 1481 842 1431 L842 1229 Q834 1231 817 1235.5 Q800 1240 775 1248 Q726 1264 673.5 1276 Q621 1288 576 1288 Q514 1288 471 1263 Q427 1239 427 1193 Q427 1148 480.5 1105.5 Q534 1063 643 1012 Q709 977 745 955 Q764 944 783.5 929 Q803 914 825 896 Q870 860 889.5 817 Q909 774 909 722 Q909 599 780 493 Q900 422 900 262 Q900 156 841 80 Q783 5 691.5 -28 Q600 -61 482 -61 Z " />
<glyph glyph-name="dieresis" unicode="&#xa8;" horiz-adv-x="743" d="M436 1151 L436 1376 L681 1376 L681 1151 L436 1151 Z M-22 1151 L-22 1376 L225 1376 L225 1151 L-22 1151 Z " />
<glyph glyph-name="copyright" unicode="&#xa9;" horiz-adv-x="1713" d="M817 -22 Q694 -22 580.5 16.5 Q467 55 373 125 Q304 176 247.5 242 Q191 308 150.5 386 Q110 464 87.5 551.5 Q65 639 66 732 Q66 882 125 1023 Q185 1163 285 1263 Q385 1363 525 1423 Q664 1483 817 1483 Q968 1483 1108 1423 Q1178 1394 1237 1354 Q1296 1314 1347 1263 Q1449 1161 1507 1023 Q1567 883 1567 732 Q1567 579 1507 440 Q1448 300 1347 199 Q1245 97 1108 38 Q968 -22 817 -22 Z M815 93 Q983 93 1126 179 Q1268 266 1351 412 Q1433 557 1433 729 Q1433 899 1351 1044 Q1268 1189 1126 1275 Q983 1361 815 1361 Q646 1361 503 1275 Q362 1190 279 1044 Q197 899 197 729 Q197 557 279 412 Q362 265 503 179 Q646 93 815 93 Z M836 283 Q730 283 645 319 Q560 355 506 418 Q452 481 424.5 560 Q397 639 397 727 Q397 919 515 1043 Q633 1169 834 1169 Q1032 1169 1140 1055 L1068 924 Q974 1004 856 1004 Q796 1004 750.5 984.5 Q705 965 673.5 928.5 Q642 892 626 841 Q610 790 610 727 Q610 601 676 525 Q742 448 863 448 Q896 448 928.5 455 Q961 462 979 468 Q988 472 999 477.5 Q1010 483 1023 491 L1051 509 L1073 526 L1135 375 Q1004 283 836 283 Z " />
<glyph glyph-name="ordfeminine" unicode="&#xaa;" horiz-adv-x="868" d="M321 850 Q348 850 381 859.5 Q414 869 442 890 Q470 911 489 945 Q508 979 508 1029 L508 1043 Q338 1043 286 1025 Q235 1008 235 936 Q235 917 242 901 Q249 885 261 874 Q273 863 288.5 856.5 Q304 850 321 850 Z M308 721 Q209 721 138 777 Q67 834 67 936 Q67 1041 133.5 1096.5 Q200 1152 333 1152 L511 1152 L511 1192 Q511 1315 381 1315 Q337 1315 279 1301 Q251 1294 229 1288 Q207 1282 190 1275 L156 1262 L98 1407 Q105 1411 114.5 1416 Q124 1421 137 1426 Q160 1437 242 1457 Q319 1476 404 1476 Q465 1476 520 1461.5 Q575 1447 617 1413 Q659 1379 683.5 1323 Q708 1267 708 1184 Q708 1163 711 908 Q713 854 715 816 Q717 778 721 754 L540 754 L523 852 Q510 803 452 762 Q396 721 308 721 Z " />
<glyph glyph-name="guillemotleft" unicode="&#xab;" horiz-adv-x="1177" d="M814 158 L537 541 L820 922 L1020 922 L782 539 L1012 158 L814 158 Z M373 158 L96 541 L379 922 L579 922 L341 539 L571 158 L373 158 Z " />
<glyph glyph-name="logicalnot" unicode="&#xac;" horiz-adv-x="1457" d="M955 220 L955 609 L123 609 L123 814 L1188 814 L1188 220 L955 220 Z " />
<glyph glyph-name="uni00AD" unicode="&#xad;" horiz-adv-x="739" d="M54 457 L54 647 L686 647 L686 457 L54 457 Z " />
<glyph glyph-name="registered" unicode="&#xae;" horiz-adv-x="1713" d="M817 -22 Q694 -22 580.5 16.5 Q467 55 373 125 Q304 176 247.5 242 Q191 308 150.5 386 Q110 464 87.5 551.5 Q65 639 66 732 Q66 882 125 1023 Q185 1163 285 1263 Q385 1363 525 1423 Q664 1483 817 1483 Q968 1483 1108 1423 Q1178 1394 1237 1354 Q1296 1314 1347 1263 Q1449 1161 1507 1023 Q1567 883 1567 732 Q1567 579 1507 440 Q1448 300 1347 199 Q1245 97 1108 38 Q968 -22 817 -22 Z M815 93 Q983 93 1126 179 Q1268 266 1351 412 Q1433 557 1433 729 Q1433 899 1351 1044 Q1268 1189 1126 1275 Q983 1361 815 1361 Q646 1361 503 1275 Q362 1190 279 1044 Q197 899 197 729 Q197 557 279 412 Q362 265 503 179 Q646 93 815 93 Z M695 788 L785 788 Q883 788 931 810.5 Q979 833 979 895 Q979 967 947 985 Q915 1003 803 1003 L695 1003 L695 788 Z M479 290 L479 1171 L797 1171 Q1002 1171 1097.5 1104.5 Q1193 1038 1193 907 Q1193 713 1016 665 L1204 290 L969 290 L817 630 L694 630 L694 290 L479 290 Z " />
<glyph glyph-name="overscore" unicode="&#xaf;" horiz-adv-x="756" d="M66 1146 L66 1303 L690 1303 L690 1146 L66 1146 Z " />
<glyph glyph-name="degree" unicode="&#xb0;" horiz-adv-x="886" d="M403 849 Q275 849 181 938 Q89 1028 89 1157 Q89 1285 181 1375 Q273 1466 403 1466 Q532 1466 624 1376 Q717 1286 717 1157 Q717 1027 625 938 Q533 849 403 849 Z M403 984 Q475 984 523 1033 Q572 1082 572 1156 Q572 1229 523 1278 Q475 1328 403 1328 Q332 1328 284 1278 Q237 1228 237 1156 Q237 1082 285 1033 Q333 984 403 984 Z " />
<glyph glyph-name="plusminus" unicode="&#xb1;" horiz-adv-x="1272" d="M150 0 L150 184 L1040 184 L1040 0 L150 0 Z M475 291 L475 592 L150 592 L150 792 L469 792 L469 1099 L706 1099 L706 792 L1038 792 L1038 592 L716 592 L716 291 L475 291 Z " />
<glyph glyph-name="uni00B2" unicode="&#xb2;" horiz-adv-x="1072" d="M225 613 L225 795 L486 1022 Q621 1137 621 1201 Q621 1287 519 1287 Q416 1287 269 1223 L209 1389 Q377 1466 534 1466 Q664 1466 748 1400 Q832 1335 832 1203 Q832 1161 818 1122 Q804 1083 776.5 1044.5 Q749 1006 709.5 967 Q670 928 619 886 L530 813 L819 813 L819 613 L225 613 Z " />
<glyph glyph-name="uni00B3" unicode="&#xb3;" horiz-adv-x="909" d="M502 604 Q338 604 203 697 L265 831 Q394 756 486 756 Q549 756 583.5 790 Q618 824 618 878 Q618 924 577.5 954 Q537 984 465 984 L370 984 L370 1126 L463 1126 Q491 1126 515.5 1133.5 Q540 1141 558 1154 Q576 1167 586.5 1184 Q597 1201 597 1221 Q597 1269 563.5 1294.5 Q530 1320 473 1320 Q375 1320 253 1255 L192 1378 Q346 1463 510 1463 Q629 1463 706 1409 Q782 1357 782 1249 Q782 1121 645 1073 Q690 1061 721.5 1041 Q753 1021 773.5 995 Q794 969 803.5 938.5 Q813 908 813 875 Q813 784 768 721 Q723 658 655 631 Q587 604 502 604 Z " />
<glyph glyph-name="acute" unicode="&#xb4;" horiz-adv-x="607" d="M-1 1166 L263 1456 L581 1456 L227 1166 L-1 1166 Z " />
<glyph glyph-name="mu" unicode="&#xb5;" horiz-adv-x="1230" d="M761 1082 L1068 1082 L1068 0 L804 0 L789 152 Q680 -20 463 -20 Q444 -20 427 -18.5 Q410 -17 393 -15 L393 -316 L87 -316 L87 1082 L393 1082 L393 440 Q393 370 402.5 320.5 Q412 271 432 240 Q452 209 483.5 194.5 Q515 180 559 180 Q683 180 761 285 L761 1082 Z " />
<glyph glyph-name="paragraph" unicode="&#xb6;" horiz-adv-x="1226" d="M372 -178 L372 789 Q211 803 131 889.5 Q51 976 51 1129 Q51 1207 74 1264 Q97 1321 139 1357 Q178 1392 242 1415 Q305 1438 373.5 1446.5 Q442 1455 530 1455 L1024 1455 L1024 1263 L951 1263 L951 -178 L745 -178 L745 1263 L577 1263 L577 -178 L372 -178 Z " />
<glyph glyph-name="middot" unicode="&#xb7;" horiz-adv-x="596" d="M187 561 L187 843 L491 843 L491 561 L187 561 Z " />
<glyph glyph-name="cedilla" unicode="&#xb8;" horiz-adv-x="529" d="M-12 -294 Q4 -301 25.5 -308 Q47 -315 70 -320 Q93 -325 117 -328.5 Q141 -332 162 -332 Q263 -332 263 -259 Q263 -163 110 -140 L81 -136 L112 39 L236 39 L219 -75 Q326 -82 384 -143 Q441 -203 441 -283 Q441 -337 421.5 -375 Q402 -413 369 -437.5 Q336 -462 292.5 -473.5 Q249 -485 201 -485 Q81 -485 -23 -426 L-12 -294 Z " />
<glyph glyph-name="uni00B9" unicode="&#xb9;" horiz-adv-x="851" d="M147 625 L147 790 L366 790 L366 1270 Q371 1274 317 1260 L203 1233 L136 1218 L136 1389 L274 1430 Q336 1449 375 1459.5 Q414 1470 410 1468 L570 1464 L570 788 L759 788 L759 625 L147 625 Z " />
<glyph glyph-name="ordmasculine" unicode="&#xba;" horiz-adv-x="913" d="M420 713 Q234 713 134 815 Q33 918 33 1080 Q33 1237 136 1340 Q239 1443 417 1443 Q595 1443 697 1338 Q800 1235 800 1076 Q800 920 698 817 Q597 713 420 713 Z M417 873 Q502 873 555 929 Q607 984 607 1076 Q607 1173 556 1228 Q505 1283 418 1283 Q334 1283 280 1227 Q226 1171 226 1078 Q226 982 276.5 927.5 Q327 873 417 873 Z " />
<glyph glyph-name="guillemotright" unicode="&#xbb;" horiz-adv-x="1177" d="M535 158 L774 541 L543 922 L742 922 L1019 539 L736 158 L535 158 Z M94 158 L333 541 L102 922 L301 922 L578 539 L295 158 L94 158 Z " />
<glyph glyph-name="onequarter" unicode="&#xbc;" horiz-adv-x="2113" d="M1511 329 L1689 329 L1689 583 L1511 329 Z M589 0 L1474 1456 L1687 1456 L803 0 L589 0 Z M1691 1 L1691 195 L1322 195 L1322 308 L1691 814 L1871 814 L1871 329 L1987 329 L1987 195 L1871 195 L1871 1 L1691 1 Z M185 619 L185 786 L396 786 L396 1257 L172 1204 L172 1379 L305 1418 Q365 1436 403 1447 Q441 1458 438 1456 L594 1456 L594 784 L778 784 L778 619 L185 619 Z " />
<glyph glyph-name="onehalf" unicode="&#xbd;" horiz-adv-x="2554" d="M154 619 L154 786 L365 786 L365 1257 L141 1204 L141 1379 L274 1418 Q334 1436 372 1447 Q410 1458 407 1456 L563 1456 L563 784 L747 784 L747 619 L154 619 Z M598 0 L1483 1456 L1696 1456 L812 0 L598 0 Z M1965 562 Q1965 675 1858 675 Q1748 675 1613 608 L1551 768 Q1709 851 1873 851 Q1932 851 1984.5 836 Q2037 821 2076.5 789.5 Q2116 758 2140 709 Q2164 660 2167 591 L2167 580 Q2167 496 2110.5 419.5 Q2054 343 1954 265 L1861 193 L2155 193 L2155 0 L1565 0 L1565 169 L1839 389 Q1876 418 1900.5 442.5 Q1925 467 1938 486 Q1965 523 1965 562 Z " />
<glyph glyph-name="threequarters" unicode="&#xbe;" horiz-adv-x="2534" d="M1542 329 L1720 329 L1720 583 L1542 329 Z M610 0 L1495 1456 L1708 1456 L824 0 L610 0 Z M1722 1 L1722 195 L1353 195 L1353 308 L1721 814 L1902 814 L1902 329 L2017 329 L2017 195 L1902 195 L1902 1 L1722 1 Z M496 603 Q329 603 199 697 L260 832 Q384 756 481 756 Q544 756 579 788 Q614 820 614 875 Q614 923 571.5 953.5 Q529 984 456 984 L364 984 L364 1127 L454 1127 Q514 1127 553 1152.5 Q592 1178 592 1220 Q592 1316 470 1316 Q366 1316 249 1250 L188 1376 Q343 1462 503 1462 Q624 1462 698 1407 Q773 1353 773 1246 Q773 1113 634 1070 Q724 1048 764 993.5 Q804 939 804 872 Q804 739 715 671 Q626 603 496 603 Z " />
<glyph glyph-name="questiondown" unicode="&#xbf;" horiz-adv-x="1032" d="M714.016 753.025 L714.016 616.033 Q714.016 551.037 688.018 497.041 Q662.019 443.044 623.021 396.047 Q584.024 349.05 539.027 307.052 Q494.029 265.055 455.032 223.557 Q416.034 182.06 390.036 139.063 Q364.037 96.0652 364.037 47.0682 Q364.037 -30.9271 419.034 -67.4248 Q474.031 -103.923 567.025 -103.923 Q647.02 -103.923 732.015 -81.924 Q775.012 -70.9246 809.01 -59.9253 Q843.008 -48.926 869.006 -37.9266 L869.006 -248.914 Q734.015 -320.909 544.026 -320.909 Q426.034 -320.909 328.039 -281.912 Q231.045 -244.914 169.049 -159.919 Q107.053 -76.9243 107.053 40.0686 Q107.053 88.0657 120.052 129.063 Q133.051 170.061 155.05 206.558 Q177.049 243.056 206.547 275.054 Q236.045 307.052 268.043 335.051 Q311.041 374.048 355.038 411.546 Q399.035 449.044 434.533 491.041 Q470.031 533.039 492.529 581.036 Q515.028 629.033 515.028 688.029 L515.028 753.025 L714.016 753.025 Z M740.014 1164 L740.014 893.017 L488.03 893.017 L488.03 1164 L740.014 1164 Z " />
<glyph glyph-name="Agrave" unicode="&#xc0;" horiz-adv-x="1458" d="M546 1596 L195 1885 L513 1885 L775 1596 L546 1596 Z M854 592 Q796 763 748 904 Q700 1045 661 1159 Q629 1064 579.5 923 Q530 782 464 592 L854 592 Z M-48 0 L537 1456 L795 1456 L1385 0 L1098 0 L957 355 L369 355 L231 0 L-48 0 Z " />
<glyph glyph-name="Aacute" unicode="&#xc1;" horiz-adv-x="1458" d="M580 1596 L844 1886 L1162 1886 L808 1596 L580 1596 Z M894 592 Q836 763 788 904 Q740 1045 701 1159 Q669 1064 619.5 923 Q570 782 504 592 L894 592 Z M-8 0 L577 1456 L835 1456 L1425 0 L1138 0 L997 355 L409 355 L271 0 L-8 0 Z " />
<glyph glyph-name="Acircumflex" unicode="&#xc2;" horiz-adv-x="1458" d="M301 1615 L558 1985 L810 1985 L1075 1615 L828 1615 L692 1811 L553 1615 L301 1615 Z M894 592 Q836 763 788 904 Q740 1045 701 1159 Q669 1064 619.5 923 Q570 782 504 592 L894 592 Z M-8 0 L577 1456 L835 1456 L1425 0 L1138 0 L997 355 L409 355 L271 0 L-8 0 Z " />
<glyph glyph-name="Atilde" unicode="&#xc3;" horiz-adv-x="1458" d="M710 1604 Q667 1604 609 1631 Q580 1645 552 1658 Q524 1671 498 1684 Q445 1711 422 1711 Q400 1711 379.5 1686 Q359 1661 354 1609 L194 1609 Q194 1737 254 1818 Q315 1900 412 1900 Q449 1902 493 1886 Q537 1870 577.5 1849.5 Q618 1829 650.5 1811.5 Q683 1794 697 1793 Q700 1793 705 1792.5 Q710 1792 712 1792 Q742 1792 758.5 1814.5 Q775 1837 774 1900 L936 1900 Q936 1752 876 1678.5 Q816 1605 711 1604 L710 1604 Z M854 592 Q796 763 748 904 Q700 1045 661 1159 Q629 1064 579.5 923 Q530 782 464 592 L854 592 Z M-48 0 L537 1456 L795 1456 L1385 0 L1098 0 L957 355 L369 355 L231 0 L-48 0 Z " />
<glyph glyph-name="Adieresis" unicode="&#xc4;" horiz-adv-x="1458" d="M790 1581 L790 1806 L1035 1806 L1035 1581 L790 1581 Z M332 1581 L332 1806 L579 1806 L579 1581 L332 1581 Z M894 592 Q836 763 788 904 Q740 1045 701 1159 Q669 1064 619.5 923 Q570 782 504 592 L894 592 Z M-8 0 L577 1456 L835 1456 L1425 0 L1138 0 L997 355 L409 355 L271 0 L-8 0 Z " />
<glyph glyph-name="Aring" unicode="&#xc5;" horiz-adv-x="1458" d="M685 1583 Q593 1583 529 1644 Q465 1705 465 1796 Q465 1888 528 1948 Q592 2009 685 2009 Q777 2009 841 1948 Q906 1888 906 1796 Q906 1706 841 1644 Q777 1583 685 1583 Z M686 1687 Q729 1687 761 1719 Q793 1751 793 1796 Q793 1840 761 1872 Q729 1904 686 1904 Q664 1904 644.5 1895.5 Q625 1887 611 1872.5 Q597 1858 588.5 1838 Q580 1818 580 1796 Q580 1750 611 1719 Q643 1687 686 1687 Z M894 592 Q836 763 788 904 Q740 1045 701 1159 Q669 1064 619.5 923 Q570 782 504 592 L894 592 Z M-8 0 L577 1456 L835 1456 L1425 0 L1138 0 L997 355 L409 355 L271 0 L-8 0 Z " />
<glyph glyph-name="AE" unicode="&#xc6;" horiz-adv-x="2064" d="M594 558 L1061 558 L1014 1230 L980 1230 L594 558 Z M-21 0 L846 1456 L1930 1456 L1930 1230 L1273 1230 L1307 854 L1928 854 L1928 634 L1335 634 L1374 226 L1956 226 L1956 0 L1108 0 L1079 355 L495 355 L293 0 L-21 0 Z " />
<glyph glyph-name="Ccedilla" unicode="&#xc7;" horiz-adv-x="1436" d="M607 -294 Q623 -301 644.5 -308 Q666 -315 689 -320 Q712 -325 736 -328.5 Q760 -332 781 -332 Q882 -332 882 -259 Q882 -163 729 -140 L700 -136 L731 39 L855 39 L838 -75 Q945 -82 1003 -143 Q1060 -203 1060 -283 Q1060 -337 1040.5 -375 Q1021 -413 988 -437.5 Q955 -462 911.5 -473.5 Q868 -485 820 -485 Q700 -485 596 -426 L607 -294 Z M795 -22 Q650 -22 521 27 Q392 76 289 169 Q188 259 126 405 Q66 550 66 727 Q66 876 106.5 1000.5 Q147 1125 216 1213 Q268 1280 332.5 1331 Q397 1382 469 1416 Q541 1450 619 1467 Q697 1484 775 1483 Q1062 1483 1261 1326 L1162 1149 Q996 1264 796 1264 Q702 1264 619 1227 Q536 1190 472 1123 Q408 1056 370 954.5 Q332 853 332 730 Q332 488 468 343 Q605 197 812 197 Q1031 197 1214 344 L1299 143 Q1087 -22 795 -22 Z " />
<glyph glyph-name="Egrave" unicode="&#xc8;" horiz-adv-x="1249" d="M525 1596 L174 1885 L492 1885 L754 1596 L525 1596 Z M150 0 L150 1456 L1069 1456 L1069 1238 L404 1238 L404 849 L1033 849 L1033 630 L407 630 L407 218 L1098 218 L1098 0 L150 0 Z " />
<glyph glyph-name="Eacute" unicode="&#xc9;" horiz-adv-x="1249" d="M519 1596 L783 1886 L1101 1886 L747 1596 L519 1596 Z M150 0 L150 1456 L1069 1456 L1069 1238 L404 1238 L404 849 L1033 849 L1033 630 L407 630 L407 218 L1098 218 L1098 0 L150 0 Z " />
<glyph glyph-name="Ecircumflex" unicode="&#xca;" horiz-adv-x="1249" d="M239 1615 L496 1985 L748 1985 L1013 1615 L766 1615 L630 1811 L491 1615 L239 1615 Z M150 0 L150 1456 L1069 1456 L1069 1238 L404 1238 L404 849 L1033 849 L1033 630 L407 630 L407 218 L1098 218 L1098 0 L150 0 Z " />
<glyph glyph-name="Edieresis" unicode="&#xcb;" horiz-adv-x="1249" d="M728 1581 L728 1806 L973 1806 L973 1581 L728 1581 Z M270 1581 L270 1806 L517 1806 L517 1581 L270 1581 Z M150 0 L150 1456 L1069 1456 L1069 1238 L404 1238 L404 849 L1033 849 L1033 630 L407 630 L407 218 L1098 218 L1098 0 L150 0 Z " />
<glyph glyph-name="Igrave" unicode="&#xcc;" horiz-adv-x="586" d="M142 1596 L-209 1885 L109 1885 L371 1596 L142 1596 Z M120 0 L120 1456 L374 1456 L374 0 L120 0 Z " />
<glyph glyph-name="Iacute" unicode="&#xcd;" horiz-adv-x="586" d="M136 1596 L400 1886 L718 1886 L364 1596 L136 1596 Z M120 0 L120 1456 L374 1456 L374 0 L120 0 Z " />
<glyph glyph-name="Icircumflex" unicode="&#xce;" horiz-adv-x="586" d="M-144 1615 L113 1985 L365 1985 L630 1615 L383 1615 L247 1811 L108 1615 L-144 1615 Z M120 0 L120 1456 L374 1456 L374 0 L120 0 Z " />
<glyph glyph-name="Idieresis" unicode="&#xcf;" horiz-adv-x="586" d="M345 1581 L345 1806 L590 1806 L590 1581 L345 1581 Z M-113 1581 L-113 1806 L134 1806 L134 1581 L-113 1581 Z M120 0 L120 1456 L374 1456 L374 0 L120 0 Z " />
<glyph glyph-name="Eth" unicode="&#xd0;" horiz-adv-x="1571" d="M-52.2666 664.769 L-52.2666 814.76 L567.698 814.76 L567.698 664.769 L-52.2666 664.769 Z M110 0 L110 1456 L516 1456 Q735 1456 898 1409 Q1061 1362 1169 1270.5 Q1277 1179 1331 1045 Q1385 911 1385 737 Q1385 557 1331.5 419 Q1278 281 1173.5 188 Q1069 95 914 47.5 Q759 0 557 0 L110 0 Z M364 218 L570 218 Q834 218 975 350 Q1116 482 1116 738 Q1116 981 973.5 1109.5 Q831 1238 539 1238 L364 1238 L364 218 Z " />
<glyph glyph-name="Ntilde" unicode="&#xd1;" horiz-adv-x="1630" d="M857 1604 Q814 1604 756 1631 Q727 1645 699 1658 Q671 1671 645 1684 Q592 1711 569 1711 Q547 1711 526.5 1686 Q506 1661 501 1609 L341 1609 Q341 1737 401 1818 Q462 1900 559 1900 Q596 1902 640 1886 Q684 1870 724.5 1849.5 Q765 1829 797.5 1811.5 Q830 1794 844 1793 Q847 1793 852 1792.5 Q857 1792 859 1792 Q889 1792 905.5 1814.5 Q922 1837 921 1900 L1083 1900 Q1083 1752 1023 1678.5 Q963 1605 858 1604 L857 1604 Z M150 0 L150 1456 L419 1456 L1158 384 L1158 1456 L1400 1456 L1400 0 L1130 0 Q795 484 608.5 752.5 Q422 1021 385 1074 L385 0 L150 0 Z " />
<glyph glyph-name="Ograve" unicode="&#xd2;" horiz-adv-x="1671" d="M693 1596 L342 1885 L660 1885 L922 1596 L693 1596 Z M800 -23 Q458 -23 262 182 Q66 387 66 735 Q66 1072 263 1278 Q461 1483 803 1483 Q1134 1483 1329 1278 Q1525 1075 1525 735 Q1525 387 1332 182 Q1139 -23 800 -23 Z M794 194 Q905 194 990 229.5 Q1075 265 1132.5 334 Q1190 403 1219.5 504 Q1249 605 1249 735 Q1249 986 1133 1126 Q1017 1266 798 1266 Q577 1266 458 1126 Q340 987 340 735 Q340 474 455 334 Q570 194 794 194 Z " />
<glyph glyph-name="Oacute" unicode="&#xd3;" horiz-adv-x="1671" d="M687 1596 L951 1886 L1269 1886 L915 1596 L687 1596 Z M800 -23 Q458 -23 262 182 Q66 387 66 735 Q66 1072 263 1278 Q461 1483 803 1483 Q1134 1483 1329 1278 Q1525 1075 1525 735 Q1525 387 1332 182 Q1139 -23 800 -23 Z M794 194 Q905 194 990 229.5 Q1075 265 1132.5 334 Q1190 403 1219.5 504 Q1249 605 1249 735 Q1249 986 1133 1126 Q1017 1266 798 1266 Q577 1266 458 1126 Q340 987 340 735 Q340 474 455 334 Q570 194 794 194 Z " />
<glyph glyph-name="Ocircumflex" unicode="&#xd4;" horiz-adv-x="1671" d="M408 1615 L665 1985 L917 1985 L1182 1615 L935 1615 L799 1811 L660 1615 L408 1615 Z M800 -23 Q458 -23 262 182 Q66 387 66 735 Q66 1072 263 1278 Q461 1483 803 1483 Q1134 1483 1329 1278 Q1525 1075 1525 735 Q1525 387 1332 182 Q1139 -23 800 -23 Z M794 194 Q905 194 990 229.5 Q1075 265 1132.5 334 Q1190 403 1219.5 504 Q1249 605 1249 735 Q1249 986 1133 1126 Q1017 1266 798 1266 Q577 1266 458 1126 Q340 987 340 735 Q340 474 455 334 Q570 194 794 194 Z " />
<glyph glyph-name="Otilde" unicode="&#xd5;" horiz-adv-x="1671" d="M817 1604 Q774 1604 716 1631 Q687 1645 659 1658 Q631 1671 605 1684 Q552 1711 529 1711 Q507 1711 486.5 1686 Q466 1661 461 1609 L301 1609 Q301 1737 361 1818 Q422 1900 519 1900 Q556 1902 600 1886 Q644 1870 684.5 1849.5 Q725 1829 757.5 1811.5 Q790 1794 804 1793 Q807 1793 812 1792.5 Q817 1792 819 1792 Q849 1792 865.5 1814.5 Q882 1837 881 1900 L1043 1900 Q1043 1752 983 1678.5 Q923 1605 818 1604 L817 1604 Z M760 -23 Q418 -23 222 182 Q26 387 26 735 Q26 1072 223 1278 Q421 1483 763 1483 Q1094 1483 1289 1278 Q1485 1075 1485 735 Q1485 387 1292 182 Q1099 -23 760 -23 Z M754 194 Q865 194 950 229.5 Q1035 265 1092.5 334 Q1150 403 1179.5 504 Q1209 605 1209 735 Q1209 986 1093 1126 Q977 1266 758 1266 Q537 1266 418 1126 Q300 987 300 735 Q300 474 415 334 Q530 194 754 194 Z " />
<glyph glyph-name="Odieresis" unicode="&#xd6;" horiz-adv-x="1671" d="M897 1581 L897 1806 L1142 1806 L1142 1581 L897 1581 Z M439 1581 L439 1806 L686 1806 L686 1581 L439 1581 Z M800 -23 Q458 -23 262 182 Q66 387 66 735 Q66 1072 263 1278 Q461 1483 803 1483 Q1134 1483 1329 1278 Q1525 1075 1525 735 Q1525 387 1332 182 Q1139 -23 800 -23 Z M794 194 Q905 194 990 229.5 Q1075 265 1132.5 334 Q1190 403 1219.5 504 Q1249 605 1249 735 Q1249 986 1133 1126 Q1017 1266 798 1266 Q577 1266 458 1126 Q340 987 340 735 Q340 474 455 334 Q570 194 794 194 Z " />
<glyph glyph-name="multiply" unicode="&#xd7;" horiz-adv-x="1272" d="M322 116 L161 278 L430 547 L161 816 L322 977 L591 709 L862 977 L1022 817 L752 547 L1022 276 L862 116 L591 386 L322 116 Z " />
<glyph glyph-name="Oslash" unicode="&#xd8;" horiz-adv-x="1671" d="M800 -23 Q631 -23 496 29 L412 -128 L297 -75 L383 85 Q229 181 147.5 347.5 Q66 514 66 735 Q66 1072 263 1278 Q461 1483 803 1483 Q967 1483 1102 1430 L1180 1575 L1296 1523 L1215 1372 Q1365 1276 1445 1112.5 Q1525 949 1525 735 Q1525 387 1332 182 Q1139 -23 800 -23 Z M602 227 Q684 194 794 194 Q905 194 990 229.5 Q1075 265 1132.5 334 Q1190 403 1219.5 504 Q1249 605 1249 735 Q1249 1024 1101 1160 L602 227 Z M995 1229 Q911 1266 798 1266 Q577 1266 458 1126 Q340 987 340 735 Q340 429 494 293 L995 1229 Z " />
<glyph glyph-name="Ugrave" unicode="&#xd9;" horiz-adv-x="1509" d="M601 1596 L250 1885 L568 1885 L830 1596 L601 1596 Z M715 -23 Q574 -23 469 11 Q364 45 298 100 Q235 154 194 238 Q174 280 160.5 321.5 Q147 363 139 407 Q131 451 127.5 498.5 Q124 546 124 599 L124 1456 L378 1456 L378 588 Q378 472 404 396 Q430 320 475 275 Q520 230 581.5 212 Q643 194 714 194 Q790 194 848 213 Q906 232 954 275 Q1002 320 1026.5 398.5 Q1051 477 1051 589 L1051 1456 L1305 1456 L1305 598 Q1305 493 1291 408 Q1277 323 1237 240 Q1197 155 1134 101 Q1070 44 964 10.5 Q858 -23 715 -23 Z " />
<glyph glyph-name="Uacute" unicode="&#xda;" horiz-adv-x="1509" d="M595 1596 L859 1886 L1177 1886 L823 1596 L595 1596 Z M715 -23 Q574 -23 469 11 Q364 45 298 100 Q235 154 194 238 Q174 280 160.5 321.5 Q147 363 139 407 Q131 451 127.5 498.5 Q124 546 124 599 L124 1456 L378 1456 L378 588 Q378 472 404 396 Q430 320 475 275 Q520 230 581.5 212 Q643 194 714 194 Q790 194 848 213 Q906 232 954 275 Q1002 320 1026.5 398.5 Q1051 477 1051 589 L1051 1456 L1305 1456 L1305 598 Q1305 493 1291 408 Q1277 323 1237 240 Q1197 155 1134 101 Q1070 44 964 10.5 Q858 -23 715 -23 Z " />
<glyph glyph-name="Ucircumflex" unicode="&#xdb;" horiz-adv-x="1509" d="M316 1615 L573 1985 L825 1985 L1090 1615 L843 1615 L707 1811 L568 1615 L316 1615 Z M715 -23 Q574 -23 469 11 Q364 45 298 100 Q235 154 194 238 Q174 280 160.5 321.5 Q147 363 139 407 Q131 451 127.5 498.5 Q124 546 124 599 L124 1456 L378 1456 L378 588 Q378 472 404 396 Q430 320 475 275 Q520 230 581.5 212 Q643 194 714 194 Q790 194 848 213 Q906 232 954 275 Q1002 320 1026.5 398.5 Q1051 477 1051 589 L1051 1456 L1305 1456 L1305 598 Q1305 493 1291 408 Q1277 323 1237 240 Q1197 155 1134 101 Q1070 44 964 10.5 Q858 -23 715 -23 Z " />
<glyph glyph-name="Udieresis" unicode="&#xdc;" horiz-adv-x="1509" d="M805 1581 L805 1806 L1050 1806 L1050 1581 L805 1581 Z M347 1581 L347 1806 L594 1806 L594 1581 L347 1581 Z M715 -23 Q574 -23 469 11 Q364 45 298 100 Q235 154 194 238 Q174 280 160.5 321.5 Q147 363 139 407 Q131 451 127.5 498.5 Q124 546 124 599 L124 1456 L378 1456 L378 588 Q378 472 404 396 Q430 320 475 275 Q520 230 581.5 212 Q643 194 714 194 Q790 194 848 213 Q906 232 954 275 Q1002 320 1026.5 398.5 Q1051 477 1051 589 L1051 1456 L1305 1456 L1305 598 Q1305 493 1291 408 Q1277 323 1237 240 Q1197 155 1134 101 Q1070 44 964 10.5 Q858 -23 715 -23 Z " />
<glyph glyph-name="Yacute" unicode="&#xdd;" horiz-adv-x="1281" d="M505 1596 L769 1886 L1087 1886 L733 1596 L505 1596 Z M465 0 L465 563 L-54 1456 L235 1456 L596 789 L954 1456 L1250 1456 L719 564 L719 0 L465 0 Z " />
<glyph glyph-name="Thorn" unicode="&#xde;" horiz-adv-x="1300" d="M400 545 L621 545 Q908 545 908 774 Q908 912 817 961 Q771 987 713.5 997 Q656 1007 572 1007 L400 1007 L400 545 Z M150 0 L150 1456 L403 1456 L403 1223 L560 1223 Q615 1223 664 1220.5 Q713 1218 757.5 1212.5 Q802 1207 843.5 1197 Q885 1187 926 1172 Q986 1151 1032.5 1117 Q1079 1083 1111.5 1034.5 Q1144 986 1161.5 921.5 Q1179 857 1181 773 Q1181 656 1131.5 571.5 Q1082 487 999 432.5 Q916 378 807.5 352 Q699 326 580 326 L400 326 L400 0 L150 0 Z " />
<glyph glyph-name="germandbls" unicode="&#xdf;" horiz-adv-x="1265" d="M723 175 Q882 175 882 335 Q882 448 804 529 Q727 611 531 709 L531 897 Q610 931 671 1000 Q732 1068 732 1146 Q732 1208 683 1244 Q635 1280 568 1280 Q518 1280 477.5 1261.5 Q437 1243 408 1207.5 Q379 1172 363 1119.5 Q347 1067 347 999 L347 0 L107 0 L104 1000 Q103 1238 226 1358 Q349 1478 567 1478 Q759 1478 881 1389 Q1003 1300 1003 1161 Q1003 1068 952 983 Q902 897 811 852 Q786 839 759.5 829 Q733 819 704 811 Q800 790 879 753 Q958 716 1022 661 Q1086 606 1122 528 Q1158 450 1158 354 Q1158 184 1052 81 Q946 -22 788 -22 Q710 -22 629 -7 Q588 1 557.5 8 Q527 15 506 22 L464 37 L508 230 L542 215 Q553 210 572 204 Q591 198 620 190 Q677 175 723 175 Z " />
<glyph glyph-name="agrave" unicode="&#xe0;" horiz-adv-x="1291" d="M548 1166 L197 1455 L515 1455 L777 1166 L548 1166 Z M604 177 Q749 177 813 268 Q879 359 879 513 Q879 591 861.5 654 Q844 717 809.5 760.5 Q775 804 722 827.5 Q669 851 599 851 Q460 851 387 760 Q314 669 314 515 Q314 360 387 269 Q461 177 604 177 Z M573 -23 Q447 -23 348.5 22 Q250 67 190 142 Q130 217 99 308.5 Q68 400 68 502 Q68 610 100 706 Q132 802 193 880 Q256 959 356 1005.5 Q456 1052 585 1052 Q770 1052 871 917 L871 1026 L1114 1026 L1114 0 L865 0 L865 140 Q753 -23 573 -23 Z " />
<glyph glyph-name="aacute" unicode="&#xe1;" horiz-adv-x="1291" d="M541 1166 L805 1456 L1123 1456 L769 1166 L541 1166 Z M604 177 Q749 177 813 268 Q879 359 879 513 Q879 591 861.5 654 Q844 717 809.5 760.5 Q775 804 722 827.5 Q669 851 599 851 Q460 851 387 760 Q314 669 314 515 Q314 360 387 269 Q461 177 604 177 Z M573 -23 Q447 -23 348.5 22 Q250 67 190 142 Q130 217 99 308.5 Q68 400 68 502 Q68 610 100 706 Q132 802 193 880 Q256 959 356 1005.5 Q456 1052 585 1052 Q770 1052 871 917 L871 1026 L1114 1026 L1114 0 L865 0 L865 140 Q753 -23 573 -23 Z " />
<glyph glyph-name="acircumflex" unicode="&#xe2;" horiz-adv-x="1291" d="M262 1185 L519 1555 L771 1555 L1036 1185 L789 1185 L653 1381 L514 1185 L262 1185 Z M604 177 Q749 177 813 268 Q879 359 879 513 Q879 591 861.5 654 Q844 717 809.5 760.5 Q775 804 722 827.5 Q669 851 599 851 Q460 851 387 760 Q314 669 314 515 Q314 360 387 269 Q461 177 604 177 Z M573 -23 Q447 -23 348.5 22 Q250 67 190 142 Q130 217 99 308.5 Q68 400 68 502 Q68 610 100 706 Q132 802 193 880 Q256 959 356 1005.5 Q456 1052 585 1052 Q770 1052 871 917 L871 1026 L1114 1026 L1114 0 L865 0 L865 140 Q753 -23 573 -23 Z " />
<glyph glyph-name="atilde" unicode="&#xe3;" horiz-adv-x="1291" d="M711 1174 Q668 1174 610 1201 Q581 1215 553 1228 Q525 1241 499 1254 Q446 1281 423 1281 Q401 1281 380.5 1256 Q360 1231 355 1179 L195 1179 Q195 1307 255 1388 Q316 1470 413 1470 Q450 1472 494 1456 Q538 1440 578.5 1419.5 Q619 1399 651.5 1381.5 Q684 1364 698 1363 Q701 1363 706 1362.5 Q711 1362 713 1362 Q743 1362 759.5 1384.5 Q776 1407 775 1470 L937 1470 Q937 1322 877 1248.5 Q817 1175 712 1174 L711 1174 Z M604 177 Q749 177 813 268 Q879 359 879 513 Q879 591 861.5 654 Q844 717 809.5 760.5 Q775 804 722 827.5 Q669 851 599 851 Q460 851 387 760 Q314 669 314 515 Q314 360 387 269 Q461 177 604 177 Z M573 -23 Q447 -23 348.5 22 Q250 67 190 142 Q130 217 99 308.5 Q68 400 68 502 Q68 610 100 706 Q132 802 193 880 Q256 959 356 1005.5 Q456 1052 585 1052 Q770 1052 871 917 L871 1026 L1114 1026 L1114 0 L865 0 L865 140 Q753 -23 573 -23 Z " />
<glyph glyph-name="adieresis" unicode="&#xe4;" horiz-adv-x="1291" d="M751 1151 L751 1376 L996 1376 L996 1151 L751 1151 Z M293 1151 L293 1376 L540 1376 L540 1151 L293 1151 Z M604 177 Q749 177 813 268 Q879 359 879 513 Q879 591 861.5 654 Q844 717 809.5 760.5 Q775 804 722 827.5 Q669 851 599 851 Q460 851 387 760 Q314 669 314 515 Q314 360 387 269 Q461 177 604 177 Z M573 -23 Q447 -23 348.5 22 Q250 67 190 142 Q130 217 99 308.5 Q68 400 68 502 Q68 610 100 706 Q132 802 193 880 Q256 959 356 1005.5 Q456 1052 585 1052 Q770 1052 871 917 L871 1026 L1114 1026 L1114 0 L865 0 L865 140 Q753 -23 573 -23 Z " />
<glyph glyph-name="aring" unicode="&#xe5;" horiz-adv-x="1291" d="M646 1153 Q554 1153 490 1214 Q426 1275 426 1366 Q426 1458 489 1518 Q553 1579 646 1579 Q738 1579 802 1518 Q867 1458 867 1366 Q867 1276 802 1214 Q738 1153 646 1153 Z M647 1257 Q690 1257 722 1289 Q754 1321 754 1366 Q754 1410 722 1442 Q690 1474 647 1474 Q625 1474 605.5 1465.5 Q586 1457 572 1442.5 Q558 1428 549.5 1408 Q541 1388 541 1366 Q541 1320 572 1289 Q604 1257 647 1257 Z M604 177 Q749 177 813 268 Q879 359 879 513 Q879 591 861.5 654 Q844 717 809.5 760.5 Q775 804 722 827.5 Q669 851 599 851 Q460 851 387 760 Q314 669 314 515 Q314 360 387 269 Q461 177 604 177 Z M573 -23 Q447 -23 348.5 22 Q250 67 190 142 Q130 217 99 308.5 Q68 400 68 502 Q68 610 100 706 Q132 802 193 880 Q256 959 356 1005.5 Q456 1052 585 1052 Q770 1052 871 917 L871 1026 L1114 1026 L1114 0 L865 0 L865 140 Q753 -23 573 -23 Z " />
<glyph glyph-name="ae" unicode="&#xe6;" horiz-adv-x="1776" d="M1401 632 L1400 655 Q1397 758 1332 815 Q1267 872 1187 872 Q1091 872 1028 805 Q966 738 939 632 L1401 632 Z M441 177 Q511 177 559.5 203 Q608 229 637.5 271 Q667 313 680.5 364.5 Q694 416 695 467 L595 467 Q464 467 372 432 Q324 414 297.5 381.5 Q271 349 271 304 Q271 239 318.5 208 Q366 177 441 177 Z M434 -22 Q248 -22 139 60 Q30 142 30 294 Q30 489 176 563 Q323 638 655 638 L696 638 Q695 687 679.5 728 Q664 769 635 798 Q606 827 564.5 843 Q523 859 469 859 Q352 859 183 778 L111 942 Q293 1052 524 1052 Q607 1052 701 1002 Q794 953 841 864 Q887 952 988 1002 Q1091 1052 1189 1052 L1192 1052 Q1307 1051 1388 1008.5 Q1469 966 1520 893.5 Q1571 821 1594.5 724.5 Q1618 628 1618 519 L1613 467 L936 467 L936 448 Q961 177 1214 177 L1223 177 Q1296 178 1374 207 Q1454 236 1495 262 L1537 289 L1604 108 Q1601 105 1596.5 102 Q1592 99 1584.5 94 Q1577 89 1564.5 81.5 Q1552 74 1531 63 Q1511 52 1490 42 Q1469 32 1447 23 Q1426 14 1399 6 Q1372 -2 1341.5 -8.5 Q1311 -15 1278.5 -19 Q1246 -23 1215 -23 L1203 -23 Q1060 -23 965 21 Q870 65 817 172 Q766 71 661 24 Q557 -22 434 -22 Z " />
<glyph glyph-name="ccedilla" unicode="&#xe7;" horiz-adv-x="1071" d="M396 -294 Q412 -301 433.5 -308 Q455 -315 478 -320 Q501 -325 525 -328.5 Q549 -332 570 -332 Q671 -332 671 -259 Q671 -163 518 -140 L489 -136 L520 39 L644 39 L627 -75 Q734 -82 792 -143 Q849 -203 849 -283 Q849 -337 829.5 -375 Q810 -413 777 -437.5 Q744 -462 700.5 -473.5 Q657 -485 609 -485 Q489 -485 385 -426 L396 -294 Z M604 -23 Q478 -23 375 21 Q272 65 206 140 Q140 215 104 311.5 Q68 408 68 514 Q68 665 130 787 Q194 910 315 980 Q438 1052 601 1052 Q842 1052 973 914 L884 754 Q772 852 627 852 Q481 852 403 760 Q325 668 325 513 Q325 363 408 269 Q491 177 635 177 Q687 177 728 187.5 Q769 198 801 215 Q816 223 824.5 227.5 Q833 232 846 241 L863 253 Q866 254 870.5 257.5 Q875 261 879.5 264.5 Q884 268 888 271 Q892 274 892 274 L967 92 Q881 32 795 4.5 Q709 -23 604 -23 Z " />
<glyph glyph-name="egrave" unicode="&#xe8;" horiz-adv-x="1206" d="M534 1166 L183 1455 L501 1455 L763 1166 L534 1166 Z M843 636 Q825 745 762 803 Q699 861 608 861 Q500 861 428.5 801.5 Q357 742 333 636 L843 636 Z M626 -23 Q366 -23 217 125 Q68 274 68 512 Q68 621 103.5 717.5 Q139 814 205 889 Q271 964 371 1008 Q471 1052 594 1052 Q717 1052 807 1010 Q897 968 951 892 Q1005 817 1030 723.5 Q1055 630 1055 515 Q1055 488 1050 471 L330 471 Q333 396 356.5 340.5 Q380 285 421.5 249 Q463 213 520.5 195 Q578 177 649 177 Q815 177 973 287 L1040 107 Q992 74 943.5 49.5 Q895 25 844.5 9 Q794 -7 740 -15 Q686 -23 626 -23 Z " />
<glyph glyph-name="eacute" unicode="&#xe9;" horiz-adv-x="1206" d="M843 636 Q825 745 762 803 Q699 861 608 861 Q500 861 428.5 801.5 Q357 742 333 636 L843 636 Z M626 -23 Q366 -23 217 125 Q68 274 68 512 Q68 621 103.5 717.5 Q139 814 205 889 Q271 964 371 1008 Q471 1052 594 1052 Q717 1052 807 1010 Q897 968 951 892 Q1005 817 1030 723.5 Q1055 630 1055 515 Q1055 488 1050 471 L330 471 Q333 396 356.5 340.5 Q380 285 421.5 249 Q463 213 520.5 195 Q578 177 649 177 Q815 177 973 287 L1040 107 Q992 74 943.5 49.5 Q895 25 844.5 9 Q794 -7 740 -15 Q686 -23 626 -23 Z M528 1166 L792 1456 L1110 1456 L756 1166 L528 1166 Z " />
<glyph glyph-name="ecircumflex" unicode="&#xea;" horiz-adv-x="1206" d="M843 636 Q825 745 762 803 Q699 861 608 861 Q500 861 428.5 801.5 Q357 742 333 636 L843 636 Z M626 -23 Q366 -23 217 125 Q68 274 68 512 Q68 621 103.5 717.5 Q139 814 205 889 Q271 964 371 1008 Q471 1052 594 1052 Q717 1052 807 1010 Q897 968 951 892 Q1005 817 1030 723.5 Q1055 630 1055 515 Q1055 488 1050 471 L330 471 Q333 396 356.5 340.5 Q380 285 421.5 249 Q463 213 520.5 195 Q578 177 649 177 Q815 177 973 287 L1040 107 Q992 74 943.5 49.5 Q895 25 844.5 9 Q794 -7 740 -15 Q686 -23 626 -23 Z M203 1185 L460 1555 L712 1555 L977 1185 L730 1185 L594 1381 L455 1185 L203 1185 Z " />
<glyph glyph-name="edieresis" unicode="&#xeb;" horiz-adv-x="1206" d="M843 636 Q825 745 762 803 Q699 861 608 861 Q500 861 428.5 801.5 Q357 742 333 636 L843 636 Z M626 -23 Q366 -23 217 125 Q68 274 68 512 Q68 621 103.5 717.5 Q139 814 205 889 Q271 964 371 1008 Q471 1052 594 1052 Q717 1052 807 1010 Q897 968 951 892 Q1005 817 1030 723.5 Q1055 630 1055 515 Q1055 488 1050 471 L330 471 Q333 396 356.5 340.5 Q380 285 421.5 249 Q463 213 520.5 195 Q578 177 649 177 Q815 177 973 287 L1040 107 Q992 74 943.5 49.5 Q895 25 844.5 9 Q794 -7 740 -15 Q686 -23 626 -23 Z M738 1151 L738 1376 L983 1376 L983 1151 L738 1151 Z M280 1151 L280 1376 L527 1376 L527 1151 L280 1151 Z " />
<glyph glyph-name="igrave" unicode="&#xec;" horiz-adv-x="485" d="M83 1166 L-268 1455 L50 1455 L312 1166 L83 1166 Z M63 0 L63 1026 L312 1026 L312 0 L63 0 Z " />
<glyph glyph-name="iacute" unicode="&#xed;" horiz-adv-x="485" d="M63 0 L63 1026 L312 1026 L312 0 L63 0 Z M77 1166 L341 1456 L659 1456 L305 1166 L77 1166 Z " />
<glyph glyph-name="icircumflex" unicode="&#xee;" horiz-adv-x="485" d="M63 0 L63 1026 L312 1026 L312 0 L63 0 Z M-203 1185 L54 1555 L306 1555 L571 1185 L324 1185 L188 1381 L49 1185 L-203 1185 Z " />
<glyph glyph-name="idieresis" unicode="&#xef;" horiz-adv-x="485" d="M63 0 L63 1026 L312 1026 L312 0 L63 0 Z M286 1151 L286 1376 L531 1376 L531 1151 L286 1151 Z M-172 1151 L-172 1376 L75 1376 L75 1151 L-172 1151 Z " />
<glyph glyph-name="eth" unicode="&#xf0;" horiz-adv-x="1217" d="M563 172 Q602 172 643.5 188.5 Q685 205 719.5 238 Q754 271 776.5 321.5 Q799 372 799 441 Q799 555 722 624 Q645 693 546 693 Q503 693 461 679.5 Q419 666 386 637 Q353 608 333 561.5 Q313 515 313 449 Q313 314 387 243 Q463 172 563 172 Z M543 -25 Q434 -25 342.5 15 Q251 55 188 124 Q127 193 93 282 Q59 371 59 471 Q59 671 171 786 Q284 902 490 902 Q694 902 834 753 Q834 756 834.5 763 Q835 770 836 779 Q837 788 837.5 797.5 Q838 807 838 814 Q838 963 629 1115 L376 989 L310 1122 L470 1201 Q435 1212 381.5 1226.5 Q328 1241 256 1258 L334 1417 Q379 1417 477 1390 Q576 1363 678 1306 L934 1434 L1000 1300 L815 1209 Q1060 997 1060 621 Q1060 283 927 129 Q795 -25 543 -25 Z " />
<glyph glyph-name="ntilde" unicode="&#xf1;" horiz-adv-x="1224" d="M687 1174 Q644 1174 586 1201 Q557 1215 529 1228 Q501 1241 475 1254 Q422 1281 399 1281 Q377 1281 356.5 1256 Q336 1231 331 1179 L171 1179 Q171 1307 231 1388 Q292 1470 389 1470 Q426 1472 470 1456 Q514 1440 554.5 1419.5 Q595 1399 627.5 1381.5 Q660 1364 674 1363 Q677 1363 682 1362.5 Q687 1362 689 1362 Q719 1362 735.5 1384.5 Q752 1407 751 1470 L913 1470 Q913 1322 853 1248.5 Q793 1175 688 1174 L687 1174 Z M118 0 L118 635 Q118 690 116.5 741 Q115 792 113 841 Q111 890 108 925 Q105 960 103 982 L98 1026 L361 1026 L361 889 Q414 970 502 1010 Q590 1052 674 1052 Q764 1052 830.5 1029 Q897 1006 948 952 Q1000 900 1027 808.5 Q1054 717 1054 585 L1054 0 L806 0 L806 602 Q806 739 763 794 Q721 851 623 851 Q588 851 544 835.5 Q500 820 460 790 Q420 760 393 715.5 Q366 671 366 614 L366 0 L118 0 Z " />
<glyph glyph-name="ograve" unicode="&#xf2;" horiz-adv-x="1286" d="M608 -23 Q473 -23 369 20 Q265 63 199 138 Q135 213 101.5 308.5 Q68 404 68 513 Q68 625 101.5 720.5 Q135 816 201 891 Q267 966 371 1009 Q475 1052 607 1052 Q742 1052 845.5 1009.5 Q949 967 1012 892 Q1075 817 1106.5 721.5 Q1138 626 1138 511 Q1138 403 1105 309 Q1072 215 1008 140 Q945 65 841.5 21 Q738 -23 608 -23 Z M603 177 Q678 177 731 205 Q784 233 817 280 Q850 327 865 388.5 Q880 450 880 516 Q880 663 810 757 Q741 851 604 851 Q533 851 480.5 824 Q428 797 393 751.5 Q358 706 341.5 645.5 Q325 585 326 516 Q326 424 352 349 Q365 312 388.5 280.5 Q412 249 443.5 226 Q475 203 515 190 Q555 177 603 177 Z M501 1166 L150 1455 L468 1455 L730 1166 L501 1166 Z " />
<glyph glyph-name="oacute" unicode="&#xf3;" horiz-adv-x="1286" d="M608 -23 Q473 -23 369 20 Q265 63 199 138 Q135 213 101.5 308.5 Q68 404 68 513 Q68 625 101.5 720.5 Q135 816 201 891 Q267 966 371 1009 Q475 1052 607 1052 Q742 1052 845.5 1009.5 Q949 967 1012 892 Q1075 817 1106.5 721.5 Q1138 626 1138 511 Q1138 403 1105 309 Q1072 215 1008 140 Q945 65 841.5 21 Q738 -23 608 -23 Z M603 177 Q678 177 731 205 Q784 233 817 280 Q850 327 865 388.5 Q880 450 880 516 Q880 663 810 757 Q741 851 604 851 Q533 851 480.5 824 Q428 797 393 751.5 Q358 706 341.5 645.5 Q325 585 326 516 Q326 424 352 349 Q365 312 388.5 280.5 Q412 249 443.5 226 Q475 203 515 190 Q555 177 603 177 Z M495 1166 L759 1456 L1077 1456 L723 1166 L495 1166 Z " />
<glyph glyph-name="ocircumflex" unicode="&#xf4;" horiz-adv-x="1286" d="M608 -23 Q473 -23 369 20 Q265 63 199 138 Q135 213 101.5 308.5 Q68 404 68 513 Q68 625 101.5 720.5 Q135 816 201 891 Q267 966 371 1009 Q475 1052 607 1052 Q742 1052 845.5 1009.5 Q949 967 1012 892 Q1075 817 1106.5 721.5 Q1138 626 1138 511 Q1138 403 1105 309 Q1072 215 1008 140 Q945 65 841.5 21 Q738 -23 608 -23 Z M603 177 Q678 177 731 205 Q784 233 817 280 Q850 327 865 388.5 Q880 450 880 516 Q880 663 810 757 Q741 851 604 851 Q533 851 480.5 824 Q428 797 393 751.5 Q358 706 341.5 645.5 Q325 585 326 516 Q326 424 352 349 Q365 312 388.5 280.5 Q412 249 443.5 226 Q475 203 515 190 Q555 177 603 177 Z M215 1185 L472 1555 L724 1555 L989 1185 L742 1185 L606 1381 L467 1185 L215 1185 Z " />
<glyph glyph-name="otilde" unicode="&#xf5;" horiz-adv-x="1286" d="M665 1174 Q622 1174 564 1201 Q535 1215 507 1228 Q479 1241 453 1254 Q400 1281 377 1281 Q355 1281 334.5 1256 Q314 1231 309 1179 L149 1179 Q149 1307 209 1388 Q270 1470 367 1470 Q404 1472 448 1456 Q492 1440 532.5 1419.5 Q573 1399 605.5 1381.5 Q638 1364 652 1363 Q655 1363 660 1362.5 Q665 1362 667 1362 Q697 1362 713.5 1384.5 Q730 1407 729 1470 L891 1470 Q891 1322 831 1248.5 Q771 1175 666 1174 L665 1174 Z M608 -23 Q473 -23 369 20 Q265 63 199 138 Q135 213 101.5 308.5 Q68 404 68 513 Q68 625 101.5 720.5 Q135 816 201 891 Q267 966 371 1009 Q475 1052 607 1052 Q742 1052 845.5 1009.5 Q949 967 1012 892 Q1075 817 1106.5 721.5 Q1138 626 1138 511 Q1138 403 1105 309 Q1072 215 1008 140 Q945 65 841.5 21 Q738 -23 608 -23 Z M603 177 Q678 177 731 205 Q784 233 817 280 Q850 327 865 388.5 Q880 450 880 516 Q880 663 810 757 Q741 851 604 851 Q533 851 480.5 824 Q428 797 393 751.5 Q358 706 341.5 645.5 Q325 585 326 516 Q326 424 352 349 Q365 312 388.5 280.5 Q412 249 443.5 226 Q475 203 515 190 Q555 177 603 177 Z " />
<glyph glyph-name="odieresis" unicode="&#xf6;" horiz-adv-x="1286" d="M608 -23 Q473 -23 369 20 Q265 63 199 138 Q135 213 101.5 308.5 Q68 404 68 513 Q68 625 101.5 720.5 Q135 816 201 891 Q267 966 371 1009 Q475 1052 607 1052 Q742 1052 845.5 1009.5 Q949 967 1012 892 Q1075 817 1106.5 721.5 Q1138 626 1138 511 Q1138 403 1105 309 Q1072 215 1008 140 Q945 65 841.5 21 Q738 -23 608 -23 Z M603 177 Q678 177 731 205 Q784 233 817 280 Q850 327 865 388.5 Q880 450 880 516 Q880 663 810 757 Q741 851 604 851 Q533 851 480.5 824 Q428 797 393 751.5 Q358 706 341.5 645.5 Q325 585 326 516 Q326 424 352 349 Q365 312 388.5 280.5 Q412 249 443.5 226 Q475 203 515 190 Q555 177 603 177 Z M704 1151 L704 1376 L949 1376 L949 1151 L704 1151 Z M246 1151 L246 1376 L493 1376 L493 1151 L246 1151 Z " />
<glyph glyph-name="divide" unicode="&#xf7;" horiz-adv-x="1499" d="M577 840 L577 1111 L778 1111 L778 840 L577 840 Z M127 449 L127 656 L1213 656 L1213 449 L127 449 Z M580 -19 L580 253 L781 253 L783 -19 L580 -19 Z " />
<glyph glyph-name="oslash" unicode="&#xf8;" horiz-adv-x="1271" d="M694 838 Q652 851 604 851 Q533 851 480.5 824 Q428 797 393 751.5 Q358 706 341.5 645.5 Q325 585 326 516 Q326 339 418 247 L694 838 Z M512 190 Q550 177 603 177 Q678 177 731 205 Q784 233 817 280 Q850 327 865 388.5 Q880 450 880 516 Q880 690 788 782 L512 190 Z M608 -23 Q506 -23 424 1 L332 -195 L233 -148 L322 43 Q196 111 132 235 Q68 359 68 513 Q68 625 101.5 720.5 Q135 816 201 891 Q267 966 371 1009 Q475 1052 607 1052 Q703 1052 784 1030 L868 1211 L967 1165 L886 991 Q1012 925 1075 798 Q1138 672 1138 511 Q1138 403 1105 309 Q1072 215 1008 140 Q945 65 841.5 21 Q738 -23 608 -23 Z " />
<glyph glyph-name="ugrave" unicode="&#xf9;" horiz-adv-x="1186" d="M484 -23 Q297 -23 194 83 Q90 190 90 376 L90 1026 L336 1026 L336 380 Q336 277 388.5 227 Q441 177 535 177 Q646 177 699.5 232.5 Q753 288 753 411 L753 1026 L1001 1026 L1001 276 L1013 0 L757 0 L753 152 Q748 130 730.5 103.5 Q713 77 682 47 Q652 17 599.5 -3 Q547 -23 484 -23 Z M457 1166 L106 1455 L424 1455 L686 1166 L457 1166 Z " />
<glyph glyph-name="uacute" unicode="&#xfa;" horiz-adv-x="1186" d="M484 -23 Q297 -23 194 83 Q90 190 90 376 L90 1026 L336 1026 L336 380 Q336 277 388.5 227 Q441 177 535 177 Q646 177 699.5 232.5 Q753 288 753 411 L753 1026 L1001 1026 L1001 276 L1013 0 L757 0 L753 152 Q748 130 730.5 103.5 Q713 77 682 47 Q652 17 599.5 -3 Q547 -23 484 -23 Z M450 1166 L714 1456 L1032 1456 L678 1166 L450 1166 Z " />
<glyph glyph-name="ucircumflex" unicode="&#xfb;" horiz-adv-x="1186" d="M484 -23 Q297 -23 194 83 Q90 190 90 376 L90 1026 L336 1026 L336 380 Q336 277 388.5 227 Q441 177 535 177 Q646 177 699.5 232.5 Q753 288 753 411 L753 1026 L1001 1026 L1001 276 L1013 0 L757 0 L753 152 Q748 130 730.5 103.5 Q713 77 682 47 Q652 17 599.5 -3 Q547 -23 484 -23 Z M171 1185 L428 1555 L680 1555 L945 1185 L698 1185 L562 1381 L423 1185 L171 1185 Z " />
<glyph glyph-name="udieresis" unicode="&#xfc;" horiz-adv-x="1186" d="M484 -23 Q297 -23 194 83 Q90 190 90 376 L90 1026 L336 1026 L336 380 Q336 277 388.5 227 Q441 177 535 177 Q646 177 699.5 232.5 Q753 288 753 411 L753 1026 L1001 1026 L1001 276 L1013 0 L757 0 L753 152 Q748 130 730.5 103.5 Q713 77 682 47 Q652 17 599.5 -3 Q547 -23 484 -23 Z M660 1151 L660 1376 L905 1376 L905 1151 L660 1151 Z M202 1151 L202 1376 L449 1376 L449 1151 L202 1151 Z " />
<glyph glyph-name="yacute" unicode="&#xfd;" horiz-adv-x="1114" d="M110 -277 Q250 -223 318 -165 Q388 -109 412 -27 L426 23 L-10 1026 L248 1026 L545 290 L801 1026 L1054 1026 L638 -56 Q594 -164 525 -243 Q455 -325 379 -371 Q303 -417 214 -445 L110 -277 Z M443 1166 L707 1456 L1025 1456 L671 1166 L443 1166 Z " />
<glyph glyph-name="thorn" unicode="&#xfe;" horiz-adv-x="1229" d="M578 177 Q644 177 691.5 205.5 Q739 234 769 281.5 Q799 329 813.5 391 Q828 453 828 521 Q828 585 816 644 Q804 703 776 748.5 Q748 794 701.5 821.5 Q655 849 587 849 Q516 849 467.5 819.5 Q419 790 389 741 Q359 692 346 628 Q333 564 333 494 Q333 352 396 264 Q460 177 578 177 Z M100 -395 L100 1464 L338 1464 L335 948 Q376 993 459 1022 Q543 1051 606 1051 Q721 1051 813.5 1009 Q906 967 966 894 Q1026 821 1057 727 Q1088 633 1088 525 Q1088 418 1058 319 Q1028 220 967.5 144 Q907 68 816 22.5 Q725 -23 604 -23 Q532 -23 460.5 1 Q389 25 332 62 L331 -395 L100 -395 Z " />
<glyph glyph-name="ydieresis" unicode="&#xff;" horiz-adv-x="1114" d="M110 -277 Q250 -223 318 -165 Q388 -109 412 -27 L426 23 L-10 1026 L248 1026 L545 290 L801 1026 L1054 1026 L638 -56 Q594 -164 525 -243 Q455 -325 379 -371 Q303 -417 214 -445 L110 -277 Z M652 1151 L652 1376 L897 1376 L897 1151 L652 1151 Z M194 1151 L194 1376 L441 1376 L441 1151 L194 1151 Z " />
<glyph glyph-name="Amacron" unicode="&#x100;" horiz-adv-x="1458" d="M387 1576 L387 1733 L1011 1733 L1011 1576 L387 1576 Z M894 592 Q836 763 788 904 Q740 1045 701 1159 Q669 1064 619.5 923 Q570 782 504 592 L894 592 Z M-8 0 L577 1456 L835 1456 L1425 0 L1138 0 L997 355 L409 355 L271 0 L-8 0 Z " />
<glyph glyph-name="amacron" unicode="&#x101;" horiz-adv-x="1291" d="M348 1146 L348 1303 L972 1303 L972 1146 L348 1146 Z M604 177 Q749 177 813 268 Q879 359 879 513 Q879 591 861.5 654 Q844 717 809.5 760.5 Q775 804 722 827.5 Q669 851 599 851 Q460 851 387 760 Q314 669 314 515 Q314 360 387 269 Q461 177 604 177 Z M573 -23 Q447 -23 348.5 22 Q250 67 190 142 Q130 217 99 308.5 Q68 400 68 502 Q68 610 100 706 Q132 802 193 880 Q256 959 356 1005.5 Q456 1052 585 1052 Q770 1052 871 917 L871 1026 L1114 1026 L1114 0 L865 0 L865 140 Q753 -23 573 -23 Z " />
<glyph glyph-name="Abreve" unicode="&#x102;" horiz-adv-x="1458" d="M696 1590 Q394 1590 374 1886 L548 1886 Q554 1810 599 1785 Q622 1773 644 1768.5 Q666 1764 696 1764 Q727 1764 752.5 1769.5 Q778 1775 797 1788.5 Q816 1802 827.5 1826 Q839 1850 842 1886 L1015 1886 Q1004 1732 923.5 1661 Q843 1590 696 1590 Z M894 592 Q836 763 788 904 Q740 1045 701 1159 Q669 1064 619.5 923 Q570 782 504 592 L894 592 Z M-8 0 L577 1456 L835 1456 L1425 0 L1138 0 L997 355 L409 355 L271 0 L-8 0 Z " />
<glyph glyph-name="abreve" unicode="&#x103;" horiz-adv-x="1291" d="M657 1160 Q355 1160 335 1456 L509 1456 Q515 1380 560 1355 Q583 1343 605 1338.5 Q627 1334 657 1334 Q688 1334 713.5 1339.5 Q739 1345 758 1358.5 Q777 1372 788.5 1396 Q800 1420 803 1456 L976 1456 Q965 1302 884.5 1231 Q804 1160 657 1160 Z M604 177 Q749 177 813 268 Q879 359 879 513 Q879 591 861.5 654 Q844 717 809.5 760.5 Q775 804 722 827.5 Q669 851 599 851 Q460 851 387 760 Q314 669 314 515 Q314 360 387 269 Q461 177 604 177 Z M573 -23 Q447 -23 348.5 22 Q250 67 190 142 Q130 217 99 308.5 Q68 400 68 502 Q68 610 100 706 Q132 802 193 880 Q256 959 356 1005.5 Q456 1052 585 1052 Q770 1052 871 917 L871 1026 L1114 1026 L1114 0 L865 0 L865 140 Q753 -23 573 -23 Z " />
<glyph glyph-name="Aogonek" unicode="&#x104;" horiz-adv-x="1458" d="M1161 -356 Q1061 -356 1005 -324.5 Q949 -293 949 -227 Q949 -200 957 -175.5 Q965 -151 976 -132 Q987 -113 1007 -93.5 Q1027 -74 1042 -62 Q1050 -56 1061 -49 Q1072 -42 1083.5 -35 Q1095 -28 1105.5 -22 Q1116 -16 1123 -13 L1161 6 L1193 21 L1328 23 Q1293 3 1265.5 -20 Q1238 -43 1219 -67 Q1200 -91 1189.5 -114.5 Q1179 -138 1179 -157 Q1179 -204 1242 -204 Q1295 -204 1415 -167 L1415 -315 Q1278 -356 1161 -356 Z M894 592 Q836 763 788 904 Q740 1045 701 1159 Q669 1064 619.5 923 Q570 782 504 592 L894 592 Z M-8 0 L577 1456 L835 1456 L1425 0 L1138 0 L997 355 L409 355 L271 0 L-8 0 Z " />
<glyph glyph-name="aogonek" unicode="&#x105;" horiz-adv-x="1291" d="M904 -356 Q804 -356 748 -324.5 Q692 -293 692 -227 Q692 -200 700 -175.5 Q708 -151 719 -132 Q730 -113 750 -93.5 Q770 -74 785 -62 Q793 -56 804 -49 Q815 -42 826.5 -35 Q838 -28 848.5 -22 Q859 -16 866 -13 L904 6 L936 21 L1071 23 Q1036 3 1008.5 -20 Q981 -43 962 -67 Q943 -91 932.5 -114.5 Q922 -138 922 -157 Q922 -204 985 -204 Q1038 -204 1158 -167 L1158 -315 Q1021 -356 904 -356 Z M604 177 Q749 177 813 268 Q879 359 879 513 Q879 591 861.5 654 Q844 717 809.5 760.5 Q775 804 722 827.5 Q669 851 599 851 Q460 851 387 760 Q314 669 314 515 Q314 360 387 269 Q461 177 604 177 Z M573 -23 Q447 -23 348.5 22 Q250 67 190 142 Q130 217 99 308.5 Q68 400 68 502 Q68 610 100 706 Q132 802 193 880 Q256 959 356 1005.5 Q456 1052 585 1052 Q770 1052 871 917 L871 1026 L1114 1026 L1114 0 L865 0 L865 140 Q753 -23 573 -23 Z " />
<glyph glyph-name="Cacute" unicode="&#x106;" horiz-adv-x="1436" d="M676 1596 L940 1886 L1258 1886 L904 1596 L676 1596 Z M795 -22 Q650 -22 521 27 Q392 76 289 169 Q188 259 126 405 Q66 550 66 727 Q66 876 106.5 1000.5 Q147 1125 216 1213 Q268 1280 332.5 1331 Q397 1382 469 1416 Q541 1450 619 1467 Q697 1484 775 1483 Q1062 1483 1261 1326 L1162 1149 Q996 1264 796 1264 Q702 1264 619 1227 Q536 1190 472 1123 Q408 1056 370 954.5 Q332 853 332 730 Q332 488 468 343 Q605 197 812 197 Q1031 197 1214 344 L1299 143 Q1087 -22 795 -22 Z " />
<glyph glyph-name="cacute" unicode="&#x107;" horiz-adv-x="1071" d="M604 -23 Q478 -23 375 21 Q272 65 206 140 Q140 215 104 311.5 Q68 408 68 514 Q68 665 130 787 Q194 910 315 980 Q438 1052 601 1052 Q842 1052 973 914 L884 754 Q772 852 627 852 Q481 852 403 760 Q325 668 325 513 Q325 363 408 269 Q491 177 635 177 Q687 177 728 187.5 Q769 198 801 215 Q816 223 824.5 227.5 Q833 232 846 241 L863 253 Q866 254 870.5 257.5 Q875 261 879.5 264.5 Q884 268 888 271 Q892 274 892 274 L967 92 Q881 32 795 4.5 Q709 -23 604 -23 Z M495 1166 L759 1456 L1077 1456 L723 1166 L495 1166 Z " />
<glyph glyph-name="Ccircumflex" unicode="&#x108;" horiz-adv-x="1436" d="M397 1615 L654 1985 L906 1985 L1171 1615 L924 1615 L788 1811 L649 1615 L397 1615 Z M795 -22 Q650 -22 521 27 Q392 76 289 169 Q188 259 126 405 Q66 550 66 727 Q66 876 106.5 1000.5 Q147 1125 216 1213 Q268 1280 332.5 1331 Q397 1382 469 1416 Q541 1450 619 1467 Q697 1484 775 1483 Q1062 1483 1261 1326 L1162 1149 Q996 1264 796 1264 Q702 1264 619 1227 Q536 1190 472 1123 Q408 1056 370 954.5 Q332 853 332 730 Q332 488 468 343 Q605 197 812 197 Q1031 197 1214 344 L1299 143 Q1087 -22 795 -22 Z " />
<glyph glyph-name="ccircumflex" unicode="&#x109;" horiz-adv-x="1071" d="M216 1185 L473 1555 L725 1555 L990 1185 L743 1185 L607 1381 L468 1185 L216 1185 Z M604 -23 Q478 -23 375 21 Q272 65 206 140 Q140 215 104 311.5 Q68 408 68 514 Q68 665 130 787 Q194 910 315 980 Q438 1052 601 1052 Q842 1052 973 914 L884 754 Q772 852 627 852 Q481 852 403 760 Q325 668 325 513 Q325 363 408 269 Q491 177 635 177 Q687 177 728 187.5 Q769 198 801 215 Q816 223 824.5 227.5 Q833 232 846 241 L863 253 Q866 254 870.5 257.5 Q875 261 879.5 264.5 Q884 268 888 271 Q892 274 892 274 L967 92 Q881 32 795 4.5 Q709 -23 604 -23 Z " />
<glyph glyph-name="Cdotaccent" unicode="&#x10a;" horiz-adv-x="1436" d="M672 1596 L672 1824 L918 1824 L918 1596 L672 1596 Z M795 -22 Q650 -22 521 27 Q392 76 289 169 Q188 259 126 405 Q66 550 66 727 Q66 876 106.5 1000.5 Q147 1125 216 1213 Q268 1280 332.5 1331 Q397 1382 469 1416 Q541 1450 619 1467 Q697 1484 775 1483 Q1062 1483 1261 1326 L1162 1149 Q996 1264 796 1264 Q702 1264 619 1227 Q536 1190 472 1123 Q408 1056 370 954.5 Q332 853 332 730 Q332 488 468 343 Q605 197 812 197 Q1031 197 1214 344 L1299 143 Q1087 -22 795 -22 Z " />
<glyph glyph-name="cdotaccent" unicode="&#x10b;" horiz-adv-x="1071" d="M492 1166 L492 1394 L738 1394 L738 1166 L492 1166 Z M604 -23 Q478 -23 375 21 Q272 65 206 140 Q140 215 104 311.5 Q68 408 68 514 Q68 665 130 787 Q194 910 315 980 Q438 1052 601 1052 Q842 1052 973 914 L884 754 Q772 852 627 852 Q481 852 403 760 Q325 668 325 513 Q325 363 408 269 Q491 177 635 177 Q687 177 728 187.5 Q769 198 801 215 Q816 223 824.5 227.5 Q833 232 846 241 L863 253 Q866 254 870.5 257.5 Q875 261 879.5 264.5 Q884 268 888 271 Q892 274 892 274 L967 92 Q881 32 795 4.5 Q709 -23 604 -23 Z " />
<glyph glyph-name="Ccaron" unicode="&#x10c;" horiz-adv-x="1436" d="M669 1615 L388 1982 L642 1982 L761 1837 L884 1982 L1150 1982 L871 1615 L669 1615 Z M795 -22 Q650 -22 521 27 Q392 76 289 169 Q188 259 126 405 Q66 550 66 727 Q66 876 106.5 1000.5 Q147 1125 216 1213 Q268 1280 332.5 1331 Q397 1382 469 1416 Q541 1450 619 1467 Q697 1484 775 1483 Q1062 1483 1261 1326 L1162 1149 Q996 1264 796 1264 Q702 1264 619 1227 Q536 1190 472 1123 Q408 1056 370 954.5 Q332 853 332 730 Q332 488 468 343 Q605 197 812 197 Q1031 197 1214 344 L1299 143 Q1087 -22 795 -22 Z " />
<glyph glyph-name="ccaron" unicode="&#x10d;" horiz-adv-x="1071" d="M488 1185 L207 1552 L461 1552 L580 1407 L703 1552 L969 1552 L690 1185 L488 1185 Z M604 -23 Q478 -23 375 21 Q272 65 206 140 Q140 215 104 311.5 Q68 408 68 514 Q68 665 130 787 Q194 910 315 980 Q438 1052 601 1052 Q842 1052 973 914 L884 754 Q772 852 627 852 Q481 852 403 760 Q325 668 325 513 Q325 363 408 269 Q491 177 635 177 Q687 177 728 187.5 Q769 198 801 215 Q816 223 824.5 227.5 Q833 232 846 241 L863 253 Q866 254 870.5 257.5 Q875 261 879.5 264.5 Q884 268 888 271 Q892 274 892 274 L967 92 Q881 32 795 4.5 Q709 -23 604 -23 Z " />
<glyph glyph-name="Dcaron" unicode="&#x10e;" horiz-adv-x="1571" d="M581 1615 L300 1982 L554 1982 L673 1837 L796 1982 L1062 1982 L783 1615 L581 1615 Z M150 0 L150 1456 L556 1456 Q775 1456 938 1409 Q1101 1362 1209 1270.5 Q1317 1179 1371 1045 Q1425 911 1425 737 Q1425 557 1371.5 419 Q1318 281 1213.5 188 Q1109 95 954 47.5 Q799 0 597 0 L150 0 Z M404 218 L610 218 Q874 218 1015 350 Q1156 482 1156 738 Q1156 981 1013.5 1109.5 Q871 1238 579 1238 L404 1238 L404 218 Z " />
<glyph glyph-name="dcaron" unicode="&#x10f;" horiz-adv-x="1267" d="M587 177 Q657 177 706 205 Q755 233 786 280 Q817 327 831 387 Q845 447 845 512 Q845 661 780 756 Q715 851 585 851 Q499 851 438 804 Q378 756 353 684 Q328 612 328 516 Q328 450 342 388.5 Q356 327 387 280 Q418 233 467 205 Q516 177 587 177 Z M536 -23 Q337 -23 202 123 Q68 269 68 508 Q68 617 99 714 Q130 811 188 887 Q248 963 342.5 1007.5 Q437 1052 555 1052 Q660 1052 734 1008 Q809 964 837 918 L837 1457 L1083 1457 L1083 274 Q1083 268 1092 0 L838 0 L836 131 Q827 108 806 84 Q785 60 750 34 Q715 9 659 -7 Q603 -23 536 -23 Z M1248 951 L1361 1456 L1641 1456 L1460 951 L1248 951 Z " />
<glyph glyph-name="Dcroat" unicode="&#x110;" horiz-adv-x="1571" d="M-12.2666 664.769 L-12.2666 814.76 L607.698 814.76 L607.698 664.769 L-12.2666 664.769 Z M150 0 L150 1456 L556 1456 Q775 1456 938 1409 Q1101 1362 1209 1270.5 Q1317 1179 1371 1045 Q1425 911 1425 737 Q1425 557 1371.5 419 Q1318 281 1213.5 188 Q1109 95 954 47.5 Q799 0 597 0 L150 0 Z M404 218 L610 218 Q874 218 1015 350 Q1156 482 1156 738 Q1156 981 1013.5 1109.5 Q871 1238 579 1238 L404 1238 L404 218 Z " />
<glyph glyph-name="dslash" unicode="&#x111;" horiz-adv-x="1267" d="M653 1149 L653 1306 L1277 1306 L1277 1149 L653 1149 Z M587 177 Q657 177 706 205 Q755 233 786 280 Q817 327 831 387 Q845 447 845 512 Q845 661 780 756 Q715 851 585 851 Q499 851 438 804 Q378 756 353 684 Q328 612 328 516 Q328 450 342 388.5 Q356 327 387 280 Q418 233 467 205 Q516 177 587 177 Z M536 -23 Q337 -23 202 123 Q68 269 68 508 Q68 617 99 714 Q130 811 188 887 Q248 963 342.5 1007.5 Q437 1052 555 1052 Q660 1052 734 1008 Q809 964 837 918 L837 1457 L1083 1457 L1083 274 Q1083 268 1092 0 L838 0 L836 131 Q827 108 806 84 Q785 60 750 34 Q715 9 659 -7 Q603 -23 536 -23 Z " />
<glyph glyph-name="Emacron" unicode="&#x112;" horiz-adv-x="1249" d="M325 1576 L325 1733 L949 1733 L949 1576 L325 1576 Z M150 0 L150 1456 L1069 1456 L1069 1238 L404 1238 L404 849 L1033 849 L1033 630 L407 630 L407 218 L1098 218 L1098 0 L150 0 Z " />
<glyph glyph-name="emacron" unicode="&#x113;" horiz-adv-x="1206" d="M335 1146 L335 1303 L959 1303 L959 1146 L335 1146 Z M843 636 Q825 745 762 803 Q699 861 608 861 Q500 861 428.5 801.5 Q357 742 333 636 L843 636 Z M626 -23 Q366 -23 217 125 Q68 274 68 512 Q68 621 103.5 717.5 Q139 814 205 889 Q271 964 371 1008 Q471 1052 594 1052 Q717 1052 807 1010 Q897 968 951 892 Q1005 817 1030 723.5 Q1055 630 1055 515 Q1055 488 1050 471 L330 471 Q333 396 356.5 340.5 Q380 285 421.5 249 Q463 213 520.5 195 Q578 177 649 177 Q815 177 973 287 L1040 107 Q992 74 943.5 49.5 Q895 25 844.5 9 Q794 -7 740 -15 Q686 -23 626 -23 Z " />
<glyph glyph-name="Ebreve" unicode="&#x114;" horiz-adv-x="1249" d="M635 1590 Q333 1590 313 1886 L487 1886 Q493 1810 538 1785 Q561 1773 583 1768.5 Q605 1764 635 1764 Q666 1764 691.5 1769.5 Q717 1775 736 1788.5 Q755 1802 766.5 1826 Q778 1850 781 1886 L954 1886 Q943 1732 862.5 1661 Q782 1590 635 1590 Z M150 0 L150 1456 L1069 1456 L1069 1238 L404 1238 L404 849 L1033 849 L1033 630 L407 630 L407 218 L1098 218 L1098 0 L150 0 Z " />
<glyph glyph-name="ebreve" unicode="&#x115;" horiz-adv-x="1206" d="M843 636 Q825 745 762 803 Q699 861 608 861 Q500 861 428.5 801.5 Q357 742 333 636 L843 636 Z M626 -23 Q366 -23 217 125 Q68 274 68 512 Q68 621 103.5 717.5 Q139 814 205 889 Q271 964 371 1008 Q471 1052 594 1052 Q717 1052 807 1010 Q897 968 951 892 Q1005 817 1030 723.5 Q1055 630 1055 515 Q1055 488 1050 471 L330 471 Q333 396 356.5 340.5 Q380 285 421.5 249 Q463 213 520.5 195 Q578 177 649 177 Q815 177 973 287 L1040 107 Q992 74 943.5 49.5 Q895 25 844.5 9 Q794 -7 740 -15 Q686 -23 626 -23 Z M644 1160 Q342 1160 322 1456 L496 1456 Q502 1380 547 1355 Q570 1343 592 1338.5 Q614 1334 644 1334 Q675 1334 700.5 1339.5 Q726 1345 745 1358.5 Q764 1372 775.5 1396 Q787 1420 790 1456 L963 1456 Q952 1302 871.5 1231 Q791 1160 644 1160 Z " />
<glyph glyph-name="Edotaccent" unicode="&#x116;" horiz-adv-x="1249" d="M515 1596 L515 1824 L761 1824 L761 1596 L515 1596 Z M150 0 L150 1456 L1069 1456 L1069 1238 L404 1238 L404 849 L1033 849 L1033 630 L407 630 L407 218 L1098 218 L1098 0 L150 0 Z " />
<glyph glyph-name="edotaccent" unicode="&#x117;" horiz-adv-x="1206" d="M843 636 Q825 745 762 803 Q699 861 608 861 Q500 861 428.5 801.5 Q357 742 333 636 L843 636 Z M626 -23 Q366 -23 217 125 Q68 274 68 512 Q68 621 103.5 717.5 Q139 814 205 889 Q271 964 371 1008 Q471 1052 594 1052 Q717 1052 807 1010 Q897 968 951 892 Q1005 817 1030 723.5 Q1055 630 1055 515 Q1055 488 1050 471 L330 471 Q333 396 356.5 340.5 Q380 285 421.5 249 Q463 213 520.5 195 Q578 177 649 177 Q815 177 973 287 L1040 107 Q992 74 943.5 49.5 Q895 25 844.5 9 Q794 -7 740 -15 Q686 -23 626 -23 Z M524 1166 L524 1394 L770 1394 L770 1166 L524 1166 Z " />
<glyph glyph-name="Eogonek" unicode="&#x118;" horiz-adv-x="1249" d="M687 -356 Q587 -356 531 -324.5 Q475 -293 475 -227 Q475 -200 483 -175.5 Q491 -151 502 -132 Q513 -113 533 -93.5 Q553 -74 568 -62 Q576 -56 587 -49 Q598 -42 609.5 -35 Q621 -28 631.5 -22 Q642 -16 649 -13 L687 6 L719 21 L854 23 Q819 3 791.5 -20 Q764 -43 745 -67 Q726 -91 715.5 -114.5 Q705 -138 705 -157 Q705 -204 768 -204 Q821 -204 941 -167 L941 -315 Q804 -356 687 -356 Z M150 0 L150 1456 L1069 1456 L1069 1238 L404 1238 L404 849 L1033 849 L1033 630 L407 630 L407 218 L1098 218 L1098 0 L150 0 Z " />
<glyph glyph-name="eogonek" unicode="&#x119;" horiz-adv-x="1206" d="M724 -356 Q624 -356 568 -324.5 Q512 -293 512 -227 Q512 -200 520 -175.5 Q528 -151 539 -132 Q550 -113 570 -93.5 Q590 -74 605 -62 Q613 -56 624 -49 Q635 -42 646.5 -35 Q658 -28 668.5 -22 Q679 -16 686 -13 L724 6 L756 21 L891 23 Q856 3 828.5 -20 Q801 -43 782 -67 Q763 -91 752.5 -114.5 Q742 -138 742 -157 Q742 -204 805 -204 Q858 -204 978 -167 L978 -315 Q841 -356 724 -356 Z M843 636 Q825 745 762 803 Q699 861 608 861 Q500 861 428.5 801.5 Q357 742 333 636 L843 636 Z M626 -23 Q366 -23 217 125 Q68 274 68 512 Q68 621 103.5 717.5 Q139 814 205 889 Q271 964 371 1008 Q471 1052 594 1052 Q717 1052 807 1010 Q897 968 951 892 Q1005 817 1030 723.5 Q1055 630 1055 515 Q1055 488 1050 471 L330 471 Q333 396 356.5 340.5 Q380 285 421.5 249 Q463 213 520.5 195 Q578 177 649 177 Q815 177 973 287 L1040 107 Q992 74 943.5 49.5 Q895 25 844.5 9 Q794 -7 740 -15 Q686 -23 626 -23 Z " />
<glyph glyph-name="Ecaron" unicode="&#x11a;" horiz-adv-x="1249" d="M511 1615 L230 1982 L484 1982 L603 1837 L726 1982 L992 1982 L713 1615 L511 1615 Z M150 0 L150 1456 L1069 1456 L1069 1238 L404 1238 L404 849 L1033 849 L1033 630 L407 630 L407 218 L1098 218 L1098 0 L150 0 Z " />
<glyph glyph-name="ecaron" unicode="&#x11b;" horiz-adv-x="1206" d="M843 636 Q825 745 762 803 Q699 861 608 861 Q500 861 428.5 801.5 Q357 742 333 636 L843 636 Z M626 -23 Q366 -23 217 125 Q68 274 68 512 Q68 621 103.5 717.5 Q139 814 205 889 Q271 964 371 1008 Q471 1052 594 1052 Q717 1052 807 1010 Q897 968 951 892 Q1005 817 1030 723.5 Q1055 630 1055 515 Q1055 488 1050 471 L330 471 Q333 396 356.5 340.5 Q380 285 421.5 249 Q463 213 520.5 195 Q578 177 649 177 Q815 177 973 287 L1040 107 Q992 74 943.5 49.5 Q895 25 844.5 9 Q794 -7 740 -15 Q686 -23 626 -23 Z M521 1185 L240 1552 L494 1552 L613 1407 L736 1552 L1002 1552 L723 1185 L521 1185 Z " />
<glyph glyph-name="Gcircumflex" unicode="&#x11c;" horiz-adv-x="1538" d="M407 1615 L664 1985 L916 1985 L1181 1615 L934 1615 L798 1811 L659 1615 L407 1615 Z M811 -23 Q451 -23 258 173 Q65 369 65 704 Q65 830 96.5 944.5 Q128 1059 192 1158 Q238 1231 303 1290.5 Q368 1350 449 1393 Q530 1436 627.5 1459.5 Q725 1483 837 1483 Q940 1483 1024.5 1468.5 Q1109 1454 1169 1427 Q1231 1399 1258 1382 Q1288 1365 1322 1338 L1220 1160 Q1077 1264 838 1264 Q711 1264 611.5 1217 Q512 1170 452 1091 Q392 1012 361 916.5 Q330 821 330 715 Q330 601 360.5 505.5 Q391 410 452.5 340.5 Q514 271 606.5 232.5 Q699 194 823 194 Q943 194 1072 232 L1072 576 L732 576 L732 793 L1330 793 L1330 88 Q1081 -23 811 -23 Z " />
<glyph glyph-name="gcircumflex" unicode="&#x11d;" horiz-adv-x="1235" d="M586 187 Q662 187 711 216.5 Q760 246 788.5 293 Q817 340 828 398.5 Q839 457 839 516 Q839 666 776 758 Q714 851 589 851 Q503 851 442 802 Q382 754 355 680 Q328 606 328 515 Q328 361 391 274 Q454 187 586 187 Z M538 -418 Q337 -418 148 -348 L191 -134 Q341 -212 520 -212 Q664 -212 745 -150.5 Q826 -89 826 35 L826 122 Q737 0 569 0 Q341 0 205 139 Q68 279 68 515 Q68 624 97 718 Q126 812 183 888 Q240 964 334.5 1008 Q429 1052 550 1052 Q646 1052 717 1014 Q788 976 827 916 L827 1026 L1090 1026 Q1080 950 1075 864.5 Q1070 779 1070 682 L1070 147 Q1070 -418 538 -418 Z M189 1185 L446 1555 L698 1555 L963 1185 L716 1185 L580 1381 L441 1185 L189 1185 Z " />
<glyph glyph-name="Gbreve" unicode="&#x11e;" horiz-adv-x="1538" d="M802 1590 Q500 1590 480 1886 L654 1886 Q660 1810 705 1785 Q728 1773 750 1768.5 Q772 1764 802 1764 Q833 1764 858.5 1769.5 Q884 1775 903 1788.5 Q922 1802 933.5 1826 Q945 1850 948 1886 L1121 1886 Q1110 1732 1029.5 1661 Q949 1590 802 1590 Z M811 -23 Q451 -23 258 173 Q65 369 65 704 Q65 830 96.5 944.5 Q128 1059 192 1158 Q238 1231 303 1290.5 Q368 1350 449 1393 Q530 1436 627.5 1459.5 Q725 1483 837 1483 Q940 1483 1024.5 1468.5 Q1109 1454 1169 1427 Q1231 1399 1258 1382 Q1288 1365 1322 1338 L1220 1160 Q1077 1264 838 1264 Q711 1264 611.5 1217 Q512 1170 452 1091 Q392 1012 361 916.5 Q330 821 330 715 Q330 601 360.5 505.5 Q391 410 452.5 340.5 Q514 271 606.5 232.5 Q699 194 823 194 Q943 194 1072 232 L1072 576 L732 576 L732 793 L1330 793 L1330 88 Q1081 -23 811 -23 Z " />
<glyph glyph-name="gbreve" unicode="&#x11f;" horiz-adv-x="1235" d="M586 187 Q662 187 711 216.5 Q760 246 788.5 293 Q817 340 828 398.5 Q839 457 839 516 Q839 666 776 758 Q714 851 589 851 Q503 851 442 802 Q382 754 355 680 Q328 606 328 515 Q328 361 391 274 Q454 187 586 187 Z M538 -418 Q337 -418 148 -348 L191 -134 Q341 -212 520 -212 Q664 -212 745 -150.5 Q826 -89 826 35 L826 122 Q737 0 569 0 Q341 0 205 139 Q68 279 68 515 Q68 624 97 718 Q126 812 183 888 Q240 964 334.5 1008 Q429 1052 550 1052 Q646 1052 717 1014 Q788 976 827 916 L827 1026 L1090 1026 Q1080 950 1075 864.5 Q1070 779 1070 682 L1070 147 Q1070 -418 538 -418 Z M584 1160 Q282 1160 262 1456 L436 1456 Q442 1380 487 1355 Q510 1343 532 1338.5 Q554 1334 584 1334 Q615 1334 640.5 1339.5 Q666 1345 685 1358.5 Q704 1372 715.5 1396 Q727 1420 730 1456 L903 1456 Q892 1302 811.5 1231 Q731 1160 584 1160 Z " />
<glyph glyph-name="Gdotaccent" unicode="&#x120;" horiz-adv-x="1538" d="M682 1596 L682 1824 L928 1824 L928 1596 L682 1596 Z M811 -23 Q451 -23 258 173 Q65 369 65 704 Q65 830 96.5 944.5 Q128 1059 192 1158 Q238 1231 303 1290.5 Q368 1350 449 1393 Q530 1436 627.5 1459.5 Q725 1483 837 1483 Q940 1483 1024.5 1468.5 Q1109 1454 1169 1427 Q1231 1399 1258 1382 Q1288 1365 1322 1338 L1220 1160 Q1077 1264 838 1264 Q711 1264 611.5 1217 Q512 1170 452 1091 Q392 1012 361 916.5 Q330 821 330 715 Q330 601 360.5 505.5 Q391 410 452.5 340.5 Q514 271 606.5 232.5 Q699 194 823 194 Q943 194 1072 232 L1072 576 L732 576 L732 793 L1330 793 L1330 88 Q1081 -23 811 -23 Z " />
<glyph glyph-name="gdotaccent" unicode="&#x121;" horiz-adv-x="1235" d="M586 187 Q662 187 711 216.5 Q760 246 788.5 293 Q817 340 828 398.5 Q839 457 839 516 Q839 666 776 758 Q714 851 589 851 Q503 851 442 802 Q382 754 355 680 Q328 606 328 515 Q328 361 391 274 Q454 187 586 187 Z M538 -418 Q337 -418 148 -348 L191 -134 Q341 -212 520 -212 Q664 -212 745 -150.5 Q826 -89 826 35 L826 122 Q737 0 569 0 Q341 0 205 139 Q68 279 68 515 Q68 624 97 718 Q126 812 183 888 Q240 964 334.5 1008 Q429 1052 550 1052 Q646 1052 717 1014 Q788 976 827 916 L827 1026 L1090 1026 Q1080 950 1075 864.5 Q1070 779 1070 682 L1070 147 Q1070 -418 538 -418 Z M465 1166 L465 1394 L711 1394 L711 1166 L465 1166 Z " />
<glyph glyph-name="Gcommaaccent" unicode="&#x122;" horiz-adv-x="1538" d="M629 -647 L742 -142 L1021 -142 L841 -647 L629 -647 Z M811 -23 Q451 -23 258 173 Q65 369 65 704 Q65 830 96.5 944.5 Q128 1059 192 1158 Q238 1231 303 1290.5 Q368 1350 449 1393 Q530 1436 627.5 1459.5 Q725 1483 837 1483 Q940 1483 1024.5 1468.5 Q1109 1454 1169 1427 Q1231 1399 1258 1382 Q1288 1365 1322 1338 L1220 1160 Q1077 1264 838 1264 Q711 1264 611.5 1217 Q512 1170 452 1091 Q392 1012 361 916.5 Q330 821 330 715 Q330 601 360.5 505.5 Q391 410 452.5 340.5 Q514 271 606.5 232.5 Q699 194 823 194 Q943 194 1072 232 L1072 576 L732 576 L732 793 L1330 793 L1330 88 Q1081 -23 811 -23 Z " />
<glyph glyph-name="gcommaaccent" unicode="&#x123;" horiz-adv-x="1235" d="M920 1736 L808 1239 L530 1239 L710 1736 L920 1736 Z M586 187 Q662 187 711 216.5 Q760 246 788.5 293 Q817 340 828 398.5 Q839 457 839 516 Q839 666 776 758 Q714 851 589 851 Q503 851 442 802 Q382 754 355 680 Q328 606 328 515 Q328 361 391 274 Q454 187 586 187 Z M538 -418 Q337 -418 148 -348 L191 -134 Q341 -212 520 -212 Q664 -212 745 -150.5 Q826 -89 826 35 L826 122 Q737 0 569 0 Q341 0 205 139 Q68 279 68 515 Q68 624 97 718 Q126 812 183 888 Q240 964 334.5 1008 Q429 1052 550 1052 Q646 1052 717 1014 Q788 976 827 916 L827 1026 L1090 1026 Q1080 950 1075 864.5 Q1070 779 1070 682 L1070 147 Q1070 -418 538 -418 Z " />
<glyph glyph-name="Hcircumflex" unicode="&#x124;" horiz-adv-x="1572" d="M341 1615 L598 1985 L850 1985 L1115 1615 L868 1615 L732 1811 L593 1615 L341 1615 Z M150 0 L150 1456 L404 1456 L404 857 L1087 857 L1087 1456 L1341 1456 L1341 0 L1092 0 L1092 637 L409 637 L409 0 L150 0 Z " />
<glyph glyph-name="hcircumflex" unicode="&#x125;" horiz-adv-x="1219" d="M104 0 L104 1457 L352 1457 L352 893 Q390 965 482 1008 Q576 1052 659 1052 Q769 1052 841.5 1016 Q914 980 957 921 Q987 881 1004 840 Q1021 799 1031 748 Q1042 697 1045.5 656.5 Q1049 616 1049 571 L1049 0 L801 0 L801 579 Q801 724 756 787.5 Q711 851 621 851 Q520 851 435 780 Q352 709 352 618 L352 0 L104 0 Z M361 1185 L618 1555 L870 1555 L1135 1185 L888 1185 L752 1381 L613 1185 L361 1185 Z " />
<glyph glyph-name="Hbar" unicode="&#x126;" horiz-adv-x="1572" d="M95 1062 L95 1213 L1460 1213 L1460 1062 L95 1062 Z M190 0 L190 1456 L444 1456 L444 857 L1127 857 L1127 1456 L1381 1456 L1381 0 L1132 0 L1132 637 L449 637 L449 0 L190 0 Z " />
<glyph glyph-name="hbar" unicode="&#x127;" horiz-adv-x="1219" d="M-24 1149 L-24 1306 L600 1306 L600 1149 L-24 1149 Z M104 0 L104 1457 L352 1457 L352 893 Q390 965 482 1008 Q576 1052 659 1052 Q769 1052 841.5 1016 Q914 980 957 921 Q987 881 1004 840 Q1021 799 1031 748 Q1042 697 1045.5 656.5 Q1049 616 1049 571 L1049 0 L801 0 L801 579 Q801 724 756 787.5 Q711 851 621 851 Q520 851 435 780 Q352 709 352 618 L352 0 L104 0 Z " />
<glyph glyph-name="Itilde" unicode="&#x128;" horiz-adv-x="586" d="M392 1646 Q349 1646 291 1673 Q262 1687 234 1700 Q206 1713 180 1726 Q127 1753 104 1753 Q82 1753 61.5 1728 Q41 1703 36 1651 L-124 1651 Q-124 1779 -64 1860 Q-3 1942 94 1942 Q131 1944 175 1928 Q219 1912 259.5 1891.5 Q300 1871 332.5 1853.5 Q365 1836 379 1835 Q382 1835 387 1834.5 Q392 1834 394 1834 Q424 1834 440.5 1856.5 Q457 1879 456 1942 L618 1942 Q618 1794 558 1720.5 Q498 1647 393 1646 L392 1646 Z M120 0 L120 1456 L374 1456 L374 0 L120 0 Z " />
<glyph glyph-name="itilde" unicode="&#x129;" horiz-adv-x="485" d="M332 1215 Q289 1215 231 1242 Q202 1256 174 1269 Q146 1282 120 1295 Q67 1322 44 1322 Q22 1322 1.5 1297 Q-19 1272 -24 1220 L-184 1220 Q-184 1348 -124 1429 Q-63 1511 34 1511 Q71 1513 115 1497 Q159 1481 199.5 1460.5 Q240 1440 272.5 1422.5 Q305 1405 319 1404 Q322 1404 327 1403.5 Q332 1403 334 1403 Q364 1403 380.5 1425.5 Q397 1448 396 1511 L558 1511 Q558 1363 498 1289.5 Q438 1216 333 1215 L332 1215 Z M63 0 L63 1026 L312 1026 L312 0 L63 0 Z " />
<glyph glyph-name="Imacron" unicode="&#x12a;" horiz-adv-x="586" d="M-25 1646 L-25 1803 L599 1803 L599 1646 L-25 1646 Z M120 0 L120 1456 L374 1456 L374 0 L120 0 Z " />
<glyph glyph-name="imacron" unicode="&#x12b;" horiz-adv-x="485" d="M-84 1215 L-84 1372 L540 1372 L540 1215 L-84 1215 Z M63 0 L63 1026 L312 1026 L312 0 L63 0 Z " />
<glyph glyph-name="Ibreve" unicode="&#x12c;" horiz-adv-x="586" d="M248 1646 Q-54 1646 -74 1942 L100 1942 Q106 1866 151 1841 Q174 1829 196 1824.5 Q218 1820 248 1820 Q279 1820 304.5 1825.5 Q330 1831 349 1844.5 Q368 1858 379.5 1882 Q391 1906 394 1942 L567 1942 Q556 1788 475.5 1717 Q395 1646 248 1646 Z M120 0 L120 1456 L374 1456 L374 0 L120 0 Z " />
<glyph glyph-name="ibreve" unicode="&#x12d;" horiz-adv-x="485" d="M63 0 L63 1026 L312 1026 L312 0 L63 0 Z M189 1215 Q-113 1215 -133 1511 L41 1511 Q47 1435 92 1410 Q115 1398 137 1393.5 Q159 1389 189 1389 Q220 1389 245.5 1394.5 Q271 1400 290 1413.5 Q309 1427 320.5 1451 Q332 1475 335 1511 L508 1511 Q497 1357 416.5 1286 Q336 1215 189 1215 Z " />
<glyph glyph-name="Iogonek" unicode="&#x12e;" horiz-adv-x="586" d="M193 -356 Q93 -356 37 -324.5 Q-19 -293 -19 -227 Q-19 -200 -11 -175.5 Q-3 -151 8 -132 Q19 -113 39 -93.5 Q59 -74 74 -62 Q82 -56 93 -49 Q104 -42 115.5 -35 Q127 -28 137.5 -22 Q148 -16 155 -13 L193 6 L225 21 L360 23 Q325 3 297.5 -20 Q270 -43 251 -67 Q232 -91 221.5 -114.5 Q211 -138 211 -157 Q211 -204 274 -204 Q327 -204 447 -167 L447 -315 Q310 -356 193 -356 Z M120 0 L120 1456 L374 1456 L374 0 L120 0 Z " />
<glyph glyph-name="iogonek" unicode="&#x12f;" horiz-adv-x="485" d="M159 -356 Q59 -356 3 -324.5 Q-53 -293 -53 -227 Q-53 -200 -45 -175.5 Q-37 -151 -26 -132 Q-15 -113 5 -93.5 Q25 -74 40 -62 Q48 -56 59 -49 Q70 -42 81.5 -35 Q93 -28 103.5 -22 Q114 -16 121 -13 L159 6 L191 21 L326 23 Q291 3 263.5 -20 Q236 -43 217 -67 Q198 -91 187.5 -114.5 Q177 -138 177 -157 Q177 -204 240 -204 Q293 -204 413 -167 L413 -315 Q276 -356 159 -356 Z M63 0 L63 1026 L312 1026 L312 0 L63 0 Z M73 1166 L73 1394 L319 1394 L319 1166 L73 1166 Z " />
<glyph glyph-name="Idot" unicode="&#x130;" horiz-adv-x="586" d="M132 1596 L132 1824 L378 1824 L378 1596 L132 1596 Z M120 0 L120 1456 L374 1456 L374 0 L120 0 Z " />
<glyph glyph-name="dotlessi" unicode="&#x131;" horiz-adv-x="485" d="M63 0 L63 1026 L312 1026 L312 0 L63 0 Z " />
<glyph glyph-name="IJ" unicode="&#x132;" horiz-adv-x="1605" d="M911 401 Q915 360 936.5 322.5 Q958 285 991 256.5 Q1024 228 1065.5 211 Q1107 194 1150 194 Q1218 194 1268.5 224 Q1319 254 1352 307.5 Q1385 361 1401 433 Q1417 505 1417 589 L1417 1456 L1671 1456 L1671 598 Q1671 463 1647.5 349.5 Q1624 236 1565 153 Q1506 70 1405.5 23.5 Q1305 -23 1151 -23 Q1059 -23 978 4.5 Q897 32 834.5 81.5 Q772 131 730.5 200 Q689 269 675 353 L911 401 Z M120 0 L120 1456 L374 1456 L374 0 L120 0 Z " />
<glyph glyph-name="ij" unicode="&#x133;" horiz-adv-x="1124" d="M708 1228 L708 1456 L954 1456 L954 1228 L708 1228 Z M584 -362 Q529 -362 480 -354 Q431 -346 399 -335 L427 -165 Q487 -184 570 -184 Q617 -184 643.5 -168 Q670 -152 683 -124.5 Q696 -97 699 -60 Q702 -23 702 20 L702 1026 L955 1026 L955 -9 Q955 -104 935.5 -171 Q916 -238 871.5 -280.5 Q827 -323 756.5 -342.5 Q686 -362 584 -362 Z M427 -165 L424 -164 L427 -164 L427 -165 Z M102 1238 L102 1456 L342 1456 L342 1238 L102 1238 Z M103 0 L103 1026 L342 1026 L342 0 L103 0 Z " />
<glyph glyph-name="Jcircumflex" unicode="&#x134;" horiz-adv-x="1019" d="M275 1615 L532 1985 L784 1985 L1049 1615 L802 1615 L666 1811 L527 1615 L275 1615 Z M325 401 Q329 360 350.5 322.5 Q372 285 405 256.5 Q438 228 479.5 211 Q521 194 564 194 Q632 194 682.5 224 Q733 254 766 307.5 Q799 361 815 433 Q831 505 831 589 L831 1456 L1085 1456 L1085 598 Q1085 463 1061.5 349.5 Q1038 236 979 153 Q920 70 819.5 23.5 Q719 -23 565 -23 Q473 -23 392 4.5 Q311 32 248.5 81.5 Q186 131 144.5 200 Q103 269 89 353 L325 401 Z " />
<glyph glyph-name="jcircumflex" unicode="&#x135;" horiz-adv-x="600" d="M100 -362 Q73 -362 47 -360 Q21 -358 -1 -355 Q-23 -352 -40 -348.5 Q-57 -345 -66 -342 L-85 -335 L-57 -165 Q3 -184 86 -184 Q122 -184 144 -177.5 Q166 -171 184 -150 Q202 -129 210 -88 Q218 -47 218 20 L218 1026 L471 1026 L471 -9 Q471 -99 454.5 -161 Q438 -223 397 -270 Q357 -318 284 -340 Q211 -362 100 -362 Z M-57 -165 L-60 -164 L-57 -164 L-57 -165 Z M-91 1185 L166 1555 L418 1555 L683 1185 L436 1185 L300 1381 L161 1185 L-91 1185 Z " />
<glyph glyph-name="Kcommaaccent" unicode="&#x136;" horiz-adv-x="1352" d="M525 -647 L638 -142 L917 -142 L737 -647 L525 -647 Z M150 0 L150 1456 L404 1456 L404 820 L965 1456 L1282 1456 L651 753 L1331 0 L1001 0 L407 651 L407 0 L150 0 Z " />
<glyph glyph-name="kcommaaccent" unicode="&#x137;" horiz-adv-x="1076" d="M344 -647 L457 -142 L736 -142 L556 -647 L344 -647 Z M100 0 L100 1457 L348 1457 L348 607 L719 1026 L1061 1026 L572 530 L1093 0 L765 0 L348 444 L348 0 L100 0 Z " />
<glyph glyph-name="kgreenlandic" unicode="&#x138;" horiz-adv-x="1082" d="M145 0 L145 1026 L392 1026 L392 632 L747 1026 L1089 1026 L573 505 L736 355 L809 287 L832 265 L863 237 L941 165 L1123 0 L790 0 L392 383 L392 0 L145 0 Z " />
<glyph glyph-name="Lacute" unicode="&#x139;" horiz-adv-x="1173" d="M233 1596 L497 1886 L815 1886 L461 1596 L233 1596 Z M150 0 L150 1456 L404 1456 L404 218 L1078 218 L1078 0 L150 0 Z " />
<glyph glyph-name="lacute" unicode="&#x13a;" horiz-adv-x="526" d="M102 0 L102 1457 L347 1457 L347 0 L102 0 Z M124 1596 L388 1886 L706 1886 L352 1596 L124 1596 Z " />
<glyph glyph-name="Lcommaaccent" unicode="&#x13b;" horiz-adv-x="1173" d="M398 -647 L511 -142 L790 -142 L610 -647 L398 -647 Z M150 0 L150 1456 L404 1456 L404 218 L1078 218 L1078 0 L150 0 Z " />
<glyph glyph-name="lcommaaccent" unicode="&#x13c;" horiz-adv-x="526" d="M27 -647 L140 -142 L419 -142 L239 -647 L27 -647 Z M102 0 L102 1457 L347 1457 L347 0 L102 0 Z " />
<glyph glyph-name="Lcaron" unicode="&#x13d;" horiz-adv-x="1173" d="M612 951 L725 1456 L1005 1456 L824 951 L612 951 Z M150 0 L150 1456 L404 1456 L404 218 L1078 218 L1078 0 L150 0 Z " />
<glyph glyph-name="lcaron" unicode="&#x13e;" horiz-adv-x="526" d="M102 0 L102 1457 L347 1457 L347 0 L102 0 Z M473 951 L586 1456 L866 1456 L685 951 L473 951 Z " />
<glyph glyph-name="Ldot" unicode="&#x13f;" horiz-adv-x="1173" d="M599 643 L599 925 L903 925 L903 643 L599 643 Z M150 0 L150 1456 L404 1456 L404 218 L1078 218 L1078 0 L150 0 Z " />
<glyph glyph-name="ldot" unicode="&#x140;" horiz-adv-x="526" d="M460 668 L460 950 L764 950 L764 668 L460 668 Z M102 0 L102 1457 L347 1457 L347 0 L102 0 Z " />
<glyph glyph-name="Lslash" unicode="&#x141;" horiz-adv-x="1166" d="M-5 421 L-5 646 L572 1096 L572 871 L-5 421 Z M150 0 L150 1456 L404 1456 L404 218 L1078 218 L1078 0 L150 0 Z " />
<glyph glyph-name="lslash" unicode="&#x142;" horiz-adv-x="503" d="M78 0 L78 727 L-33 627 L-33 845 L76 945 L76 1458 L326 1458 L326 1130 L428 1226 L428 1003 L327 904 L327 0 L78 0 Z " />
<glyph glyph-name="Nacute" unicode="&#x143;" horiz-adv-x="1630" d="M687 1596 L951 1886 L1269 1886 L915 1596 L687 1596 Z M150 0 L150 1456 L419 1456 L1158 384 L1158 1456 L1400 1456 L1400 0 L1130 0 Q795 484 608.5 752.5 Q422 1021 385 1074 L385 0 L150 0 Z " />
<glyph glyph-name="nacute" unicode="&#x144;" horiz-adv-x="1224" d="M118 0 L118 635 Q118 690 116.5 741 Q115 792 113 841 Q111 890 108 925 Q105 960 103 982 L98 1026 L361 1026 L361 889 Q414 970 502 1010 Q590 1052 674 1052 Q764 1052 830.5 1029 Q897 1006 948 952 Q1000 900 1027 808.5 Q1054 717 1054 585 L1054 0 L806 0 L806 602 Q806 739 763 794 Q721 851 623 851 Q588 851 544 835.5 Q500 820 460 790 Q420 760 393 715.5 Q366 671 366 614 L366 0 L118 0 Z M517 1166 L781 1456 L1099 1456 L745 1166 L517 1166 Z " />
<glyph glyph-name="Ncommaaccent" unicode="&#x145;" horiz-adv-x="1630" d="M610 -647 L723 -142 L1002 -142 L822 -647 L610 -647 Z M150 0 L150 1456 L419 1456 L1158 384 L1158 1456 L1400 1456 L1400 0 L1130 0 Q795 484 608.5 752.5 Q422 1021 385 1074 L385 0 L150 0 Z " />
<glyph glyph-name="ncommaaccent" unicode="&#x146;" horiz-adv-x="1224" d="M385 -647 L498 -142 L777 -142 L597 -647 L385 -647 Z M118 0 L118 635 Q118 690 116.5 741 Q115 792 113 841 Q111 890 108 925 Q105 960 103 982 L98 1026 L361 1026 L361 889 Q414 970 502 1010 Q590 1052 674 1052 Q764 1052 830.5 1029 Q897 1006 948 952 Q1000 900 1027 808.5 Q1054 717 1054 585 L1054 0 L806 0 L806 602 Q806 739 763 794 Q721 851 623 851 Q588 851 544 835.5 Q500 820 460 790 Q420 760 393 715.5 Q366 671 366 614 L366 0 L118 0 Z " />
<glyph glyph-name="Ncaron" unicode="&#x147;" horiz-adv-x="1630" d="M680 1615 L399 1982 L653 1982 L772 1837 L895 1982 L1161 1982 L882 1615 L680 1615 Z M150 0 L150 1456 L419 1456 L1158 384 L1158 1456 L1400 1456 L1400 0 L1130 0 Q795 484 608.5 752.5 Q422 1021 385 1074 L385 0 L150 0 Z " />
<glyph glyph-name="ncaron" unicode="&#x148;" horiz-adv-x="1224" d="M118 0 L118 635 Q118 690 116.5 741 Q115 792 113 841 Q111 890 108 925 Q105 960 103 982 L98 1026 L361 1026 L361 889 Q414 970 502 1010 Q590 1052 674 1052 Q764 1052 830.5 1029 Q897 1006 948 952 Q1000 900 1027 808.5 Q1054 717 1054 585 L1054 0 L806 0 L806 602 Q806 739 763 794 Q721 851 623 851 Q588 851 544 835.5 Q500 820 460 790 Q420 760 393 715.5 Q366 671 366 614 L366 0 L118 0 Z M509 1185 L228 1552 L482 1552 L601 1407 L724 1552 L990 1552 L711 1185 L509 1185 Z " />
<glyph glyph-name="napostrophe" unicode="&#x149;" horiz-adv-x="1221" d="M118 0 L118 635 Q118 690 116.5 741 Q115 792 113 841 Q111 890 108 925 Q105 960 103 982 L98 1026 L361 1026 L361 889 Q414 970 502 1010 Q590 1052 674 1052 Q764 1052 830.5 1029 Q897 1006 948 952 Q1000 900 1027 808.5 Q1054 717 1054 585 L1054 0 L806 0 L806 602 Q806 739 763 794 Q721 851 623 851 Q588 851 544 835.5 Q500 820 460 790 Q420 760 393 715.5 Q366 671 366 614 L366 0 L118 0 Z M24 1247 L122 1817 L402 1817 L206 1247 L24 1247 Z " />
<glyph glyph-name="Eng" unicode="&#x14a;" horiz-adv-x="1622" d="M1428 1456 L1428 1 Q1428 -474 882 -474 L882 -279 Q937 -279 976.5 -275 Q1016 -271 1059 -257 Q1120 -238 1152.5 -187.5 Q1185 -137 1188 -41 L1188 98 L556 947 L425 1138 L425 0 L193 0 L193 1456 L460 1456 L1061 637 L1188 450 L1188 1456 L1428 1456 Z " />
<glyph glyph-name="eng" unicode="&#x14b;" horiz-adv-x="1191" d="M524 -197 Q584 -197 632.5 -185.5 Q681 -174 724 -147 Q767 -121 791.5 -70.5 Q816 -20 816 50 L816 602 Q816 741 779 796 Q741 852 646 852 Q611 852 570 836 Q529 820 491 791 Q454 763 429 716 Q404 669 404 614 L404 0 L156 0 L156 635 Q156 690 154.5 741 Q153 792 151 841 Q149 890 146 925 Q143 960 141 982 L136 1026 L399 1026 L399 878 Q439 960 526 1006 Q614 1052 697 1052 Q782 1052 850 1029 Q918 1006 965.5 952 Q1013 898 1038.5 808.5 Q1064 719 1064 585 L1064 110 Q1064 -19 1024.5 -114.5 Q985 -210 913.5 -272.5 Q842 -335 742.5 -365.5 Q643 -396 524 -396 L524 -197 Z " />
<glyph glyph-name="Omacron" unicode="&#x14c;" horiz-adv-x="1671" d="M494 1576 L494 1733 L1118 1733 L1118 1576 L494 1576 Z M800 -23 Q458 -23 262 182 Q66 387 66 735 Q66 1072 263 1278 Q461 1483 803 1483 Q1134 1483 1329 1278 Q1525 1075 1525 735 Q1525 387 1332 182 Q1139 -23 800 -23 Z M794 194 Q905 194 990 229.5 Q1075 265 1132.5 334 Q1190 403 1219.5 504 Q1249 605 1249 735 Q1249 986 1133 1126 Q1017 1266 798 1266 Q577 1266 458 1126 Q340 987 340 735 Q340 474 455 334 Q570 194 794 194 Z " />
<glyph glyph-name="omacron" unicode="&#x14d;" horiz-adv-x="1286" d="M608 -23 Q473 -23 369 20 Q265 63 199 138 Q135 213 101.5 308.5 Q68 404 68 513 Q68 625 101.5 720.5 Q135 816 201 891 Q267 966 371 1009 Q475 1052 607 1052 Q742 1052 845.5 1009.5 Q949 967 1012 892 Q1075 817 1106.5 721.5 Q1138 626 1138 511 Q1138 403 1105 309 Q1072 215 1008 140 Q945 65 841.5 21 Q738 -23 608 -23 Z M603 177 Q678 177 731 205 Q784 233 817 280 Q850 327 865 388.5 Q880 450 880 516 Q880 663 810 757 Q741 851 604 851 Q533 851 480.5 824 Q428 797 393 751.5 Q358 706 341.5 645.5 Q325 585 326 516 Q326 424 352 349 Q365 312 388.5 280.5 Q412 249 443.5 226 Q475 203 515 190 Q555 177 603 177 Z M301 1146 L301 1303 L925 1303 L925 1146 L301 1146 Z " />
<glyph glyph-name="Obreve" unicode="&#x14e;" horiz-adv-x="1671" d="M803 1590 Q501 1590 481 1886 L655 1886 Q661 1810 706 1785 Q729 1773 751 1768.5 Q773 1764 803 1764 Q834 1764 859.5 1769.5 Q885 1775 904 1788.5 Q923 1802 934.5 1826 Q946 1850 949 1886 L1122 1886 Q1111 1732 1030.5 1661 Q950 1590 803 1590 Z M800 -23 Q458 -23 262 182 Q66 387 66 735 Q66 1072 263 1278 Q461 1483 803 1483 Q1134 1483 1329 1278 Q1525 1075 1525 735 Q1525 387 1332 182 Q1139 -23 800 -23 Z M794 194 Q905 194 990 229.5 Q1075 265 1132.5 334 Q1190 403 1219.5 504 Q1249 605 1249 735 Q1249 986 1133 1126 Q1017 1266 798 1266 Q577 1266 458 1126 Q340 987 340 735 Q340 474 455 334 Q570 194 794 194 Z " />
<glyph glyph-name="obreve" unicode="&#x14f;" horiz-adv-x="1286" d="M608 -23 Q473 -23 369 20 Q265 63 199 138 Q135 213 101.5 308.5 Q68 404 68 513 Q68 625 101.5 720.5 Q135 816 201 891 Q267 966 371 1009 Q475 1052 607 1052 Q742 1052 845.5 1009.5 Q949 967 1012 892 Q1075 817 1106.5 721.5 Q1138 626 1138 511 Q1138 403 1105 309 Q1072 215 1008 140 Q945 65 841.5 21 Q738 -23 608 -23 Z M603 177 Q678 177 731 205 Q784 233 817 280 Q850 327 865 388.5 Q880 450 880 516 Q880 663 810 757 Q741 851 604 851 Q533 851 480.5 824 Q428 797 393 751.5 Q358 706 341.5 645.5 Q325 585 326 516 Q326 424 352 349 Q365 312 388.5 280.5 Q412 249 443.5 226 Q475 203 515 190 Q555 177 603 177 Z M611 1160 Q309 1160 289 1456 L463 1456 Q469 1380 514 1355 Q537 1343 559 1338.5 Q581 1334 611 1334 Q642 1334 667.5 1339.5 Q693 1345 712 1358.5 Q731 1372 742.5 1396 Q754 1420 757 1456 L930 1456 Q919 1302 838.5 1231 Q758 1160 611 1160 Z " />
<glyph glyph-name="Ohungarumlaut" unicode="&#x150;" horiz-adv-x="1671" d="M900 1582 L1109 1926 L1405 1926 L1087 1582 L900 1582 Z M562 1582 L715 1926 L979 1926 L741 1582 L562 1582 Z M800 -23 Q458 -23 262 182 Q66 387 66 735 Q66 1072 263 1278 Q461 1483 803 1483 Q1134 1483 1329 1278 Q1525 1075 1525 735 Q1525 387 1332 182 Q1139 -23 800 -23 Z M794 194 Q905 194 990 229.5 Q1075 265 1132.5 334 Q1190 403 1219.5 504 Q1249 605 1249 735 Q1249 986 1133 1126 Q1017 1266 798 1266 Q577 1266 458 1126 Q340 987 340 735 Q340 474 455 334 Q570 194 794 194 Z " />
<glyph glyph-name="ohungarumlaut" unicode="&#x151;" horiz-adv-x="1286" d="M608 -23 Q473 -23 369 20 Q265 63 199 138 Q135 213 101.5 308.5 Q68 404 68 513 Q68 625 101.5 720.5 Q135 816 201 891 Q267 966 371 1009 Q475 1052 607 1052 Q742 1052 845.5 1009.5 Q949 967 1012 892 Q1075 817 1106.5 721.5 Q1138 626 1138 511 Q1138 403 1105 309 Q1072 215 1008 140 Q945 65 841.5 21 Q738 -23 608 -23 Z M603 177 Q678 177 731 205 Q784 233 817 280 Q850 327 865 388.5 Q880 450 880 516 Q880 663 810 757 Q741 851 604 851 Q533 851 480.5 824 Q428 797 393 751.5 Q358 706 341.5 645.5 Q325 585 326 516 Q326 424 352 349 Q365 312 388.5 280.5 Q412 249 443.5 226 Q475 203 515 190 Q555 177 603 177 Z M708 1152 L917 1496 L1213 1496 L895 1152 L708 1152 Z M370 1152 L523 1496 L787 1496 L549 1152 L370 1152 Z " />
<glyph glyph-name="OE" unicode="&#x152;" horiz-adv-x="2000" d="M785 174 Q851 174 898 184.5 Q945 195 976 208.5 Q1007 222 1022.5 234.5 Q1038 247 1042 251 L1042 1191 Q945 1268 800 1268 Q771 1268 740 1265 Q677 1258 622.5 1237.5 Q568 1217 514 1175 Q437 1117 389 1006 Q341 895 340 725 Q340 460 459 317 Q578 176 782 174 L785 174 Z M1042 1456 L1878 1456 L1878 1239 L1295 1239 L1295 854 L1841 854 L1841 636 L1298 636 L1298 217 L1906 217 L1906 0 L1042 0 L1042 62 Q1039 59 1028 51.5 Q1017 44 992 31 Q976 22 954 13 Q932 4 905 -4 Q878 -12 846 -17.5 Q814 -23 778 -24 L750 -24 Q607 -24 486.5 21.5 Q366 67 270 158 Q174 249 120 395.5 Q66 542 66 731 Q66 903 118 1043 Q170 1183 261 1277 Q352 1371 468.5 1423.5 Q585 1476 719 1482 Q725 1482 736.5 1482.5 Q748 1483 753 1483 Q810 1483 859.5 1475 Q909 1467 939 1456 Q969 1446 994 1432 Q1019 1418 1028 1410.5 Q1037 1403 1042 1398 L1042 1456 Z " />
<glyph glyph-name="oe" unicode="&#x153;" horiz-adv-x="2003" d="M1578 641 L1578 662 Q1578 754 1510 805 Q1443 857 1349 857 Q1300 857 1258.5 843.5 Q1217 830 1185.5 803 Q1154 776 1134 735.5 Q1114 695 1108 641 L1578 641 Z M602 177 Q667 177 714.5 204 Q762 231 792.5 277 Q823 323 837.5 383.5 Q852 444 852 511 Q852 665 789 758 Q726 851 595 851 Q465 851 392 755 Q320 660 320 511 Q320 365 391 270 Q461 177 602 177 Z M600 -22 Q352 -22 207 126 Q61 275 61 511 Q61 748 202 900 Q343 1052 592 1052 Q727 1052 824.5 1003 Q922 954 980 873 Q1011 918 1048 952.5 Q1085 987 1130.5 1009.5 Q1176 1032 1231 1043.5 Q1286 1055 1354 1055 Q1572 1055 1695 904 Q1818 752 1818 499 L1818 433 L1106 433 L1108 410 Q1128 177 1418 177 Q1466 177 1516.5 188.5 Q1567 200 1604 216 Q1642 232 1672.5 248.5 Q1703 265 1719 276 L1735 288 L1803 107 Q1799 105 1794.5 101.5 Q1790 98 1784 93 Q1774 86 1730 62 Q1690 40 1644 23 Q1621 14 1592 6 Q1563 -2 1529.5 -8 Q1496 -14 1460.5 -18 Q1425 -22 1389 -22 Q1270 -22 1153 28 Q1038 79 982 159 Q933 80 824 29 Q716 -22 600 -22 Z " />
<glyph glyph-name="Racute" unicode="&#x154;" horiz-adv-x="1388" d="M511 1596 L775 1886 L1093 1886 L739 1596 L511 1596 Z M401 831 L644 831 Q916 831 916 1042 Q916 1156 859 1197 Q801 1238 671 1238 L401 1238 L401 831 Z M150 0 L150 1456 L675 1456 Q795 1456 882.5 1438 Q970 1420 1041 1376 Q1184 1290 1184 1054 Q1184 930 1111 836 Q1038 742 891 709 Q1023 635 1084 481 L1281 0 L1006 0 L839 433 Q798 540 750 578 Q701 616 605 616 L404 616 L404 0 L150 0 Z " />
<glyph glyph-name="racute" unicode="&#x155;" horiz-adv-x="780" d="M122 0 L122 766 Q122 796 120.5 827.5 Q119 859 117 891 Q115 923 112 948.5 Q109 974 107 991 L102 1026 L366 1026 L366 891 Q427 972 487.5 1012 Q548 1052 624 1052 Q669 1052 726 1037 L726 820 Q660 842 602 842 Q498 842 434 775 Q369 707 369 581 L369 0 L122 0 Z M288 1166 L552 1456 L870 1456 L516 1166 L288 1166 Z " />
<glyph glyph-name="Rcommaaccent" unicode="&#x156;" horiz-adv-x="1388" d="M489 -647 L602 -142 L881 -142 L701 -647 L489 -647 Z M401 831 L644 831 Q916 831 916 1042 Q916 1156 859 1197 Q801 1238 671 1238 L401 1238 L401 831 Z M150 0 L150 1456 L675 1456 Q795 1456 882.5 1438 Q970 1420 1041 1376 Q1184 1290 1184 1054 Q1184 930 1111 836 Q1038 742 891 709 Q1023 635 1084 481 L1281 0 L1006 0 L839 433 Q798 540 750 578 Q701 616 605 616 L404 616 L404 0 L150 0 Z " />
<glyph glyph-name="rcommaaccent" unicode="&#x157;" horiz-adv-x="780" d="M103 -647 L216 -142 L495 -142 L315 -647 L103 -647 Z M122 0 L122 766 Q122 796 120.5 827.5 Q119 859 117 891 Q115 923 112 948.5 Q109 974 107 991 L102 1026 L366 1026 L366 891 Q427 972 487.5 1012 Q548 1052 624 1052 Q669 1052 726 1037 L726 820 Q660 842 602 842 Q498 842 434 775 Q369 707 369 581 L369 0 L122 0 Z " />
<glyph glyph-name="Rcaron" unicode="&#x158;" horiz-adv-x="1388" d="M503 1615 L222 1982 L476 1982 L595 1837 L718 1982 L984 1982 L705 1615 L503 1615 Z M401 831 L644 831 Q916 831 916 1042 Q916 1156 859 1197 Q801 1238 671 1238 L401 1238 L401 831 Z M150 0 L150 1456 L675 1456 Q795 1456 882.5 1438 Q970 1420 1041 1376 Q1184 1290 1184 1054 Q1184 930 1111 836 Q1038 742 891 709 Q1023 635 1084 481 L1281 0 L1006 0 L839 433 Q798 540 750 578 Q701 616 605 616 L404 616 L404 0 L150 0 Z " />
<glyph glyph-name="rcaron" unicode="&#x159;" horiz-adv-x="780" d="M122 0 L122 766 Q122 796 120.5 827.5 Q119 859 117 891 Q115 923 112 948.5 Q109 974 107 991 L102 1026 L366 1026 L366 891 Q427 972 487.5 1012 Q548 1052 624 1052 Q669 1052 726 1037 L726 820 Q660 842 602 842 Q498 842 434 775 Q369 707 369 581 L369 0 L122 0 Z M281 1185 L0 1552 L254 1552 L373 1407 L496 1552 L762 1552 L483 1185 L281 1185 Z " />
<glyph glyph-name="Sacute" unicode="&#x15a;" horiz-adv-x="1256" d="M458 1596 L722 1886 L1040 1886 L686 1596 L458 1596 Z M583 -23 Q435 -23 294 21 Q155 64 75 143 L183 325 Q253 270 367 232 Q483 194 567 194 Q703 194 767 243.5 Q831 293 831 396 Q831 416 830 431.5 Q829 447 825 460.5 Q821 474 814.5 486 Q808 498 798 511 Q777 538 735.5 560.5 Q694 583 624 608 Q594 618 522 641 Q487 652 461 661 Q435 670 418 676 Q239 743 157 836 Q76 929 76 1087 Q76 1215 143 1306 Q212 1397 323 1440 Q434 1483 579 1483 Q773 1483 882 1445 Q988 1408 1086 1315 L956 1147 Q833 1264 615 1264 Q497 1264 421 1223 Q347 1182 347 1098 Q347 1059 354 1030.5 Q361 1002 383.5 978 Q406 954 448 932 Q490 910 560 885 Q573 880 598.5 871.5 Q624 863 664 850 Q704 837 733.5 827.5 Q763 818 783 810 Q873 775 934.5 734 Q996 693 1031 647 Q1101 556 1101 391 Q1101 282 1058.5 200 Q1016 118 941 70 Q866 22 777 -0.5 Q688 -23 583 -23 Z " />
<glyph glyph-name="sacute" unicode="&#x15b;" horiz-adv-x="988" d="M494 -23 Q360 -23 246 15 Q189 34 144.5 57 Q100 80 66 106 L128 284 Q191 234 287 203 Q381 172 472 172 Q556 172 598 200 Q640 228 640 291 L640 309 Q640 341 615 363 Q602 374 573.5 387.5 Q545 401 500 415 L354 462 Q326 471 303.5 479 Q281 487 261 495.5 Q241 504 222.5 513.5 Q204 523 185 535 Q130 569 105 619.5 Q80 670 77 753 Q77 831 107.5 890 Q138 949 192 983 Q299 1050 457 1050 Q556 1050 653 1025 Q750 1000 825 951 L761 781 Q701 812 620 835 Q542 857 475 857 Q390 857 352 836 Q314 815 314 767 Q315 743 320.5 727.5 Q326 712 344 698.5 Q362 685 398.5 670 Q435 655 498 633 L631 588 Q710 561 759 529 Q808 497 837.5 438.5 Q867 380 867 290 Q867 201 833 141 Q799 81 745 44.5 Q691 8 624.5 -7.5 Q558 -23 494 -23 Z M350 1166 L614 1456 L932 1456 L578 1166 L350 1166 Z " />
<glyph glyph-name="Scircumflex" unicode="&#x15c;" horiz-adv-x="1256" d="M192 1646 L449 2016 L701 2016 L966 1646 L719 1646 L583 1842 L444 1646 L192 1646 Z M583 -23 Q435 -23 294 21 Q155 64 75 143 L183 325 Q253 270 367 232 Q483 194 567 194 Q703 194 767 243.5 Q831 293 831 396 Q831 416 830 431.5 Q829 447 825 460.5 Q821 474 814.5 486 Q808 498 798 511 Q777 538 735.5 560.5 Q694 583 624 608 Q594 618 522 641 Q487 652 461 661 Q435 670 418 676 Q239 743 157 836 Q76 929 76 1087 Q76 1215 143 1306 Q212 1397 323 1440 Q434 1483 579 1483 Q773 1483 882 1445 Q988 1408 1086 1315 L956 1147 Q833 1264 615 1264 Q497 1264 421 1223 Q347 1182 347 1098 Q347 1059 354 1030.5 Q361 1002 383.5 978 Q406 954 448 932 Q490 910 560 885 Q573 880 598.5 871.5 Q624 863 664 850 Q704 837 733.5 827.5 Q763 818 783 810 Q873 775 934.5 734 Q996 693 1031 647 Q1101 556 1101 391 Q1101 282 1058.5 200 Q1016 118 941 70 Q866 22 777 -0.5 Q688 -23 583 -23 Z " />
<glyph glyph-name="scircumflex" unicode="&#x15d;" horiz-adv-x="988" d="M494 -23 Q360 -23 246 15 Q189 34 144.5 57 Q100 80 66 106 L128 284 Q191 234 287 203 Q381 172 472 172 Q556 172 598 200 Q640 228 640 291 L640 309 Q640 341 615 363 Q602 374 573.5 387.5 Q545 401 500 415 L354 462 Q326 471 303.5 479 Q281 487 261 495.5 Q241 504 222.5 513.5 Q204 523 185 535 Q130 569 105 619.5 Q80 670 77 753 Q77 831 107.5 890 Q138 949 192 983 Q299 1050 457 1050 Q556 1050 653 1025 Q750 1000 825 951 L761 781 Q701 812 620 835 Q542 857 475 857 Q390 857 352 836 Q314 815 314 767 Q315 743 320.5 727.5 Q326 712 344 698.5 Q362 685 398.5 670 Q435 655 498 633 L631 588 Q710 561 759 529 Q808 497 837.5 438.5 Q867 380 867 290 Q867 201 833 141 Q799 81 745 44.5 Q691 8 624.5 -7.5 Q558 -23 494 -23 Z M70 1215 L327 1585 L579 1585 L844 1215 L597 1215 L461 1411 L322 1215 L70 1215 Z " />
<glyph glyph-name="Scedilla" unicode="&#x15e;" horiz-adv-x="1256" d="M407 -294 Q423 -301 444.5 -308 Q466 -315 489 -320 Q512 -325 536 -328.5 Q560 -332 581 -332 Q682 -332 682 -259 Q682 -163 529 -140 L500 -136 L531 39 L655 39 L638 -75 Q745 -82 803 -143 Q860 -203 860 -283 Q860 -337 840.5 -375 Q821 -413 788 -437.5 Q755 -462 711.5 -473.5 Q668 -485 620 -485 Q500 -485 396 -426 L407 -294 Z M583 -23 Q435 -23 294 21 Q155 64 75 143 L183 325 Q253 270 367 232 Q483 194 567 194 Q703 194 767 243.5 Q831 293 831 396 Q831 416 830 431.5 Q829 447 825 460.5 Q821 474 814.5 486 Q808 498 798 511 Q777 538 735.5 560.5 Q694 583 624 608 Q594 618 522 641 Q487 652 461 661 Q435 670 418 676 Q239 743 157 836 Q76 929 76 1087 Q76 1215 143 1306 Q212 1397 323 1440 Q434 1483 579 1483 Q773 1483 882 1445 Q988 1408 1086 1315 L956 1147 Q833 1264 615 1264 Q497 1264 421 1223 Q347 1182 347 1098 Q347 1059 354 1030.5 Q361 1002 383.5 978 Q406 954 448 932 Q490 910 560 885 Q573 880 598.5 871.5 Q624 863 664 850 Q704 837 733.5 827.5 Q763 818 783 810 Q873 775 934.5 734 Q996 693 1031 647 Q1101 556 1101 391 Q1101 282 1058.5 200 Q1016 118 941 70 Q866 22 777 -0.5 Q688 -23 583 -23 Z " />
<glyph glyph-name="scedilla" unicode="&#x15f;" horiz-adv-x="988" d="M494 -23 Q360 -23 246 15 Q189 34 144.5 57 Q100 80 66 106 L128 284 Q191 234 287 203 Q381 172 472 172 Q556 172 598 200 Q640 228 640 291 L640 309 Q640 341 615 363 Q602 374 573.5 387.5 Q545 401 500 415 L354 462 Q326 471 303.5 479 Q281 487 261 495.5 Q241 504 222.5 513.5 Q204 523 185 535 Q130 569 105 619.5 Q80 670 77 753 Q77 831 107.5 890 Q138 949 192 983 Q299 1050 457 1050 Q556 1050 653 1025 Q750 1000 825 951 L761 781 Q701 812 620 835 Q542 857 475 857 Q390 857 352 836 Q314 815 314 767 Q315 743 320.5 727.5 Q326 712 344 698.5 Q362 685 398.5 670 Q435 655 498 633 L631 588 Q710 561 759 529 Q808 497 837.5 438.5 Q867 380 867 290 Q867 201 833 141 Q799 81 745 44.5 Q691 8 624.5 -7.5 Q558 -23 494 -23 Z M295 -294 Q311 -301 332.5 -308 Q354 -315 377 -320 Q400 -325 424 -328.5 Q448 -332 469 -332 Q570 -332 570 -259 Q570 -163 417 -140 L388 -136 L419 39 L543 39 L526 -75 Q633 -82 691 -143 Q748 -203 748 -283 Q748 -337 728.5 -375 Q709 -413 676 -437.5 Q643 -462 599.5 -473.5 Q556 -485 508 -485 Q388 -485 284 -426 L295 -294 Z " />
<glyph glyph-name="Scaron" unicode="&#x160;" horiz-adv-x="1256" d="M451 1615 L170 1982 L424 1982 L543 1837 L666 1982 L932 1982 L653 1615 L451 1615 Z M583 -23 Q435 -23 294 21 Q155 64 75 143 L183 325 Q253 270 367 232 Q483 194 567 194 Q703 194 767 243.5 Q831 293 831 396 Q831 416 830 431.5 Q829 447 825 460.5 Q821 474 814.5 486 Q808 498 798 511 Q777 538 735.5 560.5 Q694 583 624 608 Q594 618 522 641 Q487 652 461 661 Q435 670 418 676 Q239 743 157 836 Q76 929 76 1087 Q76 1215 143 1306 Q212 1397 323 1440 Q434 1483 579 1483 Q773 1483 882 1445 Q988 1408 1086 1315 L956 1147 Q833 1264 615 1264 Q497 1264 421 1223 Q347 1182 347 1098 Q347 1059 354 1030.5 Q361 1002 383.5 978 Q406 954 448 932 Q490 910 560 885 Q573 880 598.5 871.5 Q624 863 664 850 Q704 837 733.5 827.5 Q763 818 783 810 Q873 775 934.5 734 Q996 693 1031 647 Q1101 556 1101 391 Q1101 282 1058.5 200 Q1016 118 941 70 Q866 22 777 -0.5 Q688 -23 583 -23 Z " />
<glyph glyph-name="scaron" unicode="&#x161;" horiz-adv-x="988" d="M494 -23 Q360 -23 246 15 Q189 34 144.5 57 Q100 80 66 106 L128 284 Q191 234 287 203 Q381 172 472 172 Q556 172 598 200 Q640 228 640 291 L640 309 Q640 341 615 363 Q602 374 573.5 387.5 Q545 401 500 415 L354 462 Q326 471 303.5 479 Q281 487 261 495.5 Q241 504 222.5 513.5 Q204 523 185 535 Q130 569 105 619.5 Q80 670 77 753 Q77 831 107.5 890 Q138 949 192 983 Q299 1050 457 1050 Q556 1050 653 1025 Q750 1000 825 951 L761 781 Q701 812 620 835 Q542 857 475 857 Q390 857 352 836 Q314 815 314 767 Q315 743 320.5 727.5 Q326 712 344 698.5 Q362 685 398.5 670 Q435 655 498 633 L631 588 Q710 561 759 529 Q808 497 837.5 438.5 Q867 380 867 290 Q867 201 833 141 Q799 81 745 44.5 Q691 8 624.5 -7.5 Q558 -23 494 -23 Z M342 1185 L61 1552 L315 1552 L434 1407 L557 1552 L823 1552 L544 1185 L342 1185 Z " />
<glyph glyph-name="Tcommaaccent" unicode="&#x162;" horiz-adv-x="1181" d="M368 -294 Q384 -301 405.5 -308 Q427 -315 450 -320 Q473 -325 497 -328.5 Q521 -332 542 -332 Q643 -332 643 -259 Q643 -163 490 -140 L461 -136 L492 39 L616 39 L599 -75 Q706 -82 764 -143 Q821 -203 821 -283 Q821 -337 801.5 -375 Q782 -413 749 -437.5 Q716 -462 672.5 -473.5 Q629 -485 581 -485 Q461 -485 357 -426 L368 -294 Z M430 0 L430 1238 L-19 1238 L-19 1456 L1140 1456 L1140 1238 L684 1238 L684 0 L430 0 Z " />
<glyph glyph-name="tcommaaccent" unicode="&#x163;" horiz-adv-x="804" d="M728 1 L628 1 Q567 1 524 4 Q479 7 433 17 Q387 27 354 43 Q319 61 291.5 88.5 Q264 116 245 155.5 Q226 195 215.5 249.5 Q205 304 205 376 L205 860 L-9 860 L-9 1026 L215 1026 L215 1266 L452 1339 L452 1026 L720 1026 L720 860 L452 860 L452 361 Q452 313 459.5 283.5 Q467 254 482 234 Q496 215 532 206 Q568 197 610 194 Q652 191 728 191 L728 1 Z M215 -294 Q231 -301 252.5 -308 Q274 -315 297 -320 Q320 -325 344 -328.5 Q368 -332 389 -332 Q490 -332 490 -259 Q490 -163 337 -140 L308 -136 L339 39 L463 39 L446 -75 Q553 -82 611 -143 Q668 -203 668 -283 Q668 -337 648.5 -375 Q629 -413 596 -437.5 Q563 -462 519.5 -473.5 Q476 -485 428 -485 Q308 -485 204 -426 L215 -294 Z " />
<glyph glyph-name="Tcaron" unicode="&#x164;" horiz-adv-x="1181" d="M443 1615 L162 1982 L416 1982 L535 1837 L658 1982 L924 1982 L645 1615 L443 1615 Z M430 0 L430 1238 L-19 1238 L-19 1456 L1140 1456 L1140 1238 L684 1238 L684 0 L430 0 Z " />
<glyph glyph-name="tcaron" unicode="&#x165;" horiz-adv-x="804" d="M728 1 L628 1 Q567 1 524 4 Q479 7 433 17 Q387 27 354 43 Q319 61 291.5 88.5 Q264 116 245 155.5 Q226 195 215.5 249.5 Q205 304 205 376 L205 860 L-9 860 L-9 1026 L215 1026 L215 1266 L452 1339 L452 1026 L720 1026 L720 860 L452 860 L452 361 Q452 313 459.5 283.5 Q467 254 482 234 Q496 215 532 206 Q568 197 610 194 Q652 191 728 191 L728 1 Z M553 1285 L666 1790 L946 1790 L765 1285 L553 1285 Z " />
<glyph glyph-name="Tbar" unicode="&#x166;" horiz-adv-x="1181" d="M284 658 L284 815 L908 815 L908 658 L284 658 Z M430 0 L430 1238 L-19 1238 L-19 1456 L1140 1456 L1140 1238 L684 1238 L684 0 L430 0 Z " />
<glyph glyph-name="tbar" unicode="&#x167;" horiz-adv-x="804" d="M728 1 L628 1 Q567 1 524 4 Q479 7 433 17 Q387 27 354 43 Q319 61 291.5 88.5 Q264 116 245 155.5 Q226 195 215.5 249.5 Q205 304 205 376 L205 860 L-9 860 L-9 1026 L215 1026 L215 1266 L452 1339 L452 1026 L720 1026 L720 860 L452 860 L452 361 Q452 313 459.5 283.5 Q467 254 482 234 Q496 215 532 206 Q568 197 610 194 Q652 191 728 191 L728 1 Z M24 522 L24 679 L648 679 L648 522 L24 522 Z " />
<glyph glyph-name="Utilde" unicode="&#x168;" horiz-adv-x="1509" d="M765 1604 Q722 1604 664 1631 Q635 1645 607 1658 Q579 1671 553 1684 Q500 1711 477 1711 Q455 1711 434.5 1686 Q414 1661 409 1609 L249 1609 Q249 1737 309 1818 Q370 1900 467 1900 Q504 1902 548 1886 Q592 1870 632.5 1849.5 Q673 1829 705.5 1811.5 Q738 1794 752 1793 Q755 1793 760 1792.5 Q765 1792 767 1792 Q797 1792 813.5 1814.5 Q830 1837 829 1900 L991 1900 Q991 1752 931 1678.5 Q871 1605 766 1604 L765 1604 Z M715 -23 Q574 -23 469 11 Q364 45 298 100 Q235 154 194 238 Q174 280 160.5 321.5 Q147 363 139 407 Q131 451 127.5 498.5 Q124 546 124 599 L124 1456 L378 1456 L378 588 Q378 472 404 396 Q430 320 475 275 Q520 230 581.5 212 Q643 194 714 194 Q790 194 848 213 Q906 232 954 275 Q1002 320 1026.5 398.5 Q1051 477 1051 589 L1051 1456 L1305 1456 L1305 598 Q1305 493 1291 408 Q1277 323 1237 240 Q1197 155 1134 101 Q1070 44 964 10.5 Q858 -23 715 -23 Z " />
<glyph glyph-name="utilde" unicode="&#x169;" horiz-adv-x="1186" d="M484 -23 Q297 -23 194 83 Q90 190 90 376 L90 1026 L336 1026 L336 380 Q336 277 388.5 227 Q441 177 535 177 Q646 177 699.5 232.5 Q753 288 753 411 L753 1026 L1001 1026 L1001 276 L1013 0 L757 0 L753 152 Q748 130 730.5 103.5 Q713 77 682 47 Q652 17 599.5 -3 Q547 -23 484 -23 Z M620 1174 Q577 1174 519 1201 Q490 1215 462 1228 Q434 1241 408 1254 Q355 1281 332 1281 Q310 1281 289.5 1256 Q269 1231 264 1179 L104 1179 Q104 1307 164 1388 Q225 1470 322 1470 Q359 1472 403 1456 Q447 1440 487.5 1419.5 Q528 1399 560.5 1381.5 Q593 1364 607 1363 Q610 1363 615 1362.5 Q620 1362 622 1362 Q652 1362 668.5 1384.5 Q685 1407 684 1470 L846 1470 Q846 1322 786 1248.5 Q726 1175 621 1174 L620 1174 Z " />
<glyph glyph-name="Umacron" unicode="&#x16a;" horiz-adv-x="1509" d="M402 1576 L402 1733 L1026 1733 L1026 1576 L402 1576 Z M715 -23 Q574 -23 469 11 Q364 45 298 100 Q235 154 194 238 Q174 280 160.5 321.5 Q147 363 139 407 Q131 451 127.5 498.5 Q124 546 124 599 L124 1456 L378 1456 L378 588 Q378 472 404 396 Q430 320 475 275 Q520 230 581.5 212 Q643 194 714 194 Q790 194 848 213 Q906 232 954 275 Q1002 320 1026.5 398.5 Q1051 477 1051 589 L1051 1456 L1305 1456 L1305 598 Q1305 493 1291 408 Q1277 323 1237 240 Q1197 155 1134 101 Q1070 44 964 10.5 Q858 -23 715 -23 Z " />
<glyph glyph-name="umacron" unicode="&#x16b;" horiz-adv-x="1186" d="M484 -23 Q297 -23 194 83 Q90 190 90 376 L90 1026 L336 1026 L336 380 Q336 277 388.5 227 Q441 177 535 177 Q646 177 699.5 232.5 Q753 288 753 411 L753 1026 L1001 1026 L1001 276 L1013 0 L757 0 L753 152 Q748 130 730.5 103.5 Q713 77 682 47 Q652 17 599.5 -3 Q547 -23 484 -23 Z M257 1146 L257 1303 L881 1303 L881 1146 L257 1146 Z " />
<glyph glyph-name="Ubreve" unicode="&#x16c;" horiz-adv-x="1509" d="M711 1590 Q409 1590 389 1886 L563 1886 Q569 1810 614 1785 Q637 1773 659 1768.5 Q681 1764 711 1764 Q742 1764 767.5 1769.5 Q793 1775 812 1788.5 Q831 1802 842.5 1826 Q854 1850 857 1886 L1030 1886 Q1019 1732 938.5 1661 Q858 1590 711 1590 Z M715 -23 Q574 -23 469 11 Q364 45 298 100 Q235 154 194 238 Q174 280 160.5 321.5 Q147 363 139 407 Q131 451 127.5 498.5 Q124 546 124 599 L124 1456 L378 1456 L378 588 Q378 472 404 396 Q430 320 475 275 Q520 230 581.5 212 Q643 194 714 194 Q790 194 848 213 Q906 232 954 275 Q1002 320 1026.5 398.5 Q1051 477 1051 589 L1051 1456 L1305 1456 L1305 598 Q1305 493 1291 408 Q1277 323 1237 240 Q1197 155 1134 101 Q1070 44 964 10.5 Q858 -23 715 -23 Z " />
<glyph glyph-name="ubreve" unicode="&#x16d;" horiz-adv-x="1186" d="M484 -23 Q297 -23 194 83 Q90 190 90 376 L90 1026 L336 1026 L336 380 Q336 277 388.5 227 Q441 177 535 177 Q646 177 699.5 232.5 Q753 288 753 411 L753 1026 L1001 1026 L1001 276 L1013 0 L757 0 L753 152 Q748 130 730.5 103.5 Q713 77 682 47 Q652 17 599.5 -3 Q547 -23 484 -23 Z M566 1160 Q264 1160 244 1456 L418 1456 Q424 1380 469 1355 Q492 1343 514 1338.5 Q536 1334 566 1334 Q597 1334 622.5 1339.5 Q648 1345 667 1358.5 Q686 1372 697.5 1396 Q709 1420 712 1456 L885 1456 Q874 1302 793.5 1231 Q713 1160 566 1160 Z " />
<glyph glyph-name="Uring" unicode="&#x16e;" horiz-adv-x="1509" d="M700 1583 Q608 1583 544 1644 Q480 1705 480 1796 Q480 1888 543 1948 Q607 2009 700 2009 Q792 2009 856 1948 Q921 1888 921 1796 Q921 1706 856 1644 Q792 1583 700 1583 Z M701 1687 Q744 1687 776 1719 Q808 1751 808 1796 Q808 1840 776 1872 Q744 1904 701 1904 Q679 1904 659.5 1895.5 Q640 1887 626 1872.5 Q612 1858 603.5 1838 Q595 1818 595 1796 Q595 1750 626 1719 Q658 1687 701 1687 Z M715 -23 Q574 -23 469 11 Q364 45 298 100 Q235 154 194 238 Q174 280 160.5 321.5 Q147 363 139 407 Q131 451 127.5 498.5 Q124 546 124 599 L124 1456 L378 1456 L378 588 Q378 472 404 396 Q430 320 475 275 Q520 230 581.5 212 Q643 194 714 194 Q790 194 848 213 Q906 232 954 275 Q1002 320 1026.5 398.5 Q1051 477 1051 589 L1051 1456 L1305 1456 L1305 598 Q1305 493 1291 408 Q1277 323 1237 240 Q1197 155 1134 101 Q1070 44 964 10.5 Q858 -23 715 -23 Z " />
<glyph glyph-name="uring" unicode="&#x16f;" horiz-adv-x="1186" d="M484 -23 Q297 -23 194 83 Q90 190 90 376 L90 1026 L336 1026 L336 380 Q336 277 388.5 227 Q441 177 535 177 Q646 177 699.5 232.5 Q753 288 753 411 L753 1026 L1001 1026 L1001 276 L1013 0 L757 0 L753 152 Q748 130 730.5 103.5 Q713 77 682 47 Q652 17 599.5 -3 Q547 -23 484 -23 Z M555 1153 Q463 1153 399 1214 Q335 1275 335 1366 Q335 1458 398 1518 Q462 1579 555 1579 Q647 1579 711 1518 Q776 1458 776 1366 Q776 1276 711 1214 Q647 1153 555 1153 Z M556 1257 Q599 1257 631 1289 Q663 1321 663 1366 Q663 1410 631 1442 Q599 1474 556 1474 Q534 1474 514.5 1465.5 Q495 1457 481 1442.5 Q467 1428 458.5 1408 Q450 1388 450 1366 Q450 1320 481 1289 Q513 1257 556 1257 Z " />
<glyph glyph-name="Uhungarumlaut" unicode="&#x170;" horiz-adv-x="1509" d="M808 1582 L1017 1926 L1313 1926 L995 1582 L808 1582 Z M470 1582 L623 1926 L887 1926 L649 1582 L470 1582 Z M715 -23 Q574 -23 469 11 Q364 45 298 100 Q235 154 194 238 Q174 280 160.5 321.5 Q147 363 139 407 Q131 451 127.5 498.5 Q124 546 124 599 L124 1456 L378 1456 L378 588 Q378 472 404 396 Q430 320 475 275 Q520 230 581.5 212 Q643 194 714 194 Q790 194 848 213 Q906 232 954 275 Q1002 320 1026.5 398.5 Q1051 477 1051 589 L1051 1456 L1305 1456 L1305 598 Q1305 493 1291 408 Q1277 323 1237 240 Q1197 155 1134 101 Q1070 44 964 10.5 Q858 -23 715 -23 Z " />
<glyph glyph-name="uhungarumlaut" unicode="&#x171;" horiz-adv-x="1186" d="M484 -23 Q297 -23 194 83 Q90 190 90 376 L90 1026 L336 1026 L336 380 Q336 277 388.5 227 Q441 177 535 177 Q646 177 699.5 232.5 Q753 288 753 411 L753 1026 L1001 1026 L1001 276 L1013 0 L757 0 L753 152 Q748 130 730.5 103.5 Q713 77 682 47 Q652 17 599.5 -3 Q547 -23 484 -23 Z M663 1152 L872 1496 L1168 1496 L850 1152 L663 1152 Z M325 1152 L478 1496 L742 1496 L504 1152 L325 1152 Z " />
<glyph glyph-name="Uogonek" unicode="&#x172;" horiz-adv-x="1509" d="M792 -356 Q692 -356 636 -324.5 Q580 -293 580 -227 Q580 -200 588 -175.5 Q596 -151 607 -132 Q618 -113 638 -93.5 Q658 -74 673 -62 Q681 -56 692 -49 Q703 -42 714.5 -35 Q726 -28 736.5 -22 Q747 -16 754 -13 L792 6 L824 21 L959 23 Q924 3 896.5 -20 Q869 -43 850 -67 Q831 -91 820.5 -114.5 Q810 -138 810 -157 Q810 -204 873 -204 Q926 -204 1046 -167 L1046 -315 Q909 -356 792 -356 Z M715 -23 Q574 -23 469 11 Q364 45 298 100 Q235 154 194 238 Q174 280 160.5 321.5 Q147 363 139 407 Q131 451 127.5 498.5 Q124 546 124 599 L124 1456 L378 1456 L378 588 Q378 472 404 396 Q430 320 475 275 Q520 230 581.5 212 Q643 194 714 194 Q790 194 848 213 Q906 232 954 275 Q1002 320 1026.5 398.5 Q1051 477 1051 589 L1051 1456 L1305 1456 L1305 598 Q1305 493 1291 408 Q1277 323 1237 240 Q1197 155 1134 101 Q1070 44 964 10.5 Q858 -23 715 -23 Z " />
<glyph glyph-name="uogonek" unicode="&#x173;" horiz-adv-x="1186" d="M484 -23 Q297 -23 194 83 Q90 190 90 376 L90 1026 L336 1026 L336 380 Q336 277 388.5 227 Q441 177 535 177 Q646 177 699.5 232.5 Q753 288 753 411 L753 1026 L1001 1026 L1001 276 L1013 0 L757 0 L753 152 Q748 130 730.5 103.5 Q713 77 682 47 Q652 17 599.5 -3 Q547 -23 484 -23 Z M822 -356 Q722 -356 666 -324.5 Q610 -293 610 -227 Q610 -200 618 -175.5 Q626 -151 637 -132 Q648 -113 668 -93.5 Q688 -74 703 -62 Q711 -56 722 -49 Q733 -42 744.5 -35 Q756 -28 766.5 -22 Q777 -16 784 -13 L822 6 L854 21 L989 23 Q954 3 926.5 -20 Q899 -43 880 -67 Q861 -91 850.5 -114.5 Q840 -138 840 -157 Q840 -204 903 -204 Q956 -204 1076 -167 L1076 -315 Q939 -356 822 -356 Z " />
<glyph glyph-name="Wcircumflex" unicode="&#x174;" horiz-adv-x="2096" d="M617 1615 L874 1985 L1126 1985 L1391 1615 L1144 1615 L1008 1811 L869 1615 L617 1615 Z M388 0 L-28 1456 L242 1456 L337 1100 Q371 974 399.5 866 Q428 758 452 665 Q476 572 498.5 483 Q521 394 543 306 Q566 395 592 485 Q618 575 646 668 Q674 762 707.5 869.5 Q741 977 781 1102 Q821 1227 849 1315 Q877 1403 893 1456 L1135 1456 L1395 642 L1495 301 Q1515 389 1537 479 Q1559 569 1582 663 L1691 1098 L1782 1456 L2044 1456 L1638 0 L1347 0 L1007 1105 L675 0 L388 0 Z " />
<glyph glyph-name="wcircumflex" unicode="&#x175;" horiz-adv-x="1685" d="M346 0 L-26 1026 L238 1026 L472 305 Q492 366 552.5 546 Q613 726 714 1026 L930 1026 L1002 798 Q1049 651 1087.5 530.5 Q1126 410 1161 303 Q1175 349 1235 529.5 Q1295 710 1400 1026 L1631 1026 L1242 0 L1035 0 L802 698 L554 0 L346 0 Z M431 1185 L688 1555 L940 1555 L1205 1185 L958 1185 L822 1381 L683 1185 L431 1185 Z " />
<glyph glyph-name="Ycircumflex" unicode="&#x176;" horiz-adv-x="1281" d="M225 1615 L482 1985 L734 1985 L999 1615 L752 1615 L616 1811 L477 1615 L225 1615 Z M465 0 L465 563 L-54 1456 L235 1456 L596 789 L954 1456 L1250 1456 L719 564 L719 0 L465 0 Z " />
<glyph glyph-name="ycircumflex" unicode="&#x177;" horiz-adv-x="1114" d="M110 -277 Q250 -223 318 -165 Q388 -109 412 -27 L426 23 L-10 1026 L248 1026 L545 290 L801 1026 L1054 1026 L638 -56 Q594 -164 525 -243 Q455 -325 379 -371 Q303 -417 214 -445 L110 -277 Z M163 1185 L420 1555 L672 1555 L937 1185 L690 1185 L554 1381 L415 1185 L163 1185 Z " />
<glyph glyph-name="Ydieresis" unicode="&#x178;" horiz-adv-x="1281" d="M714 1581 L714 1806 L959 1806 L959 1581 L714 1581 Z M256 1581 L256 1806 L503 1806 L503 1581 L256 1581 Z M465 0 L465 563 L-54 1456 L235 1456 L596 789 L954 1456 L1250 1456 L719 564 L719 0 L465 0 Z " />
<glyph glyph-name="Zacute" unicode="&#x179;" horiz-adv-x="1202" d="M480 1596 L744 1886 L1062 1886 L708 1596 L480 1596 Z M31 0 L31 136 L720 1238 L57 1238 L57 1456 L1071 1456 L1071 1324 L378 218 L1070 218 L1070 0 L31 0 Z " />
<glyph glyph-name="zacute" unicode="&#x17a;" horiz-adv-x="998" d="M57 0 L57 131 L541 828 L82 828 L82 1026 L863 1026 L863 897 L375 197 L889 197 L889 0 L57 0 Z M401 1166 L665 1456 L983 1456 L629 1166 L401 1166 Z " />
<glyph glyph-name="Zdotaccent" unicode="&#x17b;" horiz-adv-x="1202" d="M476 1596 L476 1824 L722 1824 L722 1596 L476 1596 Z M31 0 L31 136 L720 1238 L57 1238 L57 1456 L1071 1456 L1071 1324 L378 218 L1070 218 L1070 0 L31 0 Z " />
<glyph glyph-name="zdotaccent" unicode="&#x17c;" horiz-adv-x="998" d="M57 0 L57 131 L541 828 L82 828 L82 1026 L863 1026 L863 897 L375 197 L889 197 L889 0 L57 0 Z M397 1166 L397 1394 L643 1394 L643 1166 L397 1166 Z " />
<glyph glyph-name="Zcaron" unicode="&#x17d;" horiz-adv-x="1202" d="M473 1615 L192 1982 L446 1982 L565 1837 L688 1982 L954 1982 L675 1615 L473 1615 Z M31 0 L31 136 L720 1238 L57 1238 L57 1456 L1071 1456 L1071 1324 L378 218 L1070 218 L1070 0 L31 0 Z " />
<glyph glyph-name="zcaron" unicode="&#x17e;" horiz-adv-x="998" d="M57 0 L57 131 L541 828 L82 828 L82 1026 L863 1026 L863 897 L375 197 L889 197 L889 0 L57 0 Z M394 1185 L113 1552 L367 1552 L486 1407 L609 1552 L875 1552 L596 1185 L394 1185 Z " />
<glyph glyph-name="longs" unicode="&#x17f;" horiz-adv-x="988" d="M494 -23 Q360 -23 246 15 Q189 34 144.5 57 Q100 80 66 106 L128 284 Q191 234 287 203 Q381 172 472 172 Q556 172 598 200 Q640 228 640 291 L640 309 Q640 341 615 363 Q602 374 573.5 387.5 Q545 401 500 415 L354 462 Q326 471 303.5 479 Q281 487 261 495.5 Q241 504 222.5 513.5 Q204 523 185 535 Q130 569 105 619.5 Q80 670 77 753 Q77 831 107.5 890 Q138 949 192 983 Q299 1050 457 1050 Q556 1050 653 1025 Q750 1000 825 951 L761 781 Q701 812 620 835 Q542 857 475 857 Q390 857 352 836 Q314 815 314 767 Q315 743 320.5 727.5 Q326 712 344 698.5 Q362 685 398.5 670 Q435 655 498 633 L631 588 Q710 561 759 529 Q808 497 837.5 438.5 Q867 380 867 290 Q867 201 833 141 Q799 81 745 44.5 Q691 8 624.5 -7.5 Q558 -23 494 -23 Z " />
<glyph glyph-name="florin" unicode="&#x192;" horiz-adv-x="1111" d="M163 -315 Q110 -315 55 -297 L72 -90 Q99 -95 123.5 -97.5 Q148 -100 171 -100 Q194 -100 211 -95 Q228 -90 249 -73 Q293 -38 317 87 L415 633 L276 633 L317 796 L447 796 L504 1107 Q508 1124 511 1139.5 Q514 1155 518 1169 Q525 1197 539 1234.5 Q553 1272 570 1300 Q588 1330 614 1357.5 Q640 1385 675.5 1405.5 Q711 1426 757 1438 Q803 1450 861 1450 Q890 1450 917 1447 Q944 1444 966.5 1439 Q989 1434 1006 1428 Q1023 1422 1032 1416 L1051 1405 L1034 1205 Q968 1225 919 1225 Q901 1225 880.5 1221.5 Q860 1218 841 1204.5 Q822 1191 806 1165.5 Q790 1140 781 1095 L723 796 L873 796 L840 633 L686 633 L580 45 Q544 -153 439 -234 Q335 -315 163 -315 Z M1037 1204 Q1035 1204 1034 1205 L1037 1204 Z " />
<glyph glyph-name="uni01C4" unicode="&#x1c4;" horiz-adv-x="2773" d="M2044 1615 L1763 1982 L2017 1982 L2136 1837 L2259 1982 L2525 1982 L2246 1615 L2044 1615 Z M1602 0 L1602 136 L2291 1238 L1628 1238 L1628 1456 L2642 1456 L2642 1324 L1949 218 L2641 218 L2641 0 L1602 0 Z M150 0 L150 1456 L556 1456 Q775 1456 938 1409 Q1101 1362 1209 1270.5 Q1317 1179 1371 1045 Q1425 911 1425 737 Q1425 557 1371.5 419 Q1318 281 1213.5 188 Q1109 95 954 47.5 Q799 0 597 0 L150 0 Z M404 218 L610 218 Q874 218 1015 350 Q1156 482 1156 738 Q1156 981 1013.5 1109.5 Q871 1238 579 1238 L404 1238 L404 218 Z " />
<glyph glyph-name="uni01C5" unicode="&#x1c5;" horiz-adv-x="2569" d="M1628 0 L1628 131 L2112 828 L1653 828 L1653 1026 L2434 1026 L2434 897 L1946 197 L2460 197 L2460 0 L1628 0 Z M1965 1185 L1684 1552 L1938 1552 L2057 1407 L2180 1552 L2446 1552 L2167 1185 L1965 1185 Z M150 0 L150 1456 L556 1456 Q775 1456 938 1409 Q1101 1362 1209 1270.5 Q1317 1179 1371 1045 Q1425 911 1425 737 Q1425 557 1371.5 419 Q1318 281 1213.5 188 Q1109 95 954 47.5 Q799 0 597 0 L150 0 Z M404 218 L610 218 Q874 218 1015 350 Q1156 482 1156 738 Q1156 981 1013.5 1109.5 Q871 1238 579 1238 L404 1238 L404 218 Z " />
<glyph glyph-name="uni01C6" unicode="&#x1c6;" horiz-adv-x="2265" d="M1324 0 L1324 131 L1808 828 L1349 828 L1349 1026 L2130 1026 L2130 897 L1642 197 L2156 197 L2156 0 L1324 0 Z M1661 1185 L1380 1552 L1634 1552 L1753 1407 L1876 1552 L2142 1552 L1863 1185 L1661 1185 Z M587 177 Q657 177 706 205 Q755 233 786 280 Q817 327 831 387 Q845 447 845 512 Q845 661 780 756 Q715 851 585 851 Q499 851 438 804 Q378 756 353 684 Q328 612 328 516 Q328 450 342 388.5 Q356 327 387 280 Q418 233 467 205 Q516 177 587 177 Z M536 -23 Q337 -23 202 123 Q68 269 68 508 Q68 617 99 714 Q130 811 188 887 Q248 963 342.5 1007.5 Q437 1052 555 1052 Q660 1052 734 1008 Q809 964 837 918 L837 1457 L1083 1457 L1083 274 Q1083 268 1092 0 L838 0 L836 131 Q827 108 806 84 Q785 60 750 34 Q715 9 659 -7 Q603 -23 536 -23 Z " />
<glyph glyph-name="uni01C7" unicode="&#x1c7;" horiz-adv-x="2192" d="M150 0 L150 1456 L404 1456 L404 218 L1078 218 L1078 0 L150 0 Z M1498 401 Q1502 360 1523.5 322.5 Q1545 285 1578 256.5 Q1611 228 1652.5 211 Q1694 194 1737 194 Q1805 194 1855.5 224 Q1906 254 1939 307.5 Q1972 361 1988 433 Q2004 505 2004 589 L2004 1456 L2258 1456 L2258 598 Q2258 463 2234.5 349.5 Q2211 236 2152 153 Q2093 70 1992.5 23.5 Q1892 -23 1738 -23 Q1646 -23 1565 4.5 Q1484 32 1421.5 81.5 Q1359 131 1317.5 200 Q1276 269 1262 353 L1498 401 Z " />
<glyph glyph-name="uni01C8" unicode="&#x1c8;" horiz-adv-x="1773" d="M1357 1228 L1357 1456 L1603 1456 L1603 1228 L1357 1228 Z M1233 -362 Q1178 -362 1129 -354 Q1080 -346 1048 -335 L1076 -165 Q1136 -184 1219 -184 Q1266 -184 1292.5 -168 Q1319 -152 1332 -124.5 Q1345 -97 1348 -60 Q1351 -23 1351 20 L1351 1026 L1604 1026 L1604 -9 Q1604 -104 1584.5 -171 Q1565 -238 1520.5 -280.5 Q1476 -323 1405.5 -342.5 Q1335 -362 1233 -362 Z M1076 -165 L1073 -164 L1076 -164 L1076 -165 Z M150 0 L150 1456 L404 1456 L404 218 L1078 218 L1078 0 L150 0 Z " />
<glyph glyph-name="uni01C9" unicode="&#x1c9;" horiz-adv-x="1126" d="M102 0 L102 1457 L347 1457 L347 0 L102 0 Z M710 1228 L710 1456 L956 1456 L956 1228 L710 1228 Z M586 -362 Q531 -362 482 -354 Q433 -346 401 -335 L429 -165 Q489 -184 572 -184 Q619 -184 645.5 -168 Q672 -152 685 -124.5 Q698 -97 701 -60 Q704 -23 704 20 L704 1026 L957 1026 L957 -9 Q957 -104 937.5 -171 Q918 -238 873.5 -280.5 Q829 -323 758.5 -342.5 Q688 -362 586 -362 Z M429 -165 L426 -164 L429 -164 L429 -165 Z " />
<glyph glyph-name="uni01CA" unicode="&#x1ca;" horiz-adv-x="2649" d="M150 0 L150 1456 L419 1456 L1158 384 L1158 1456 L1400 1456 L1400 0 L1130 0 Q795 484 608.5 752.5 Q422 1021 385 1074 L385 0 L150 0 Z M1955 401 Q1959 360 1980.5 322.5 Q2002 285 2035 256.5 Q2068 228 2109.5 211 Q2151 194 2194 194 Q2262 194 2312.5 224 Q2363 254 2396 307.5 Q2429 361 2445 433 Q2461 505 2461 589 L2461 1456 L2715 1456 L2715 598 Q2715 463 2691.5 349.5 Q2668 236 2609 153 Q2550 70 2449.5 23.5 Q2349 -23 2195 -23 Q2103 -23 2022 4.5 Q1941 32 1878.5 81.5 Q1816 131 1774.5 200 Q1733 269 1719 353 L1955 401 Z " />
<glyph glyph-name="uni01CB" unicode="&#x1cb;" horiz-adv-x="2230" d="M1814 1228 L1814 1456 L2060 1456 L2060 1228 L1814 1228 Z M1690 -362 Q1635 -362 1586 -354 Q1537 -346 1505 -335 L1533 -165 Q1593 -184 1676 -184 Q1723 -184 1749.5 -168 Q1776 -152 1789 -124.5 Q1802 -97 1805 -60 Q1808 -23 1808 20 L1808 1026 L2061 1026 L2061 -9 Q2061 -104 2041.5 -171 Q2022 -238 1977.5 -280.5 Q1933 -323 1862.5 -342.5 Q1792 -362 1690 -362 Z M1533 -165 L1530 -164 L1533 -164 L1533 -165 Z M150 0 L150 1456 L419 1456 L1158 384 L1158 1456 L1400 1456 L1400 0 L1130 0 Q795 484 608.5 752.5 Q422 1021 385 1074 L385 0 L150 0 Z " />
<glyph glyph-name="uni01CC" unicode="&#x1cc;" horiz-adv-x="1824" d="M118 0 L118 635 Q118 690 116.5 741 Q115 792 113 841 Q111 890 108 925 Q105 960 103 982 L98 1026 L361 1026 L361 889 Q414 970 502 1010 Q590 1052 674 1052 Q764 1052 830.5 1029 Q897 1006 948 952 Q1000 900 1027 808.5 Q1054 717 1054 585 L1054 0 L806 0 L806 602 Q806 739 763 794 Q721 851 623 851 Q588 851 544 835.5 Q500 820 460 790 Q420 760 393 715.5 Q366 671 366 614 L366 0 L118 0 Z M1408 1228 L1408 1456 L1654 1456 L1654 1228 L1408 1228 Z M1284 -362 Q1229 -362 1180 -354 Q1131 -346 1099 -335 L1127 -165 Q1187 -184 1270 -184 Q1317 -184 1343.5 -168 Q1370 -152 1383 -124.5 Q1396 -97 1399 -60 Q1402 -23 1402 20 L1402 1026 L1655 1026 L1655 -9 Q1655 -104 1635.5 -171 Q1616 -238 1571.5 -280.5 Q1527 -323 1456.5 -342.5 Q1386 -362 1284 -362 Z M1127 -165 L1124 -164 L1127 -164 L1127 -165 Z " />
<glyph glyph-name="uni01CD" unicode="&#x1cd;" horiz-adv-x="1458" d="M573 1615 L292 1982 L546 1982 L665 1837 L788 1982 L1054 1982 L775 1615 L573 1615 Z M894 592 Q836 763 788 904 Q740 1045 701 1159 Q669 1064 619.5 923 Q570 782 504 592 L894 592 Z M-8 0 L577 1456 L835 1456 L1425 0 L1138 0 L997 355 L409 355 L271 0 L-8 0 Z " />
<glyph glyph-name="uni01CE" unicode="&#x1ce;" horiz-adv-x="1291" d="M534 1185 L253 1552 L507 1552 L626 1407 L749 1552 L1015 1552 L736 1185 L534 1185 Z M604 177 Q749 177 813 268 Q879 359 879 513 Q879 591 861.5 654 Q844 717 809.5 760.5 Q775 804 722 827.5 Q669 851 599 851 Q460 851 387 760 Q314 669 314 515 Q314 360 387 269 Q461 177 604 177 Z M573 -23 Q447 -23 348.5 22 Q250 67 190 142 Q130 217 99 308.5 Q68 400 68 502 Q68 610 100 706 Q132 802 193 880 Q256 959 356 1005.5 Q456 1052 585 1052 Q770 1052 871 917 L871 1026 L1114 1026 L1114 0 L865 0 L865 140 Q753 -23 573 -23 Z " />
<glyph glyph-name="uni01CF" unicode="&#x1cf;" horiz-adv-x="586" d="M128 1615 L-153 1982 L101 1982 L220 1837 L343 1982 L609 1982 L330 1615 L128 1615 Z M120 0 L120 1456 L374 1456 L374 0 L120 0 Z " />
<glyph glyph-name="uni01D0" unicode="&#x1d0;" horiz-adv-x="485" d="M63 0 L63 1026 L312 1026 L312 0 L63 0 Z M69 1185 L-212 1552 L42 1552 L161 1407 L284 1552 L550 1552 L271 1185 L69 1185 Z " />
<glyph glyph-name="uni01D1" unicode="&#x1d1;" horiz-adv-x="1671" d="M679 1615 L398 1982 L652 1982 L771 1837 L894 1982 L1160 1982 L881 1615 L679 1615 Z M800 -23 Q458 -23 262 182 Q66 387 66 735 Q66 1072 263 1278 Q461 1483 803 1483 Q1134 1483 1329 1278 Q1525 1075 1525 735 Q1525 387 1332 182 Q1139 -23 800 -23 Z M794 194 Q905 194 990 229.5 Q1075 265 1132.5 334 Q1190 403 1219.5 504 Q1249 605 1249 735 Q1249 986 1133 1126 Q1017 1266 798 1266 Q577 1266 458 1126 Q340 987 340 735 Q340 474 455 334 Q570 194 794 194 Z " />
<glyph glyph-name="uni01D2" unicode="&#x1d2;" horiz-adv-x="1286" d="M608 -23 Q473 -23 369 20 Q265 63 199 138 Q135 213 101.5 308.5 Q68 404 68 513 Q68 625 101.5 720.5 Q135 816 201 891 Q267 966 371 1009 Q475 1052 607 1052 Q742 1052 845.5 1009.5 Q949 967 1012 892 Q1075 817 1106.5 721.5 Q1138 626 1138 511 Q1138 403 1105 309 Q1072 215 1008 140 Q945 65 841.5 21 Q738 -23 608 -23 Z M603 177 Q678 177 731 205 Q784 233 817 280 Q850 327 865 388.5 Q880 450 880 516 Q880 663 810 757 Q741 851 604 851 Q533 851 480.5 824 Q428 797 393 751.5 Q358 706 341.5 645.5 Q325 585 326 516 Q326 424 352 349 Q365 312 388.5 280.5 Q412 249 443.5 226 Q475 203 515 190 Q555 177 603 177 Z M487 1185 L206 1552 L460 1552 L579 1407 L702 1552 L968 1552 L689 1185 L487 1185 Z " />
<glyph glyph-name="uni01D3" unicode="&#x1d3;" horiz-adv-x="1509" d="M587 1615 L306 1982 L560 1982 L679 1837 L802 1982 L1068 1982 L789 1615 L587 1615 Z M715 -23 Q574 -23 469 11 Q364 45 298 100 Q235 154 194 238 Q174 280 160.5 321.5 Q147 363 139 407 Q131 451 127.5 498.5 Q124 546 124 599 L124 1456 L378 1456 L378 588 Q378 472 404 396 Q430 320 475 275 Q520 230 581.5 212 Q643 194 714 194 Q790 194 848 213 Q906 232 954 275 Q1002 320 1026.5 398.5 Q1051 477 1051 589 L1051 1456 L1305 1456 L1305 598 Q1305 493 1291 408 Q1277 323 1237 240 Q1197 155 1134 101 Q1070 44 964 10.5 Q858 -23 715 -23 Z " />
<glyph glyph-name="uni01D4" unicode="&#x1d4;" horiz-adv-x="1186" d="M484 -23 Q297 -23 194 83 Q90 190 90 376 L90 1026 L336 1026 L336 380 Q336 277 388.5 227 Q441 177 535 177 Q646 177 699.5 232.5 Q753 288 753 411 L753 1026 L1001 1026 L1001 276 L1013 0 L757 0 L753 152 Q748 130 730.5 103.5 Q713 77 682 47 Q652 17 599.5 -3 Q547 -23 484 -23 Z M443 1185 L162 1552 L416 1552 L535 1407 L658 1552 L924 1552 L645 1185 L443 1185 Z " />
<glyph glyph-name="uni01E2" unicode="&#x1e2;" horiz-adv-x="2215" d="M958 1576 L958 1733 L1582 1733 L1582 1576 L958 1576 Z M594 558 L1061 558 L1014 1230 L980 1230 L594 558 Z M-21 0 L846 1456 L1930 1456 L1930 1230 L1273 1230 L1307 854 L1928 854 L1928 634 L1335 634 L1374 226 L1956 226 L1956 0 L1108 0 L1079 355 L495 355 L293 0 L-21 0 Z " />
<glyph glyph-name="uni01E3" unicode="&#x1e3;" horiz-adv-x="1776" d="M541 1146 L541 1303 L1165 1303 L1165 1146 L541 1146 Z M1401 632 L1400 655 Q1397 758 1332 815 Q1267 872 1187 872 Q1091 872 1028 805 Q966 738 939 632 L1401 632 Z M441 177 Q511 177 559.5 203 Q608 229 637.5 271 Q667 313 680.5 364.5 Q694 416 695 467 L595 467 Q464 467 372 432 Q324 414 297.5 381.5 Q271 349 271 304 Q271 239 318.5 208 Q366 177 441 177 Z M434 -22 Q248 -22 139 60 Q30 142 30 294 Q30 489 176 563 Q323 638 655 638 L696 638 Q695 687 679.5 728 Q664 769 635 798 Q606 827 564.5 843 Q523 859 469 859 Q352 859 183 778 L111 942 Q293 1052 524 1052 Q607 1052 701 1002 Q794 953 841 864 Q887 952 988 1002 Q1091 1052 1189 1052 L1192 1052 Q1307 1051 1388 1008.5 Q1469 966 1520 893.5 Q1571 821 1594.5 724.5 Q1618 628 1618 519 L1613 467 L936 467 L936 448 Q961 177 1214 177 L1223 177 Q1296 178 1374 207 Q1454 236 1495 262 L1537 289 L1604 108 Q1601 105 1596.5 102 Q1592 99 1584.5 94 Q1577 89 1564.5 81.5 Q1552 74 1531 63 Q1511 52 1490 42 Q1469 32 1447 23 Q1426 14 1399 6 Q1372 -2 1341.5 -8.5 Q1311 -15 1278.5 -19 Q1246 -23 1215 -23 L1203 -23 Q1060 -23 965 21 Q870 65 817 172 Q766 71 661 24 Q557 -22 434 -22 Z " />
<glyph glyph-name="Gcaron" unicode="&#x1e6;" horiz-adv-x="1538" d="M679 1615 L398 1982 L652 1982 L771 1837 L894 1982 L1160 1982 L881 1615 L679 1615 Z M811 -23 Q451 -23 258 173 Q65 369 65 704 Q65 830 96.5 944.5 Q128 1059 192 1158 Q238 1231 303 1290.5 Q368 1350 449 1393 Q530 1436 627.5 1459.5 Q725 1483 837 1483 Q940 1483 1024.5 1468.5 Q1109 1454 1169 1427 Q1231 1399 1258 1382 Q1288 1365 1322 1338 L1220 1160 Q1077 1264 838 1264 Q711 1264 611.5 1217 Q512 1170 452 1091 Q392 1012 361 916.5 Q330 821 330 715 Q330 601 360.5 505.5 Q391 410 452.5 340.5 Q514 271 606.5 232.5 Q699 194 823 194 Q943 194 1072 232 L1072 576 L732 576 L732 793 L1330 793 L1330 88 Q1081 -23 811 -23 Z " />
<glyph glyph-name="gcaron" unicode="&#x1e7;" horiz-adv-x="1235" d="M586 187 Q662 187 711 216.5 Q760 246 788.5 293 Q817 340 828 398.5 Q839 457 839 516 Q839 666 776 758 Q714 851 589 851 Q503 851 442 802 Q382 754 355 680 Q328 606 328 515 Q328 361 391 274 Q454 187 586 187 Z M538 -418 Q337 -418 148 -348 L191 -134 Q341 -212 520 -212 Q664 -212 745 -150.5 Q826 -89 826 35 L826 122 Q737 0 569 0 Q341 0 205 139 Q68 279 68 515 Q68 624 97 718 Q126 812 183 888 Q240 964 334.5 1008 Q429 1052 550 1052 Q646 1052 717 1014 Q788 976 827 916 L827 1026 L1090 1026 Q1080 950 1075 864.5 Q1070 779 1070 682 L1070 147 Q1070 -418 538 -418 Z M461 1185 L180 1552 L434 1552 L553 1407 L676 1552 L942 1552 L663 1185 L461 1185 Z " />
<glyph glyph-name="uni01E8" unicode="&#x1e8;" horiz-adv-x="1352" d="M543 1615 L262 1982 L516 1982 L635 1837 L758 1982 L1024 1982 L745 1615 L543 1615 Z M150 0 L150 1456 L404 1456 L404 820 L965 1456 L1282 1456 L651 753 L1331 0 L1001 0 L407 651 L407 0 L150 0 Z " />
<glyph glyph-name="uni01E9" unicode="&#x1e9;" horiz-adv-x="1076" d="M100 0 L100 1457 L348 1457 L348 607 L719 1026 L1061 1026 L572 530 L1093 0 L765 0 L348 444 L348 0 L100 0 Z M489 1185 L208 1552 L462 1552 L581 1407 L704 1552 L970 1552 L691 1185 L489 1185 Z " />
<glyph glyph-name="uni01EA" unicode="&#x1ea;" horiz-adv-x="1671" d="M733 -356 Q633 -356 577 -324.5 Q521 -293 521 -227 Q521 -200 529 -175.5 Q537 -151 548 -132 Q559 -113 579 -93.5 Q599 -74 614 -62 Q622 -56 633 -49 Q644 -42 655.5 -35 Q667 -28 677.5 -22 Q688 -16 695 -13 L733 6 L765 21 L900 23 Q865 3 837.5 -20 Q810 -43 791 -67 Q772 -91 761.5 -114.5 Q751 -138 751 -157 Q751 -204 814 -204 Q867 -204 987 -167 L987 -315 Q850 -356 733 -356 Z M800 -23 Q458 -23 262 182 Q66 387 66 735 Q66 1072 263 1278 Q461 1483 803 1483 Q1134 1483 1329 1278 Q1525 1075 1525 735 Q1525 387 1332 182 Q1139 -23 800 -23 Z M794 194 Q905 194 990 229.5 Q1075 265 1132.5 334 Q1190 403 1219.5 504 Q1249 605 1249 735 Q1249 986 1133 1126 Q1017 1266 798 1266 Q577 1266 458 1126 Q340 987 340 735 Q340 474 455 334 Q570 194 794 194 Z " />
<glyph glyph-name="uni01EB" unicode="&#x1eb;" horiz-adv-x="1286" d="M544 -356 Q444 -356 388 -324.5 Q332 -293 332 -227 Q332 -200 340 -175.5 Q348 -151 359 -132 Q370 -113 390 -93.5 Q410 -74 425 -62 Q433 -56 444 -49 Q455 -42 466.5 -35 Q478 -28 488.5 -22 Q499 -16 506 -13 L544 6 L576 21 L711 23 Q676 3 648.5 -20 Q621 -43 602 -67 Q583 -91 572.5 -114.5 Q562 -138 562 -157 Q562 -204 625 -204 Q678 -204 798 -167 L798 -315 Q661 -356 544 -356 Z M608 -23 Q473 -23 369 20 Q265 63 199 138 Q135 213 101.5 308.5 Q68 404 68 513 Q68 625 101.5 720.5 Q135 816 201 891 Q267 966 371 1009 Q475 1052 607 1052 Q742 1052 845.5 1009.5 Q949 967 1012 892 Q1075 817 1106.5 721.5 Q1138 626 1138 511 Q1138 403 1105 309 Q1072 215 1008 140 Q945 65 841.5 21 Q738 -23 608 -23 Z M603 177 Q678 177 731 205 Q784 233 817 280 Q850 327 865 388.5 Q880 450 880 516 Q880 663 810 757 Q741 851 604 851 Q533 851 480.5 824 Q428 797 393 751.5 Q358 706 341.5 645.5 Q325 585 326 516 Q326 424 352 349 Q365 312 388.5 280.5 Q412 249 443.5 226 Q475 203 515 190 Q555 177 603 177 Z " />
<glyph glyph-name="uni01F0" unicode="&#x1f0;" horiz-adv-x="600" d="M100 -362 Q73 -362 47 -360 Q21 -358 -1 -355 Q-23 -352 -40 -348.5 Q-57 -345 -66 -342 L-85 -335 L-57 -165 Q3 -184 86 -184 Q122 -184 144 -177.5 Q166 -171 184 -150 Q202 -129 210 -88 Q218 -47 218 20 L218 1026 L471 1026 L471 -9 Q471 -99 454.5 -161 Q438 -223 397 -270 Q357 -318 284 -340 Q211 -362 100 -362 Z M-57 -165 L-60 -164 L-57 -164 L-57 -165 Z M180 1185 L-101 1552 L153 1552 L272 1407 L395 1552 L661 1552 L382 1185 L180 1185 Z " />
<glyph glyph-name="uni01F1" unicode="&#x1f1;" horiz-adv-x="2773" d="M1602 0 L1602 136 L2291 1238 L1628 1238 L1628 1456 L2642 1456 L2642 1324 L1949 218 L2641 218 L2641 0 L1602 0 Z M150 0 L150 1456 L556 1456 Q775 1456 938 1409 Q1101 1362 1209 1270.5 Q1317 1179 1371 1045 Q1425 911 1425 737 Q1425 557 1371.5 419 Q1318 281 1213.5 188 Q1109 95 954 47.5 Q799 0 597 0 L150 0 Z M404 218 L610 218 Q874 218 1015 350 Q1156 482 1156 738 Q1156 981 1013.5 1109.5 Q871 1238 579 1238 L404 1238 L404 218 Z " />
<glyph glyph-name="uni01F2" unicode="&#x1f2;" horiz-adv-x="2568" d="M1628 0 L1628 131 L2112 828 L1653 828 L1653 1026 L2434 1026 L2434 897 L1946 197 L2460 197 L2460 0 L1628 0 Z M150 0 L150 1456 L556 1456 Q775 1456 938 1409 Q1101 1362 1209 1270.5 Q1317 1179 1371 1045 Q1425 911 1425 737 Q1425 557 1371.5 419 Q1318 281 1213.5 188 Q1109 95 954 47.5 Q799 0 597 0 L150 0 Z M404 218 L610 218 Q874 218 1015 350 Q1156 482 1156 738 Q1156 981 1013.5 1109.5 Q871 1238 579 1238 L404 1238 L404 218 Z " />
<glyph glyph-name="uni01F3" unicode="&#x1f3;" horiz-adv-x="2264" d="M1324 0 L1324 131 L1808 828 L1349 828 L1349 1026 L2130 1026 L2130 897 L1642 197 L2156 197 L2156 0 L1324 0 Z M587 177 Q657 177 706 205 Q755 233 786 280 Q817 327 831 387 Q845 447 845 512 Q845 661 780 756 Q715 851 585 851 Q499 851 438 804 Q378 756 353 684 Q328 612 328 516 Q328 450 342 388.5 Q356 327 387 280 Q418 233 467 205 Q516 177 587 177 Z M536 -23 Q337 -23 202 123 Q68 269 68 508 Q68 617 99 714 Q130 811 188 887 Q248 963 342.5 1007.5 Q437 1052 555 1052 Q660 1052 734 1008 Q809 964 837 918 L837 1457 L1083 1457 L1083 274 Q1083 268 1092 0 L838 0 L836 131 Q827 108 806 84 Q785 60 750 34 Q715 9 659 -7 Q603 -23 536 -23 Z " />
<glyph glyph-name="uni01F4" unicode="&#x1f4;" horiz-adv-x="1538" d="M686 1596 L950 1886 L1268 1886 L914 1596 L686 1596 Z M811 -23 Q451 -23 258 173 Q65 369 65 704 Q65 830 96.5 944.5 Q128 1059 192 1158 Q238 1231 303 1290.5 Q368 1350 449 1393 Q530 1436 627.5 1459.5 Q725 1483 837 1483 Q940 1483 1024.5 1468.5 Q1109 1454 1169 1427 Q1231 1399 1258 1382 Q1288 1365 1322 1338 L1220 1160 Q1077 1264 838 1264 Q711 1264 611.5 1217 Q512 1170 452 1091 Q392 1012 361 916.5 Q330 821 330 715 Q330 601 360.5 505.5 Q391 410 452.5 340.5 Q514 271 606.5 232.5 Q699 194 823 194 Q943 194 1072 232 L1072 576 L732 576 L732 793 L1330 793 L1330 88 Q1081 -23 811 -23 Z " />
<glyph glyph-name="uni01F5" unicode="&#x1f5;" horiz-adv-x="1235" d="M586 187 Q662 187 711 216.5 Q760 246 788.5 293 Q817 340 828 398.5 Q839 457 839 516 Q839 666 776 758 Q714 851 589 851 Q503 851 442 802 Q382 754 355 680 Q328 606 328 515 Q328 361 391 274 Q454 187 586 187 Z M538 -418 Q337 -418 148 -348 L191 -134 Q341 -212 520 -212 Q664 -212 745 -150.5 Q826 -89 826 35 L826 122 Q737 0 569 0 Q341 0 205 139 Q68 279 68 515 Q68 624 97 718 Q126 812 183 888 Q240 964 334.5 1008 Q429 1052 550 1052 Q646 1052 717 1014 Q788 976 827 916 L827 1026 L1090 1026 Q1080 950 1075 864.5 Q1070 779 1070 682 L1070 147 Q1070 -418 538 -418 Z M468 1166 L732 1456 L1050 1456 L696 1166 L468 1166 Z " />
<glyph glyph-name="uni01F8" unicode="&#x1f8;" horiz-adv-x="1630" d="M693 1596 L342 1885 L660 1885 L922 1596 L693 1596 Z M150 0 L150 1456 L419 1456 L1158 384 L1158 1456 L1400 1456 L1400 0 L1130 0 Q795 484 608.5 752.5 Q422 1021 385 1074 L385 0 L150 0 Z " />
<glyph glyph-name="uni01F9" unicode="&#x1f9;" horiz-adv-x="1224" d="M118 0 L118 635 Q118 690 116.5 741 Q115 792 113 841 Q111 890 108 925 Q105 960 103 982 L98 1026 L361 1026 L361 889 Q414 970 502 1010 Q590 1052 674 1052 Q764 1052 830.5 1029 Q897 1006 948 952 Q1000 900 1027 808.5 Q1054 717 1054 585 L1054 0 L806 0 L806 602 Q806 739 763 794 Q721 851 623 851 Q588 851 544 835.5 Q500 820 460 790 Q420 760 393 715.5 Q366 671 366 614 L366 0 L118 0 Z M523 1166 L172 1455 L490 1455 L752 1166 L523 1166 Z " />
<glyph glyph-name="Aringacute" unicode="&#x1fa;" horiz-adv-x="1458" d="M685 1583 Q593 1583 529 1644 Q465 1705 465 1796 Q465 1888 528 1948 Q592 2009 685 2009 Q777 2009 841 1948 Q906 1888 906 1796 Q906 1706 841 1644 Q777 1583 685 1583 Z M686 1687 Q729 1687 761 1719 Q793 1751 793 1796 Q793 1840 761 1872 Q729 1904 686 1904 Q664 1904 644.5 1895.5 Q625 1887 611 1872.5 Q597 1858 588.5 1838 Q580 1818 580 1796 Q580 1750 611 1719 Q643 1687 686 1687 Z M566 2094 L830 2384 L1148 2384 L794 2094 L566 2094 Z M894 592 Q836 763 788 904 Q740 1045 701 1159 Q669 1064 619.5 923 Q570 782 504 592 L894 592 Z M-8 0 L577 1456 L835 1456 L1425 0 L1138 0 L997 355 L409 355 L271 0 L-8 0 Z " />
<glyph glyph-name="aringacute" unicode="&#x1fb;" horiz-adv-x="1291" d="M646 1153 Q554 1153 490 1214 Q426 1275 426 1366 Q426 1458 489 1518 Q553 1579 646 1579 Q738 1579 802 1518 Q867 1458 867 1366 Q867 1276 802 1214 Q738 1153 646 1153 Z M647 1257 Q690 1257 722 1289 Q754 1321 754 1366 Q754 1410 722 1442 Q690 1474 647 1474 Q625 1474 605.5 1465.5 Q586 1457 572 1442.5 Q558 1428 549.5 1408 Q541 1388 541 1366 Q541 1320 572 1289 Q604 1257 647 1257 Z M527 1664 L791 1954 L1109 1954 L755 1664 L527 1664 Z M604 177 Q749 177 813 268 Q879 359 879 513 Q879 591 861.5 654 Q844 717 809.5 760.5 Q775 804 722 827.5 Q669 851 599 851 Q460 851 387 760 Q314 669 314 515 Q314 360 387 269 Q461 177 604 177 Z M573 -23 Q447 -23 348.5 22 Q250 67 190 142 Q130 217 99 308.5 Q68 400 68 502 Q68 610 100 706 Q132 802 193 880 Q256 959 356 1005.5 Q456 1052 585 1052 Q770 1052 871 917 L871 1026 L1114 1026 L1114 0 L865 0 L865 140 Q753 -23 573 -23 Z " />
<glyph glyph-name="AEacute" unicode="&#x1fc;" horiz-adv-x="2215" d="M1152 1596 L1416 1886 L1734 1886 L1380 1596 L1152 1596 Z M594 558 L1061 558 L1014 1230 L980 1230 L594 558 Z M-21 0 L846 1456 L1930 1456 L1930 1230 L1273 1230 L1307 854 L1928 854 L1928 634 L1335 634 L1374 226 L1956 226 L1956 0 L1108 0 L1079 355 L495 355 L293 0 L-21 0 Z " />
<glyph glyph-name="aeacute" unicode="&#x1fd;" horiz-adv-x="1776" d="M1401 632 L1400 655 Q1397 758 1332 815 Q1267 872 1187 872 Q1091 872 1028 805 Q966 738 939 632 L1401 632 Z M441 177 Q511 177 559.5 203 Q608 229 637.5 271 Q667 313 680.5 364.5 Q694 416 695 467 L595 467 Q464 467 372 432 Q324 414 297.5 381.5 Q271 349 271 304 Q271 239 318.5 208 Q366 177 441 177 Z M434 -22 Q248 -22 139 60 Q30 142 30 294 Q30 489 176 563 Q323 638 655 638 L696 638 Q695 687 679.5 728 Q664 769 635 798 Q606 827 564.5 843 Q523 859 469 859 Q352 859 183 778 L111 942 Q293 1052 524 1052 Q607 1052 701 1002 Q794 953 841 864 Q887 952 988 1002 Q1091 1052 1189 1052 L1192 1052 Q1307 1051 1388 1008.5 Q1469 966 1520 893.5 Q1571 821 1594.5 724.5 Q1618 628 1618 519 L1613 467 L936 467 L936 448 Q961 177 1214 177 L1223 177 Q1296 178 1374 207 Q1454 236 1495 262 L1537 289 L1604 108 Q1601 105 1596.5 102 Q1592 99 1584.5 94 Q1577 89 1564.5 81.5 Q1552 74 1531 63 Q1511 52 1490 42 Q1469 32 1447 23 Q1426 14 1399 6 Q1372 -2 1341.5 -8.5 Q1311 -15 1278.5 -19 Q1246 -23 1215 -23 L1203 -23 Q1060 -23 965 21 Q870 65 817 172 Q766 71 661 24 Q557 -22 434 -22 Z M735 1166 L999 1456 L1317 1456 L963 1166 L735 1166 Z " />
<glyph glyph-name="Oslashacute" unicode="&#x1fe;" horiz-adv-x="1671" d="M687 1596 L951 1886 L1269 1886 L915 1596 L687 1596 Z M800 -23 Q631 -23 496 29 L412 -128 L297 -75 L383 85 Q229 181 147.5 347.5 Q66 514 66 735 Q66 1072 263 1278 Q461 1483 803 1483 Q967 1483 1102 1430 L1180 1575 L1296 1523 L1215 1372 Q1365 1276 1445 1112.5 Q1525 949 1525 735 Q1525 387 1332 182 Q1139 -23 800 -23 Z M602 227 Q684 194 794 194 Q905 194 990 229.5 Q1075 265 1132.5 334 Q1190 403 1219.5 504 Q1249 605 1249 735 Q1249 1024 1101 1160 L602 227 Z M995 1229 Q911 1266 798 1266 Q577 1266 458 1126 Q340 987 340 735 Q340 429 494 293 L995 1229 Z " />
<glyph glyph-name="oslashacute" unicode="&#x1ff;" horiz-adv-x="1271" d="M694 838 Q652 851 604 851 Q533 851 480.5 824 Q428 797 393 751.5 Q358 706 341.5 645.5 Q325 585 326 516 Q326 339 418 247 L694 838 Z M512 190 Q550 177 603 177 Q678 177 731 205 Q784 233 817 280 Q850 327 865 388.5 Q880 450 880 516 Q880 690 788 782 L512 190 Z M608 -23 Q506 -23 424 1 L332 -195 L233 -148 L322 43 Q196 111 132 235 Q68 359 68 513 Q68 625 101.5 720.5 Q135 816 201 891 Q267 966 371 1009 Q475 1052 607 1052 Q703 1052 784 1030 L868 1211 L967 1165 L886 991 Q1012 925 1075 798 Q1138 672 1138 511 Q1138 403 1105 309 Q1072 215 1008 140 Q945 65 841.5 21 Q738 -23 608 -23 Z M495 1166 L759 1456 L1077 1456 L723 1166 L495 1166 Z " />
<glyph glyph-name="uni0200" unicode="&#x200;" horiz-adv-x="1458" d="M625 1582 L416 1926 L120 1926 L438 1582 L625 1582 Z M963 1582 L810 1926 L546 1926 L784 1582 L963 1582 Z M894 592 Q836 763 788 904 Q740 1045 701 1159 Q669 1064 619.5 923 Q570 782 504 592 L894 592 Z M-8 0 L577 1456 L835 1456 L1425 0 L1138 0 L997 355 L409 355 L271 0 L-8 0 Z " />
<glyph glyph-name="uni0201" unicode="&#x201;" horiz-adv-x="1291" d="M586 1152 L377 1496 L81 1496 L399 1152 L586 1152 Z M924 1152 L771 1496 L507 1496 L745 1152 L924 1152 Z M604 177 Q749 177 813 268 Q879 359 879 513 Q879 591 861.5 654 Q844 717 809.5 760.5 Q775 804 722 827.5 Q669 851 599 851 Q460 851 387 760 Q314 669 314 515 Q314 360 387 269 Q461 177 604 177 Z M573 -23 Q447 -23 348.5 22 Q250 67 190 142 Q130 217 99 308.5 Q68 400 68 502 Q68 610 100 706 Q132 802 193 880 Q256 959 356 1005.5 Q456 1052 585 1052 Q770 1052 871 917 L871 1026 L1114 1026 L1114 0 L865 0 L865 140 Q753 -23 573 -23 Z " />
<glyph glyph-name="uni0202" unicode="&#x202;" horiz-adv-x="1458" d="M400 1581 Q410 1738 490 1811 Q570 1884 728 1884 Q886 1884 966 1811 Q1046 1738 1056 1581 L869 1581 Q860 1697 726 1697 Q595 1697 589 1581 L400 1581 Z M894 592 Q836 763 788 904 Q740 1045 701 1159 Q669 1064 619.5 923 Q570 782 504 592 L894 592 Z M-8 0 L577 1456 L835 1456 L1425 0 L1138 0 L997 355 L409 355 L271 0 L-8 0 Z " />
<glyph glyph-name="uni0203" unicode="&#x203;" horiz-adv-x="1291" d="M361 1151 Q371 1308 451 1381 Q531 1454 689 1454 Q847 1454 927 1381 Q1007 1308 1017 1151 L830 1151 Q821 1267 687 1267 Q556 1267 550 1151 L361 1151 Z M604 177 Q749 177 813 268 Q879 359 879 513 Q879 591 861.5 654 Q844 717 809.5 760.5 Q775 804 722 827.5 Q669 851 599 851 Q460 851 387 760 Q314 669 314 515 Q314 360 387 269 Q461 177 604 177 Z M573 -23 Q447 -23 348.5 22 Q250 67 190 142 Q130 217 99 308.5 Q68 400 68 502 Q68 610 100 706 Q132 802 193 880 Q256 959 356 1005.5 Q456 1052 585 1052 Q770 1052 871 917 L871 1026 L1114 1026 L1114 0 L865 0 L865 140 Q753 -23 573 -23 Z " />
<glyph glyph-name="uni0204" unicode="&#x204;" horiz-adv-x="1249" d="M596 1582 L387 1926 L91 1926 L409 1582 L596 1582 Z M934 1582 L781 1926 L517 1926 L755 1582 L934 1582 Z M150 0 L150 1456 L1069 1456 L1069 1238 L404 1238 L404 849 L1033 849 L1033 630 L407 630 L407 218 L1098 218 L1098 0 L150 0 Z " />
<glyph glyph-name="uni0205" unicode="&#x205;" horiz-adv-x="1206" d="M560 1152 L351 1496 L55 1496 L373 1152 L560 1152 Z M898 1152 L745 1496 L481 1496 L719 1152 L898 1152 Z M843 636 Q825 745 762 803 Q699 861 608 861 Q500 861 428.5 801.5 Q357 742 333 636 L843 636 Z M626 -23 Q366 -23 217 125 Q68 274 68 512 Q68 621 103.5 717.5 Q139 814 205 889 Q271 964 371 1008 Q471 1052 594 1052 Q717 1052 807 1010 Q897 968 951 892 Q1005 817 1030 723.5 Q1055 630 1055 515 Q1055 488 1050 471 L330 471 Q333 396 356.5 340.5 Q380 285 421.5 249 Q463 213 520.5 195 Q578 177 649 177 Q815 177 973 287 L1040 107 Q992 74 943.5 49.5 Q895 25 844.5 9 Q794 -7 740 -15 Q686 -23 626 -23 Z " />
<glyph glyph-name="uni0206" unicode="&#x206;" horiz-adv-x="1249" d="M338 1581 Q348 1738 428 1811 Q508 1884 666 1884 Q824 1884 904 1811 Q984 1738 994 1581 L807 1581 Q798 1697 664 1697 Q533 1697 527 1581 L338 1581 Z M150 0 L150 1456 L1069 1456 L1069 1238 L404 1238 L404 849 L1033 849 L1033 630 L407 630 L407 218 L1098 218 L1098 0 L150 0 Z " />
<glyph glyph-name="uni0207" unicode="&#x207;" horiz-adv-x="1206" d="M302 1151 Q312 1308 392 1381 Q472 1454 630 1454 Q788 1454 868 1381 Q948 1308 958 1151 L771 1151 Q762 1267 628 1267 Q497 1267 491 1151 L302 1151 Z M843 636 Q825 745 762 803 Q699 861 608 861 Q500 861 428.5 801.5 Q357 742 333 636 L843 636 Z M626 -23 Q366 -23 217 125 Q68 274 68 512 Q68 621 103.5 717.5 Q139 814 205 889 Q271 964 371 1008 Q471 1052 594 1052 Q717 1052 807 1010 Q897 968 951 892 Q1005 817 1030 723.5 Q1055 630 1055 515 Q1055 488 1050 471 L330 471 Q333 396 356.5 340.5 Q380 285 421.5 249 Q463 213 520.5 195 Q578 177 649 177 Q815 177 973 287 L1040 107 Q992 74 943.5 49.5 Q895 25 844.5 9 Q794 -7 740 -15 Q686 -23 626 -23 Z " />
<glyph glyph-name="uni0208" unicode="&#x208;" horiz-adv-x="586" d="M213 1582 L4 1926 L-292 1926 L26 1582 L213 1582 Z M551 1582 L398 1926 L134 1926 L372 1582 L551 1582 Z M120 0 L120 1456 L374 1456 L374 0 L120 0 Z " />
<glyph glyph-name="uni0209" unicode="&#x209;" horiz-adv-x="485" d="M154 1152 L-55 1496 L-351 1496 L-33 1152 L154 1152 Z M492 1152 L339 1496 L75 1496 L313 1152 L492 1152 Z M63 0 L63 1026 L312 1026 L312 0 L63 0 Z " />
<glyph glyph-name="uni020A" unicode="&#x20a;" horiz-adv-x="586" d="M-45 1581 Q-35 1738 45 1811 Q125 1884 283 1884 Q441 1884 521 1811 Q601 1738 611 1581 L424 1581 Q415 1697 281 1697 Q150 1697 144 1581 L-45 1581 Z M120 0 L120 1456 L374 1456 L374 0 L120 0 Z " />
<glyph glyph-name="uni020B" unicode="&#x20b;" horiz-adv-x="485" d="M-104 1151 Q-94 1308 -14 1381 Q66 1454 224 1454 Q382 1454 462 1381 Q542 1308 552 1151 L365 1151 Q356 1267 222 1267 Q91 1267 85 1151 L-104 1151 Z M63 0 L63 1026 L312 1026 L312 0 L63 0 Z " />
<glyph glyph-name="uni020C" unicode="&#x20c;" horiz-adv-x="1671" d="M764 1582 L555 1926 L259 1926 L577 1582 L764 1582 Z M1102 1582 L949 1926 L685 1926 L923 1582 L1102 1582 Z M800 -23 Q458 -23 262 182 Q66 387 66 735 Q66 1072 263 1278 Q461 1483 803 1483 Q1134 1483 1329 1278 Q1525 1075 1525 735 Q1525 387 1332 182 Q1139 -23 800 -23 Z M794 194 Q905 194 990 229.5 Q1075 265 1132.5 334 Q1190 403 1219.5 504 Q1249 605 1249 735 Q1249 986 1133 1126 Q1017 1266 798 1266 Q577 1266 458 1126 Q340 987 340 735 Q340 474 455 334 Q570 194 794 194 Z " />
<glyph glyph-name="uni020D" unicode="&#x20d;" horiz-adv-x="1286" d="M572 1152 L363 1496 L67 1496 L385 1152 L572 1152 Z M910 1152 L757 1496 L493 1496 L731 1152 L910 1152 Z M608 -23 Q473 -23 369 20 Q265 63 199 138 Q135 213 101.5 308.5 Q68 404 68 513 Q68 625 101.5 720.5 Q135 816 201 891 Q267 966 371 1009 Q475 1052 607 1052 Q742 1052 845.5 1009.5 Q949 967 1012 892 Q1075 817 1106.5 721.5 Q1138 626 1138 511 Q1138 403 1105 309 Q1072 215 1008 140 Q945 65 841.5 21 Q738 -23 608 -23 Z M603 177 Q678 177 731 205 Q784 233 817 280 Q850 327 865 388.5 Q880 450 880 516 Q880 663 810 757 Q741 851 604 851 Q533 851 480.5 824 Q428 797 393 751.5 Q358 706 341.5 645.5 Q325 585 326 516 Q326 424 352 349 Q365 312 388.5 280.5 Q412 249 443.5 226 Q475 203 515 190 Q555 177 603 177 Z " />
<glyph glyph-name="uni020E" unicode="&#x20e;" horiz-adv-x="1671" d="M506 1581 Q516 1738 596 1811 Q676 1884 834 1884 Q992 1884 1072 1811 Q1152 1738 1162 1581 L975 1581 Q966 1697 832 1697 Q701 1697 695 1581 L506 1581 Z M800 -23 Q458 -23 262 182 Q66 387 66 735 Q66 1072 263 1278 Q461 1483 803 1483 Q1134 1483 1329 1278 Q1525 1075 1525 735 Q1525 387 1332 182 Q1139 -23 800 -23 Z M794 194 Q905 194 990 229.5 Q1075 265 1132.5 334 Q1190 403 1219.5 504 Q1249 605 1249 735 Q1249 986 1133 1126 Q1017 1266 798 1266 Q577 1266 458 1126 Q340 987 340 735 Q340 474 455 334 Q570 194 794 194 Z " />
<glyph glyph-name="uni020F" unicode="&#x20f;" horiz-adv-x="1286" d="M314 1151 Q324 1308 404 1381 Q484 1454 642 1454 Q800 1454 880 1381 Q960 1308 970 1151 L783 1151 Q774 1267 640 1267 Q509 1267 503 1151 L314 1151 Z M608 -23 Q473 -23 369 20 Q265 63 199 138 Q135 213 101.5 308.5 Q68 404 68 513 Q68 625 101.5 720.5 Q135 816 201 891 Q267 966 371 1009 Q475 1052 607 1052 Q742 1052 845.5 1009.5 Q949 967 1012 892 Q1075 817 1106.5 721.5 Q1138 626 1138 511 Q1138 403 1105 309 Q1072 215 1008 140 Q945 65 841.5 21 Q738 -23 608 -23 Z M603 177 Q678 177 731 205 Q784 233 817 280 Q850 327 865 388.5 Q880 450 880 516 Q880 663 810 757 Q741 851 604 851 Q533 851 480.5 824 Q428 797 393 751.5 Q358 706 341.5 645.5 Q325 585 326 516 Q326 424 352 349 Q365 312 388.5 280.5 Q412 249 443.5 226 Q475 203 515 190 Q555 177 603 177 Z " />
<glyph glyph-name="uni0210" unicode="&#x210;" horiz-adv-x="1388" d="M588 1582 L379 1926 L83 1926 L401 1582 L588 1582 Z M926 1582 L773 1926 L509 1926 L747 1582 L926 1582 Z M401 831 L644 831 Q916 831 916 1042 Q916 1156 859 1197 Q801 1238 671 1238 L401 1238 L401 831 Z M150 0 L150 1456 L675 1456 Q795 1456 882.5 1438 Q970 1420 1041 1376 Q1184 1290 1184 1054 Q1184 930 1111 836 Q1038 742 891 709 Q1023 635 1084 481 L1281 0 L1006 0 L839 433 Q798 540 750 578 Q701 616 605 616 L404 616 L404 0 L150 0 Z " />
<glyph glyph-name="uni0211" unicode="&#x211;" horiz-adv-x="780" d="M365 1152 L156 1496 L-140 1496 L178 1152 L365 1152 Z M703 1152 L550 1496 L286 1496 L524 1152 L703 1152 Z M122 0 L122 766 Q122 796 120.5 827.5 Q119 859 117 891 Q115 923 112 948.5 Q109 974 107 991 L102 1026 L366 1026 L366 891 Q427 972 487.5 1012 Q548 1052 624 1052 Q669 1052 726 1037 L726 820 Q660 842 602 842 Q498 842 434 775 Q369 707 369 581 L369 0 L122 0 Z " />
<glyph glyph-name="uni0212" unicode="&#x212;" horiz-adv-x="1388" d="M330 1581 Q340 1738 420 1811 Q500 1884 658 1884 Q816 1884 896 1811 Q976 1738 986 1581 L799 1581 Q790 1697 656 1697 Q525 1697 519 1581 L330 1581 Z M401 831 L644 831 Q916 831 916 1042 Q916 1156 859 1197 Q801 1238 671 1238 L401 1238 L401 831 Z M150 0 L150 1456 L675 1456 Q795 1456 882.5 1438 Q970 1420 1041 1376 Q1184 1290 1184 1054 Q1184 930 1111 836 Q1038 742 891 709 Q1023 635 1084 481 L1281 0 L1006 0 L839 433 Q798 540 750 578 Q701 616 605 616 L404 616 L404 0 L150 0 Z " />
<glyph glyph-name="uni0213" unicode="&#x213;" horiz-adv-x="780" d="M107 1151 Q117 1308 197 1381 Q277 1454 435 1454 Q593 1454 673 1381 Q753 1308 763 1151 L576 1151 Q567 1267 433 1267 Q302 1267 296 1151 L107 1151 Z M122 0 L122 766 Q122 796 120.5 827.5 Q119 859 117 891 Q115 923 112 948.5 Q109 974 107 991 L102 1026 L366 1026 L366 891 Q427 972 487.5 1012 Q548 1052 624 1052 Q669 1052 726 1037 L726 820 Q660 842 602 842 Q498 842 434 775 Q369 707 369 581 L369 0 L122 0 Z " />
<glyph glyph-name="uni0214" unicode="&#x214;" horiz-adv-x="1509" d="M672 1582 L463 1926 L167 1926 L485 1582 L672 1582 Z M1010 1582 L857 1926 L593 1926 L831 1582 L1010 1582 Z M715 -23 Q574 -23 469 11 Q364 45 298 100 Q235 154 194 238 Q174 280 160.5 321.5 Q147 363 139 407 Q131 451 127.5 498.5 Q124 546 124 599 L124 1456 L378 1456 L378 588 Q378 472 404 396 Q430 320 475 275 Q520 230 581.5 212 Q643 194 714 194 Q790 194 848 213 Q906 232 954 275 Q1002 320 1026.5 398.5 Q1051 477 1051 589 L1051 1456 L1305 1456 L1305 598 Q1305 493 1291 408 Q1277 323 1237 240 Q1197 155 1134 101 Q1070 44 964 10.5 Q858 -23 715 -23 Z " />
<glyph glyph-name="uni0215" unicode="&#x215;" horiz-adv-x="1186" d="M528 1152 L319 1496 L23 1496 L341 1152 L528 1152 Z M866 1152 L713 1496 L449 1496 L687 1152 L866 1152 Z M484 -23 Q297 -23 194 83 Q90 190 90 376 L90 1026 L336 1026 L336 380 Q336 277 388.5 227 Q441 177 535 177 Q646 177 699.5 232.5 Q753 288 753 411 L753 1026 L1001 1026 L1001 276 L1013 0 L757 0 L753 152 Q748 130 730.5 103.5 Q713 77 682 47 Q652 17 599.5 -3 Q547 -23 484 -23 Z " />
<glyph glyph-name="uni0216" unicode="&#x216;" horiz-adv-x="1509" d="M414 1581 Q424 1738 504 1811 Q584 1884 742 1884 Q900 1884 980 1811 Q1060 1738 1070 1581 L883 1581 Q874 1697 740 1697 Q609 1697 603 1581 L414 1581 Z M715 -23 Q574 -23 469 11 Q364 45 298 100 Q235 154 194 238 Q174 280 160.5 321.5 Q147 363 139 407 Q131 451 127.5 498.5 Q124 546 124 599 L124 1456 L378 1456 L378 588 Q378 472 404 396 Q430 320 475 275 Q520 230 581.5 212 Q643 194 714 194 Q790 194 848 213 Q906 232 954 275 Q1002 320 1026.5 398.5 Q1051 477 1051 589 L1051 1456 L1305 1456 L1305 598 Q1305 493 1291 408 Q1277 323 1237 240 Q1197 155 1134 101 Q1070 44 964 10.5 Q858 -23 715 -23 Z " />
<glyph glyph-name="uni0217" unicode="&#x217;" horiz-adv-x="1186" d="M270 1151 Q280 1308 360 1381 Q440 1454 598 1454 Q756 1454 836 1381 Q916 1308 926 1151 L739 1151 Q730 1267 596 1267 Q465 1267 459 1151 L270 1151 Z M484 -23 Q297 -23 194 83 Q90 190 90 376 L90 1026 L336 1026 L336 380 Q336 277 388.5 227 Q441 177 535 177 Q646 177 699.5 232.5 Q753 288 753 411 L753 1026 L1001 1026 L1001 276 L1013 0 L757 0 L753 152 Q748 130 730.5 103.5 Q713 77 682 47 Q652 17 599.5 -3 Q547 -23 484 -23 Z " />
<glyph glyph-name="Scommaaccent" unicode="&#x218;" horiz-adv-x="1256" d="M400 -647 L513 -142 L792 -142 L612 -647 L400 -647 Z M583 -23 Q435 -23 294 21 Q155 64 75 143 L183 325 Q253 270 367 232 Q483 194 567 194 Q703 194 767 243.5 Q831 293 831 396 Q831 416 830 431.5 Q829 447 825 460.5 Q821 474 814.5 486 Q808 498 798 511 Q777 538 735.5 560.5 Q694 583 624 608 Q594 618 522 641 Q487 652 461 661 Q435 670 418 676 Q239 743 157 836 Q76 929 76 1087 Q76 1215 143 1306 Q212 1397 323 1440 Q434 1483 579 1483 Q773 1483 882 1445 Q988 1408 1086 1315 L956 1147 Q833 1264 615 1264 Q497 1264 421 1223 Q347 1182 347 1098 Q347 1059 354 1030.5 Q361 1002 383.5 978 Q406 954 448 932 Q490 910 560 885 Q573 880 598.5 871.5 Q624 863 664 850 Q704 837 733.5 827.5 Q763 818 783 810 Q873 775 934.5 734 Q996 693 1031 647 Q1101 556 1101 391 Q1101 282 1058.5 200 Q1016 118 941 70 Q866 22 777 -0.5 Q688 -23 583 -23 Z " />
<glyph glyph-name="scommaaccent" unicode="&#x219;" horiz-adv-x="988" d="M288 -647 L401 -142 L680 -142 L500 -647 L288 -647 Z M494 -23 Q360 -23 246 15 Q189 34 144.5 57 Q100 80 66 106 L128 284 Q191 234 287 203 Q381 172 472 172 Q556 172 598 200 Q640 228 640 291 L640 309 Q640 341 615 363 Q602 374 573.5 387.5 Q545 401 500 415 L354 462 Q326 471 303.5 479 Q281 487 261 495.5 Q241 504 222.5 513.5 Q204 523 185 535 Q130 569 105 619.5 Q80 670 77 753 Q77 831 107.5 890 Q138 949 192 983 Q299 1050 457 1050 Q556 1050 653 1025 Q750 1000 825 951 L761 781 Q701 812 620 835 Q542 857 475 857 Q390 857 352 836 Q314 815 314 767 Q315 743 320.5 727.5 Q326 712 344 698.5 Q362 685 398.5 670 Q435 655 498 633 L631 588 Q710 561 759 529 Q808 497 837.5 438.5 Q867 380 867 290 Q867 201 833 141 Q799 81 745 44.5 Q691 8 624.5 -7.5 Q558 -23 494 -23 Z " />
<glyph glyph-name="uni021A" unicode="&#x21a;" horiz-adv-x="1181" d="M361 -647 L474 -142 L753 -142 L573 -647 L361 -647 Z M430 0 L430 1238 L-19 1238 L-19 1456 L1140 1456 L1140 1238 L684 1238 L684 0 L430 0 Z " />
<glyph glyph-name="uni021B" unicode="&#x21b;" horiz-adv-x="804" d="M208 -647 L321 -142 L600 -142 L420 -647 L208 -647 Z M728 1 L628 1 Q567 1 524 4 Q479 7 433 17 Q387 27 354 43 Q319 61 291.5 88.5 Q264 116 245 155.5 Q226 195 215.5 249.5 Q205 304 205 376 L205 860 L-9 860 L-9 1026 L215 1026 L215 1266 L452 1339 L452 1026 L720 1026 L720 860 L452 860 L452 361 Q452 313 459.5 283.5 Q467 254 482 234 Q496 215 532 206 Q568 197 610 194 Q652 191 728 191 L728 1 Z " />
<glyph glyph-name="uni021E" unicode="&#x21e;" horiz-adv-x="1572" d="M613 1615 L332 1982 L586 1982 L705 1837 L828 1982 L1094 1982 L815 1615 L613 1615 Z M150 0 L150 1456 L404 1456 L404 857 L1087 857 L1087 1456 L1341 1456 L1341 0 L1092 0 L1092 637 L409 637 L409 0 L150 0 Z " />
<glyph glyph-name="uni021F" unicode="&#x21f;" horiz-adv-x="1219" d="M104 0 L104 1457 L352 1457 L352 893 Q390 965 482 1008 Q576 1052 659 1052 Q769 1052 841.5 1016 Q914 980 957 921 Q987 881 1004 840 Q1021 799 1031 748 Q1042 697 1045.5 656.5 Q1049 616 1049 571 L1049 0 L801 0 L801 579 Q801 724 756 787.5 Q711 851 621 851 Q520 851 435 780 Q352 709 352 618 L352 0 L104 0 Z M632 1185 L351 1552 L605 1552 L724 1407 L847 1552 L1113 1552 L834 1185 L632 1185 Z " />
<glyph glyph-name="uni0226" unicode="&#x226;" horiz-adv-x="1458" d="M576 1596 L576 1824 L822 1824 L822 1596 L576 1596 Z M894 592 Q836 763 788 904 Q740 1045 701 1159 Q669 1064 619.5 923 Q570 782 504 592 L894 592 Z M-8 0 L577 1456 L835 1456 L1425 0 L1138 0 L997 355 L409 355 L271 0 L-8 0 Z " />
<glyph glyph-name="uni0227" unicode="&#x227;" horiz-adv-x="1291" d="M538 1166 L538 1394 L784 1394 L784 1166 L538 1166 Z M604 177 Q749 177 813 268 Q879 359 879 513 Q879 591 861.5 654 Q844 717 809.5 760.5 Q775 804 722 827.5 Q669 851 599 851 Q460 851 387 760 Q314 669 314 515 Q314 360 387 269 Q461 177 604 177 Z M573 -23 Q447 -23 348.5 22 Q250 67 190 142 Q130 217 99 308.5 Q68 400 68 502 Q68 610 100 706 Q132 802 193 880 Q256 959 356 1005.5 Q456 1052 585 1052 Q770 1052 871 917 L871 1026 L1114 1026 L1114 0 L865 0 L865 140 Q753 -23 573 -23 Z " />
<glyph glyph-name="uni0228" unicode="&#x228;" horiz-adv-x="1249" d="M426 -294 Q442 -301 463.5 -308 Q485 -315 508 -320 Q531 -325 555 -328.5 Q579 -332 600 -332 Q701 -332 701 -259 Q701 -163 548 -140 L519 -136 L550 39 L674 39 L657 -75 Q764 -82 822 -143 Q879 -203 879 -283 Q879 -337 859.5 -375 Q840 -413 807 -437.5 Q774 -462 730.5 -473.5 Q687 -485 639 -485 Q519 -485 415 -426 L426 -294 Z M150 0 L150 1456 L1069 1456 L1069 1238 L404 1238 L404 849 L1033 849 L1033 630 L407 630 L407 218 L1098 218 L1098 0 L150 0 Z " />
<glyph glyph-name="uni0229" unicode="&#x229;" horiz-adv-x="1206" d="M843 636 Q825 745 762 803 Q699 861 608 861 Q500 861 428.5 801.5 Q357 742 333 636 L843 636 Z M626 -23 Q366 -23 217 125 Q68 274 68 512 Q68 621 103.5 717.5 Q139 814 205 889 Q271 964 371 1008 Q471 1052 594 1052 Q717 1052 807 1010 Q897 968 951 892 Q1005 817 1030 723.5 Q1055 630 1055 515 Q1055 488 1050 471 L330 471 Q333 396 356.5 340.5 Q380 285 421.5 249 Q463 213 520.5 195 Q578 177 649 177 Q815 177 973 287 L1040 107 Q992 74 943.5 49.5 Q895 25 844.5 9 Q794 -7 740 -15 Q686 -23 626 -23 Z M436 -294 Q452 -301 473.5 -308 Q495 -315 518 -320 Q541 -325 565 -328.5 Q589 -332 610 -332 Q711 -332 711 -259 Q711 -163 558 -140 L529 -136 L560 39 L684 39 L667 -75 Q774 -82 832 -143 Q889 -203 889 -283 Q889 -337 869.5 -375 Q850 -413 817 -437.5 Q784 -462 740.5 -473.5 Q697 -485 649 -485 Q529 -485 425 -426 L436 -294 Z " />
<glyph glyph-name="uni022E" unicode="&#x22e;" horiz-adv-x="1671" d="M683 1596 L683 1824 L929 1824 L929 1596 L683 1596 Z M800 -23 Q458 -23 262 182 Q66 387 66 735 Q66 1072 263 1278 Q461 1483 803 1483 Q1134 1483 1329 1278 Q1525 1075 1525 735 Q1525 387 1332 182 Q1139 -23 800 -23 Z M794 194 Q905 194 990 229.5 Q1075 265 1132.5 334 Q1190 403 1219.5 504 Q1249 605 1249 735 Q1249 986 1133 1126 Q1017 1266 798 1266 Q577 1266 458 1126 Q340 987 340 735 Q340 474 455 334 Q570 194 794 194 Z " />
<glyph glyph-name="uni022F" unicode="&#x22f;" horiz-adv-x="1286" d="M608 -23 Q473 -23 369 20 Q265 63 199 138 Q135 213 101.5 308.5 Q68 404 68 513 Q68 625 101.5 720.5 Q135 816 201 891 Q267 966 371 1009 Q475 1052 607 1052 Q742 1052 845.5 1009.5 Q949 967 1012 892 Q1075 817 1106.5 721.5 Q1138 626 1138 511 Q1138 403 1105 309 Q1072 215 1008 140 Q945 65 841.5 21 Q738 -23 608 -23 Z M603 177 Q678 177 731 205 Q784 233 817 280 Q850 327 865 388.5 Q880 450 880 516 Q880 663 810 757 Q741 851 604 851 Q533 851 480.5 824 Q428 797 393 751.5 Q358 706 341.5 645.5 Q325 585 326 516 Q326 424 352 349 Q365 312 388.5 280.5 Q412 249 443.5 226 Q475 203 515 190 Q555 177 603 177 Z M491 1166 L491 1394 L737 1394 L737 1166 L491 1166 Z " />
<glyph glyph-name="uni0232" unicode="&#x232;" horiz-adv-x="1280" d="M311 1576 L311 1733 L935 1733 L935 1576 L311 1576 Z M465 0 L465 563 L-54 1456 L235 1456 L596 789 L954 1456 L1250 1456 L719 564 L719 0 L465 0 Z " />
<glyph glyph-name="uni0233" unicode="&#x233;" horiz-adv-x="1114" d="M110 -277 Q250 -223 318 -165 Q388 -109 412 -27 L426 23 L-10 1026 L248 1026 L545 290 L801 1026 L1054 1026 L638 -56 Q594 -164 525 -243 Q455 -325 379 -371 Q303 -417 214 -445 L110 -277 Z M249 1146 L249 1303 L873 1303 L873 1146 L249 1146 Z " />
<glyph glyph-name="uni0237" unicode="&#x237;" horiz-adv-x="600" d="M100 -362 Q73 -362 47 -360 Q21 -358 -1 -355 Q-23 -352 -40 -348.5 Q-57 -345 -66 -342 L-85 -335 L-57 -165 Q3 -184 86 -184 Q122 -184 144 -177.5 Q166 -171 184 -150 Q202 -129 210 -88 Q218 -47 218 20 L218 1026 L471 1026 L471 -9 Q471 -99 454.5 -161 Q438 -223 397 -270 Q357 -318 284 -340 Q211 -362 100 -362 Z M-57 -165 L-60 -164 L-57 -164 L-57 -165 Z " />
<glyph glyph-name="afii57929" unicode="&#x2bc;" horiz-adv-x="600" d="M24 1247 L122 1817 L402 1817 L206 1247 L24 1247 Z " />
<glyph glyph-name="circumflex" unicode="&#x2c6;" horiz-adv-x="699" d="M-77 1185 L180 1555 L432 1555 L697 1185 L450 1185 L314 1381 L175 1185 L-77 1185 Z " />
<glyph glyph-name="caron" unicode="&#x2c7;" horiz-adv-x="699" d="M210 1185 L-71 1552 L183 1552 L302 1407 L425 1552 L691 1552 L412 1185 L210 1185 Z " />
<glyph glyph-name="uni02C9" unicode="&#x2c9;" horiz-adv-x="600" d="M-50 1339 L636 1339 L636 1506 L-50 1506 L-50 1339 Z " />
<glyph glyph-name="breve" unicode="&#x2d8;" horiz-adv-x="700" d="M312 1160 Q10 1160 -10 1456 L164 1456 Q170 1380 215 1355 Q238 1343 260 1338.5 Q282 1334 312 1334 Q343 1334 368.5 1339.5 Q394 1345 413 1358.5 Q432 1372 443.5 1396 Q455 1420 458 1456 L631 1456 Q620 1302 539.5 1231 Q459 1160 312 1160 Z " />
<glyph glyph-name="dotaccent" unicode="&#x2d9;" horiz-adv-x="524" d="M88 1166 L88 1394 L334 1394 L334 1166 L88 1166 Z " />
<glyph glyph-name="ring" unicode="&#x2da;" horiz-adv-x="700" d="M298 1153 Q206 1153 142 1214 Q78 1275 78 1366 Q78 1458 141 1518 Q205 1579 298 1579 Q390 1579 454 1518 Q519 1458 519 1366 Q519 1276 454 1214 Q390 1153 298 1153 Z M299 1257 Q342 1257 374 1289 Q406 1321 406 1366 Q406 1410 374 1442 Q342 1474 299 1474 Q277 1474 257.5 1465.5 Q238 1457 224 1442.5 Q210 1428 201.5 1408 Q193 1388 193 1366 Q193 1320 224 1289 Q256 1257 299 1257 Z " />
<glyph glyph-name="ogonek" unicode="&#x2db;" horiz-adv-x="508" d="M194 -356 Q94 -356 38 -324.5 Q-18 -293 -18 -227 Q-18 -200 -10 -175.5 Q-2 -151 9 -132 Q20 -113 40 -93.5 Q60 -74 75 -62 Q83 -56 94 -49 Q105 -42 116.5 -35 Q128 -28 138.5 -22 Q149 -16 156 -13 L194 6 L226 21 L361 23 Q326 3 298.5 -20 Q271 -43 252 -67 Q233 -91 222.5 -114.5 Q212 -138 212 -157 Q212 -204 275 -204 Q328 -204 448 -167 L448 -315 Q311 -356 194 -356 Z " />
<glyph glyph-name="tilde" unicode="&#x2dc;" horiz-adv-x="739" d="M474 1174 Q431 1174 373 1201 Q344 1215 316 1228 Q288 1241 262 1254 Q209 1281 186 1281 Q164 1281 143.5 1256 Q123 1231 118 1179 L-42 1179 Q-42 1307 18 1388 Q79 1470 176 1470 Q213 1472 257 1456 Q301 1440 341.5 1419.5 Q382 1399 414.5 1381.5 Q447 1364 461 1363 Q464 1363 469 1362.5 Q474 1362 476 1362 Q506 1362 522.5 1384.5 Q539 1407 538 1470 L700 1470 Q700 1322 640 1248.5 Q580 1175 475 1174 L474 1174 Z " />
<glyph glyph-name="hungarumlaut" unicode="&#x2dd;" horiz-adv-x="969" d="M367 1152 L576 1496 L872 1496 L554 1152 L367 1152 Z M29 1152 L182 1496 L446 1496 L208 1152 L29 1152 Z " />
<glyph glyph-name="uni0307" unicode="&#x307;" horiz-adv-x="524" d="M136 1153 L136 1386 L388 1386 L388 1153 L136 1153 Z " />
<glyph glyph-name="uni030F" unicode="&#x30f;" horiz-adv-x="969" d="M561 1152 L352 1496 L56 1496 L374 1152 L561 1152 Z M899 1152 L746 1496 L482 1496 L720 1152 L899 1152 Z " />
<glyph glyph-name="uni0311" unicode="&#x311;" horiz-adv-x="629" d="M-14 1151 Q-4 1308 76 1381 Q156 1454 314 1454 Q472 1454 552 1381 Q632 1308 642 1151 L455 1151 Q446 1267 312 1267 Q181 1267 175 1151 L-14 1151 Z " />
<glyph glyph-name="uni0312" unicode="&#x312;" horiz-adv-x="600" d="M582 1736 L470 1239 L192 1239 L372 1736 L582 1736 Z " />
<glyph glyph-name="uni0326" unicode="&#x326;" horiz-adv-x="540" d="M74 -647 L187 -142 L466 -142 L286 -647 L74 -647 Z " />
<glyph glyph-name="uni0358" unicode="&#x358;" horiz-adv-x="524" d="M136 1153 L136 1386 L388 1386 L388 1153 L136 1153 Z " />
<glyph glyph-name="uni0394" unicode="&#x394;" horiz-adv-x="1502" d="M322 217 L1122 217 L710 1159 L322 217 Z M61 0 L61 219 L611 1456 L882 1456 L1436 234 L1436 0 L61 0 Z " />
<glyph glyph-name="Sigma" unicode="&#x3a3;" horiz-adv-x="1262" d="M82 -267 L82 -134 L601 604 L104 1328 L104 1456 L1170 1456 L1170 1252 L477 1252 L906 606 L464 -55 L1212 -55 L1212 -267 L82 -267 Z " />
<glyph glyph-name="uni03A9" unicode="&#x3a9;" horiz-adv-x="1603" d="M70 0 L48 211 L365 208 Q290 266 237.5 329.5 Q185 393 154 465 Q92 609 92 811 Q92 1012 183 1164 Q274 1317 434 1398 Q594 1479 796 1479 Q947 1479 1076 1433.5 Q1205 1388 1302 1303 Q1399 1219 1454 1093.5 Q1509 968 1509 814 Q1509 608 1449 466 Q1390 323 1239 208 L1566 211 L1541 0 L915 0 L915 170 Q1062 262 1153 418 Q1243 572 1243 769 Q1243 788 1242 807.5 Q1241 827 1239 847 Q1235 887 1222.5 938 Q1210 989 1190 1034 Q1168 1082 1135 1125.5 Q1102 1169 1055 1202 Q1008 1235 944.5 1254.5 Q881 1274 798 1274 Q734 1274 682 1262.5 Q630 1251 588.5 1230.5 Q547 1210 514.5 1182 Q482 1154 458 1121 Q424 1075 405.5 1030 Q387 985 376 933 Q365 881 361.5 843 Q358 805 358 768 Q358 573 449 419 Q541 263 688 170 L688 0 L70 0 Z " />
<glyph glyph-name="uni03BC" unicode="&#x3bc;" horiz-adv-x="1230" d="M801 1082 L1108 1082 L1108 0 L844 0 L829 152 Q720 -20 503 -20 Q484 -20 467 -18.5 Q450 -17 433 -15 L433 -316 L127 -316 L127 1082 L433 1082 L433 440 Q433 370 442.5 320.5 Q452 271 472 240 Q492 209 523.5 194.5 Q555 180 599 180 Q723 180 801 285 L801 1082 Z " />
<glyph glyph-name="pi" unicode="&#x3c0;" horiz-adv-x="1477" d="M1107 -13 Q992 -13 928 36 Q864 85 864 211 Q864 314 885 515 Q906 715 933 861 L597 861 L571 323 Q569 278 563.5 243 Q558 208 548 180 Q531 127 483 82 Q437 40 355.5 22 Q274 4 145 4 L145 111 Q172 111 208 124 Q244 137 278.5 168.5 Q313 200 340.5 253.5 Q368 307 379 388 L443 861 L360 861 Q248 859 229 730 L133 730 Q133 903 204 992 Q274 1082 444 1082 L1332 1082 L1332 861 L1096 861 Q1078 597 1078 238 Q1078 191 1106.5 174 Q1135 157 1185 157 Q1242 157 1284 172 L1284 44 Q1225 -13 1107 -13 Z " />
<glyph glyph-name="uni1E02" unicode="&#x1e02;" horiz-adv-x="1367" d="M492 1596 L492 1824 L738 1824 L738 1596 L492 1596 Z M404 852 L621 852 Q672 852 715 861.5 Q758 871 796 893 Q835 915 857 954.5 Q879 994 879 1051 Q879 1159 804 1198 Q730 1238 568 1238 L404 1238 L404 852 Z M407 217 L636 217 Q943 217 943 422 Q943 550 874 598 Q806 646 630 646 L407 646 L407 217 Z M150 0 L150 1456 L553 1456 Q616 1456 666 1453 Q691 1452 719.5 1449.5 Q748 1447 780 1442 Q844 1434 894 1418 Q918 1410 943.5 1399.5 Q969 1389 993 1375 Q1017 1361 1038 1344 Q1059 1327 1075 1308 Q1108 1270 1128.5 1212.5 Q1149 1155 1149 1083 Q1149 866 956 772 Q1086 737 1151 640 Q1216 543 1216 411 Q1216 327 1183 255 Q1150 183 1086 125 Q1022 67 918 33.5 Q814 0 681 0 L150 0 Z " />
<glyph glyph-name="uni1E03" unicode="&#x1e03;" horiz-adv-x="1291" d="M601 1166 L601 1394 L847 1394 L847 1166 L601 1166 Z M618 177 Q689 177 739.5 205 Q790 233 822 279.5 Q854 326 869 386 Q884 446 884 511 Q884 659 818 755 Q752 851 626 851 Q494 851 418 754 Q341 657 341 515 Q341 425 370 349 Q385 312 408.5 280.5 Q432 249 463.5 226 Q495 203 534 190 Q573 177 618 177 Z M664 -23 Q562 -23 476 21 Q392 66 355 127 L355 0 L101 0 L108 196 Q109 215 109.5 227.5 Q110 240 110 248 Q110 256 110 261.5 Q110 267 110 272 L110 1457 L356 1457 L356 882 Q361 900 381 926 Q401 952 437 981 Q474 1011 537.5 1031.5 Q601 1052 677 1052 Q893 1052 1018 903 Q1143 754 1143 518 Q1143 400 1105 298 Q1067 196 1001 126 Q935 56 848 16.5 Q761 -23 664 -23 Z " />
<glyph glyph-name="uni1E0A" unicode="&#x1e0a;" horiz-adv-x="1571" d="M584 1596 L584 1824 L830 1824 L830 1596 L584 1596 Z M150 0 L150 1456 L556 1456 Q775 1456 938 1409 Q1101 1362 1209 1270.5 Q1317 1179 1371 1045 Q1425 911 1425 737 Q1425 557 1371.5 419 Q1318 281 1213.5 188 Q1109 95 954 47.5 Q799 0 597 0 L150 0 Z M404 218 L610 218 Q874 218 1015 350 Q1156 482 1156 738 Q1156 981 1013.5 1109.5 Q871 1238 579 1238 L404 1238 L404 218 Z " />
<glyph glyph-name="uni1E0B" unicode="&#x1e0b;" horiz-adv-x="1267" d="M417 1166 L417 1394 L663 1394 L663 1166 L417 1166 Z M587 177 Q657 177 706 205 Q755 233 786 280 Q817 327 831 387 Q845 447 845 512 Q845 661 780 756 Q715 851 585 851 Q499 851 438 804 Q378 756 353 684 Q328 612 328 516 Q328 450 342 388.5 Q356 327 387 280 Q418 233 467 205 Q516 177 587 177 Z M536 -23 Q337 -23 202 123 Q68 269 68 508 Q68 617 99 714 Q130 811 188 887 Q248 963 342.5 1007.5 Q437 1052 555 1052 Q660 1052 734 1008 Q809 964 837 918 L837 1457 L1083 1457 L1083 274 Q1083 268 1092 0 L838 0 L836 131 Q827 108 806 84 Q785 60 750 34 Q715 9 659 -7 Q603 -23 536 -23 Z " />
<glyph glyph-name="uni1E1E" unicode="&#x1e1e;" horiz-adv-x="1145" d="M492 1596 L492 1824 L738 1824 L738 1596 L492 1596 Z M150 0 L150 1456 L1039 1456 L1039 1238 L404 1238 L404 841 L1002 841 L1002 622 L404 622 L404 0 L150 0 Z " />
<glyph glyph-name="uni1E1F" unicode="&#x1e1f;" horiz-adv-x="820" d="M221 0 L221 860 L30 860 L30 1026 L221 1026 L221 1066 Q221 1135 224 1182 Q225 1205 228.5 1229 Q232 1253 237 1276 Q242 1299 249 1319 Q256 1339 265 1354 Q284 1384 315.5 1411.5 Q347 1439 393 1453 Q439 1468 503.5 1476.5 Q568 1485 653 1485 L706 1485 L697 1292 Q668 1292 645.5 1291.5 Q623 1291 606 1290 Q573 1288 544.5 1278.5 Q516 1269 503 1256 Q490 1245 481 1215 Q472 1187 470 1155.5 Q468 1124 468 1069 L468 1026 L699 1026 L699 860 L468 860 L468 0 L221 0 Z M218 1596 L218 1824 L464 1824 L464 1596 L218 1596 Z " />
<glyph glyph-name="uni1E40" unicode="&#x1e40;" horiz-adv-x="1987" d="M835 1596 L835 1824 L1081 1824 L1081 1596 L835 1596 Z M150 0 L150 1456 L448 1456 L667 967 Q762 756 834 596.5 Q906 437 957 326 Q995 410 1034.5 497 Q1074 584 1115 676 Q1157 769 1203 875 Q1249 981 1303 1103 Q1357 1225 1395.5 1313 Q1434 1401 1459 1456 L1757 1456 L1757 0 L1519 0 L1519 1040 Q1493 982 1375.5 722.5 Q1258 463 1050 0 L863 0 Q837 57 801 137.5 Q765 218 717 323 Q670 428 627.5 522.5 Q585 617 545 703.5 Q505 790 468 869 Q431 948 395 1023 L395 0 L150 0 Z " />
</font>
</svg>
