<svg baseProfile="tiny" xmlns="http://www.w3.org/2000/svg" viewBox="0 0 289.2 78.2"><path fill="#FFCD05" d="M196.4 61.7c-2.4-2.5-1-7.6.3-13.3l4.1-19.4h17l3.1-14.5h-17l3-14.4h-16l-10.5 49.7c-1.6 7.4-2.2 13.2 1 19.5 3 5.8 13.2 11.4 26.2 7.9l2.9-13.4c-8.8.9-12.3-.2-14.1-2.1m-135.7-61.7l-7.7 35.9h-28.1l7.6-35.9h-16.1l-16.4 77h16.2l5.6-26.7h28.2l-5.7 26.7h16l16.4-77h-16zm92.4 19.9c-5.6 4.7-8.8 10.8-10.9 20.5l-7.8 36.6h16l6.5-30.4c1.5-7.1 2.7-11.6 5.4-14.3 3.7-3.8 9-4 15.4-3.4l3.1-14.5c-11.3-2.8-21.2 0-27.7 5.5m125.2-5.5h-50.1l-3.1 14.5h29.1l-36.3 34.2-3 13.9h50.1l3.1-14.5h-29.2l36.5-34.4 2.9-13.7zm-169-1.1c-5.4 0-12.8 1.7-20.1 7.4-16.5 12.9-24.6 57.5 10.6 57.5 9.1 0 19.3-2.9 26.4-8.2l-6.4-10.8c-5.3 4.1-32.2 13-29.4-8.8h42s5.4-17.5-2.3-28c-6.5-8.9-18.6-9.1-20.8-9.1m10.4 23.9h-25.7c.9-3.5 6.4-12 16.5-11.1 10.9 1 9.2 11.1 9.2 11.1m162.8 24.4c-4.7 0-9.2 3.8-10.1 8.4-.1.6-.2 1.2-.2 1.8 0 3.7 2.7 6.5 6.7 6.5 4.7 0 9.1-3.8 10.1-8.4.1-.6.2-1.2.2-1.7 0-3.8-2.7-6.6-6.7-6.6m5.3 8.1c-.8 4-5 7.5-9 7.4-3.5-.1-5.5-2.2-5.6-5.4 0-.5.1-1 .2-1.5.8-4 4.9-7.4 8.9-7.4 3.6.1 5.6 2.2 5.7 5.4 0 .4 0 .9-.2 1.5m-6-3.8h-3.5l-1.7 8h1.8l.5-2.6h1.4l1.1 2.6h2.1l-1.3-2.8c1.1-.4 2-1.2 2.3-2.5.2-1.7-.8-2.7-2.7-2.7m.8 2.8c-.2.7-.7 1.2-1.6 1.2h-1.7l.5-2.3h1.7c.8-.1 1.2.3 1.1 1.1"/></svg>